<svg width="286" height="243" viewBox="0 0 286 243" fill="none" xmlns="http://www.w3.org/2000/svg">
<g filter="url(#filter0_d_0_123)">
<rect x="13" y="10" width="259.907" height="217.208" rx="12.3765" fill="white"/>
<rect x="13.3094" y="10.3094" width="259.288" height="216.589" rx="12.0671" stroke="#F8F9FA" stroke-width="0.618825"/>
</g>
<rect x="29.0898" y="175.844" width="227.728" height="0.618825" fill="#EDF2F6"/>
<path d="M173.657 211.951C173.657 212.24 173.585 212.511 173.44 212.765C173.302 213.019 173.094 213.233 172.817 213.406C172.545 213.58 172.222 213.683 171.846 213.718V214.42H171.283V213.718C170.74 213.666 170.301 213.496 169.966 213.207C169.631 212.918 169.464 212.537 169.464 212.063H170.521C170.538 212.289 170.61 212.476 170.737 212.627C170.864 212.771 171.046 212.863 171.283 212.904V210.998C170.896 210.9 170.581 210.801 170.339 210.703C170.096 210.599 169.888 210.438 169.715 210.218C169.547 209.999 169.464 209.698 169.464 209.317C169.464 208.838 169.631 208.442 169.966 208.13C170.301 207.812 170.74 207.628 171.283 207.576V206.874H171.846V207.576C172.354 207.622 172.762 207.784 173.068 208.061C173.38 208.332 173.556 208.708 173.596 209.187H172.539C172.522 209.008 172.453 208.849 172.331 208.711C172.21 208.566 172.048 208.468 171.846 208.416V210.287C172.233 210.38 172.548 210.478 172.791 210.582C173.033 210.68 173.238 210.839 173.406 211.058C173.573 211.272 173.657 211.57 173.657 211.951ZM170.469 209.265C170.469 209.502 170.538 209.687 170.677 209.82C170.821 209.952 171.023 210.059 171.283 210.14V208.39C171.035 208.419 170.835 208.508 170.685 208.659C170.541 208.809 170.469 209.011 170.469 209.265ZM171.846 212.904C172.1 212.863 172.3 212.762 172.444 212.601C172.588 212.433 172.661 212.234 172.661 212.003C172.661 211.772 172.588 211.593 172.444 211.466C172.305 211.333 172.106 211.226 171.846 211.145V212.904ZM174.977 212.349V211.604L177.888 207.428H179.084V211.492H179.889V212.349H179.084V213.666H178.113V212.349H174.977ZM178.157 208.433L176.112 211.492H178.157V208.433ZM181.921 212.479L180.872 214.87H180.231L180.846 212.479H181.921ZM186.726 208.199H183.823V209.923C183.945 209.762 184.124 209.626 184.36 209.516C184.603 209.407 184.86 209.352 185.131 209.352C185.617 209.352 186.009 209.456 186.31 209.664C186.616 209.872 186.832 210.134 186.959 210.452C187.092 210.77 187.159 211.105 187.159 211.457C187.159 211.884 187.075 212.266 186.907 212.601C186.746 212.93 186.5 213.19 186.171 213.38C185.848 213.571 185.449 213.666 184.975 213.666C184.346 213.666 183.841 213.51 183.459 213.198C183.078 212.886 182.85 212.473 182.775 211.959H183.737C183.8 212.231 183.942 212.447 184.161 212.609C184.381 212.765 184.655 212.843 184.984 212.843C185.394 212.843 185.7 212.719 185.902 212.471C186.11 212.222 186.214 211.893 186.214 211.483C186.214 211.067 186.11 210.749 185.902 210.53C185.695 210.305 185.388 210.192 184.984 210.192C184.701 210.192 184.461 210.264 184.265 210.409C184.074 210.547 183.936 210.738 183.849 210.98H182.914V207.333H186.726V208.199ZM188.187 210.426C188.187 209.427 188.354 208.647 188.689 208.087C189.03 207.521 189.613 207.238 190.439 207.238C191.265 207.238 191.846 207.521 192.181 208.087C192.521 208.647 192.692 209.427 192.692 210.426C192.692 211.437 192.521 212.228 192.181 212.8C191.846 213.366 191.265 213.649 190.439 213.649C189.613 213.649 189.03 213.366 188.689 212.8C188.354 212.228 188.187 211.437 188.187 210.426ZM191.722 210.426C191.722 209.958 191.69 209.563 191.626 209.239C191.568 208.916 191.447 208.653 191.262 208.451C191.078 208.243 190.803 208.139 190.439 208.139C190.075 208.139 189.801 208.243 189.616 208.451C189.431 208.653 189.307 208.916 189.244 209.239C189.186 209.563 189.157 209.958 189.157 210.426C189.157 210.911 189.186 211.318 189.244 211.648C189.302 211.977 189.423 212.242 189.608 212.445C189.798 212.647 190.075 212.748 190.439 212.748C190.803 212.748 191.078 212.647 191.262 212.445C191.453 212.242 191.577 211.977 191.635 211.648C191.693 211.318 191.722 210.911 191.722 210.426ZM193.616 212.349V211.604L196.527 207.428H197.722V211.492H198.528V212.349H197.722V213.666H196.752V212.349H193.616ZM196.795 208.433L194.751 211.492H196.795V208.433Z" fill="#222B45"/>
<path d="M173.954 192.464V193.196H172.073V199.365H171.172V193.196H169.281V192.464H173.954ZM177.756 193.84C178.165 193.84 178.535 193.929 178.865 194.107C179.195 194.279 179.453 194.54 179.637 194.89C179.829 195.239 179.924 195.665 179.924 196.167V199.365H179.033V196.295C179.033 195.754 178.898 195.342 178.627 195.058C178.357 194.767 177.987 194.622 177.519 194.622C177.043 194.622 176.664 194.771 176.38 195.068C176.103 195.365 175.964 195.797 175.964 196.365V199.365H175.063V192.038H175.964V194.711C176.142 194.434 176.386 194.22 176.697 194.068C177.014 193.916 177.367 193.84 177.756 193.84ZM181.862 193.058C181.69 193.058 181.545 192.998 181.426 192.88C181.307 192.761 181.248 192.616 181.248 192.444C181.248 192.272 181.307 192.127 181.426 192.008C181.545 191.889 181.69 191.83 181.862 191.83C182.027 191.83 182.165 191.889 182.278 192.008C182.396 192.127 182.456 192.272 182.456 192.444C182.456 192.616 182.396 192.761 182.278 192.88C182.165 192.998 182.027 193.058 181.862 193.058ZM182.297 193.939V199.365H181.396V193.939H182.297ZM185.754 199.454C185.338 199.454 184.965 199.385 184.635 199.246C184.305 199.101 184.044 198.903 183.853 198.652C183.661 198.395 183.556 198.101 183.536 197.771H184.467C184.493 198.041 184.618 198.263 184.843 198.434C185.074 198.606 185.374 198.692 185.744 198.692C186.087 198.692 186.358 198.616 186.556 198.464C186.754 198.312 186.853 198.121 186.853 197.89C186.853 197.652 186.747 197.477 186.536 197.365C186.325 197.246 185.998 197.13 185.556 197.018C185.153 196.913 184.823 196.807 184.566 196.701C184.315 196.589 184.097 196.428 183.912 196.216C183.734 195.998 183.645 195.715 183.645 195.365C183.645 195.088 183.727 194.833 183.892 194.602C184.057 194.371 184.292 194.19 184.595 194.058C184.899 193.919 185.245 193.85 185.635 193.85C186.236 193.85 186.721 194.002 187.09 194.305C187.46 194.609 187.658 195.025 187.684 195.553H186.783C186.764 195.269 186.648 195.041 186.437 194.87C186.232 194.698 185.955 194.612 185.605 194.612C185.282 194.612 185.024 194.682 184.833 194.82C184.642 194.959 184.546 195.14 184.546 195.365C184.546 195.543 184.602 195.692 184.714 195.81C184.833 195.923 184.978 196.015 185.15 196.088C185.328 196.154 185.572 196.229 185.882 196.315C186.272 196.421 186.589 196.527 186.833 196.632C187.077 196.731 187.285 196.883 187.457 197.088C187.635 197.292 187.727 197.56 187.734 197.89C187.734 198.187 187.651 198.454 187.486 198.692C187.321 198.929 187.087 199.117 186.783 199.256C186.486 199.388 186.143 199.454 185.754 199.454ZM198.646 192.513V199.365H197.745V194.256L195.467 199.365H194.834L192.547 194.246V199.365H191.646V192.513H192.616L195.151 198.177L197.685 192.513H198.646ZM202.54 199.454C202.032 199.454 201.57 199.338 201.154 199.107C200.745 198.876 200.421 198.55 200.184 198.127C199.953 197.698 199.837 197.203 199.837 196.642C199.837 196.088 199.956 195.599 200.194 195.177C200.438 194.748 200.768 194.421 201.184 194.196C201.6 193.965 202.065 193.85 202.58 193.85C203.095 193.85 203.56 193.965 203.976 194.196C204.392 194.421 204.718 194.744 204.956 195.167C205.2 195.589 205.322 196.081 205.322 196.642C205.322 197.203 205.197 197.698 204.946 198.127C204.702 198.55 204.369 198.876 203.946 199.107C203.524 199.338 203.055 199.454 202.54 199.454ZM202.54 198.662C202.864 198.662 203.167 198.586 203.451 198.434C203.735 198.282 203.963 198.055 204.134 197.751C204.312 197.447 204.402 197.078 204.402 196.642C204.402 196.206 204.316 195.837 204.144 195.533C203.973 195.229 203.748 195.005 203.471 194.86C203.194 194.708 202.893 194.632 202.57 194.632C202.24 194.632 201.936 194.708 201.659 194.86C201.388 195.005 201.17 195.229 201.005 195.533C200.84 195.837 200.758 196.206 200.758 196.642C200.758 197.084 200.837 197.457 200.996 197.761C201.161 198.065 201.378 198.292 201.649 198.444C201.92 198.589 202.217 198.662 202.54 198.662ZM209.151 193.84C209.811 193.84 210.345 194.041 210.755 194.444C211.164 194.84 211.369 195.414 211.369 196.167V199.365H210.477V196.295C210.477 195.754 210.342 195.342 210.071 195.058C209.801 194.767 209.431 194.622 208.963 194.622C208.487 194.622 208.108 194.771 207.824 195.068C207.547 195.365 207.408 195.797 207.408 196.365V199.365H206.507V193.939H207.408V194.711C207.586 194.434 207.827 194.22 208.131 194.068C208.441 193.916 208.781 193.84 209.151 193.84ZM213.939 194.682V197.88C213.939 198.144 213.995 198.332 214.108 198.444C214.22 198.55 214.415 198.602 214.692 198.602H215.355V199.365H214.543C214.042 199.365 213.665 199.249 213.415 199.018C213.164 198.787 213.038 198.408 213.038 197.88V194.682H212.335V193.939H213.038V192.573H213.939V193.939H215.355V194.682H213.939ZM219.14 193.84C219.549 193.84 219.919 193.929 220.249 194.107C220.579 194.279 220.836 194.54 221.021 194.89C221.213 195.239 221.308 195.665 221.308 196.167V199.365H220.417V196.295C220.417 195.754 220.282 195.342 220.011 195.058C219.741 194.767 219.371 194.622 218.902 194.622C218.427 194.622 218.048 194.771 217.764 195.068C217.487 195.365 217.348 195.797 217.348 196.365V199.365H216.447V192.038H217.348V194.711C217.526 194.434 217.77 194.22 218.081 194.068C218.397 193.916 218.751 193.84 219.14 193.84Z" fill="#96A5B8"/>
<path d="M152.236 195.339H163.993" stroke="#05C283" stroke-width="1.85648" stroke-linecap="round"/>
<circle cx="158.114" cy="195.339" r="2.78471" fill="#07E098"/>
<path d="M85.165 212.214C85.165 212.503 85.0928 212.775 84.9484 213.029C84.8098 213.283 84.6019 213.497 84.3246 213.67C84.0532 213.843 83.7297 213.947 83.3543 213.982V214.684H82.7912V213.982C82.2483 213.93 81.8093 213.759 81.4743 213.471C81.1393 213.182 80.9718 212.801 80.9718 212.327H82.0288C82.0461 212.552 82.1183 212.74 82.2454 212.89C82.3724 213.035 82.5544 213.127 82.7912 213.167V211.261C82.4042 211.163 82.0894 211.065 81.8469 210.967C81.6043 210.863 81.3964 210.701 81.2231 210.482C81.0556 210.262 80.9718 209.962 80.9718 209.581C80.9718 209.101 81.1393 208.706 81.4743 208.394C81.8093 208.076 82.2483 207.891 82.7912 207.839V207.138H83.3543V207.839C83.8626 207.886 84.2698 208.047 84.5759 208.324C84.8878 208.596 85.0639 208.971 85.1044 209.451H84.0474C84.0301 209.272 83.9608 209.113 83.8395 208.974C83.7182 208.83 83.5565 208.732 83.3543 208.68V210.551C83.7413 210.643 84.0561 210.742 84.2986 210.846C84.5412 210.944 84.7463 211.103 84.9138 211.322C85.0813 211.536 85.165 211.833 85.165 212.214ZM81.9768 209.529C81.9768 209.766 82.0461 209.95 82.1847 210.083C82.3291 210.216 82.5313 210.323 82.7912 210.404V208.654C82.5428 208.683 82.3436 208.772 82.1934 208.922C82.049 209.072 81.9768 209.275 81.9768 209.529ZM83.3543 213.167C83.6084 213.127 83.8077 213.026 83.9521 212.864C84.0965 212.697 84.1687 212.497 84.1687 212.266C84.1687 212.035 84.0965 211.856 83.9521 211.729C83.8135 211.596 83.6142 211.49 83.3543 211.409V213.167ZM86.5892 209.174C86.6239 208.636 86.8289 208.218 87.2043 207.917C87.5855 207.617 88.0707 207.467 88.6598 207.467C89.0641 207.467 89.4135 207.539 89.7081 207.683C90.0026 207.828 90.225 208.024 90.3752 208.273C90.5253 208.521 90.6004 208.801 90.6004 209.113C90.6004 209.471 90.5051 209.777 90.3145 210.031C90.1239 210.285 89.8958 210.456 89.6301 210.542V210.577C89.9709 210.681 90.2366 210.872 90.4272 211.149C90.6178 211.42 90.7131 211.77 90.7131 212.197C90.7131 212.538 90.6351 212.841 90.4791 213.107C90.3232 213.372 90.0922 213.583 89.7861 213.739C89.4799 213.889 89.1132 213.964 88.6858 213.964C88.062 213.964 87.548 213.806 87.1437 213.488C86.7451 213.165 86.5314 212.702 86.5026 212.102H87.4556C87.4787 212.408 87.5971 212.659 87.8108 212.856C88.0245 213.046 88.3133 213.141 88.6771 213.141C89.0294 213.141 89.3009 213.046 89.4915 212.856C89.6821 212.659 89.7774 212.408 89.7774 212.102C89.7774 211.698 89.6474 211.412 89.3875 211.244C89.1334 211.071 88.7407 210.984 88.2093 210.984H87.984V210.17H88.218C88.6858 210.164 89.041 210.086 89.2836 209.936C89.5319 209.786 89.6561 209.549 89.6561 209.226C89.6561 208.948 89.5666 208.729 89.3875 208.567C89.2085 208.4 88.9544 208.316 88.6251 208.316C88.3017 208.316 88.0505 208.4 87.8714 208.567C87.6924 208.729 87.5855 208.931 87.5509 209.174H86.5892ZM92.9634 212.743L91.9151 215.134H91.274L91.8891 212.743H92.9634ZM93.6964 210.69C93.6964 209.69 93.8639 208.911 94.1989 208.35C94.5397 207.784 95.123 207.501 95.949 207.501C96.7749 207.501 97.3553 207.784 97.6903 208.35C98.0311 208.911 98.2015 209.69 98.2015 210.69C98.2015 211.7 98.0311 212.492 97.6903 213.063C97.3553 213.629 96.7749 213.912 95.949 213.912C95.123 213.912 94.5397 213.629 94.1989 213.063C93.8639 212.492 93.6964 211.7 93.6964 210.69ZM97.2312 210.69C97.2312 210.222 97.1994 209.826 97.1359 209.503C97.0781 209.179 96.9568 208.917 96.772 208.714C96.5872 208.506 96.3128 208.402 95.949 208.402C95.5851 208.402 95.3107 208.506 95.1259 208.714C94.9411 208.917 94.8169 209.179 94.7534 209.503C94.6956 209.826 94.6667 210.222 94.6667 210.69C94.6667 211.175 94.6956 211.582 94.7534 211.911C94.8111 212.24 94.9324 212.506 95.1173 212.708C95.3079 212.91 95.5851 213.011 95.949 213.011C96.3128 213.011 96.5872 212.91 96.772 212.708C96.9626 212.506 97.0868 212.24 97.1445 211.911C97.2023 211.582 97.2312 211.175 97.2312 210.69ZM99.2465 210.69C99.2465 209.69 99.414 208.911 99.749 208.35C100.09 207.784 100.673 207.501 101.499 207.501C102.325 207.501 102.905 207.784 103.24 208.35C103.581 208.911 103.752 209.69 103.752 210.69C103.752 211.7 103.581 212.492 103.24 213.063C102.905 213.629 102.325 213.912 101.499 213.912C100.673 213.912 100.09 213.629 99.749 213.063C99.414 212.492 99.2465 211.7 99.2465 210.69ZM102.781 210.69C102.781 210.222 102.749 209.826 102.686 209.503C102.628 209.179 102.507 208.917 102.322 208.714C102.137 208.506 101.863 208.402 101.499 208.402C101.135 208.402 100.861 208.506 100.676 208.714C100.491 208.917 100.367 209.179 100.303 209.503C100.246 209.826 100.217 210.222 100.217 210.69C100.217 211.175 100.246 211.582 100.303 211.911C100.361 212.24 100.483 212.506 100.667 212.708C100.858 212.91 101.135 213.011 101.499 213.011C101.863 213.011 102.137 212.91 102.322 212.708C102.513 212.506 102.637 212.24 102.695 211.911C102.752 211.582 102.781 211.175 102.781 210.69ZM104.675 212.613V211.868L107.586 207.692H108.782V211.755H109.588V212.613H108.782V213.93H107.812V212.613H104.675ZM107.855 208.697L105.81 211.755H107.855V208.697Z" fill="#222B45"/>
<path d="M82.1154 198.632H84.5313V199.365H81.2144V192.464H82.1154V198.632ZM85.1515 196.632C85.1515 196.078 85.2638 195.593 85.4882 195.177C85.7126 194.754 86.0195 194.428 86.409 194.197C86.805 193.966 87.244 193.85 87.7259 193.85C88.2011 193.85 88.6137 193.952 88.9635 194.157C89.3133 194.362 89.5741 194.619 89.7457 194.929V193.939H90.6566V199.365H89.7457V198.355C89.5675 198.672 89.3001 198.936 88.9437 199.147C88.5939 199.352 88.1846 199.454 87.716 199.454C87.2341 199.454 86.7984 199.335 86.409 199.098C86.0195 198.86 85.7126 198.527 85.4882 198.098C85.2638 197.669 85.1515 197.18 85.1515 196.632ZM89.7457 196.642C89.7457 196.233 89.6632 195.876 89.4982 195.573C89.3331 195.269 89.1087 195.038 88.8249 194.88C88.5477 194.715 88.2407 194.632 87.9041 194.632C87.5674 194.632 87.2605 194.711 86.9833 194.87C86.706 195.028 86.4849 195.259 86.3199 195.563C86.1549 195.867 86.0724 196.223 86.0724 196.632C86.0724 197.048 86.1549 197.411 86.3199 197.721C86.4849 198.025 86.706 198.259 86.9833 198.424C87.2605 198.583 87.5674 198.662 87.9041 198.662C88.2407 198.662 88.5477 198.583 88.8249 198.424C89.1087 198.259 89.3331 198.025 89.4982 197.721C89.6632 197.411 89.7457 197.051 89.7457 196.642ZM94.1001 199.454C93.6842 199.454 93.3113 199.385 92.9812 199.246C92.6512 199.101 92.3905 198.903 92.199 198.652C92.0076 198.395 91.902 198.101 91.8822 197.771H92.8129C92.8393 198.042 92.9647 198.263 93.1891 198.434C93.4202 198.606 93.7205 198.692 94.0902 198.692C94.4334 198.692 94.704 198.616 94.9021 198.464C95.1001 198.312 95.1991 198.121 95.1991 197.89C95.1991 197.652 95.0935 197.477 94.8823 197.365C94.671 197.246 94.3443 197.131 93.902 197.018C93.4994 196.913 93.1693 196.807 92.9119 196.702C92.6611 196.589 92.4433 196.428 92.2584 196.216C92.0802 195.999 91.9911 195.715 91.9911 195.365C91.9911 195.088 92.0736 194.834 92.2386 194.603C92.4037 194.371 92.638 194.19 92.9416 194.058C93.2453 193.919 93.5918 193.85 93.9812 193.85C94.5819 193.85 95.0671 194.002 95.4367 194.305C95.8064 194.609 96.0044 195.025 96.0308 195.553H95.1298C95.11 195.269 94.9945 195.041 94.7832 194.87C94.5786 194.698 94.3014 194.612 93.9515 194.612C93.6281 194.612 93.3707 194.682 93.1792 194.82C92.9878 194.959 92.8921 195.14 92.8921 195.365C92.8921 195.543 92.9482 195.692 93.0604 195.81C93.1792 195.923 93.3245 196.015 93.4961 196.088C93.6743 196.154 93.9185 196.23 94.2288 196.315C94.6182 196.421 94.9351 196.527 95.1793 196.632C95.4235 196.731 95.6314 196.883 95.8031 197.088C95.9813 197.292 96.0737 197.56 96.0803 197.89C96.0803 198.187 95.9978 198.454 95.8328 198.692C95.6677 198.929 95.4334 199.117 95.1298 199.256C94.8327 199.388 94.4895 199.454 94.1001 199.454ZM98.4513 194.682V197.88C98.4513 198.144 98.5074 198.332 98.6196 198.444C98.7318 198.55 98.9265 198.603 99.2037 198.603H99.8671V199.365H99.0552C98.5536 199.365 98.1773 199.249 97.9265 199.018C97.6757 198.787 97.5502 198.408 97.5502 197.88V194.682H96.8473V193.939H97.5502V192.573H98.4513V193.939H99.8671V194.682H98.4513ZM110.599 192.513V199.365H109.698V194.256L107.42 199.365H106.787L104.499 194.246V199.365H103.598V192.513H104.569L107.104 198.177L109.638 192.513H110.599ZM114.493 199.454C113.985 199.454 113.523 199.339 113.107 199.108C112.698 198.877 112.374 198.55 112.137 198.127C111.906 197.698 111.79 197.203 111.79 196.642C111.79 196.088 111.909 195.599 112.146 195.177C112.391 194.748 112.721 194.421 113.137 194.197C113.552 193.966 114.018 193.85 114.533 193.85C115.048 193.85 115.513 193.966 115.929 194.197C116.345 194.421 116.671 194.744 116.909 195.167C117.153 195.589 117.275 196.081 117.275 196.642C117.275 197.203 117.15 197.698 116.899 198.127C116.655 198.55 116.321 198.877 115.899 199.108C115.477 199.339 115.008 199.454 114.493 199.454ZM114.493 198.662C114.816 198.662 115.12 198.586 115.404 198.434C115.688 198.282 115.916 198.055 116.087 197.751C116.265 197.447 116.354 197.078 116.354 196.642C116.354 196.207 116.269 195.837 116.097 195.533C115.925 195.23 115.701 195.005 115.424 194.86C115.147 194.708 114.846 194.632 114.523 194.632C114.193 194.632 113.889 194.708 113.612 194.86C113.341 195.005 113.123 195.23 112.958 195.533C112.793 195.837 112.711 196.207 112.711 196.642C112.711 197.084 112.79 197.457 112.948 197.761C113.113 198.065 113.331 198.292 113.602 198.444C113.873 198.589 114.17 198.662 114.493 198.662ZM121.104 193.84C121.764 193.84 122.298 194.041 122.708 194.444C123.117 194.84 123.321 195.414 123.321 196.167V199.365H122.43V196.296C122.43 195.754 122.295 195.342 122.024 195.058C121.754 194.768 121.384 194.622 120.915 194.622C120.44 194.622 120.061 194.771 119.777 195.068C119.5 195.365 119.361 195.797 119.361 196.365V199.365H118.46V193.939H119.361V194.711C119.539 194.434 119.78 194.22 120.084 194.068C120.394 193.916 120.734 193.84 121.104 193.84ZM125.892 194.682V197.88C125.892 198.144 125.948 198.332 126.061 198.444C126.173 198.55 126.368 198.603 126.645 198.603H127.308V199.365H126.496C125.995 199.365 125.618 199.249 125.368 199.018C125.117 198.787 124.991 198.408 124.991 197.88V194.682H124.288V193.939H124.991V192.573H125.892V193.939H127.308V194.682H125.892ZM131.093 193.84C131.502 193.84 131.872 193.929 132.202 194.107C132.532 194.279 132.789 194.54 132.974 194.89C133.166 195.239 133.261 195.665 133.261 196.167V199.365H132.37V196.296C132.37 195.754 132.235 195.342 131.964 195.058C131.694 194.768 131.324 194.622 130.855 194.622C130.38 194.622 130.001 194.771 129.717 195.068C129.439 195.365 129.301 195.797 129.301 196.365V199.365H128.4V192.038H129.301V194.711C129.479 194.434 129.723 194.22 130.034 194.068C130.35 193.916 130.704 193.84 131.093 193.84Z" fill="#96A5B8"/>
<path d="M63.7438 195.957H75.5015" stroke="#0080DA" stroke-width="1.85648" stroke-linecap="round"/>
<circle cx="69.6227" cy="195.957" r="2.78471" fill="#0095FF"/>
<rect x="142.953" y="189.814" width="0.618825" height="14.8518" fill="#BDC9D3"/>
<path d="M30.4509 39.5572C29.8485 39.5572 29.304 39.4541 28.8172 39.2478C28.3386 39.0415 27.9591 38.7445 27.6785 38.3567C27.398 37.9689 27.2536 37.511 27.2454 36.9829H29.1018C29.1266 37.3377 29.2503 37.6182 29.4731 37.8245C29.7042 38.0308 30.0177 38.1339 30.4137 38.1339C30.818 38.1339 31.1357 38.039 31.3667 37.8493C31.5978 37.6512 31.7133 37.3955 31.7133 37.0819C31.7133 36.8261 31.6349 36.6157 31.4781 36.4507C31.3213 36.2857 31.1233 36.1578 30.884 36.067C30.653 35.968 30.3312 35.8608 29.9187 35.7453C29.3576 35.5802 28.8997 35.4193 28.5449 35.2626C28.1983 35.0976 27.8972 34.8541 27.6414 34.5324C27.3939 34.2023 27.2701 33.765 27.2701 33.2204C27.2701 32.7089 27.398 32.2633 27.6538 31.8838C27.9096 31.5042 28.2685 31.2155 28.7305 31.0174C29.1926 30.8112 29.7207 30.708 30.3147 30.708C31.2058 30.708 31.9278 30.9267 32.4806 31.364C33.0417 31.793 33.3511 32.3953 33.4089 33.1709H31.5029C31.4864 32.8739 31.3585 32.6305 31.1192 32.4407C30.8882 32.2427 30.5788 32.1437 30.191 32.1437C29.8527 32.1437 29.5804 32.2303 29.3741 32.4036C29.1761 32.5769 29.0771 32.8285 29.0771 33.1586C29.0771 33.3896 29.1513 33.5835 29.2999 33.7403C29.4566 33.8888 29.6464 34.0125 29.8692 34.1116C30.1002 34.2023 30.422 34.3096 30.8345 34.4333C31.3956 34.5984 31.8535 34.7634 32.2083 34.9284C32.5631 35.0934 32.8684 35.341 33.1242 35.671C33.38 36.001 33.5079 36.4342 33.5079 36.9705C33.5079 37.4326 33.3882 37.8616 33.1489 38.2577C32.9097 38.6537 32.559 38.9714 32.0969 39.2107C31.6349 39.4417 31.0862 39.5572 30.4509 39.5572ZM34.5645 36.0175C34.5645 35.3245 34.7006 34.7098 34.9729 34.1734C35.2535 33.6371 35.6289 33.2246 36.0992 32.9358C36.5777 32.647 37.1099 32.5026 37.6958 32.5026C38.2073 32.5026 38.6529 32.6057 39.0324 32.812C39.4202 33.0183 39.7296 33.2782 39.9607 33.5917V32.614H41.7057V39.4706H39.9607V38.4681C39.7379 38.7899 39.4285 39.058 39.0324 39.2726C38.6446 39.4788 38.1949 39.582 37.6834 39.582C37.1058 39.582 36.5777 39.4335 36.0992 39.1364C35.6289 38.8394 35.2535 38.4227 34.9729 37.8864C34.7006 37.3418 34.5645 36.7189 34.5645 36.0175ZM39.9607 36.0423C39.9607 35.6215 39.8782 35.2626 39.7131 34.9655C39.5481 34.6602 39.3253 34.4292 39.0448 34.2725C38.7643 34.1074 38.4631 34.0249 38.1413 34.0249C37.8195 34.0249 37.5225 34.1033 37.2502 34.2601C36.9779 34.4168 36.7551 34.6479 36.5819 34.9532C36.4169 35.2502 36.3343 35.605 36.3343 36.0175C36.3343 36.4301 36.4169 36.7931 36.5819 37.1067C36.7551 37.412 36.9779 37.6471 37.2502 37.8121C37.5307 37.9771 37.8278 38.0597 38.1413 38.0597C38.4631 38.0597 38.7643 37.9813 39.0448 37.8245C39.3253 37.6595 39.5481 37.4285 39.7131 37.1314C39.8782 36.8261 39.9607 36.4631 39.9607 36.0423ZM45.4154 34.0373V37.3542C45.4154 37.5852 45.469 37.7544 45.5763 37.8616C45.6918 37.9606 45.8816 38.0102 46.1456 38.0102H46.9501V39.4706H45.861C44.4005 39.4706 43.6703 38.761 43.6703 37.3418V34.0373H42.8535V32.614H43.6703V30.9184H45.4154V32.614H46.9501V34.0373H45.4154ZM49.0751 31.7972C48.7698 31.7972 48.514 31.7023 48.3077 31.5125C48.1097 31.3145 48.0107 31.0711 48.0107 30.7823C48.0107 30.4935 48.1097 30.2542 48.3077 30.0644C48.514 29.8664 48.7698 29.7674 49.0751 29.7674C49.3804 29.7674 49.632 29.8664 49.83 30.0644C50.0363 30.2542 50.1395 30.4935 50.1395 30.7823C50.1395 31.0711 50.0363 31.3145 49.83 31.5125C49.632 31.7023 49.3804 31.7972 49.0751 31.7972ZM49.9291 32.614V39.4706H48.1964V32.614H49.9291ZM54.2648 39.582C53.7037 39.582 53.2004 39.483 52.7549 39.2849C52.3093 39.0787 51.9545 38.8022 51.6905 38.4557C51.4347 38.1092 51.2944 37.7255 51.2697 37.3047H53.0148C53.0478 37.5687 53.1757 37.7874 53.3984 37.9606C53.6295 38.1339 53.9141 38.2206 54.2524 38.2206C54.5825 38.2206 54.8382 38.1545 55.0198 38.0225C55.2095 37.8905 55.3044 37.7214 55.3044 37.5151C55.3044 37.2923 55.1889 37.1273 54.9579 37.02C54.7351 36.9045 54.3762 36.7808 53.8811 36.6487C53.3696 36.525 52.9488 36.3971 52.6187 36.2651C52.2969 36.1331 52.0164 35.9309 51.7771 35.6586C51.5461 35.3863 51.4306 35.0192 51.4306 34.5571C51.4306 34.1776 51.5378 33.831 51.7524 33.5175C51.9751 33.2039 52.2887 32.9564 52.693 32.7749C53.1055 32.5934 53.5882 32.5026 54.141 32.5026C54.9579 32.5026 55.6097 32.7089 56.0965 33.1214C56.5833 33.5257 56.8515 34.0744 56.901 34.7675H55.2425C55.2178 34.4952 55.1023 34.2807 54.896 34.1239C54.698 33.9589 54.4298 33.8764 54.0915 33.8764C53.778 33.8764 53.5346 33.9342 53.3613 34.0497C53.1963 34.1652 53.1138 34.3261 53.1138 34.5324C53.1138 34.7634 53.2293 34.9408 53.4603 35.0645C53.6914 35.1801 54.0503 35.2997 54.5371 35.4235C55.0321 35.5472 55.4406 35.6751 55.7624 35.8071C56.0841 35.9392 56.3606 36.1454 56.5916 36.426C56.8309 36.6982 56.9546 37.0613 56.9629 37.5151C56.9629 37.9111 56.8515 38.2659 56.6287 38.5795C56.4142 38.893 56.1006 39.1405 55.6881 39.3221C55.2838 39.4953 54.8094 39.582 54.2648 39.582ZM61.5288 34.0373H60.3283V39.4706H58.5709V34.0373H57.7911V32.614H58.5709V32.2675C58.5709 31.4259 58.8101 30.807 59.2887 30.411C59.7673 30.0149 60.4892 29.8293 61.4546 29.854V31.3145C61.0338 31.3062 60.7409 31.3763 60.5759 31.5249C60.4108 31.6734 60.3283 31.9415 60.3283 32.3293V32.614H61.5288V34.0373ZM62.2062 36.0175C62.2062 35.3245 62.3423 34.7098 62.6146 34.1734C62.8951 33.6371 63.2705 33.2246 63.7408 32.9358C64.2194 32.647 64.7516 32.5026 65.3374 32.5026C65.849 32.5026 66.2945 32.6057 66.6741 32.812C67.0619 33.0183 67.3713 33.2782 67.6023 33.5917V32.614H69.3474V39.4706H67.6023V38.4681C67.3795 38.7899 67.0701 39.058 66.6741 39.2726C66.2863 39.4788 65.8366 39.582 65.325 39.582C64.7475 39.582 64.2194 39.4335 63.7408 39.1364C63.2705 38.8394 62.8951 38.4227 62.6146 37.8864C62.3423 37.3418 62.2062 36.7189 62.2062 36.0175ZM67.6023 36.0423C67.6023 35.6215 67.5198 35.2626 67.3548 34.9655C67.1898 34.6602 66.967 34.4292 66.6865 34.2725C66.4059 34.1074 66.1048 34.0249 65.783 34.0249C65.4612 34.0249 65.1641 34.1033 64.8919 34.2601C64.6196 34.4168 64.3968 34.6479 64.2235 34.9532C64.0585 35.2502 63.976 35.605 63.976 36.0175C63.976 36.4301 64.0585 36.7931 64.2235 37.1067C64.3968 37.412 64.6196 37.6471 64.8919 37.8121C65.1724 37.9771 65.4694 38.0597 65.783 38.0597C66.1048 38.0597 66.4059 37.9813 66.6865 37.8245C66.967 37.6595 67.1898 37.4285 67.3548 37.1314C67.5198 36.8261 67.6023 36.4631 67.6023 36.0423ZM70.5941 36.0423C70.5941 35.3327 70.7385 34.7139 71.0273 34.1858C71.3161 33.6495 71.7163 33.2369 72.2278 32.9482C72.7394 32.6511 73.3252 32.5026 73.9853 32.5026C74.8352 32.5026 75.5365 32.7171 76.0893 33.1462C76.6504 33.567 77.0258 34.1611 77.2156 34.9284H75.3467C75.2477 34.6314 75.0786 34.4003 74.8393 34.2353C74.6083 34.062 74.3195 33.9754 73.9729 33.9754C73.4779 33.9754 73.0859 34.1569 72.7972 34.52C72.5084 34.8748 72.364 35.3822 72.364 36.0423C72.364 36.6941 72.5084 37.2016 72.7972 37.5646C73.0859 37.9194 73.4779 38.0968 73.9729 38.0968C74.6743 38.0968 75.1322 37.7833 75.3467 37.1562H77.2156C77.0258 37.8988 76.6504 38.4887 76.0893 38.926C75.5282 39.3633 74.8269 39.582 73.9853 39.582C73.3252 39.582 72.7394 39.4376 72.2278 39.1488C71.7163 38.8518 71.3161 38.4392 71.0273 37.9111C70.7385 37.3748 70.5941 36.7519 70.5941 36.0423ZM80.5023 34.0373V37.3542C80.5023 37.5852 80.5559 37.7544 80.6632 37.8616C80.7787 37.9606 80.9685 38.0102 81.2325 38.0102H82.037V39.4706H80.9479C79.4874 39.4706 78.7572 38.761 78.7572 37.3418V34.0373H77.9404V32.614H78.7572V30.9184H80.5023V32.614H82.037V34.0373H80.5023ZM84.162 31.7972C83.8567 31.7972 83.6009 31.7023 83.3946 31.5125C83.1966 31.3145 83.0976 31.0711 83.0976 30.7823C83.0976 30.4935 83.1966 30.2542 83.3946 30.0644C83.6009 29.8664 83.8567 29.7674 84.162 29.7674C84.4673 29.7674 84.7189 29.8664 84.9169 30.0644C85.1232 30.2542 85.2264 30.4935 85.2264 30.7823C85.2264 31.0711 85.1232 31.3145 84.9169 31.5125C84.7189 31.7023 84.4673 31.7972 84.162 31.7972ZM85.016 32.614V39.4706H83.2832V32.614H85.016ZM89.7725 39.582C89.1124 39.582 88.5183 39.4376 87.9903 39.1488C87.4622 38.8518 87.0455 38.4351 86.7403 37.8988C86.4432 37.3625 86.2947 36.7436 86.2947 36.0423C86.2947 35.341 86.4473 34.7221 86.7526 34.1858C87.0662 33.6495 87.4911 33.2369 88.0274 32.9482C88.5637 32.6511 89.1619 32.5026 89.822 32.5026C90.4821 32.5026 91.0803 32.6511 91.6166 32.9482C92.1529 33.2369 92.5737 33.6495 92.879 34.1858C93.1925 34.7221 93.3493 35.341 93.3493 36.0423C93.3493 36.7436 93.1884 37.3625 92.8666 37.8988C92.5531 38.4351 92.124 38.8518 91.5795 39.1488C91.0432 39.4376 90.4408 39.582 89.7725 39.582ZM89.7725 38.072C90.086 38.072 90.3789 37.9978 90.6512 37.8493C90.9318 37.6925 91.1545 37.4615 91.3196 37.1562C91.4846 36.8509 91.5671 36.4796 91.5671 36.0423C91.5671 35.3905 91.3938 34.8913 91.0473 34.5447C90.709 34.1899 90.2923 34.0125 89.7973 34.0125C89.3022 34.0125 88.8855 34.1899 88.5472 34.5447C88.2172 34.8913 88.0522 35.3905 88.0522 36.0423C88.0522 36.6941 88.2131 37.1974 88.5348 37.5522C88.8649 37.8988 89.2774 38.072 89.7725 38.072ZM98.4199 32.515C99.2367 32.515 99.8968 32.7749 100.4 33.2947C100.903 33.8063 101.155 34.5241 101.155 35.4482V39.4706H99.4224V35.6834C99.4224 35.1388 99.2863 34.7221 99.014 34.4333C98.7417 34.1363 98.3704 33.9878 97.9001 33.9878C97.4215 33.9878 97.042 34.1363 96.7614 34.4333C96.4892 34.7221 96.353 35.1388 96.353 35.6834V39.4706H94.6203V32.614H96.353V33.468C96.5841 33.1709 96.877 32.9399 97.2318 32.7749C97.5948 32.6016 97.9908 32.515 98.4199 32.515Z" fill="#05004E"/>
<path d="M21.7826 71.0239C37.2602 75.5353 49.7866 87.1704 67.2216 87.1704C84.6566 87.1704 90.2678 78.4441 101.465 78.4441C112.663 78.4441 120.188 95.8967 135.709 95.8967C151.231 95.8967 162.269 75.5353 177.856 75.5353C193.442 75.5353 214.987 107.532 229.88 107.532C244.773 107.532 264.124 58.1482 264.124 58.1482" stroke="#05C283" stroke-width="1.23765" stroke-linecap="round"/>
<path fill-rule="evenodd" clip-rule="evenodd" d="M21.7829 71.0239C37.2605 75.5353 49.7869 87.1704 67.2219 87.1704C84.6569 87.1704 90.2681 78.4441 101.466 78.4441C112.663 78.4441 120.188 95.8967 135.71 95.8967C151.231 95.8967 162.27 75.5353 177.856 75.5353C193.442 75.5353 214.988 107.532 229.88 107.532C244.773 107.532 264.124 58.1482 264.124 58.1482V160.374H21.7829C21.7829 160.374 21.6796 75.9136 21.7829 71.0239Z" fill="url(#paint0_linear_0_123)"/>
<circle cx="263.624" cy="59.5055" r="2.4753" fill="#07E098"/>
<circle cx="230.38" cy="107.098" r="2.4753" fill="#07E098"/>
<circle cx="178.356" cy="75.1018" r="2.4753" fill="#07E098"/>
<circle cx="136.209" cy="95.4626" r="2.4753" fill="#07E098"/>
<circle cx="101.965" cy="78.0097" r="2.4753" fill="#07E098"/>
<circle cx="67.7213" cy="86.7362" r="2.4753" fill="#07E098"/>
<circle cx="22.2824" cy="70.2539" r="2.4753" fill="#07E098"/>
<path d="M21.7826 119.239C31.8667 119.239 53.7755 113.673 64.0256 105.664C74.2757 97.6553 91.5806 138.462 103.489 138.462C115.398 138.462 124.04 138.462 134.894 138.462C145.748 138.462 170.759 127.48 184.085 127.48C197.41 127.48 211.34 129.636 224.104 129.636C236.868 129.636 252.183 107.604 264.124 107.604" stroke="#007DD6" stroke-width="1.23765" stroke-linecap="round"/>
<path fill-rule="evenodd" clip-rule="evenodd" d="M21.8092 119.239C31.8921 119.239 53.7985 113.673 64.0475 105.664C74.2965 97.6553 90.488 138.462 102.395 138.462C114.303 138.462 124.857 138.462 135.709 138.462C146.562 138.462 164.531 127.893 177.856 127.893C191.18 127.893 217.072 131.846 229.88 127.893C242.688 123.94 252.184 107.604 264.124 107.604C264.046 111.086 264.124 159.477 264.124 159.477L21.8092 158.992C21.8092 158.992 21.7561 123.234 21.8092 119.239Z" fill="url(#paint1_linear_0_123)"/>
<circle cx="262.387" cy="107.098" r="2.4753" fill="#0095FF"/>
<circle cx="230.38" cy="127.459" r="2.4753" fill="#0095FF"/>
<circle cx="178.356" cy="127.459" r="2.4753" fill="#0095FF"/>
<circle cx="136.209" cy="138.124" r="2.4753" fill="#0095FF"/>
<circle cx="101.965" cy="138.124" r="2.4753" fill="#0095FF"/>
<circle cx="67.7213" cy="104.189" r="2.4753" fill="#0095FF"/>
<circle cx="22.2824" cy="118.733" r="2.4753" fill="#0095FF"/>
<defs>
<filter id="filter0_d_0_123" x="0.623499" y="0.0987992" width="284.66" height="241.961" filterUnits="userSpaceOnUse" color-interpolation-filters="sRGB">
<feFlood flood-opacity="0" result="BackgroundImageFix"/>
<feColorMatrix in="SourceAlpha" type="matrix" values="0 0 0 0 0 0 0 0 0 0 0 0 0 0 0 0 0 0 127 0" result="hardAlpha"/>
<feOffset dy="2.4753"/>
<feGaussianBlur stdDeviation="6.18825"/>
<feColorMatrix type="matrix" values="0 0 0 0 0.93198 0 0 0 0 0.93198 0 0 0 0 0.93198 0 0 0 0.501967 0"/>
<feBlend mode="normal" in2="BackgroundImageFix" result="effect1_dropShadow_0_123"/>
<feBlend mode="normal" in="SourceGraphic" in2="effect1_dropShadow_0_123" result="shape"/>
</filter>
<linearGradient id="paint0_linear_0_123" x1="21.7313" y1="58.1482" x2="21.7313" y2="160.374" gradientUnits="userSpaceOnUse">
<stop stop-color="#00E096" stop-opacity="0.326568"/>
<stop offset="1" stop-color="white" stop-opacity="0.01"/>
</linearGradient>
<linearGradient id="paint1_linear_0_123" x1="21.7826" y1="104.623" x2="21.7826" y2="159.477" gradientUnits="userSpaceOnUse">
<stop stop-color="#009DFF" stop-opacity="0.31728"/>
<stop offset="1" stop-color="#0095FF" stop-opacity="0.01"/>
</linearGradient>
</defs>
</svg>
