<svg width="294" height="296" viewBox="0 0 294 296" fill="none" xmlns="http://www.w3.org/2000/svg">
<g filter="url(#filter0_d_0_19)">
<rect x="8" y="6" width="278" height="280" rx="12" fill="white" shape-rendering="crispEdges"/>
<circle opacity="0.9" cx="196.12" cy="167.184" r="62.3653" fill="#F06A6A"/>
<path d="M175.235 158.538C174.304 158.172 173.589 157.64 173.09 156.942C172.591 156.243 172.341 155.395 172.341 154.397C172.341 153.499 172.566 152.693 173.015 151.977C173.464 151.246 174.129 150.672 175.011 150.256C175.909 149.824 176.99 149.608 178.254 149.608C179.517 149.608 180.59 149.824 181.472 150.256C182.37 150.672 183.043 151.246 183.492 151.977C183.958 152.693 184.191 153.499 184.191 154.397C184.191 155.362 183.933 156.21 183.417 156.942C182.902 157.657 182.195 158.189 181.297 158.538C182.328 158.854 183.143 159.411 183.742 160.21C184.357 160.991 184.665 161.939 184.665 163.053C184.665 164.134 184.399 165.082 183.866 165.897C183.334 166.696 182.578 167.319 181.596 167.768C180.632 168.201 179.517 168.417 178.254 168.417C176.99 168.417 175.875 168.201 174.911 167.768C173.963 167.319 173.223 166.696 172.691 165.897C172.158 165.082 171.892 164.134 171.892 163.053C171.892 161.939 172.192 160.983 172.79 160.185C173.389 159.386 174.204 158.838 175.235 158.538ZM181.995 154.672C181.995 153.657 181.663 152.875 180.998 152.327C180.332 151.778 179.418 151.503 178.254 151.503C177.106 151.503 176.2 151.778 175.534 152.327C174.869 152.875 174.537 153.665 174.537 154.697C174.537 155.628 174.877 156.376 175.559 156.942C176.258 157.507 177.156 157.79 178.254 157.79C179.368 157.79 180.266 157.507 180.948 156.942C181.646 156.36 181.995 155.603 181.995 154.672ZM178.254 159.536C177.023 159.536 176.017 159.827 175.235 160.409C174.453 160.975 174.063 161.831 174.063 162.979C174.063 164.043 174.437 164.899 175.185 165.548C175.95 166.197 176.973 166.521 178.254 166.521C179.534 166.521 180.549 166.197 181.297 165.548C182.045 164.899 182.42 164.043 182.42 162.979C182.42 161.864 182.037 161.016 181.272 160.434C180.507 159.835 179.501 159.536 178.254 159.536ZM199.57 151.853H190.814V157.54C191.196 157.008 191.761 156.576 192.51 156.243C193.258 155.894 194.065 155.719 194.93 155.719C196.31 155.719 197.433 156.01 198.297 156.592C199.162 157.158 199.777 157.898 200.143 158.813C200.526 159.711 200.717 160.667 200.717 161.681C200.717 162.879 200.493 163.952 200.044 164.899C199.595 165.847 198.904 166.596 197.973 167.145C197.058 167.693 195.919 167.968 194.555 167.968C192.809 167.968 191.396 167.519 190.315 166.621C189.234 165.723 188.577 164.525 188.344 163.029H190.564C190.78 163.976 191.238 164.717 191.936 165.249C192.635 165.781 193.516 166.047 194.58 166.047C195.894 166.047 196.884 165.656 197.549 164.875C198.214 164.076 198.547 163.029 198.547 161.731C198.547 160.434 198.214 159.436 197.549 158.738C196.884 158.023 195.903 157.665 194.605 157.665C193.724 157.665 192.951 157.881 192.285 158.314C191.637 158.729 191.163 159.303 190.863 160.035H188.718V149.857H199.57V151.853ZM203.625 153.948C203.625 152.817 203.966 151.919 204.648 151.254C205.329 150.572 206.202 150.231 207.267 150.231C208.331 150.231 209.204 150.572 209.886 151.254C210.568 151.919 210.909 152.817 210.909 153.948C210.909 155.096 210.568 156.01 209.886 156.692C209.204 157.357 208.331 157.69 207.267 157.69C206.202 157.69 205.329 157.357 204.648 156.692C203.966 156.01 203.625 155.096 203.625 153.948ZM218.193 150.506L208.09 167.918H205.845L215.948 150.506H218.193ZM207.267 151.628C206.701 151.628 206.252 151.828 205.92 152.227C205.604 152.609 205.446 153.183 205.446 153.948C205.446 154.713 205.604 155.295 205.92 155.694C206.252 156.094 206.701 156.293 207.267 156.293C207.832 156.293 208.281 156.094 208.614 155.694C208.947 155.279 209.113 154.697 209.113 153.948C209.113 153.183 208.947 152.609 208.614 152.227C208.281 151.828 207.832 151.628 207.267 151.628ZM213.179 164.475C213.179 163.328 213.52 162.422 214.202 161.756C214.884 161.074 215.757 160.733 216.821 160.733C217.886 160.733 218.75 161.074 219.416 161.756C220.097 162.422 220.438 163.328 220.438 164.475C220.438 165.606 220.097 166.513 219.416 167.195C218.75 167.876 217.886 168.217 216.821 168.217C215.757 168.217 214.884 167.885 214.202 167.219C213.52 166.538 213.179 165.623 213.179 164.475ZM216.796 162.155C216.231 162.155 215.782 162.355 215.449 162.754C215.117 163.137 214.95 163.71 214.95 164.475C214.95 165.224 215.117 165.798 215.449 166.197C215.782 166.579 216.231 166.77 216.796 166.77C217.362 166.77 217.811 166.579 218.143 166.197C218.476 165.798 218.642 165.224 218.642 164.475C218.642 163.71 218.476 163.137 218.143 162.754C217.811 162.355 217.362 162.155 216.796 162.155Z" fill="#080A47"/>
<path d="M172.905 179.283V179.975H170.07V182.173H172.372V182.865H170.07V185.803H169.219V179.283H172.905ZM176.559 185.887C176.078 185.887 175.642 185.778 175.249 185.56C174.862 185.341 174.557 185.033 174.332 184.634C174.114 184.228 174.005 183.76 174.005 183.23C174.005 182.706 174.117 182.245 174.342 181.846C174.572 181.44 174.884 181.132 175.277 180.92C175.67 180.701 176.11 180.592 176.596 180.592C177.083 180.592 177.522 180.701 177.915 180.92C178.308 181.132 178.617 181.437 178.841 181.836C179.072 182.236 179.187 182.7 179.187 183.23C179.187 183.76 179.069 184.228 178.832 184.634C178.601 185.033 178.286 185.341 177.887 185.56C177.488 185.778 177.045 185.887 176.559 185.887ZM176.559 185.139C176.864 185.139 177.151 185.067 177.419 184.924C177.687 184.78 177.903 184.565 178.065 184.278C178.233 183.991 178.317 183.642 178.317 183.23C178.317 182.819 178.236 182.469 178.074 182.183C177.912 181.896 177.7 181.684 177.438 181.546C177.176 181.403 176.892 181.331 176.587 181.331C176.275 181.331 175.988 181.403 175.726 181.546C175.47 181.684 175.265 181.896 175.109 182.183C174.953 182.469 174.875 182.819 174.875 183.23C174.875 183.648 174.95 184.001 175.099 184.287C175.255 184.574 175.461 184.789 175.717 184.933C175.972 185.07 176.253 185.139 176.559 185.139ZM182.932 185.887C182.452 185.887 182.015 185.778 181.623 185.56C181.236 185.341 180.93 185.033 180.706 184.634C180.487 184.228 180.378 183.76 180.378 183.23C180.378 182.706 180.491 182.245 180.715 181.846C180.946 181.44 181.258 181.132 181.651 180.92C182.043 180.701 182.483 180.592 182.97 180.592C183.456 180.592 183.896 180.701 184.289 180.92C184.682 181.132 184.99 181.437 185.215 181.836C185.446 182.236 185.561 182.7 185.561 183.23C185.561 183.76 185.442 184.228 185.205 184.634C184.975 185.033 184.66 185.341 184.261 185.56C183.861 185.778 183.419 185.887 182.932 185.887ZM182.932 185.139C183.238 185.139 183.525 185.067 183.793 184.924C184.061 184.78 184.276 184.565 184.438 184.278C184.607 183.991 184.691 183.642 184.691 183.23C184.691 182.819 184.61 182.469 184.448 182.183C184.286 181.896 184.073 181.684 183.812 181.546C183.55 181.403 183.266 181.331 182.96 181.331C182.648 181.331 182.362 181.403 182.1 181.546C181.844 181.684 181.638 181.896 181.482 182.183C181.326 182.469 181.248 182.819 181.248 183.23C181.248 183.648 181.323 184.001 181.473 184.287C181.629 184.574 181.835 184.789 182.09 184.933C182.346 185.07 182.627 185.139 182.932 185.139ZM186.752 183.221C186.752 182.697 186.858 182.239 187.07 181.846C187.282 181.447 187.572 181.138 187.94 180.92C188.314 180.701 188.732 180.592 189.194 180.592C189.593 180.592 189.964 180.686 190.307 180.873C190.65 181.054 190.912 181.294 191.093 181.593V178.88H191.953V185.803H191.093V184.839C190.924 185.145 190.675 185.397 190.344 185.597C190.014 185.79 189.627 185.887 189.184 185.887C188.729 185.887 188.314 185.775 187.94 185.55C187.572 185.326 187.282 185.011 187.07 184.605C186.858 184.2 186.752 183.739 186.752 183.221ZM191.093 183.23C191.093 182.844 191.015 182.507 190.859 182.22C190.703 181.933 190.491 181.715 190.223 181.565C189.961 181.409 189.671 181.331 189.353 181.331C189.034 181.331 188.744 181.406 188.483 181.556C188.221 181.705 188.012 181.924 187.856 182.211C187.7 182.498 187.622 182.834 187.622 183.221C187.622 183.614 187.7 183.957 187.856 184.25C188.012 184.537 188.221 184.758 188.483 184.914C188.744 185.064 189.034 185.139 189.353 185.139C189.671 185.139 189.961 185.064 190.223 184.914C190.491 184.758 190.703 184.537 190.859 184.25C191.015 183.957 191.093 183.617 191.093 183.23ZM200.679 179.283V179.975H198.901V185.803H198.05V179.975H196.263V179.283H200.679ZM201.798 183.221C201.798 182.697 201.904 182.239 202.116 181.846C202.328 181.447 202.618 181.138 202.986 180.92C203.36 180.701 203.775 180.592 204.23 180.592C204.679 180.592 205.069 180.689 205.4 180.882C205.73 181.076 205.977 181.319 206.139 181.612V180.676H206.999V185.803H206.139V184.849C205.97 185.148 205.718 185.397 205.381 185.597C205.05 185.79 204.664 185.887 204.221 185.887C203.766 185.887 203.354 185.775 202.986 185.55C202.618 185.326 202.328 185.011 202.116 184.605C201.904 184.2 201.798 183.739 201.798 183.221ZM206.139 183.23C206.139 182.844 206.061 182.507 205.905 182.22C205.749 181.933 205.537 181.715 205.269 181.565C205.007 181.409 204.717 181.331 204.399 181.331C204.081 181.331 203.791 181.406 203.529 181.556C203.267 181.705 203.058 181.924 202.902 182.211C202.746 182.498 202.668 182.834 202.668 183.221C202.668 183.614 202.746 183.957 202.902 184.25C203.058 184.537 203.267 184.758 203.529 184.914C203.791 185.064 204.081 185.139 204.399 185.139C204.717 185.139 205.007 185.064 205.269 184.914C205.537 184.758 205.749 184.537 205.905 184.25C206.061 183.957 206.139 183.617 206.139 183.23ZM210.643 185.887C210.25 185.887 209.897 185.822 209.586 185.691C209.274 185.553 209.027 185.366 208.846 185.129C208.666 184.886 208.566 184.609 208.547 184.297H209.426C209.451 184.552 209.57 184.761 209.782 184.924C210 185.086 210.284 185.167 210.633 185.167C210.958 185.167 211.213 185.095 211.4 184.952C211.587 184.808 211.681 184.627 211.681 184.409C211.681 184.184 211.581 184.019 211.382 183.913C211.182 183.801 210.873 183.692 210.456 183.586C210.075 183.486 209.763 183.386 209.52 183.286C209.283 183.18 209.077 183.028 208.903 182.828C208.734 182.622 208.65 182.354 208.65 182.024C208.65 181.762 208.728 181.521 208.884 181.303C209.04 181.085 209.261 180.913 209.548 180.789C209.835 180.658 210.162 180.592 210.53 180.592C211.098 180.592 211.556 180.736 211.906 181.023C212.255 181.309 212.442 181.702 212.467 182.201H211.616C211.597 181.933 211.488 181.718 211.288 181.556C211.095 181.394 210.833 181.313 210.502 181.313C210.197 181.313 209.953 181.378 209.773 181.509C209.592 181.64 209.501 181.811 209.501 182.024C209.501 182.192 209.554 182.332 209.66 182.444C209.773 182.551 209.91 182.638 210.072 182.706C210.24 182.769 210.471 182.841 210.764 182.922C211.132 183.021 211.432 183.121 211.662 183.221C211.893 183.314 212.089 183.458 212.252 183.651C212.42 183.845 212.507 184.097 212.514 184.409C212.514 184.69 212.436 184.942 212.28 185.167C212.124 185.391 211.902 185.569 211.616 185.7C211.335 185.825 211.011 185.887 210.643 185.887ZM215.143 181.378V184.4C215.143 184.649 215.196 184.827 215.302 184.933C215.409 185.033 215.592 185.083 215.854 185.083H216.481V185.803H215.714C215.24 185.803 214.885 185.694 214.648 185.475C214.411 185.257 214.292 184.899 214.292 184.4V181.378H213.628V180.676H214.292V179.385H215.143V180.676H216.481V181.378H215.143ZM222.58 183.043C222.58 183.205 222.57 183.377 222.552 183.558H218.454C218.486 184.063 218.657 184.459 218.969 184.746C219.287 185.026 219.67 185.167 220.12 185.167C220.487 185.167 220.793 185.083 221.036 184.914C221.286 184.74 221.46 184.509 221.56 184.222H222.477C222.34 184.715 222.065 185.117 221.654 185.429C221.242 185.734 220.731 185.887 220.12 185.887C219.633 185.887 219.197 185.778 218.81 185.56C218.429 185.341 218.13 185.033 217.912 184.634C217.694 184.228 217.584 183.76 217.584 183.23C217.584 182.7 217.69 182.236 217.902 181.836C218.114 181.437 218.411 181.132 218.791 180.92C219.178 180.701 219.621 180.592 220.12 180.592C220.606 180.592 221.036 180.698 221.41 180.91C221.785 181.122 222.072 181.415 222.271 181.79C222.477 182.158 222.58 182.575 222.58 183.043ZM221.7 182.865C221.7 182.541 221.629 182.264 221.485 182.033C221.342 181.796 221.145 181.618 220.896 181.5C220.653 181.375 220.381 181.313 220.082 181.313C219.652 181.313 219.284 181.45 218.978 181.724C218.679 181.999 218.507 182.379 218.464 182.865H221.7Z" fill="#080A47"/>
<path d="M196.12 100.922C232.716 100.922 262.383 130.589 262.383 167.185C262.383 203.781 232.716 233.448 196.12 233.448C171.113 233.448 149.342 219.596 138.061 199.147" stroke="#F06A6A" stroke-width="1.55913"/>
<circle opacity="0.8" cx="112.228" cy="126.707" r="38.351" fill="#0D0E10"/>
<path d="M99.0307 120.722C98.458 120.497 98.0182 120.17 97.7114 119.741C97.4046 119.311 97.2512 118.789 97.2512 118.176C97.2512 117.624 97.3893 117.128 97.6654 116.688C97.9415 116.238 98.3506 115.885 98.8926 115.629C99.4449 115.363 100.11 115.23 100.887 115.23C101.664 115.23 102.324 115.363 102.866 115.629C103.418 115.885 103.832 116.238 104.108 116.688C104.395 117.128 104.538 117.624 104.538 118.176C104.538 118.769 104.379 119.291 104.062 119.741C103.745 120.18 103.311 120.508 102.758 120.722C103.392 120.917 103.894 121.259 104.262 121.75C104.64 122.231 104.829 122.814 104.829 123.499C104.829 124.164 104.666 124.747 104.338 125.248C104.011 125.739 103.546 126.122 102.943 126.398C102.349 126.664 101.664 126.797 100.887 126.797C100.11 126.797 99.4244 126.664 98.8313 126.398C98.2483 126.122 97.7932 125.739 97.466 125.248C97.1387 124.747 96.9751 124.164 96.9751 123.499C96.9751 122.814 97.1592 122.226 97.5273 121.735C97.8955 121.244 98.3966 120.906 99.0307 120.722ZM103.188 118.345C103.188 117.721 102.983 117.24 102.574 116.903C102.165 116.565 101.603 116.396 100.887 116.396C100.181 116.396 99.6239 116.565 99.2148 116.903C98.8057 117.24 98.6012 117.726 98.6012 118.36C98.6012 118.933 98.8108 119.393 99.2301 119.741C99.6597 120.088 100.212 120.262 100.887 120.262C101.572 120.262 102.124 120.088 102.544 119.741C102.973 119.383 103.188 118.917 103.188 118.345ZM100.887 121.336C100.13 121.336 99.5114 121.515 99.0307 121.873C98.55 122.221 98.3097 122.747 98.3097 123.453C98.3097 124.107 98.5398 124.634 99 125.033C99.4705 125.432 100.099 125.631 100.887 125.631C101.674 125.631 102.298 125.432 102.758 125.033C103.219 124.634 103.449 124.107 103.449 123.453C103.449 122.768 103.214 122.246 102.743 121.888C102.273 121.52 101.654 121.336 100.887 121.336ZM113.995 116.611H108.611V120.109C108.846 119.781 109.193 119.516 109.654 119.311C110.114 119.096 110.61 118.989 111.142 118.989C111.991 118.989 112.681 119.168 113.213 119.526C113.744 119.873 114.123 120.329 114.348 120.891C114.583 121.443 114.701 122.031 114.701 122.655C114.701 123.392 114.563 124.051 114.287 124.634C114.01 125.217 113.586 125.677 113.013 126.015C112.451 126.352 111.75 126.521 110.912 126.521C109.838 126.521 108.968 126.245 108.304 125.693C107.639 125.14 107.235 124.404 107.092 123.484H108.457C108.59 124.067 108.871 124.522 109.301 124.849C109.73 125.176 110.272 125.34 110.927 125.34C111.735 125.34 112.343 125.099 112.752 124.619C113.162 124.128 113.366 123.484 113.366 122.686C113.366 121.888 113.162 121.275 112.752 120.845C112.343 120.405 111.74 120.185 110.942 120.185C110.4 120.185 109.925 120.318 109.516 120.584C109.117 120.84 108.825 121.193 108.641 121.643H107.322V115.384H113.995V116.611ZM116.489 117.9C116.489 117.204 116.698 116.652 117.118 116.243C117.537 115.824 118.074 115.614 118.728 115.614C119.383 115.614 119.92 115.824 120.339 116.243C120.758 116.652 120.968 117.204 120.968 117.9C120.968 118.605 120.758 119.168 120.339 119.587C119.92 119.996 119.383 120.201 118.728 120.201C118.074 120.201 117.537 119.996 117.118 119.587C116.698 119.168 116.489 118.605 116.489 117.9ZM125.447 115.783L119.235 126.49H117.854L124.067 115.783H125.447ZM118.728 116.473C118.381 116.473 118.105 116.596 117.9 116.841C117.706 117.076 117.609 117.429 117.609 117.9C117.609 118.37 117.706 118.728 117.9 118.974C118.105 119.219 118.381 119.342 118.728 119.342C119.076 119.342 119.352 119.219 119.557 118.974C119.761 118.718 119.864 118.36 119.864 117.9C119.864 117.429 119.761 117.076 119.557 116.841C119.352 116.596 119.076 116.473 118.728 116.473ZM122.364 124.373C122.364 123.668 122.574 123.11 122.993 122.701C123.412 122.282 123.949 122.072 124.604 122.072C125.258 122.072 125.79 122.282 126.199 122.701C126.618 123.11 126.828 123.668 126.828 124.373C126.828 125.069 126.618 125.626 126.199 126.045C125.79 126.465 125.258 126.674 124.604 126.674C123.949 126.674 123.412 126.47 122.993 126.061C122.574 125.641 122.364 125.079 122.364 124.373ZM124.588 122.947C124.241 122.947 123.965 123.069 123.76 123.315C123.556 123.55 123.453 123.903 123.453 124.373C123.453 124.834 123.556 125.186 123.76 125.432C123.965 125.667 124.241 125.785 124.588 125.785C124.936 125.785 125.212 125.667 125.417 125.432C125.621 125.186 125.724 124.834 125.724 124.373C125.724 123.903 125.621 123.55 125.417 123.315C125.212 123.069 124.936 122.947 124.588 122.947Z" fill="white"/>
<path d="M98.5444 134.7V140.883H97.7371V138.08H94.588V140.883H93.7807V134.7H94.588V137.414H97.7371V134.7H98.5444ZM104.349 136.022L101.422 143.171H100.588L101.546 140.83L99.5858 136.022H100.482L102.008 139.96L103.516 136.022H104.349ZM107.405 135.942C107.825 135.942 108.192 136.033 108.505 136.217C108.825 136.4 109.061 136.631 109.215 136.909V136.022H110.031V140.989C110.031 141.433 109.937 141.826 109.747 142.169C109.558 142.518 109.286 142.79 108.931 142.985C108.582 143.18 108.174 143.278 107.707 143.278C107.068 143.278 106.536 143.127 106.11 142.826C105.685 142.524 105.433 142.113 105.356 141.592H106.155C106.243 141.888 106.427 142.125 106.705 142.302C106.983 142.485 107.317 142.577 107.707 142.577C108.151 142.577 108.511 142.438 108.789 142.16C109.073 141.882 109.215 141.492 109.215 140.989V139.969C109.055 140.253 108.819 140.49 108.505 140.679C108.192 140.868 107.825 140.963 107.405 140.963C106.974 140.963 106.58 140.856 106.226 140.643C105.877 140.43 105.602 140.132 105.401 139.747C105.2 139.363 105.099 138.925 105.099 138.434C105.099 137.938 105.2 137.503 105.401 137.13C105.602 136.752 105.877 136.459 106.226 136.252C106.58 136.045 106.974 135.942 107.405 135.942ZM109.215 138.443C109.215 138.077 109.141 137.757 108.993 137.485C108.845 137.213 108.644 137.006 108.39 136.864C108.142 136.716 107.867 136.643 107.565 136.643C107.264 136.643 106.989 136.714 106.74 136.855C106.492 136.997 106.294 137.204 106.146 137.476C105.998 137.748 105.924 138.068 105.924 138.434C105.924 138.807 105.998 139.132 106.146 139.41C106.294 139.682 106.492 139.892 106.74 140.04C106.989 140.182 107.264 140.253 107.565 140.253C107.867 140.253 108.142 140.182 108.39 140.04C108.644 139.892 108.845 139.682 108.993 139.41C109.141 139.132 109.215 138.81 109.215 138.443ZM112.052 135.232C111.898 135.232 111.768 135.179 111.662 135.072C111.555 134.966 111.502 134.836 111.502 134.682C111.502 134.528 111.555 134.398 111.662 134.292C111.768 134.185 111.898 134.132 112.052 134.132C112.2 134.132 112.324 134.185 112.425 134.292C112.531 134.398 112.584 134.528 112.584 134.682C112.584 134.836 112.531 134.966 112.425 135.072C112.324 135.179 112.2 135.232 112.052 135.232ZM112.442 136.022V140.883H111.635V136.022H112.442ZM118.493 138.266C118.493 138.42 118.484 138.582 118.467 138.754H114.581C114.611 139.233 114.773 139.608 115.069 139.88C115.371 140.147 115.734 140.28 116.16 140.28C116.509 140.28 116.799 140.2 117.03 140.04C117.266 139.874 117.432 139.656 117.526 139.384H118.396C118.266 139.851 118.005 140.232 117.615 140.528C117.225 140.818 116.74 140.963 116.16 140.963C115.699 140.963 115.285 140.859 114.918 140.652C114.558 140.445 114.274 140.152 114.067 139.774C113.86 139.39 113.756 138.946 113.756 138.443C113.756 137.941 113.857 137.5 114.058 137.122C114.259 136.743 114.54 136.453 114.901 136.252C115.267 136.045 115.687 135.942 116.16 135.942C116.622 135.942 117.03 136.042 117.384 136.243C117.739 136.444 118.011 136.722 118.201 137.077C118.396 137.426 118.493 137.822 118.493 138.266ZM117.659 138.097C117.659 137.79 117.591 137.527 117.455 137.308C117.319 137.083 117.133 136.915 116.897 136.802C116.666 136.684 116.409 136.625 116.125 136.625C115.717 136.625 115.368 136.755 115.078 137.015C114.794 137.275 114.632 137.636 114.59 138.097H117.659ZM122.167 135.933C122.758 135.933 123.237 136.113 123.604 136.474C123.971 136.829 124.154 137.343 124.154 138.018V140.883H123.356V138.133C123.356 137.648 123.235 137.278 122.992 137.024C122.75 136.764 122.418 136.634 121.998 136.634C121.573 136.634 121.233 136.767 120.978 137.033C120.73 137.299 120.606 137.686 120.606 138.195V140.883H119.799V136.022H120.606V136.714C120.765 136.465 120.981 136.273 121.253 136.137C121.531 136.001 121.836 135.933 122.167 135.933ZM130.148 138.266C130.148 138.42 130.139 138.582 130.121 138.754H126.236C126.265 139.233 126.428 139.608 126.724 139.88C127.025 140.147 127.389 140.28 127.815 140.28C128.164 140.28 128.454 140.2 128.684 140.04C128.921 139.874 129.086 139.656 129.181 139.384H130.05C129.92 139.851 129.66 140.232 129.27 140.528C128.879 140.818 128.394 140.963 127.815 140.963C127.354 140.963 126.94 140.859 126.573 140.652C126.212 140.445 125.928 140.152 125.721 139.774C125.514 139.39 125.411 138.946 125.411 138.443C125.411 137.941 125.511 137.5 125.712 137.122C125.914 136.743 126.194 136.453 126.555 136.252C126.922 136.045 127.342 135.942 127.815 135.942C128.276 135.942 128.684 136.042 129.039 136.243C129.394 136.444 129.666 136.722 129.855 137.077C130.05 137.426 130.148 137.822 130.148 138.266ZM129.314 138.097C129.314 137.79 129.246 137.527 129.11 137.308C128.974 137.083 128.788 136.915 128.551 136.802C128.32 136.684 128.063 136.625 127.779 136.625C127.371 136.625 127.022 136.755 126.733 137.015C126.449 137.275 126.286 137.636 126.245 138.097H129.314Z" fill="white"/>
<path d="M112.227 86.1387C134.732 86.1387 152.975 104.382 152.975 126.887C152.975 149.391 134.732 167.635 112.227 167.635C96.85 167.635 83.462 159.117 76.5245 146.542" stroke="#0D0E10" stroke-width="0.958776"/>
<circle opacity="0.9" cx="82.8773" cy="216.372" r="45.224" fill="#285B52"/>
<path d="M68.1806 211.539C68.2989 212.213 68.571 212.733 68.9968 213.1C69.4344 213.467 70.0199 213.65 70.7532 213.65C71.7349 213.65 72.4564 213.265 72.9177 212.497C73.3908 211.728 73.6155 210.433 73.5919 208.611C73.3435 209.143 72.9295 209.563 72.35 209.871C71.7704 210.167 71.1258 210.314 70.4161 210.314C69.6236 210.314 68.914 210.155 68.2871 209.835C67.6721 209.504 67.1871 209.025 66.8323 208.398C66.4774 207.771 66.3 207.014 66.3 206.127C66.3 204.862 66.6667 203.845 67.4 203.076C68.1333 202.295 69.1742 201.905 70.5226 201.905C72.1784 201.905 73.3376 202.443 73.9999 203.519C74.6741 204.596 75.0112 206.198 75.0112 208.327C75.0112 209.818 74.8752 211.048 74.6032 212.018C74.3429 212.987 73.8935 213.727 73.2548 214.235C72.6279 214.744 71.7645 214.998 70.6645 214.998C69.4581 214.998 68.5177 214.673 67.8436 214.022C67.1694 213.372 66.785 212.544 66.6903 211.539H68.1806ZM70.6822 208.948C71.4747 208.948 72.1252 208.706 72.6338 208.221C73.1424 207.724 73.3967 207.056 73.3967 206.216C73.3967 205.329 73.1483 204.613 72.6516 204.069C72.1548 203.525 71.457 203.253 70.558 203.253C69.7301 203.253 69.0677 203.513 68.571 204.034C68.086 204.554 67.8436 205.24 67.8436 206.092C67.8436 206.955 68.086 207.647 68.571 208.168C69.0559 208.688 69.7597 208.948 70.6822 208.948ZM77.3676 213.685C78.8697 212.479 80.0466 211.491 80.8982 210.722C81.7498 209.942 82.4653 209.132 83.0449 208.292C83.6363 207.44 83.932 206.606 83.932 205.79C83.932 205.021 83.7428 204.418 83.3643 203.981C82.9976 203.531 82.4003 203.306 81.5723 203.306C80.7681 203.306 80.1412 203.561 79.6917 204.069C79.2541 204.566 79.0175 205.234 78.9821 206.074H77.4208C77.4681 204.749 77.8702 203.726 78.6272 203.005C79.3842 202.283 80.36 201.923 81.5546 201.923C82.7729 201.923 83.7368 202.26 84.4465 202.934C85.168 203.608 85.5288 204.537 85.5288 205.719C85.5288 206.701 85.2331 207.659 84.6417 208.593C84.0621 209.516 83.3997 210.332 82.6546 211.042C81.9094 211.74 80.9573 212.556 79.7982 213.49H85.9013V214.839H77.3676V213.685ZM87.6955 205.045C87.6955 204.241 87.938 203.602 88.4229 203.129C88.9078 202.644 89.5288 202.402 90.2858 202.402C91.0428 202.402 91.6637 202.644 92.1487 203.129C92.6336 203.602 92.8761 204.241 92.8761 205.045C92.8761 205.861 92.6336 206.512 92.1487 206.997C91.6637 207.47 91.0428 207.706 90.2858 207.706C89.5288 207.706 88.9078 207.47 88.4229 206.997C87.938 206.512 87.6955 205.861 87.6955 205.045ZM98.0566 202.597L90.8713 214.98H89.2745L96.4599 202.597H98.0566ZM90.2858 203.395C89.8836 203.395 89.5643 203.537 89.3277 203.821C89.103 204.093 88.9906 204.501 88.9906 205.045C88.9906 205.589 89.103 206.003 89.3277 206.287C89.5643 206.571 89.8836 206.713 90.2858 206.713C90.6879 206.713 91.0073 206.571 91.2438 206.287C91.4804 205.991 91.5987 205.577 91.5987 205.045C91.5987 204.501 91.4804 204.093 91.2438 203.821C91.0073 203.537 90.6879 203.395 90.2858 203.395ZM94.4906 212.532C94.4906 211.716 94.733 211.071 95.218 210.598C95.7029 210.113 96.3239 209.871 97.0809 209.871C97.8378 209.871 98.4529 210.113 98.926 210.598C99.4109 211.071 99.6534 211.716 99.6534 212.532C99.6534 213.336 99.4109 213.981 98.926 214.466C98.4529 214.951 97.8378 215.193 97.0809 215.193C96.3239 215.193 95.7029 214.957 95.218 214.484C94.733 213.999 94.4906 213.348 94.4906 212.532ZM97.0631 210.882C96.661 210.882 96.3416 211.024 96.1051 211.308C95.8685 211.58 95.7502 211.988 95.7502 212.532C95.7502 213.064 95.8685 213.472 96.1051 213.756C96.3416 214.028 96.661 214.164 97.0631 214.164C97.4653 214.164 97.7846 214.028 98.0212 213.756C98.2577 213.472 98.376 213.064 98.376 212.532C98.376 211.988 98.2577 211.58 98.0212 211.308C97.7846 211.024 97.4653 210.882 97.0631 210.882Z" fill="white"/>
<path d="M63.1684 227.263C63.1684 227.778 62.991 228.207 62.6362 228.55C62.2873 228.887 61.7521 229.055 61.0306 229.055H59.8419V231.637H59.0346V225.454H61.0306C61.7284 225.454 62.2577 225.622 62.6184 225.959C62.9851 226.296 63.1684 226.731 63.1684 227.263ZM61.0306 228.39C61.48 228.39 61.8112 228.292 62.0241 228.097C62.237 227.902 62.3434 227.624 62.3434 227.263C62.3434 226.5 61.9058 226.119 61.0306 226.119H59.8419V228.39H61.0306ZM64.1528 229.188C64.1528 228.692 64.2533 228.257 64.4544 227.884C64.6555 227.506 64.9305 227.213 65.2794 227.006C65.6342 226.799 66.0275 226.696 66.4592 226.696C66.885 226.696 67.2546 226.787 67.5681 226.971C67.8815 227.154 68.1151 227.385 68.2689 227.663V226.775H69.085V231.637H68.2689V230.732C68.1092 231.016 67.8697 231.252 67.5503 231.442C67.2369 231.625 66.8702 231.717 66.4503 231.717C66.0186 231.717 65.6283 231.61 65.2794 231.397C64.9305 231.184 64.6555 230.886 64.4544 230.501C64.2533 230.117 64.1528 229.679 64.1528 229.188ZM68.2689 229.197C68.2689 228.831 68.1949 228.511 68.0471 228.239C67.8992 227.967 67.6982 227.76 67.4439 227.618C67.1955 227.47 66.9205 227.396 66.6189 227.396C66.3173 227.396 66.0423 227.467 65.7939 227.609C65.5455 227.751 65.3474 227.958 65.1995 228.23C65.0517 228.502 64.9778 228.822 64.9778 229.188C64.9778 229.561 65.0517 229.886 65.1995 230.164C65.3474 230.436 65.5455 230.646 65.7939 230.794C66.0423 230.936 66.3173 231.007 66.6189 231.007C66.9205 231.007 67.1955 230.936 67.4439 230.794C67.6982 230.646 67.8992 230.436 68.0471 230.164C68.1949 229.886 68.2689 229.564 68.2689 229.197ZM70.4302 229.197C70.4302 228.695 70.5307 228.257 70.7318 227.884C70.9329 227.506 71.2108 227.213 71.5657 227.006C71.9264 226.799 72.3374 226.696 72.7987 226.696C73.396 226.696 73.8869 226.841 74.2713 227.13C74.6616 227.42 74.9188 227.822 75.043 228.337H74.1737C74.0909 228.041 73.9283 227.807 73.6858 227.636C73.4492 227.464 73.1535 227.379 72.7987 227.379C72.3374 227.379 71.9649 227.538 71.681 227.858C71.3971 228.171 71.2552 228.618 71.2552 229.197C71.2552 229.783 71.3971 230.235 71.681 230.554C71.9649 230.874 72.3374 231.034 72.7987 231.034C73.1535 231.034 73.4492 230.951 73.6858 230.785C73.9224 230.62 74.085 230.383 74.1737 230.075H75.043C74.9129 230.572 74.6527 230.971 74.2624 231.273C73.8721 231.569 73.3842 231.717 72.7987 231.717C72.3374 231.717 71.9264 231.613 71.5657 231.406C71.2108 231.199 70.9329 230.906 70.7318 230.528C70.5307 230.149 70.4302 229.706 70.4302 229.197ZM79.1173 231.637L77.2101 229.49V231.637H76.4028V225.072H77.2101V228.931L79.0818 226.775H80.2084L77.9197 229.197L80.2173 231.637H79.1173ZM80.9492 229.188C80.9492 228.692 81.0498 228.257 81.2508 227.884C81.4519 227.506 81.7269 227.213 82.0758 227.006C82.4307 226.799 82.8239 226.696 83.2556 226.696C83.6814 226.696 84.0511 226.787 84.3645 226.971C84.6779 227.154 84.9115 227.385 85.0653 227.663V226.775H85.8814V231.637H85.0653V230.732C84.9056 231.016 84.6661 231.252 84.3468 231.442C84.0333 231.625 83.6667 231.717 83.2468 231.717C82.8151 231.717 82.4247 231.61 82.0758 231.397C81.7269 231.184 81.4519 230.886 81.2508 230.501C81.0498 230.117 80.9492 229.679 80.9492 229.188ZM85.0653 229.197C85.0653 228.831 84.9914 228.511 84.8435 228.239C84.6957 227.967 84.4946 227.76 84.2403 227.618C83.9919 227.47 83.7169 227.396 83.4153 227.396C83.1137 227.396 82.8387 227.467 82.5903 227.609C82.3419 227.751 82.1438 227.958 81.996 228.23C81.8481 228.502 81.7742 228.822 81.7742 229.188C81.7742 229.561 81.8481 229.886 81.996 230.164C82.1438 230.436 82.3419 230.646 82.5903 230.794C82.8387 230.936 83.1137 231.007 83.4153 231.007C83.7169 231.007 83.9919 230.936 84.2403 230.794C84.4946 230.646 84.6957 230.436 84.8435 230.164C84.9914 229.886 85.0653 229.564 85.0653 229.197ZM89.5331 226.696C89.9529 226.696 90.3196 226.787 90.633 226.971C90.9524 227.154 91.1889 227.385 91.3427 227.663V226.775H92.1588V231.743C92.1588 232.187 92.0642 232.58 91.875 232.923C91.6857 233.272 91.4137 233.544 91.0588 233.739C90.7099 233.934 90.3019 234.032 89.8347 234.032C89.196 234.032 88.6637 233.881 88.2379 233.579C87.8121 233.278 87.5608 232.867 87.4839 232.346H88.2823C88.371 232.642 88.5543 232.879 88.8323 233.056C89.1102 233.239 89.4443 233.331 89.8347 233.331C90.2782 233.331 90.639 233.192 90.9169 232.914C91.2008 232.636 91.3427 232.246 91.3427 231.743V230.723C91.183 231.007 90.9465 231.243 90.633 231.433C90.3196 231.622 89.9529 231.717 89.5331 231.717C89.1013 231.717 88.7081 231.61 88.3532 231.397C88.0043 231.184 87.7293 230.886 87.5282 230.501C87.3272 230.117 87.2266 229.679 87.2266 229.188C87.2266 228.692 87.3272 228.257 87.5282 227.884C87.7293 227.506 88.0043 227.213 88.3532 227.006C88.7081 226.799 89.1013 226.696 89.5331 226.696ZM91.3427 229.197C91.3427 228.831 91.2688 228.511 91.1209 228.239C90.9731 227.967 90.772 227.76 90.5177 227.618C90.2693 227.47 89.9943 227.396 89.6927 227.396C89.3911 227.396 89.1161 227.467 88.8677 227.609C88.6194 227.751 88.4212 227.958 88.2734 228.23C88.1255 228.502 88.0516 228.822 88.0516 229.188C88.0516 229.561 88.1255 229.886 88.2734 230.164C88.4212 230.436 88.6194 230.646 88.8677 230.794C89.1161 230.936 89.3911 231.007 89.6927 231.007C89.9943 231.007 90.2693 230.936 90.5177 230.794C90.772 230.646 90.9731 230.436 91.1209 230.164C91.2688 229.886 91.3427 229.564 91.3427 229.197ZM94.2226 225.986C94.0688 225.986 93.9387 225.933 93.8323 225.826C93.7258 225.72 93.6726 225.59 93.6726 225.436C93.6726 225.282 93.7258 225.152 93.8323 225.046C93.9387 224.939 94.0688 224.886 94.2226 224.886C94.3704 224.886 94.4946 224.939 94.5952 225.046C94.7016 225.152 94.7548 225.282 94.7548 225.436C94.7548 225.59 94.7016 225.72 94.5952 225.826C94.4946 225.933 94.3704 225.986 94.2226 225.986ZM94.6129 226.775V231.637H93.8056V226.775H94.6129ZM98.6399 226.687C99.2313 226.687 99.7103 226.867 100.077 227.228C100.444 227.583 100.627 228.097 100.627 228.771V231.637H99.8286V228.887C99.8286 228.402 99.7073 228.032 99.4649 227.778C99.2224 227.518 98.8912 227.388 98.4713 227.388C98.0455 227.388 97.7055 227.521 97.4512 227.787C97.2028 228.053 97.0786 228.44 97.0786 228.949V231.637H96.2714V226.775H97.0786V227.467C97.2383 227.219 97.4541 227.027 97.7262 226.891C98.0041 226.755 98.3087 226.687 98.6399 226.687ZM104.233 226.696C104.653 226.696 105.02 226.787 105.333 226.971C105.652 227.154 105.889 227.385 106.043 227.663V226.775H106.859V231.743C106.859 232.187 106.764 232.58 106.575 232.923C106.386 233.272 106.114 233.544 105.759 233.739C105.41 233.934 105.002 234.032 104.535 234.032C103.896 234.032 103.364 233.881 102.938 233.579C102.512 233.278 102.261 232.867 102.184 232.346H102.982C103.071 232.642 103.254 232.879 103.532 233.056C103.81 233.239 104.144 233.331 104.535 233.331C104.978 233.331 105.339 233.192 105.617 232.914C105.901 232.636 106.043 232.246 106.043 231.743V230.723C105.883 231.007 105.646 231.243 105.333 231.433C105.02 231.622 104.653 231.717 104.233 231.717C103.801 231.717 103.408 231.61 103.053 231.397C102.704 231.184 102.429 230.886 102.228 230.501C102.027 230.117 101.927 229.679 101.927 229.188C101.927 228.692 102.027 228.257 102.228 227.884C102.429 227.506 102.704 227.213 103.053 227.006C103.408 226.799 103.801 226.696 104.233 226.696ZM106.043 229.197C106.043 228.831 105.969 228.511 105.821 228.239C105.673 227.967 105.472 227.76 105.218 227.618C104.969 227.47 104.694 227.396 104.393 227.396C104.091 227.396 103.816 227.467 103.568 227.609C103.319 227.751 103.121 227.958 102.973 228.23C102.826 228.502 102.752 228.822 102.752 229.188C102.752 229.561 102.826 229.886 102.973 230.164C103.121 230.436 103.319 230.646 103.568 230.794C103.816 230.936 104.091 231.007 104.393 231.007C104.694 231.007 104.969 230.936 105.218 230.794C105.472 230.646 105.673 230.436 105.821 230.164C105.969 229.886 106.043 229.564 106.043 229.197Z" fill="white"/>
<path d="M82.8749 168.193C109.412 168.193 130.925 189.706 130.925 216.244C130.925 242.781 109.412 264.294 82.8749 264.294C64.7416 264.294 48.9544 254.25 40.7736 239.421" stroke="#285B52" stroke-width="1.1306"/>
<path d="M37.458 31.7762L35.0155 36.4851V39H33.5666V36.4851L31.1138 31.7762H32.749L34.3014 35.0776L35.8435 31.7762H37.458ZM41.2092 39.0931C40.6572 39.0931 40.1604 38.9724 39.7189 38.7309C39.2773 38.4825 38.9289 38.1341 38.6736 37.6856C38.4252 37.2372 38.301 36.7197 38.301 36.1332C38.301 35.5468 38.4286 35.0293 38.6839 34.5808C38.9461 34.1324 39.3014 33.7874 39.7499 33.5459C40.1984 33.2975 40.6986 33.1733 41.2506 33.1733C41.8025 33.1733 42.3027 33.2975 42.7512 33.5459C43.1997 33.7874 43.5516 34.1324 43.8069 34.5808C44.069 35.0293 44.2001 35.5468 44.2001 36.1332C44.2001 36.7197 44.0656 37.2372 43.7965 37.6856C43.5343 38.1341 43.1755 38.4825 42.7202 38.7309C42.2717 38.9724 41.768 39.0931 41.2092 39.0931ZM41.2092 37.8305C41.4714 37.8305 41.7163 37.7684 41.944 37.6442C42.1786 37.5131 42.3648 37.32 42.5028 37.0647C42.6408 36.8094 42.7098 36.4989 42.7098 36.1332C42.7098 35.5882 42.5649 35.1707 42.2751 34.881C41.9923 34.5843 41.6438 34.4359 41.2299 34.4359C40.8159 34.4359 40.4675 34.5843 40.1846 34.881C39.9086 35.1707 39.7706 35.5882 39.7706 36.1332C39.7706 36.6783 39.9052 37.0992 40.1742 37.3959C40.4502 37.6856 40.7952 37.8305 41.2092 37.8305ZM51.0453 33.2665V39H49.586V38.2755C49.3997 38.5239 49.1548 38.7206 48.8512 38.8655C48.5545 39.0034 48.2303 39.0724 47.8784 39.0724C47.4299 39.0724 47.0332 38.9793 46.6882 38.793C46.3432 38.5998 46.0707 38.3204 45.8706 37.9547C45.6774 37.5821 45.5808 37.1406 45.5808 36.63V33.2665H47.0297V36.423C47.0297 36.8784 47.1436 37.2303 47.3713 37.4786C47.5989 37.7201 47.9094 37.8409 48.3027 37.8409C48.7029 37.8409 49.0168 37.7201 49.2445 37.4786C49.4722 37.2303 49.586 36.8784 49.586 36.423V33.2665H51.0453ZM54.2934 34.1565C54.4797 33.8529 54.7212 33.6149 55.0178 33.4424C55.3214 33.2699 55.6664 33.1837 56.0528 33.1837V34.705H55.6698C55.2145 34.705 54.8695 34.812 54.6349 35.0259C54.4072 35.2397 54.2934 35.6123 54.2934 36.1436V39H52.8445V33.2665H54.2934V34.1565ZM63.9597 39L62.3659 36.185H61.6829V39H60.234V31.7762H62.9455C63.5044 31.7762 63.9804 31.8762 64.3737 32.0763C64.767 32.2695 65.0602 32.5351 65.2534 32.8732C65.4535 33.2044 65.5535 33.5769 65.5535 33.9909C65.5535 34.467 65.4155 34.8982 65.1396 35.2846C64.8636 35.6641 64.4531 35.9262 63.908 36.0711L65.6363 39H63.9597ZM61.6829 35.0983H62.8938C63.287 35.0983 63.5803 35.0052 63.7734 34.8189C63.9666 34.6257 64.0632 34.36 64.0632 34.022C64.0632 33.6908 63.9666 33.4355 63.7734 33.2561C63.5803 33.0698 63.287 32.9767 62.8938 32.9767H61.6829V35.0983ZM66.8611 36.1125C66.8611 35.533 66.9749 35.019 67.2026 34.5705C67.4372 34.122 67.7511 33.777 68.1444 33.5356C68.5445 33.2941 68.9896 33.1733 69.4794 33.1733C69.9072 33.1733 70.2798 33.2596 70.5972 33.4321C70.9214 33.6045 71.1802 33.8219 71.3734 34.0841V33.2665H72.8326V39H71.3734V38.1617C71.1871 38.4308 70.9283 38.655 70.5972 38.8344C70.2729 39.0069 69.8969 39.0931 69.4691 39.0931C68.9861 39.0931 68.5445 38.969 68.1444 38.7206C67.7511 38.4722 67.4372 38.1238 67.2026 37.6753C66.9749 37.2199 66.8611 36.699 66.8611 36.1125ZM71.3734 36.1332C71.3734 35.7814 71.3044 35.4812 71.1664 35.2328C71.0284 34.9776 70.8421 34.7844 70.6075 34.6533C70.3729 34.5153 70.1211 34.4463 69.852 34.4463C69.5829 34.4463 69.3345 34.5118 69.1069 34.6429C68.8792 34.774 68.6929 34.9672 68.548 35.2225C68.41 35.4709 68.341 35.7676 68.341 36.1125C68.341 36.4575 68.41 36.7611 68.548 37.0233C68.6929 37.2786 68.8792 37.4752 69.1069 37.6132C69.3414 37.7512 69.5898 37.8202 69.852 37.8202C70.1211 37.8202 70.3729 37.7546 70.6075 37.6235C70.8421 37.4855 71.0284 37.2924 71.1664 37.044C71.3044 36.7887 71.3734 36.4851 71.3734 36.1332ZM76.3043 34.4566V37.2303C76.3043 37.4235 76.3491 37.5649 76.4388 37.6546C76.5354 37.7374 76.6941 37.7788 76.9149 37.7788H77.5876V39H76.6769C75.4556 39 74.845 38.4066 74.845 37.2199V34.4566H74.162V33.2665H74.845V31.8486H76.3043V33.2665H77.5876V34.4566H76.3043ZM79.7342 32.5834C79.4789 32.5834 79.265 32.5041 79.0925 32.3454C78.9269 32.1798 78.8441 31.9763 78.8441 31.7348C78.8441 31.4933 78.9269 31.2932 79.0925 31.1345C79.265 30.9689 79.4789 30.8861 79.7342 30.8861C79.9894 30.8861 80.1999 30.9689 80.3655 31.1345C80.538 31.2932 80.6242 31.4933 80.6242 31.7348C80.6242 31.9763 80.538 32.1798 80.3655 32.3454C80.1999 32.5041 79.9894 32.5834 79.7342 32.5834ZM80.4483 33.2665V39H78.9994V33.2665H80.4483ZM85.4267 33.1837C86.1097 33.1837 86.6617 33.401 87.0825 33.8357C87.5034 34.2635 87.7139 34.8637 87.7139 35.6365V39H86.265V35.8331C86.265 35.3777 86.1511 35.0293 85.9234 34.7878C85.6957 34.5394 85.3853 34.4152 84.992 34.4152C84.5918 34.4152 84.2744 34.5394 84.0398 34.7878C83.8122 35.0293 83.6983 35.3777 83.6983 35.8331V39H82.2494V33.2665H83.6983V33.9806C83.8915 33.7322 84.1364 33.539 84.4331 33.401C84.7367 33.2561 85.0679 33.1837 85.4267 33.1837ZM91.7071 33.1733C92.1349 33.1733 92.5109 33.2596 92.8352 33.4321C93.1595 33.5976 93.4148 33.815 93.601 34.0841V33.2665H95.0603V39.0414C95.0603 39.5727 94.9534 40.0453 94.7395 40.4593C94.5256 40.8801 94.2048 41.2113 93.777 41.4528C93.3492 41.7012 92.8317 41.8254 92.2246 41.8254C91.4104 41.8254 90.7412 41.6356 90.2168 41.2562C89.6993 40.8767 89.4061 40.3592 89.3371 39.7038H90.7757C90.8516 39.9659 91.0137 40.1729 91.2621 40.3247C91.5174 40.4834 91.8244 40.5627 92.1832 40.5627C92.6041 40.5627 92.9456 40.4351 93.2078 40.1798C93.47 39.9314 93.601 39.552 93.601 39.0414V38.1514C93.4148 38.4204 93.156 38.6447 92.8248 38.8241C92.5006 39.0034 92.128 39.0931 91.7071 39.0931C91.2241 39.0931 90.7826 38.969 90.3824 38.7206C89.9822 38.4722 89.6648 38.1238 89.4303 37.6753C89.2026 37.2199 89.0887 36.699 89.0887 36.1125C89.0887 35.533 89.2026 35.019 89.4303 34.5705C89.6648 34.122 89.9788 33.777 90.3721 33.5356C90.7722 33.2941 91.2172 33.1733 91.7071 33.1733ZM93.601 36.1332C93.601 35.7814 93.5321 35.4812 93.3941 35.2328C93.2561 34.9776 93.0698 34.7844 92.8352 34.6533C92.6006 34.5153 92.3488 34.4463 92.0797 34.4463C91.8106 34.4463 91.5622 34.5118 91.3345 34.6429C91.1069 34.774 90.9206 34.9672 90.7757 35.2225C90.6377 35.4709 90.5687 35.7676 90.5687 36.1125C90.5687 36.4575 90.6377 36.7611 90.7757 37.0233C90.9206 37.2786 91.1069 37.4752 91.3345 37.6132C91.5691 37.7512 91.8175 37.8202 92.0797 37.8202C92.3488 37.8202 92.6006 37.7546 92.8352 37.6235C93.0698 37.4855 93.2561 37.2924 93.3941 37.044C93.5321 36.7887 93.601 36.4851 93.601 36.1332Z" fill="black"/>
<path opacity="0.5" d="M32.4903 59.5213H34.6548V60.1777H31.6831V53.9947H32.4903V59.5213ZM38.0018 60.2576C37.5465 60.2576 37.1325 60.1541 36.7599 59.9471C36.3933 59.7401 36.1035 59.4474 35.8906 59.0689C35.6836 58.6845 35.5801 58.2409 35.5801 57.7382C35.5801 57.2415 35.6865 56.8039 35.8994 56.4254C36.1183 56.041 36.4139 55.7482 36.7865 55.5471C37.1591 55.3402 37.576 55.2367 38.0373 55.2367C38.4986 55.2367 38.9155 55.3402 39.2881 55.5471C39.6607 55.7482 39.9534 56.038 40.1663 56.4165C40.3851 56.795 40.4945 57.2356 40.4945 57.7382C40.4945 58.2409 40.3822 58.6845 40.1575 59.0689C39.9386 59.4474 39.64 59.7401 39.2615 59.9471C38.883 60.1541 38.4631 60.2576 38.0018 60.2576ZM38.0018 59.5479C38.2916 59.5479 38.5637 59.4799 38.818 59.3439C39.0722 59.2079 39.2763 59.0038 39.43 58.7318C39.5897 58.4597 39.6696 58.1286 39.6696 57.7382C39.6696 57.3479 39.5927 57.0168 39.4389 56.7447C39.2851 56.4727 39.0841 56.2716 38.8357 56.1415C38.5873 56.0055 38.3182 55.9375 38.0284 55.9375C37.7327 55.9375 37.4607 56.0055 37.2123 56.1415C36.9699 56.2716 36.7747 56.4727 36.6268 56.7447C36.479 57.0168 36.4051 57.3479 36.4051 57.7382C36.4051 58.1345 36.476 58.4686 36.618 58.7407C36.7658 59.0127 36.961 59.2167 37.2035 59.3527C37.4459 59.4829 37.7121 59.5479 38.0018 59.5479ZM42.7328 56.106C42.8747 55.8281 43.0758 55.6122 43.336 55.4584C43.6021 55.3047 43.9244 55.2278 44.3029 55.2278V56.0617H44.09C43.1852 56.0617 42.7328 56.5525 42.7328 57.5342V60.1777H41.9255V55.3165H42.7328V56.106ZM50.0398 57.5608C50.0398 57.7146 50.031 57.8772 50.0132 58.0487H46.1278C46.1574 58.5278 46.32 58.9033 46.6157 59.1753C46.9173 59.4415 47.281 59.5745 47.7068 59.5745C48.0557 59.5745 48.3455 59.4947 48.5761 59.335C48.8127 59.1694 48.9783 58.9506 49.0729 58.6786H49.9423C49.8122 59.1458 49.5519 59.5272 49.1616 59.8229C48.7713 60.1127 48.2864 60.2576 47.7068 60.2576C47.2455 60.2576 46.8315 60.1541 46.4649 59.9471C46.1041 59.7401 45.8203 59.4474 45.6133 59.0689C45.4063 58.6845 45.3028 58.2409 45.3028 57.7382C45.3028 57.2356 45.4033 56.795 45.6044 56.4165C45.8055 56.038 46.0864 55.7482 46.4471 55.5471C46.8138 55.3402 47.2337 55.2367 47.7068 55.2367C48.1681 55.2367 48.5761 55.3372 48.931 55.5383C49.2858 55.7393 49.5579 56.0173 49.7471 56.3721C49.9423 56.7211 50.0398 57.1173 50.0398 57.5608ZM49.206 57.3923C49.206 57.0848 49.138 56.8216 49.0019 56.6028C48.8659 56.3781 48.6796 56.2095 48.4431 56.0971C48.2124 55.9789 47.9552 55.9197 47.6713 55.9197C47.2633 55.9197 46.9143 56.0498 46.6246 56.31C46.3407 56.5703 46.1781 56.931 46.1367 57.3923H49.206ZM57.3209 55.2278C57.6994 55.2278 58.0365 55.3076 58.3322 55.4673C58.6279 55.6211 58.8615 55.8547 59.033 56.1681C59.2045 56.4815 59.2902 56.863 59.2902 57.3124V60.1777H58.4918V57.4278C58.4918 56.9428 58.3706 56.5732 58.1281 56.3189C57.8916 56.0587 57.5693 55.9286 57.1612 55.9286C56.7413 55.9286 56.4072 56.0646 56.1588 56.3367C55.9104 56.6028 55.7862 56.9901 55.7862 57.4987V60.1777H54.9879V57.4278C54.9879 56.9428 54.8666 56.5732 54.6242 56.3189C54.3876 56.0587 54.0653 55.9286 53.6572 55.9286C53.2373 55.9286 52.9032 56.0646 52.6548 56.3367C52.4064 56.6028 52.2822 56.9901 52.2822 57.4987V60.1777H51.475V55.3165H52.2822V56.0173C52.4419 55.763 52.6548 55.5678 52.921 55.4318C53.193 55.2958 53.4916 55.2278 53.8169 55.2278C54.225 55.2278 54.5857 55.3195 54.8992 55.5028C55.2126 55.6861 55.4462 55.9552 55.5999 56.31C55.736 55.967 55.9607 55.7009 56.2741 55.5117C56.5876 55.3224 56.9365 55.2278 57.3209 55.2278ZM64.1356 54.527C63.9818 54.527 63.8517 54.4738 63.7452 54.3673C63.6388 54.2609 63.5856 54.1308 63.5856 53.977C63.5856 53.8232 63.6388 53.6931 63.7452 53.5867C63.8517 53.4802 63.9818 53.427 64.1356 53.427C64.2834 53.427 64.4076 53.4802 64.5081 53.5867C64.6146 53.6931 64.6678 53.8232 64.6678 53.977C64.6678 54.1308 64.6146 54.2609 64.5081 54.3673C64.4076 54.4738 64.2834 54.527 64.1356 54.527ZM64.5259 55.3165V60.1777H63.7186V55.3165H64.5259ZM67.0786 56.2125C67.2382 55.9345 67.4748 55.7039 67.7882 55.5205C68.1076 55.3313 68.4772 55.2367 68.8971 55.2367C69.3288 55.2367 69.7191 55.3402 70.068 55.5471C70.4229 55.7541 70.7008 56.0469 70.9019 56.4254C71.103 56.7979 71.2035 57.2326 71.2035 57.7294C71.2035 58.2202 71.103 58.6579 70.9019 59.0423C70.7008 59.4267 70.4229 59.7253 70.068 59.9382C69.7191 60.1511 69.3288 60.2576 68.8971 60.2576C68.4831 60.2576 68.1165 60.1659 67.7971 59.9826C67.4837 59.7933 67.2442 59.5597 67.0786 59.2818V62.4842H66.2713V55.3165H67.0786V56.2125ZM70.3785 57.7294C70.3785 57.3627 70.3046 57.0434 70.1567 56.7713C70.0089 56.4993 69.8078 56.2923 69.5535 56.1504C69.3051 56.0084 69.0301 55.9375 68.7285 55.9375C68.4328 55.9375 68.1578 56.0114 67.9036 56.1592C67.6552 56.3012 67.4541 56.5111 67.3003 56.7891C67.1525 57.0611 67.0786 57.3775 67.0786 57.7382C67.0786 58.1049 67.1525 58.4272 67.3003 58.7052C67.4541 58.9772 67.6552 59.1872 67.9036 59.335C68.1578 59.4769 68.4328 59.5479 68.7285 59.5479C69.0301 59.5479 69.3051 59.4769 69.5535 59.335C69.8078 59.1872 70.0089 58.9772 70.1567 58.7052C70.3046 58.4272 70.3785 58.102 70.3785 57.7294ZM74.3566 60.2576C73.9841 60.2576 73.6499 60.1955 73.3542 60.0713C73.0585 59.9412 72.8249 59.7638 72.6534 59.539C72.4819 59.3084 72.3873 59.0452 72.3696 58.7495H73.2034C73.2271 58.992 73.3394 59.1901 73.5405 59.3439C73.7475 59.4976 74.0166 59.5745 74.3478 59.5745C74.6553 59.5745 74.8978 59.5065 75.0752 59.3705C75.2526 59.2345 75.3413 59.063 75.3413 58.856C75.3413 58.6431 75.2467 58.4864 75.0574 58.3858C74.8682 58.2794 74.5755 58.1759 74.1792 58.0753C73.8185 57.9807 73.5228 57.8861 73.2921 57.7915C73.0674 57.6909 72.8722 57.546 72.7067 57.3568C72.547 57.1616 72.4671 56.9073 72.4671 56.5939C72.4671 56.3455 72.5411 56.1178 72.6889 55.9109C72.8368 55.7039 73.0467 55.5412 73.3187 55.423C73.5908 55.2988 73.9013 55.2367 74.2502 55.2367C74.7884 55.2367 75.223 55.3727 75.5542 55.6447C75.8854 55.9168 76.0628 56.2893 76.0865 56.7625H75.2792C75.2615 56.5082 75.158 56.3041 74.9687 56.1504C74.7854 55.9966 74.537 55.9197 74.2236 55.9197C73.9338 55.9197 73.7032 55.9818 73.5316 56.106C73.3601 56.2302 73.2744 56.3928 73.2744 56.5939C73.2744 56.7536 73.3247 56.8866 73.4252 56.9931C73.5316 57.0936 73.6618 57.1764 73.8155 57.2415C73.9752 57.3006 74.194 57.3686 74.472 57.4455C74.8209 57.5401 75.1047 57.6348 75.3236 57.7294C75.5424 57.8181 75.7287 57.9541 75.8824 58.1374C76.0421 58.3208 76.1249 58.5603 76.1308 58.856C76.1308 59.1221 76.0569 59.3616 75.909 59.5745C75.7612 59.7874 75.5512 59.956 75.2792 60.0802C75.0131 60.1984 74.7056 60.2576 74.3566 60.2576ZM81.9512 55.3165V60.1777H81.144V59.4592C80.9902 59.7076 80.7744 59.9027 80.4964 60.0447C80.2244 60.1807 79.9228 60.2487 79.5916 60.2487C79.2131 60.2487 78.873 60.1718 78.5714 60.0181C78.2698 59.8584 78.0303 59.6218 77.8529 59.3084C77.6814 58.995 77.5956 58.6135 77.5956 58.164V55.3165H78.394V58.0576C78.394 58.5366 78.5152 58.9062 78.7577 59.1665C79.0002 59.4208 79.3314 59.5479 79.7513 59.5479C80.183 59.5479 80.523 59.4148 80.7714 59.1487C81.0198 58.8826 81.144 58.4952 81.144 57.9866V55.3165H81.9512ZM89.5297 55.2278C89.9082 55.2278 90.2453 55.3076 90.541 55.4673C90.8367 55.6211 91.0703 55.8547 91.2418 56.1681C91.4133 56.4815 91.4991 56.863 91.4991 57.3124V60.1777H90.7007V57.4278C90.7007 56.9428 90.5795 56.5732 90.337 56.3189C90.1004 56.0587 89.7781 55.9286 89.3701 55.9286C88.9502 55.9286 88.616 56.0646 88.3677 56.3367C88.1193 56.6028 87.9951 56.9901 87.9951 57.4987V60.1777H87.1967V57.4278C87.1967 56.9428 87.0755 56.5732 86.833 56.3189C86.5964 56.0587 86.2741 55.9286 85.8661 55.9286C85.4462 55.9286 85.112 56.0646 84.8637 56.3367C84.6153 56.6028 84.4911 56.9901 84.4911 57.4987V60.1777H83.6838V55.3165H84.4911V56.0173C84.6508 55.763 84.8637 55.5678 85.1298 55.4318C85.4018 55.2958 85.7005 55.2278 86.0257 55.2278C86.4338 55.2278 86.7946 55.3195 87.108 55.5028C87.4214 55.6861 87.655 55.9552 87.8088 56.31C87.9448 55.967 88.1695 55.7009 88.483 55.5117C88.7964 55.3224 89.1453 55.2278 89.5297 55.2278ZM95.6259 57.7294C95.6259 57.2326 95.7264 56.7979 95.9275 56.4254C96.1285 56.0469 96.4035 55.7541 96.7525 55.5471C97.1073 55.3402 97.5035 55.2367 97.9411 55.2367C98.3196 55.2367 98.6715 55.3254 98.9968 55.5028C99.322 55.6743 99.5704 55.902 99.7419 56.1858V53.6133H100.558V60.1777H99.7419V59.264C99.5823 59.5538 99.3457 59.7933 99.0323 59.9826C98.7188 60.1659 98.3522 60.2576 97.9323 60.2576C97.5006 60.2576 97.1073 60.1511 96.7525 59.9382C96.4035 59.7253 96.1285 59.4267 95.9275 59.0423C95.7264 58.6579 95.6259 58.2202 95.6259 57.7294ZM99.7419 57.7382C99.7419 57.3716 99.668 57.0522 99.5202 56.7802C99.3723 56.5082 99.1712 56.3012 98.9169 56.1592C98.6686 56.0114 98.3936 55.9375 98.092 55.9375C97.7903 55.9375 97.5153 56.0084 97.267 56.1504C97.0186 56.2923 96.8205 56.4993 96.6726 56.7713C96.5248 57.0434 96.4508 57.3627 96.4508 57.7294C96.4508 58.102 96.5248 58.4272 96.6726 58.7052C96.8205 58.9772 97.0186 59.1872 97.267 59.335C97.5153 59.4769 97.7903 59.5479 98.092 59.5479C98.3936 59.5479 98.6686 59.4769 98.9169 59.335C99.1712 59.1872 99.3723 58.9772 99.5202 58.7052C99.668 58.4272 99.7419 58.1049 99.7419 57.7382ZM104.412 60.2576C103.957 60.2576 103.543 60.1541 103.17 59.9471C102.803 59.7401 102.514 59.4474 102.301 59.0689C102.094 58.6845 101.99 58.2409 101.99 57.7382C101.99 57.2415 102.097 56.8039 102.31 56.4254C102.528 56.041 102.824 55.7482 103.197 55.5471C103.569 55.3402 103.986 55.2367 104.447 55.2367C104.909 55.2367 105.326 55.3402 105.698 55.5471C106.071 55.7482 106.364 56.038 106.576 56.4165C106.795 56.795 106.905 57.2356 106.905 57.7382C106.905 58.2409 106.792 58.6845 106.568 59.0689C106.349 59.4474 106.05 59.7401 105.672 59.9471C105.293 60.1541 104.873 60.2576 104.412 60.2576ZM104.412 59.5479C104.702 59.5479 104.974 59.4799 105.228 59.3439C105.482 59.2079 105.686 59.0038 105.84 58.7318C106 58.4597 106.08 58.1286 106.08 57.7382C106.08 57.3479 106.003 57.0168 105.849 56.7447C105.695 56.4727 105.494 56.2716 105.246 56.1415C104.997 56.0055 104.728 55.9375 104.439 55.9375C104.143 55.9375 103.871 56.0055 103.622 56.1415C103.38 56.2716 103.185 56.4727 103.037 56.7447C102.889 57.0168 102.815 57.3479 102.815 57.7382C102.815 58.1345 102.886 58.4686 103.028 58.7407C103.176 59.0127 103.371 59.2167 103.614 59.3527C103.856 59.4829 104.122 59.5479 104.412 59.5479ZM109.143 53.6133V60.1777H108.336V53.6133H109.143ZM113.009 60.2576C112.553 60.2576 112.139 60.1541 111.767 59.9471C111.4 59.7401 111.11 59.4474 110.897 59.0689C110.69 58.6845 110.587 58.2409 110.587 57.7382C110.587 57.2415 110.693 56.8039 110.906 56.4254C111.125 56.041 111.421 55.7482 111.793 55.5471C112.166 55.3402 112.583 55.2367 113.044 55.2367C113.505 55.2367 113.922 55.3402 114.295 55.5471C114.667 55.7482 114.96 56.038 115.173 56.4165C115.392 56.795 115.501 57.2356 115.501 57.7382C115.501 58.2409 115.389 58.6845 115.164 59.0689C114.945 59.4474 114.647 59.7401 114.268 59.9471C113.89 60.1541 113.47 60.2576 113.009 60.2576ZM113.009 59.5479C113.298 59.5479 113.57 59.4799 113.825 59.3439C114.079 59.2079 114.283 59.0038 114.437 58.7318C114.596 58.4597 114.676 58.1286 114.676 57.7382C114.676 57.3479 114.599 57.0168 114.446 56.7447C114.292 56.4727 114.091 56.2716 113.842 56.1415C113.594 56.0055 113.325 55.9375 113.035 55.9375C112.739 55.9375 112.467 56.0055 112.219 56.1415C111.977 56.2716 111.781 56.4727 111.634 56.7447C111.486 57.0168 111.412 57.3479 111.412 57.7382C111.412 58.1345 111.483 58.4686 111.625 58.7407C111.773 59.0127 111.968 59.2167 112.21 59.3527C112.453 59.4829 112.719 59.5479 113.009 59.5479ZM117.739 56.106C117.881 55.8281 118.082 55.6122 118.343 55.4584C118.609 55.3047 118.931 55.2278 119.31 55.2278V56.0617H119.097C118.192 56.0617 117.739 56.5525 117.739 57.5342V60.1777H116.932V55.3165H117.739V56.106ZM125.067 60.2576C124.694 60.2576 124.36 60.1955 124.064 60.0713C123.769 59.9412 123.535 59.7638 123.363 59.539C123.192 59.3084 123.097 59.0452 123.08 58.7495H123.913C123.937 58.992 124.049 59.1901 124.251 59.3439C124.458 59.4976 124.727 59.5745 125.058 59.5745C125.365 59.5745 125.608 59.5065 125.785 59.3705C125.963 59.2345 126.051 59.063 126.051 58.856C126.051 58.6431 125.957 58.4864 125.767 58.3858C125.578 58.2794 125.285 58.1759 124.889 58.0753C124.528 57.9807 124.233 57.8861 124.002 57.7915C123.777 57.6909 123.582 57.546 123.417 57.3568C123.257 57.1616 123.177 56.9073 123.177 56.5939C123.177 56.3455 123.251 56.1178 123.399 55.9109C123.547 55.7039 123.757 55.5412 124.029 55.423C124.301 55.2988 124.611 55.2367 124.96 55.2367C125.498 55.2367 125.933 55.3727 126.264 55.6447C126.595 55.9168 126.773 56.2893 126.796 56.7625H125.989C125.971 56.5082 125.868 56.3041 125.679 56.1504C125.495 55.9966 125.247 55.9197 124.934 55.9197C124.644 55.9197 124.413 55.9818 124.242 56.106C124.07 56.2302 123.984 56.3928 123.984 56.5939C123.984 56.7536 124.035 56.8866 124.135 56.9931C124.242 57.0936 124.372 57.1764 124.526 57.2415C124.685 57.3006 124.904 57.3686 125.182 57.4455C125.531 57.5401 125.815 57.6348 126.034 57.7294C126.252 57.8181 126.439 57.9541 126.592 58.1374C126.752 58.3208 126.835 58.5603 126.841 58.856C126.841 59.1221 126.767 59.3616 126.619 59.5745C126.471 59.7874 126.261 59.956 125.989 60.0802C125.723 60.1984 125.416 60.2576 125.067 60.2576ZM128.767 54.527C128.613 54.527 128.483 54.4738 128.377 54.3673C128.27 54.2609 128.217 54.1308 128.217 53.977C128.217 53.8232 128.27 53.6931 128.377 53.5867C128.483 53.4802 128.613 53.427 128.767 53.427C128.915 53.427 129.039 53.4802 129.139 53.5867C129.246 53.6931 129.299 53.8232 129.299 53.977C129.299 54.1308 129.246 54.2609 129.139 54.3673C129.039 54.4738 128.915 54.527 128.767 54.527ZM129.157 55.3165V60.1777H128.35V55.3165H129.157ZM131.887 55.9818V58.8471C131.887 59.0837 131.938 59.2522 132.038 59.3527C132.139 59.4474 132.313 59.4947 132.562 59.4947H133.156V60.1777H132.428C131.979 60.1777 131.642 60.0742 131.417 59.8673C131.192 59.6603 131.08 59.3202 131.08 58.8471V55.9818H130.45V55.3165H131.08V54.0923H131.887V55.3165H133.156V55.9818H131.887ZM136.937 57.7294C136.937 57.2326 137.037 56.7979 137.238 56.4254C137.439 56.0469 137.714 55.7541 138.063 55.5471C138.418 55.3402 138.811 55.2367 139.243 55.2367C139.669 55.2367 140.038 55.3283 140.352 55.5117C140.665 55.695 140.899 55.9256 141.053 56.2036V55.3165H141.869V60.1777H141.053V59.2729C140.893 59.5568 140.653 59.7933 140.334 59.9826C140.021 60.1659 139.654 60.2576 139.234 60.2576C138.802 60.2576 138.412 60.1511 138.063 59.9382C137.714 59.7253 137.439 59.4267 137.238 59.0423C137.037 58.6579 136.937 58.2202 136.937 57.7294ZM141.053 57.7382C141.053 57.3716 140.979 57.0522 140.831 56.7802C140.683 56.5082 140.482 56.3012 140.228 56.1592C139.979 56.0114 139.704 55.9375 139.403 55.9375C139.101 55.9375 138.826 56.0084 138.578 56.1504C138.329 56.2923 138.131 56.4993 137.983 56.7713C137.835 57.0434 137.762 57.3627 137.762 57.7294C137.762 58.102 137.835 58.4272 137.983 58.7052C138.131 58.9772 138.329 59.1872 138.578 59.335C138.826 59.4769 139.101 59.5479 139.403 59.5479C139.704 59.5479 139.979 59.4769 140.228 59.335C140.482 59.1872 140.683 58.9772 140.831 58.7052C140.979 58.4272 141.053 58.1049 141.053 57.7382ZM149.448 55.2278C149.827 55.2278 150.164 55.3076 150.46 55.4673C150.755 55.6211 150.989 55.8547 151.161 56.1681C151.332 56.4815 151.418 56.863 151.418 57.3124V60.1777H150.619V57.4278C150.619 56.9428 150.498 56.5732 150.256 56.3189C150.019 56.0587 149.697 55.9286 149.289 55.9286C148.869 55.9286 148.535 56.0646 148.286 56.3367C148.038 56.6028 147.914 56.9901 147.914 57.4987V60.1777H147.115V57.4278C147.115 56.9428 146.994 56.5732 146.752 56.3189C146.515 56.0587 146.193 55.9286 145.785 55.9286C145.365 55.9286 145.031 56.0646 144.782 56.3367C144.534 56.6028 144.41 56.9901 144.41 57.4987V60.1777H143.603V55.3165H144.41V56.0173C144.569 55.763 144.782 55.5678 145.049 55.4318C145.321 55.2958 145.619 55.2278 145.944 55.2278C146.353 55.2278 146.713 55.3195 147.027 55.5028C147.34 55.6861 147.574 55.9552 147.727 56.31C147.864 55.967 148.088 55.7009 148.402 55.5117C148.715 55.3224 149.064 55.2278 149.448 55.2278ZM157.547 57.5608C157.547 57.7146 157.538 57.8772 157.52 58.0487H153.635C153.665 58.5278 153.827 58.9033 154.123 59.1753C154.424 59.4415 154.788 59.5745 155.214 59.5745C155.563 59.5745 155.853 59.4947 156.083 59.335C156.32 59.1694 156.485 58.9506 156.58 58.6786H157.449C157.319 59.1458 157.059 59.5272 156.669 59.8229C156.278 60.1127 155.794 60.2576 155.214 60.2576C154.753 60.2576 154.339 60.1541 153.972 59.9471C153.611 59.7401 153.327 59.4474 153.12 59.0689C152.913 58.6845 152.81 58.2409 152.81 57.7382C152.81 57.2356 152.911 56.795 153.112 56.4165C153.313 56.038 153.594 55.7482 153.954 55.5471C154.321 55.3402 154.741 55.2367 155.214 55.2367C155.675 55.2367 156.083 55.3372 156.438 55.5383C156.793 55.7393 157.065 56.0173 157.254 56.3721C157.449 56.7211 157.547 57.1173 157.547 57.5608ZM156.713 57.3923C156.713 57.0848 156.645 56.8216 156.509 56.6028C156.373 56.3781 156.187 56.2095 155.95 56.0971C155.72 55.9789 155.462 55.9197 155.178 55.9197C154.77 55.9197 154.422 56.0498 154.132 56.31C153.848 56.5703 153.685 56.931 153.644 57.3923H156.713ZM159.967 55.9818V58.8471C159.967 59.0837 160.017 59.2522 160.118 59.3527C160.218 59.4474 160.393 59.4947 160.641 59.4947H161.235V60.1777H160.508C160.058 60.1777 159.721 60.0742 159.497 59.8673C159.272 59.6603 159.16 59.3202 159.16 58.8471V55.9818H158.53V55.3165H159.16V54.0923H159.967V55.3165H161.235V55.9818H159.967ZM163.417 59.06L162.423 61.4463H161.882L162.53 59.06H163.417ZM167.144 57.7382C167.144 57.2356 167.245 56.7979 167.446 56.4254C167.647 56.0469 167.925 55.7541 168.28 55.5471C168.64 55.3402 169.051 55.2367 169.513 55.2367C170.11 55.2367 170.601 55.3816 170.985 55.6713C171.376 55.9611 171.633 56.3633 171.757 56.8778H170.888C170.805 56.5821 170.642 56.3485 170.4 56.177C170.163 56.0055 169.868 55.9197 169.513 55.9197C169.051 55.9197 168.679 56.0794 168.395 56.3987C168.111 56.7122 167.969 57.1587 167.969 57.7382C167.969 58.3237 168.111 58.7761 168.395 59.0955C168.679 59.4148 169.051 59.5745 169.513 59.5745C169.868 59.5745 170.163 59.4917 170.4 59.3261C170.636 59.1605 170.799 58.924 170.888 58.6165H171.757C171.627 59.1132 171.367 59.5124 170.976 59.814C170.586 60.1097 170.098 60.2576 169.513 60.2576C169.051 60.2576 168.64 60.1541 168.28 59.9471C167.925 59.7401 167.647 59.4474 167.446 59.0689C167.245 58.6904 167.144 58.2468 167.144 57.7382ZM175.324 60.2576C174.869 60.2576 174.455 60.1541 174.082 59.9471C173.715 59.7401 173.426 59.4474 173.213 59.0689C173.006 58.6845 172.902 58.2409 172.902 57.7382C172.902 57.2415 173.009 56.8039 173.222 56.4254C173.44 56.041 173.736 55.7482 174.109 55.5471C174.481 55.3402 174.898 55.2367 175.359 55.2367C175.821 55.2367 176.238 55.3402 176.61 55.5471C176.983 55.7482 177.276 56.038 177.488 56.4165C177.707 56.795 177.817 57.2356 177.817 57.7382C177.817 58.2409 177.704 58.6845 177.48 59.0689C177.261 59.4474 176.962 59.7401 176.584 59.9471C176.205 60.1541 175.785 60.2576 175.324 60.2576ZM175.324 59.5479C175.614 59.5479 175.886 59.4799 176.14 59.3439C176.394 59.2079 176.598 59.0038 176.752 58.7318C176.912 58.4597 176.992 58.1286 176.992 57.7382C176.992 57.3479 176.915 57.0168 176.761 56.7447C176.607 56.4727 176.406 56.2716 176.158 56.1415C175.909 56.0055 175.64 55.9375 175.351 55.9375C175.055 55.9375 174.783 56.0055 174.534 56.1415C174.292 56.2716 174.097 56.4727 173.949 56.7447C173.801 57.0168 173.727 57.3479 173.727 57.7382C173.727 58.1345 173.798 58.4686 173.94 58.7407C174.088 59.0127 174.283 59.2167 174.526 59.3527C174.768 59.4829 175.034 59.5479 175.324 59.5479ZM181.616 55.2278C182.208 55.2278 182.687 55.4082 183.053 55.7689C183.42 56.1238 183.603 56.6383 183.603 57.3124V60.1777H182.805V57.4278C182.805 56.9428 182.684 56.5732 182.441 56.3189C182.199 56.0587 181.868 55.9286 181.448 55.9286C181.022 55.9286 180.682 56.0617 180.428 56.3278C180.179 56.5939 180.055 56.9813 180.055 57.4899V60.1777H179.248V55.3165H180.055V56.0084C180.215 55.76 180.43 55.5678 180.703 55.4318C180.98 55.2958 181.285 55.2278 181.616 55.2278ZM187.012 60.2576C186.64 60.2576 186.306 60.1955 186.01 60.0713C185.714 59.9412 185.481 59.7638 185.309 59.539C185.138 59.3084 185.043 59.0452 185.025 58.7495H185.859C185.883 58.992 185.995 59.1901 186.196 59.3439C186.403 59.4976 186.672 59.5745 187.004 59.5745C187.311 59.5745 187.554 59.5065 187.731 59.3705C187.908 59.2345 187.997 59.063 187.997 58.856C187.997 58.6431 187.903 58.4864 187.713 58.3858C187.524 58.2794 187.231 58.1759 186.835 58.0753C186.474 57.9807 186.179 57.8861 185.948 57.7915C185.723 57.6909 185.528 57.546 185.362 57.3568C185.203 57.1616 185.123 56.9073 185.123 56.5939C185.123 56.3455 185.197 56.1178 185.345 55.9109C185.493 55.7039 185.703 55.5412 185.975 55.423C186.247 55.2988 186.557 55.2367 186.906 55.2367C187.444 55.2367 187.879 55.3727 188.21 55.6447C188.541 55.9168 188.719 56.2893 188.742 56.7625H187.935C187.917 56.5082 187.814 56.3041 187.625 56.1504C187.441 55.9966 187.193 55.9197 186.879 55.9197C186.59 55.9197 186.359 55.9818 186.187 56.106C186.016 56.2302 185.93 56.3928 185.93 56.5939C185.93 56.7536 185.981 56.8866 186.081 56.9931C186.187 57.0936 186.318 57.1764 186.471 57.2415C186.631 57.3006 186.85 57.3686 187.128 57.4455C187.477 57.5401 187.761 57.6348 187.979 57.7294C188.198 57.8181 188.385 57.9541 188.538 58.1374C188.698 58.3208 188.781 58.5603 188.787 58.856C188.787 59.1221 188.713 59.3616 188.565 59.5745C188.417 59.7874 188.207 59.956 187.935 60.0802C187.669 60.1984 187.361 60.2576 187.012 60.2576ZM194.731 57.5608C194.731 57.7146 194.722 57.8772 194.705 58.0487H190.819C190.849 58.5278 191.011 58.9033 191.307 59.1753C191.609 59.4415 191.972 59.5745 192.398 59.5745C192.747 59.5745 193.037 59.4947 193.268 59.335C193.504 59.1694 193.67 58.9506 193.764 58.6786H194.634C194.504 59.1458 194.243 59.5272 193.853 59.8229C193.463 60.1127 192.978 60.2576 192.398 60.2576C191.937 60.2576 191.523 60.1541 191.156 59.9471C190.796 59.7401 190.512 59.4474 190.305 59.0689C190.098 58.6845 189.994 58.2409 189.994 57.7382C189.994 57.2356 190.095 56.795 190.296 56.4165C190.497 56.038 190.778 55.7482 191.139 55.5471C191.505 55.3402 191.925 55.2367 192.398 55.2367C192.86 55.2367 193.268 55.3372 193.622 55.5383C193.977 55.7393 194.249 56.0173 194.439 56.3721C194.634 56.7211 194.731 57.1173 194.731 57.5608ZM193.897 57.3923C193.897 57.0848 193.829 56.8216 193.693 56.6028C193.557 56.3781 193.371 56.2095 193.135 56.0971C192.904 55.9789 192.647 55.9197 192.363 55.9197C191.955 55.9197 191.606 56.0498 191.316 56.31C191.032 56.5703 190.869 56.931 190.828 57.3923H193.897ZM195.865 57.7382C195.865 57.2356 195.965 56.7979 196.166 56.4254C196.367 56.0469 196.645 55.7541 197 55.5471C197.361 55.3402 197.772 55.2367 198.233 55.2367C198.831 55.2367 199.321 55.3816 199.706 55.6713C200.096 55.9611 200.353 56.3633 200.478 56.8778H199.608C199.526 56.5821 199.363 56.3485 199.12 56.177C198.884 56.0055 198.588 55.9197 198.233 55.9197C197.772 55.9197 197.399 56.0794 197.116 56.3987C196.832 56.7122 196.69 57.1587 196.69 57.7382C196.69 58.3237 196.832 58.7761 197.116 59.0955C197.399 59.4148 197.772 59.5745 198.233 59.5745C198.588 59.5745 198.884 59.4917 199.12 59.3261C199.357 59.1605 199.52 58.924 199.608 58.6165H200.478C200.348 59.1132 200.087 59.5124 199.697 59.814C199.307 60.1097 198.819 60.2576 198.233 60.2576C197.772 60.2576 197.361 60.1541 197 59.9471C196.645 59.7401 196.367 59.4474 196.166 59.0689C195.965 58.6904 195.865 58.2468 195.865 57.7382ZM202.909 55.9818V58.8471C202.909 59.0837 202.959 59.2522 203.06 59.3527C203.16 59.4474 203.335 59.4947 203.583 59.4947H204.178V60.1777H203.45C203.001 60.1777 202.664 60.0742 202.439 59.8673C202.214 59.6603 202.102 59.3202 202.102 58.8471V55.9818H201.472V55.3165H202.102V54.0923H202.909V55.3165H204.178V55.9818H202.909ZM209.961 57.5608C209.961 57.7146 209.952 57.8772 209.934 58.0487H206.049C206.078 58.5278 206.241 58.9033 206.537 59.1753C206.838 59.4415 207.202 59.5745 207.628 59.5745C207.977 59.5745 208.266 59.4947 208.497 59.335C208.734 59.1694 208.899 58.9506 208.994 58.6786H209.863C209.733 59.1458 209.473 59.5272 209.083 59.8229C208.692 60.1127 208.207 60.2576 207.628 60.2576C207.166 60.2576 206.752 60.1541 206.386 59.9471C206.025 59.7401 205.741 59.4474 205.534 59.0689C205.327 58.6845 205.224 58.2409 205.224 57.7382C205.224 57.2356 205.324 56.795 205.525 56.4165C205.726 56.038 206.007 55.7482 206.368 55.5471C206.735 55.3402 207.155 55.2367 207.628 55.2367C208.089 55.2367 208.497 55.3372 208.852 55.5383C209.207 55.7393 209.479 56.0173 209.668 56.3721C209.863 56.7211 209.961 57.1173 209.961 57.5608ZM209.127 57.3923C209.127 57.0848 209.059 56.8216 208.923 56.6028C208.787 56.3781 208.601 56.2095 208.364 56.0971C208.133 55.9789 207.876 55.9197 207.592 55.9197C207.184 55.9197 206.835 56.0498 206.545 56.31C206.262 56.5703 206.099 56.931 206.058 57.3923H209.127ZM212.381 55.9818V58.8471C212.381 59.0837 212.431 59.2522 212.531 59.3527C212.632 59.4474 212.806 59.4947 213.055 59.4947H213.649V60.1777H212.922C212.472 60.1777 212.135 60.0742 211.91 59.8673C211.686 59.6603 211.573 59.3202 211.573 58.8471V55.9818H210.943V55.3165H211.573V54.0923H212.381V55.3165H213.649V55.9818H212.381ZM219.308 55.3165V60.1777H218.501V59.4592C218.347 59.7076 218.131 59.9027 217.853 60.0447C217.581 60.1807 217.28 60.2487 216.948 60.2487C216.57 60.2487 216.23 60.1718 215.928 60.0181C215.627 59.8584 215.387 59.6218 215.21 59.3084C215.038 58.995 214.952 58.6135 214.952 58.164V55.3165H215.751V58.0576C215.751 58.5366 215.872 58.9062 216.115 59.1665C216.357 59.4208 216.688 59.5479 217.108 59.5479C217.54 59.5479 217.88 59.4148 218.128 59.1487C218.377 58.8826 218.501 58.4952 218.501 57.9866V55.3165H219.308ZM221.848 56.106C221.99 55.8281 222.191 55.6122 222.451 55.4584C222.717 55.3047 223.04 55.2278 223.418 55.2278V56.0617H223.205C222.3 56.0617 221.848 56.5525 221.848 57.5342V60.1777H221.041V55.3165H221.848V56.106Z" fill="black"/>
</g>
<defs>
<filter id="filter0_d_0_19" x="0" y="0" width="294" height="296" filterUnits="userSpaceOnUse" color-interpolation-filters="sRGB">
<feFlood flood-opacity="0" result="BackgroundImageFix"/>
<feColorMatrix in="SourceAlpha" type="matrix" values="0 0 0 0 0 0 0 0 0 0 0 0 0 0 0 0 0 0 127 0" result="hardAlpha"/>
<feOffset dy="2"/>
<feGaussianBlur stdDeviation="4"/>
<feComposite in2="hardAlpha" operator="out"/>
<feColorMatrix type="matrix" values="0 0 0 0 0 0 0 0 0 0 0 0 0 0 0 0 0 0 0.15 0"/>
<feBlend mode="normal" in2="BackgroundImageFix" result="effect1_dropShadow_0_19"/>
<feBlend mode="normal" in="SourceGraphic" in2="effect1_dropShadow_0_19" result="shape"/>
</filter>
</defs>
</svg>
