<svg width="312" height="299" viewBox="0 0 312 299" fill="none" xmlns="http://www.w3.org/2000/svg">
<g filter="url(#filter0_d_0_38)">
<rect x="8" y="6" width="296" height="283" rx="12" fill="white" shape-rendering="crispEdges"/>
<path d="M24 164.66H251.102" stroke="#E2E7E7" stroke-width="0.727891" stroke-dasharray="2.18 4.37"/>
<path d="M24 135.543H251.102" stroke="#E2E7E7" stroke-width="0.727891" stroke-dasharray="2.18 4.37"/>
<path d="M24 193.775H251.102" stroke="#E2E7E7" stroke-width="0.727891" stroke-dasharray="2.18 4.37"/>
<path d="M24 222.891H251.102" stroke="#E2E7E7" stroke-width="0.727891"/>
<path opacity="0.5" d="M34.7087 234.215C34.7087 233.297 34.8581 232.582 35.1571 232.07C35.456 231.552 35.9791 231.293 36.7264 231.293C37.4684 231.293 37.9888 231.552 38.2877 232.07C38.5866 232.582 38.7361 233.297 38.7361 234.215C38.7361 235.15 38.5866 235.875 38.2877 236.393C37.9888 236.911 37.4684 237.17 36.7264 237.17C35.9791 237.17 35.456 236.911 35.1571 236.393C34.8581 235.875 34.7087 235.15 34.7087 234.215ZM38.0155 234.215C38.0155 233.751 37.9835 233.359 37.9194 233.038C37.8607 232.713 37.7353 232.451 37.5431 232.254C37.3563 232.056 37.084 231.957 36.7264 231.957C36.3634 231.957 36.0859 232.056 35.8937 232.254C35.7069 232.451 35.5814 232.713 35.5174 233.038C35.4587 233.359 35.4293 233.751 35.4293 234.215C35.4293 234.696 35.4587 235.099 35.5174 235.424C35.5814 235.75 35.7069 236.012 35.8937 236.209C36.0859 236.407 36.3634 236.505 36.7264 236.505C37.084 236.505 37.3563 236.407 37.5431 236.209C37.7353 236.012 37.8607 235.75 37.9194 235.424C37.9835 235.099 38.0155 234.696 38.0155 234.215ZM39.9082 232.046V231.381H41.4135V237.17H40.6768V232.046H39.9082Z" fill="#737B8B"/>
<path opacity="0.5" d="M73.2664 234.215C73.2664 233.297 73.4159 232.582 73.7148 232.07C74.0137 231.552 74.5368 231.293 75.2841 231.293C76.0261 231.293 76.5465 231.552 76.8455 232.07C77.1444 232.582 77.2938 233.297 77.2938 234.215C77.2938 235.15 77.1444 235.875 76.8455 236.393C76.5465 236.911 76.0261 237.17 75.2841 237.17C74.5368 237.17 74.0137 236.911 73.7148 236.393C73.4159 235.875 73.2664 235.15 73.2664 234.215ZM76.5732 234.215C76.5732 233.751 76.5412 233.359 76.4771 233.038C76.4184 232.713 76.293 232.451 76.1008 232.254C75.914 232.056 75.6418 231.957 75.2841 231.957C74.9212 231.957 74.6436 232.056 74.4514 232.254C74.2646 232.451 74.1392 232.713 74.0751 233.038C74.0164 233.359 73.987 233.751 73.987 234.215C73.987 234.696 74.0164 235.099 74.0751 235.424C74.1392 235.75 74.2646 236.012 74.4514 236.209C74.6436 236.407 74.9212 236.505 75.2841 236.505C75.6418 236.505 75.914 236.407 76.1008 236.209C76.293 236.012 76.4184 235.75 76.4771 235.424C76.5412 235.099 76.5732 234.696 76.5732 234.215ZM78.57 236.585C79.2479 236.041 79.779 235.595 80.1633 235.248C80.5477 234.896 80.8706 234.53 81.1322 234.151C81.3991 233.767 81.5325 233.391 81.5325 233.022C81.5325 232.675 81.4471 232.403 81.2763 232.206C81.1108 232.003 80.8413 231.901 80.4676 231.901C80.1046 231.901 79.8217 232.016 79.6189 232.246C79.4214 232.47 79.3146 232.772 79.2986 233.151H78.594C78.6154 232.553 78.7969 232.091 79.1385 231.765C79.4801 231.44 79.9205 231.277 80.4596 231.277C81.0094 231.277 81.4444 231.429 81.7647 231.733C82.0903 232.038 82.2531 232.457 82.2531 232.99C82.2531 233.433 82.1197 233.866 81.8528 234.287C81.5912 234.704 81.2923 235.072 80.956 235.392C80.6197 235.707 80.19 236.076 79.6669 236.497H82.4213V237.106H78.57V236.585Z" fill="#737B8B"/>
<path opacity="0.5" d="M113.747 234.213C113.747 233.295 113.896 232.58 114.195 232.068C114.494 231.55 115.017 231.291 115.765 231.291C116.507 231.291 117.027 231.55 117.326 232.068C117.625 232.58 117.774 233.295 117.774 234.213C117.774 235.148 117.625 235.874 117.326 236.391C117.027 236.909 116.507 237.168 115.765 237.168C115.017 237.168 114.494 236.909 114.195 236.391C113.896 235.874 113.747 235.148 113.747 234.213ZM117.054 234.213C117.054 233.749 117.022 233.357 116.958 233.036C116.899 232.711 116.773 232.449 116.581 232.252C116.394 232.054 116.122 231.956 115.765 231.956C115.402 231.956 115.124 232.054 114.932 232.252C114.745 232.449 114.62 232.711 114.556 233.036C114.497 233.357 114.467 233.749 114.467 234.213C114.467 234.694 114.497 235.097 114.556 235.422C114.62 235.748 114.745 236.01 114.932 236.207C115.124 236.405 115.402 236.503 115.765 236.503C116.122 236.503 116.394 236.405 116.581 236.207C116.773 236.01 116.899 235.748 116.958 235.422C117.022 235.097 117.054 234.694 117.054 234.213ZM119.122 232.836C119.16 232.345 119.349 231.961 119.691 231.683C120.033 231.406 120.476 231.267 121.02 231.267C121.383 231.267 121.695 231.334 121.957 231.467C122.224 231.595 122.424 231.771 122.557 231.996C122.696 232.22 122.766 232.473 122.766 232.756C122.766 233.087 122.669 233.373 122.477 233.613C122.291 233.853 122.045 234.008 121.741 234.077V234.117C122.088 234.203 122.363 234.371 122.565 234.622C122.768 234.873 122.87 235.201 122.87 235.607C122.87 235.911 122.8 236.186 122.661 236.431C122.523 236.672 122.315 236.861 122.037 237C121.759 237.139 121.426 237.208 121.036 237.208C120.47 237.208 120.006 237.061 119.643 236.768C119.28 236.469 119.077 236.047 119.034 235.503H119.739C119.776 235.823 119.907 236.084 120.131 236.287C120.356 236.49 120.654 236.591 121.028 236.591C121.402 236.591 121.685 236.495 121.877 236.303C122.074 236.106 122.173 235.852 122.173 235.543C122.173 235.142 122.04 234.854 121.773 234.678C121.506 234.502 121.103 234.414 120.564 234.414H120.38V233.805H120.572C121.063 233.8 121.434 233.72 121.685 233.565C121.936 233.405 122.061 233.159 122.061 232.828C122.061 232.545 121.968 232.319 121.781 232.148C121.599 231.977 121.338 231.891 120.996 231.891C120.665 231.891 120.398 231.977 120.195 232.148C119.993 232.319 119.872 232.548 119.835 232.836H119.122Z" fill="#737B8B"/>
<path opacity="0.5" d="M153.62 234.213C153.62 233.295 153.769 232.58 154.068 232.068C154.367 231.55 154.89 231.291 155.637 231.291C156.379 231.291 156.9 231.55 157.199 232.068C157.498 232.58 157.647 233.295 157.647 234.213C157.647 235.148 157.498 235.874 157.199 236.391C156.9 236.909 156.379 237.168 155.637 237.168C154.89 237.168 154.367 236.909 154.068 236.391C153.769 235.874 153.62 235.148 153.62 234.213ZM156.927 234.213C156.927 233.749 156.895 233.357 156.83 233.036C156.772 232.711 156.646 232.449 156.454 232.252C156.267 232.054 155.995 231.956 155.637 231.956C155.274 231.956 154.997 232.054 154.805 232.252C154.618 232.449 154.492 232.711 154.428 233.036C154.37 233.357 154.34 233.749 154.34 234.213C154.34 234.694 154.37 235.097 154.428 235.422C154.492 235.748 154.618 236.01 154.805 236.207C154.997 236.405 155.274 236.503 155.637 236.503C155.995 236.503 156.267 236.405 156.454 236.207C156.646 236.01 156.772 235.748 156.83 235.422C156.895 235.097 156.927 234.694 156.927 234.213ZM158.835 235.879V235.326L161.646 231.435H162.518V235.246H163.319V235.879H162.518V237.168H161.798V235.879H158.835ZM161.83 232.196L159.676 235.246H161.83V232.196Z" fill="#737B8B"/>
<path opacity="0.5" d="M193.657 234.213C193.657 233.295 193.806 232.58 194.105 232.068C194.404 231.55 194.927 231.291 195.675 231.291C196.417 231.291 196.937 231.55 197.236 232.068C197.535 232.58 197.684 233.295 197.684 234.213C197.684 235.148 197.535 235.874 197.236 236.391C196.937 236.909 196.417 237.168 195.675 237.168C194.927 237.168 194.404 236.909 194.105 236.391C193.806 235.874 193.657 235.148 193.657 234.213ZM196.964 234.213C196.964 233.749 196.932 233.357 196.868 233.036C196.809 232.711 196.683 232.449 196.491 232.252C196.304 232.054 196.032 231.956 195.675 231.956C195.312 231.956 195.034 232.054 194.842 232.252C194.655 232.449 194.53 232.711 194.466 233.036C194.407 233.357 194.377 233.749 194.377 234.213C194.377 234.694 194.407 235.097 194.466 235.422C194.53 235.748 194.655 236.01 194.842 236.207C195.034 236.405 195.312 236.503 195.675 236.503C196.032 236.503 196.304 236.405 196.491 236.207C196.683 236.01 196.809 235.748 196.868 235.422C196.932 235.097 196.964 234.694 196.964 234.213ZM202.74 232.012H199.929V233.837C200.052 233.666 200.234 233.528 200.474 233.421C200.714 233.309 200.973 233.253 201.25 233.253C201.693 233.253 202.054 233.346 202.331 233.533C202.609 233.714 202.806 233.952 202.924 234.245C203.047 234.534 203.108 234.841 203.108 235.166C203.108 235.551 203.036 235.895 202.892 236.199C202.748 236.503 202.526 236.744 202.227 236.92C201.934 237.096 201.568 237.184 201.13 237.184C200.57 237.184 200.116 237.04 199.769 236.752C199.422 236.463 199.211 236.079 199.137 235.599H199.849C199.919 235.903 200.065 236.14 200.29 236.311C200.514 236.482 200.797 236.567 201.138 236.567C201.56 236.567 201.878 236.442 202.091 236.191C202.305 235.935 202.411 235.599 202.411 235.182C202.411 234.766 202.305 234.446 202.091 234.221C201.878 233.992 201.563 233.877 201.146 233.877C200.863 233.877 200.615 233.947 200.402 234.085C200.193 234.219 200.041 234.403 199.945 234.638H199.257V231.371H202.74V232.012Z" fill="#737B8B"/>
<path opacity="0.5" d="M233.664 234.215C233.664 233.297 233.813 232.582 234.112 232.07C234.411 231.552 234.934 231.293 235.681 231.293C236.423 231.293 236.944 231.552 237.243 232.07C237.542 232.582 237.691 233.297 237.691 234.215C237.691 235.15 237.542 235.875 237.243 236.393C236.944 236.911 236.423 237.17 235.681 237.17C234.934 237.17 234.411 236.911 234.112 236.393C233.813 235.875 233.664 235.15 233.664 234.215ZM236.97 234.215C236.97 233.751 236.938 233.359 236.874 233.038C236.816 232.713 236.69 232.451 236.498 232.254C236.311 232.056 236.039 231.957 235.681 231.957C235.318 231.957 235.041 232.056 234.849 232.254C234.662 232.451 234.536 232.713 234.472 233.038C234.414 233.359 234.384 233.751 234.384 234.215C234.384 234.696 234.414 235.099 234.472 235.424C234.536 235.75 234.662 236.012 234.849 236.209C235.041 236.407 235.318 236.505 235.681 236.505C236.039 236.505 236.311 236.407 236.498 236.209C236.69 236.012 236.816 235.75 236.874 235.424C236.938 235.099 236.97 234.696 236.97 234.215ZM242.282 232.758C242.165 232.166 241.799 231.869 241.185 231.869C240.71 231.869 240.355 232.054 240.12 232.422C239.885 232.785 239.771 233.385 239.776 234.223C239.899 233.946 240.102 233.73 240.384 233.575C240.673 233.415 240.993 233.335 241.345 233.335C241.895 233.335 242.333 233.505 242.658 233.847C242.989 234.189 243.155 234.661 243.155 235.264C243.155 235.627 243.083 235.953 242.939 236.241C242.8 236.529 242.586 236.759 242.298 236.93C242.015 237.101 241.671 237.186 241.265 237.186C240.715 237.186 240.286 237.063 239.976 236.818C239.667 236.572 239.45 236.233 239.328 235.801C239.205 235.368 239.143 234.835 239.143 234.199C239.143 232.24 239.827 231.261 241.193 231.261C241.716 231.261 242.127 231.402 242.426 231.685C242.725 231.968 242.901 232.326 242.955 232.758H242.282ZM241.193 233.951C240.964 233.951 240.747 233.999 240.545 234.095C240.342 234.186 240.176 234.328 240.048 234.52C239.925 234.706 239.864 234.936 239.864 235.208C239.864 235.614 239.981 235.945 240.216 236.201C240.451 236.452 240.787 236.577 241.225 236.577C241.599 236.577 241.895 236.463 242.114 236.233C242.338 235.998 242.45 235.683 242.45 235.288C242.45 234.872 242.343 234.546 242.13 234.311C241.916 234.071 241.604 233.951 241.193 233.951Z" fill="#737B8B"/>
<g filter="url(#filter1_d_0_38)">
<path d="M208.158 33.6395C208.158 31.6294 209.788 30 211.798 30H283.859C285.869 30 287.498 31.6294 287.498 33.6395V49.6531C287.498 51.6631 285.869 53.2925 283.859 53.2925H211.798C209.788 53.2925 208.158 51.6631 208.158 49.6531V33.6395Z" fill="#FBFCFE"/>
<path d="M208.34 33.6395C208.34 31.7299 209.888 30.182 211.798 30.182H283.859C285.768 30.182 287.316 31.7299 287.316 33.6395V49.6531C287.316 51.5626 285.768 53.1105 283.859 53.1105H211.798C209.888 53.1105 208.34 51.5626 208.34 49.6531V33.6395Z" stroke="#DDE4F0" stroke-width="0.363946"/>
</g>
<path d="M225.691 38.2966L223.411 44.3672H222.258L219.97 38.2966H221.035L222.835 43.3452L224.643 38.2966H225.691ZM227.394 38.9167C227.214 38.9167 227.062 38.8556 226.94 38.7333C226.818 38.611 226.757 38.4596 226.757 38.2791C226.757 38.0986 226.818 37.9472 226.94 37.8249C227.062 37.7026 227.214 37.6415 227.394 37.6415C227.569 37.6415 227.717 37.7026 227.84 37.8249C227.962 37.9472 228.023 38.0986 228.023 38.2791C228.023 38.4596 227.962 38.611 227.84 38.7333C227.717 38.8556 227.569 38.9167 227.394 38.9167ZM227.883 39.5544V44.3672H226.888V39.5544H227.883ZM233.966 41.8429C233.966 42.0234 233.954 42.1864 233.931 42.332H230.253C230.283 42.7163 230.425 43.025 230.681 43.2579C230.938 43.4908 231.252 43.6073 231.625 43.6073C232.16 43.6073 232.539 43.3831 232.76 42.9347H233.835C233.689 43.3773 233.424 43.7412 233.04 44.0265C232.661 44.306 232.19 44.4458 231.625 44.4458C231.165 44.4458 230.751 44.3439 230.384 44.1401C230.023 43.9305 229.738 43.6393 229.528 43.2666C229.325 42.8881 229.223 42.4514 229.223 41.9564C229.223 41.4614 229.322 41.0276 229.52 40.6549C229.723 40.2764 230.006 39.9853 230.367 39.7815C230.734 39.5777 231.153 39.4758 231.625 39.4758C232.079 39.4758 232.484 39.5748 232.839 39.7727C233.194 39.9707 233.471 40.2502 233.669 40.6113C233.867 40.9665 233.966 41.377 233.966 41.8429ZM232.926 41.5284C232.92 41.1616 232.789 40.8675 232.533 40.6462C232.277 40.4249 231.96 40.3143 231.581 40.3143C231.237 40.3143 230.943 40.4249 230.699 40.6462C230.454 40.8617 230.309 41.1557 230.262 41.5284H232.926ZM241.773 39.5544L240.28 44.3672H239.231L238.262 40.8122L237.292 44.3672H236.244L234.742 39.5544H235.755L236.759 43.4238L237.781 39.5544H238.821L239.799 43.4064L240.795 39.5544H241.773ZM248.667 44.3672L247.27 41.9389H246.51V44.3672H245.514V38.2966H247.611C248.076 38.2966 248.469 38.3781 248.79 38.5411C249.116 38.7042 249.357 38.9226 249.515 39.1962C249.678 39.4699 249.759 39.7756 249.759 40.1134C249.759 40.5094 249.643 40.8704 249.41 41.1965C249.183 41.5168 248.83 41.7351 248.353 41.8516L249.855 44.3672H248.667ZM246.51 41.1441H247.611C247.983 41.1441 248.263 41.0509 248.449 40.8646C248.641 40.6782 248.737 40.4278 248.737 40.1134C248.737 39.7989 248.644 39.5544 248.458 39.3797C248.271 39.1992 247.989 39.1089 247.611 39.1089H246.51V41.1441ZM255.808 41.8429C255.808 42.0234 255.796 42.1864 255.773 42.332H252.096C252.125 42.7163 252.268 43.025 252.524 43.2579C252.78 43.4908 253.094 43.6073 253.467 43.6073C254.003 43.6073 254.381 43.3831 254.603 42.9347H255.677C255.531 43.3773 255.267 43.7412 254.882 44.0265C254.504 44.306 254.032 44.4458 253.467 44.4458C253.007 44.4458 252.594 44.3439 252.227 44.1401C251.866 43.9305 251.58 43.6393 251.371 43.2666C251.167 42.8881 251.065 42.4514 251.065 41.9564C251.065 41.4614 251.164 41.0276 251.362 40.6549C251.566 40.2764 251.848 39.9853 252.209 39.7815C252.576 39.5777 252.995 39.4758 253.467 39.4758C253.921 39.4758 254.326 39.5748 254.681 39.7727C255.036 39.9707 255.313 40.2502 255.511 40.6113C255.709 40.9665 255.808 41.377 255.808 41.8429ZM254.769 41.5284C254.763 41.1616 254.632 40.8675 254.376 40.6462C254.119 40.4249 253.802 40.3143 253.423 40.3143C253.08 40.3143 252.786 40.4249 252.541 40.6462C252.297 40.8617 252.151 41.1557 252.105 41.5284H254.769ZM258.148 40.2619C258.317 40.0406 258.547 39.8543 258.838 39.7029C259.129 39.5515 259.458 39.4758 259.825 39.4758C260.244 39.4758 260.625 39.5806 260.969 39.7902C261.318 39.994 261.592 40.2823 261.79 40.6549C261.988 41.0276 262.087 41.4556 262.087 41.9389C262.087 42.4223 261.988 42.8561 261.79 43.2404C261.592 43.6189 261.318 43.9159 260.969 44.1314C260.625 44.341 260.244 44.4458 259.825 44.4458C259.458 44.4458 259.132 44.373 258.846 44.2274C258.561 44.076 258.328 43.8897 258.148 43.6684V46.6557H257.152V39.5544H258.148V40.2619ZM261.074 41.9389C261.074 41.607 261.004 41.3217 260.864 41.0829C260.73 40.8384 260.55 40.6549 260.323 40.5327C260.101 40.4045 259.863 40.3405 259.606 40.3405C259.356 40.3405 259.117 40.4045 258.89 40.5327C258.669 40.6608 258.488 40.8471 258.349 41.0917C258.215 41.3362 258.148 41.6245 258.148 41.9564C258.148 42.2883 258.215 42.5795 258.349 42.8299C258.488 43.0745 258.669 43.2608 258.89 43.3889C259.117 43.517 259.356 43.5811 259.606 43.5811C259.863 43.5811 260.101 43.517 260.323 43.3889C260.55 43.255 260.73 43.0628 260.864 42.8124C261.004 42.562 261.074 42.2709 261.074 41.9389ZM265.523 44.4458C265.069 44.4458 264.659 44.3439 264.292 44.1401C263.925 43.9305 263.637 43.6393 263.427 43.2666C263.217 42.8881 263.112 42.4514 263.112 41.9564C263.112 41.4673 263.22 41.0334 263.436 40.6549C263.651 40.2764 263.945 39.9853 264.318 39.7815C264.691 39.5777 265.107 39.4758 265.567 39.4758C266.027 39.4758 266.443 39.5777 266.816 39.7815C267.189 39.9853 267.483 40.2764 267.698 40.6549C267.914 41.0334 268.021 41.4673 268.021 41.9564C268.021 42.4456 267.911 42.8794 267.689 43.2579C267.468 43.6364 267.165 43.9305 266.781 44.1401C266.403 44.3439 265.983 44.4458 265.523 44.4458ZM265.523 43.5811C265.779 43.5811 266.018 43.5199 266.24 43.3976C266.467 43.2754 266.65 43.0919 266.79 42.8474C266.93 42.6028 266.999 42.3058 266.999 41.9564C266.999 41.607 266.932 41.313 266.799 41.0742C266.665 40.8296 266.487 40.6462 266.266 40.5239C266.044 40.4016 265.806 40.3405 265.549 40.3405C265.293 40.3405 265.054 40.4016 264.833 40.5239C264.618 40.6462 264.446 40.8296 264.318 41.0742C264.19 41.313 264.126 41.607 264.126 41.9564C264.126 42.4747 264.257 42.8765 264.519 43.1618C264.787 43.4413 265.121 43.5811 265.523 43.5811ZM270.365 40.2531C270.511 40.0086 270.703 39.8193 270.942 39.6854C271.187 39.5456 271.475 39.4758 271.807 39.4758V40.5065H271.553C271.163 40.5065 270.866 40.6054 270.662 40.8034C270.464 41.0014 270.365 41.345 270.365 41.8341V44.3672H269.37V39.5544H270.365V40.2531ZM274.248 40.3667V43.0308C274.248 43.2113 274.288 43.3423 274.37 43.4238C274.457 43.4995 274.603 43.5374 274.807 43.5374H275.418V44.3672H274.632C274.184 44.3672 273.84 44.2624 273.601 44.0527C273.363 43.8431 273.243 43.5025 273.243 43.0308V40.3667H272.675V39.5544H273.243V38.3577H274.248V39.5544L275.418 39.5544V40.3667L274.248 40.3667Z" fill="#285B52"/>
<path d="M28.0049 42.0713C27.3459 42.0713 26.7446 41.9185 26.2011 41.6128C25.6577 41.3003 25.2263 40.8689 24.907 40.3186C24.5944 39.7615 24.4382 39.1365 24.4382 38.4435C24.4382 37.7506 24.5944 37.129 24.907 36.5787C25.2263 36.0216 25.6577 35.5902 26.2011 35.2845C26.7446 34.972 27.3459 34.8157 28.0049 34.8157C28.6706 34.8157 29.2753 34.972 29.8188 35.2845C30.3623 35.5902 30.7903 36.0182 31.1028 36.5685C31.4153 37.1188 31.5715 37.7438 31.5715 38.4435C31.5715 39.1433 31.4153 39.7683 31.1028 40.3186C30.7903 40.8689 30.3623 41.3003 29.8188 41.6128C29.2753 41.9185 28.6706 42.0713 28.0049 42.0713ZM28.0049 41.2663C28.5008 41.2663 28.9458 41.1508 29.3398 40.9198C29.7406 40.6888 30.0531 40.3593 30.2773 39.9313C30.5083 39.5033 30.6238 39.0074 30.6238 38.4435C30.6238 37.8729 30.5083 37.3769 30.2773 36.9557C30.0531 36.5277 29.744 36.1982 29.35 35.9672C28.956 35.7363 28.5076 35.6208 28.0049 35.6208C27.5021 35.6208 27.0537 35.7363 26.6597 35.9672C26.2657 36.1982 25.9532 36.5277 25.7222 36.9557C25.498 37.3769 25.3859 37.8729 25.3859 38.4435C25.3859 39.0074 25.498 39.5033 25.7222 39.9313C25.9532 40.3593 26.2657 40.6888 26.6597 40.9198C27.0605 41.1508 27.5089 41.2663 28.0049 41.2663ZM34.087 37.3226C34.2501 37.0033 34.481 36.7553 34.78 36.5787C35.0857 36.402 35.4559 36.3137 35.8907 36.3137V37.2716H35.6462C34.6067 37.2716 34.087 37.8355 34.087 38.9632V42H33.1597V36.4156H34.087V37.3226ZM36.9787 39.1874C36.9787 38.6168 37.0942 38.1174 37.3252 37.6894C37.5561 37.2546 37.872 36.9183 38.2729 36.6806C38.6805 36.4428 39.1357 36.3239 39.6384 36.3239C40.0732 36.3239 40.4774 36.4258 40.8511 36.6296C41.2247 36.8266 41.51 37.0882 41.7071 37.4143V34.459H42.6446V42H41.7071V40.9504C41.5236 41.2833 41.2519 41.5584 40.8918 41.7758C40.5318 41.9864 40.1105 42.0917 39.6282 42.0917C39.1323 42.0917 38.6805 41.9694 38.2729 41.7249C37.872 41.4803 37.5561 41.1372 37.3252 40.6956C37.0942 40.254 36.9787 39.7513 36.9787 39.1874ZM41.7071 39.1976C41.7071 38.7764 41.6221 38.4096 41.4523 38.097C41.2825 37.7845 41.0515 37.5468 40.7593 37.3837C40.474 37.2139 40.1581 37.129 39.8116 37.129C39.4652 37.129 39.1492 37.2105 38.8639 37.3735C38.5786 37.5366 38.351 37.7743 38.1812 38.0869C38.0113 38.3994 37.9264 38.7662 37.9264 39.1874C37.9264 39.6154 38.0113 39.9891 38.1812 40.3084C38.351 40.6209 38.5786 40.8621 38.8639 41.0319C39.1492 41.195 39.4652 41.2765 39.8116 41.2765C40.1581 41.2765 40.474 41.195 40.7593 41.0319C41.0515 40.8621 41.2825 40.6209 41.4523 40.3084C41.6221 39.9891 41.7071 39.6188 41.7071 39.1976ZM49.6709 38.9938C49.6709 39.1704 49.6607 39.3573 49.6403 39.5543H45.1769C45.2108 40.1046 45.3977 40.536 45.7373 40.8485C46.0838 41.1542 46.5016 41.307 46.9908 41.307C47.3916 41.307 47.7245 41.2153 47.9894 41.0319C48.2612 40.8417 48.4514 40.5903 48.5601 40.2778H49.5588C49.4093 40.8145 49.1104 41.2527 48.662 41.5924C48.2136 41.9253 47.6566 42.0917 46.9908 42.0917C46.4609 42.0917 45.9853 41.9728 45.5641 41.735C45.1497 41.4973 44.8236 41.161 44.5858 40.7262C44.348 40.2846 44.2292 39.7751 44.2292 39.1976C44.2292 38.6202 44.3446 38.114 44.5756 37.6792C44.8066 37.2444 45.1293 36.9116 45.5437 36.6806C45.9649 36.4428 46.4473 36.3239 46.9908 36.3239C47.5207 36.3239 47.9894 36.4394 48.3971 36.6704C48.8047 36.9014 49.1172 37.2207 49.3346 37.6283C49.5588 38.0291 49.6709 38.4843 49.6709 38.9938ZM48.713 38.8002C48.713 38.4469 48.6348 38.1446 48.4786 37.8932C48.3223 37.6351 48.1083 37.4415 47.8366 37.3124C47.5716 37.1765 47.2761 37.1086 46.95 37.1086C46.4812 37.1086 46.0804 37.258 45.7475 37.557C45.4214 37.8559 45.2346 38.2703 45.1871 38.8002H48.713ZM52.1862 37.3226C52.3492 37.0033 52.5802 36.7553 52.8792 36.5787C53.1849 36.402 53.5551 36.3137 53.9899 36.3137V37.2716H53.7453C52.7059 37.2716 52.1862 37.8355 52.1862 38.9632V42H51.2589V36.4156H52.1862V37.3226Z" fill="black"/>
<path d="M25.7906 64.5795C26.7223 63.7739 27.4551 63.114 27.9888 62.5996C28.5323 62.0755 28.9836 61.532 29.3427 60.9691C29.7018 60.4062 29.8814 59.8433 29.8814 59.2804C29.8814 58.6981 29.7406 58.242 29.4592 57.912C29.1874 57.582 28.7556 57.417 28.1635 57.417C27.5909 57.417 27.1445 57.6014 26.8242 57.9702C26.5137 58.3293 26.3487 58.8146 26.3293 59.426H24.7279C24.757 58.3196 25.087 57.4753 25.7178 56.8929C26.3584 56.3009 27.1688 56.0049 28.149 56.0049C29.2068 56.0049 30.0318 56.2961 30.6238 56.8784C31.2255 57.4607 31.5264 58.2371 31.5264 59.2076C31.5264 59.9064 31.3468 60.5809 30.9878 61.2312C30.6384 61.8717 30.2162 62.4492 29.7212 62.9636C29.236 63.4682 28.6148 64.0554 27.8578 64.7251L27.2027 65.3074H31.8176V66.6904H24.7424V65.4821L25.7906 64.5795ZM34.5275 66.9378C34.2266 66.9378 33.9743 66.8359 33.7705 66.6321C33.5667 66.4283 33.4647 66.176 33.4647 65.8751C33.4647 65.5743 33.5667 65.3219 33.7705 65.1181C33.9743 64.9143 34.2266 64.8124 34.5275 64.8124C34.8186 64.8124 35.0661 64.9143 35.2699 65.1181C35.4737 65.3219 35.5756 65.5743 35.5756 65.8751C35.5756 66.176 35.4737 66.4283 35.2699 66.6321C35.0661 66.8359 34.8186 66.9378 34.5275 66.9378ZM44.3571 57.65H39.4802V60.547C39.684 60.2752 39.9849 60.0471 40.3828 59.8627C40.7904 59.6783 41.2223 59.5861 41.6784 59.5861C42.4937 59.5861 43.1536 59.7608 43.6583 60.1102C44.1727 60.4596 44.5366 60.9012 44.7501 61.435C44.9734 61.9688 45.085 62.5317 45.085 63.1237C45.085 63.8419 44.9442 64.4824 44.6628 65.0453C44.391 65.5985 43.9786 66.0353 43.4254 66.3555C42.8819 66.6758 42.2122 66.8359 41.4164 66.8359C40.3585 66.8359 39.5093 66.5739 38.8688 66.0498C38.2282 65.5257 37.8449 64.8318 37.7187 63.968H39.3346C39.4414 64.4242 39.6792 64.7881 40.048 65.0599C40.4168 65.3219 40.8777 65.4529 41.4309 65.4529C42.12 65.4529 42.6344 65.2443 42.9741 64.827C43.3235 64.4096 43.4982 63.8564 43.4982 63.1674C43.4982 62.4686 43.3235 61.9348 42.9741 61.566C42.6247 61.1875 42.1103 60.9983 41.4309 60.9983C40.9554 60.9983 40.5526 61.1196 40.2226 61.3622C39.9024 61.5951 39.6694 61.9154 39.5239 62.323H37.9516V56.1942H44.3571V57.65ZM52.8832 58.6836C52.7764 58.2371 52.5823 57.9023 52.3009 57.6791C52.0194 57.4558 51.6264 57.3442 51.1217 57.3442C50.355 57.3442 49.7824 57.6402 49.4039 58.2323C49.0254 58.8146 48.8264 59.7851 48.807 61.1438C49.0593 60.7168 49.4281 60.3868 49.9134 60.1539C50.3986 59.921 50.9227 59.8045 51.4856 59.8045C52.1262 59.8045 52.6891 59.9452 53.1743 60.2267C53.6693 60.4984 54.0527 60.8963 54.3244 61.4204C54.6059 61.9445 54.7466 62.5705 54.7466 63.2984C54.7466 63.9778 54.6107 64.5843 54.339 65.1181C54.0769 65.6519 53.6839 66.0741 53.1598 66.3846C52.6357 66.6855 52.0049 66.8359 51.2673 66.8359C50.2676 66.8359 49.4815 66.6176 48.9089 66.1808C48.346 65.7344 47.9481 65.1084 47.7151 64.3029C47.4919 63.4973 47.3803 62.4929 47.3803 61.2894C47.3803 57.7373 48.6323 55.9612 51.1362 55.9612C52.1068 55.9612 52.8686 56.2233 53.4218 56.7474C53.9847 57.2714 54.3147 57.9168 54.4117 58.6836H52.8832ZM51.1217 61.2021C50.5297 61.2021 50.025 61.3816 49.6077 61.7407C49.2 62.0901 48.9962 62.5996 48.9962 63.2693C48.9962 63.9389 49.1855 64.4727 49.564 64.8706C49.9522 65.2588 50.4908 65.4529 51.1799 65.4529C51.7913 65.4529 52.2717 65.2637 52.6211 64.8852C52.9802 64.5067 53.1598 64.002 53.1598 63.3712C53.1598 62.7112 52.9851 62.1871 52.6357 61.7989C52.296 61.401 51.7913 61.2021 51.1217 61.2021ZM58.6714 61.2894C57.662 60.7847 57.1574 59.9889 57.1574 58.9019C57.1574 58.3778 57.2884 57.8974 57.5504 57.4607C57.8125 57.024 58.2055 56.6794 58.7296 56.4271C59.2537 56.1651 59.8942 56.034 60.6513 56.034C61.3986 56.034 62.0342 56.1651 62.5583 56.4271C63.0921 56.6794 63.49 57.024 63.7521 57.4607C64.0141 57.8974 64.1451 58.3778 64.1451 58.9019C64.1451 59.4454 64.0044 59.9258 63.723 60.3431C63.4512 60.7508 63.0873 61.0662 62.6311 61.2894C63.1843 61.4932 63.6211 61.828 63.9413 62.2939C64.2616 62.75 64.4217 63.2887 64.4217 63.9098C64.4217 64.5407 64.2616 65.0987 63.9413 65.584C63.6211 66.0692 63.1746 66.4429 62.602 66.7049C62.0294 66.967 61.3791 67.098 60.6513 67.098C59.9234 67.098 59.2731 66.967 58.7005 66.7049C58.1376 66.4429 57.696 66.0692 57.3757 65.584C57.0555 65.0987 56.8953 64.5407 56.8953 63.9098C56.8953 63.279 57.0555 62.7355 57.3757 62.2793C57.696 61.8232 58.1279 61.4932 58.6714 61.2894ZM62.5583 59.1057C62.5583 58.5622 62.3885 58.1449 62.0488 57.8538C61.7091 57.5626 61.2433 57.417 60.6513 57.417C60.0689 57.417 59.6079 57.5626 59.2683 57.8538C58.9286 58.1449 58.7587 58.5671 58.7587 59.1203C58.7587 59.6056 58.9334 60.0035 59.2828 60.314C59.6419 60.6149 60.0981 60.7653 60.6513 60.7653C61.2045 60.7653 61.6606 60.61 62.0197 60.2995C62.3788 59.9889 62.5583 59.591 62.5583 59.1057ZM60.6513 62.0173C60.0107 62.0173 59.4866 62.1774 59.079 62.4977C58.6811 62.8083 58.4821 63.2596 58.4821 63.8516C58.4821 64.4048 58.6762 64.8561 59.0645 65.2055C59.4527 65.5451 59.9816 65.715 60.6513 65.715C61.3112 65.715 61.8304 65.5403 62.2089 65.1909C62.5972 64.8415 62.7913 64.3951 62.7913 63.8516C62.7913 63.2693 62.5923 62.818 62.1944 62.4977C61.8062 62.1774 61.2918 62.0173 60.6513 62.0173Z" fill="black"/>
<path d="M36.494 85.1159C37.053 84.65 37.4985 84.2628 37.8304 83.9542C38.1623 83.6397 38.4389 83.3136 38.6602 82.9759C38.8815 82.6381 38.9921 82.3062 38.9921 81.9801C38.9921 81.6832 38.9222 81.4502 38.7825 81.2814C38.6427 81.1125 38.4273 81.0281 38.1361 81.0281C37.845 81.0281 37.6208 81.127 37.4635 81.325C37.3063 81.5172 37.2248 81.7821 37.219 82.1199H36.0311C36.0543 81.4211 36.2611 80.8912 36.6512 80.5302C37.0472 80.1691 37.548 79.9886 38.1536 79.9886C38.8174 79.9886 39.3269 80.1662 39.6822 80.5214C40.0374 80.8708 40.215 81.3338 40.215 81.9103C40.215 82.3645 40.0927 82.7983 39.8481 83.2117C39.6035 83.6252 39.324 83.9862 39.0096 84.2948C38.6951 84.5976 38.2846 84.9645 37.778 85.3954H40.3547V86.4086H36.0398V85.5002L36.494 85.1159ZM42.1705 86.5571C41.9493 86.5571 41.7658 86.4901 41.6203 86.3562C41.4805 86.2165 41.4106 86.0447 41.4106 85.8409C41.4106 85.6371 41.4805 85.4682 41.6203 85.3343C41.7658 85.1945 41.9493 85.1246 42.1705 85.1246C42.386 85.1246 42.5636 85.1945 42.7034 85.3343C42.8431 85.4682 42.913 85.6371 42.913 85.8409C42.913 86.0447 42.8431 86.2165 42.7034 86.3562C42.5636 86.4901 42.386 86.5571 42.1705 86.5571ZM43.9737 81.2552V80.1284H46.0787V86.496H44.8209V81.2552H43.9737ZM47.511 81.6919C47.511 81.2493 47.6391 80.9029 47.8953 80.6525C48.1573 80.4021 48.4922 80.2769 48.8998 80.2769C49.3074 80.2769 49.6393 80.4021 49.8955 80.6525C50.1576 80.9029 50.2886 81.2493 50.2886 81.6919C50.2886 82.1403 50.1576 82.4897 49.8955 82.7401C49.6393 82.9904 49.3074 83.1156 48.8998 83.1156C48.4922 83.1156 48.1573 82.9904 47.8953 82.7401C47.6391 82.4897 47.511 82.1403 47.511 81.6919ZM53.1186 80.3817L49.6859 86.496H48.498L51.922 80.3817H53.1186ZM48.8911 81.0106C48.5708 81.0106 48.4106 81.2377 48.4106 81.6919C48.4106 82.1519 48.5708 82.3819 48.8911 82.3819C49.0483 82.3819 49.1706 82.3266 49.2579 82.216C49.3453 82.0995 49.3889 81.9248 49.3889 81.6919C49.3889 81.2377 49.223 81.0106 48.8911 81.0106ZM51.3455 85.177C51.3455 84.7287 51.4736 84.3822 51.7298 84.1376C51.9919 83.8872 52.3267 83.762 52.7343 83.762C53.1419 83.762 53.4709 83.8872 53.7213 84.1376C53.9776 84.3822 54.1057 84.7287 54.1057 85.177C54.1057 85.6254 53.9776 85.9748 53.7213 86.2252C53.4709 86.4756 53.1419 86.6008 52.7343 86.6008C52.3209 86.6008 51.986 86.4756 51.7298 86.2252C51.4736 85.9748 51.3455 85.6254 51.3455 85.177ZM52.7256 84.4957C52.3937 84.4957 52.2277 84.7228 52.2277 85.177C52.2277 85.6371 52.3937 85.8671 52.7256 85.8671C53.0517 85.8671 53.2147 85.6371 53.2147 85.177C53.2147 84.7228 53.0517 84.4957 52.7256 84.4957Z" fill="#F2383A"/>
<path d="M59.9408 85.7623L61.4257 81.7094H62.2729L60.395 86.496H59.4691L57.5911 81.7094H58.4471L59.9408 85.7623ZM65.1136 86.5746C64.7467 86.5746 64.4177 86.5134 64.1265 86.3912C63.8354 86.263 63.6054 86.0884 63.4365 85.8671C63.2676 85.64 63.1745 85.3808 63.157 85.0897H63.9781C64.0013 85.3284 64.112 85.5235 64.31 85.6749C64.5138 85.8263 64.7787 85.902 65.1048 85.902C65.4076 85.902 65.6464 85.835 65.8211 85.7011C65.9958 85.5672 66.0831 85.3983 66.0831 85.1945C66.0831 84.9849 65.9899 84.8306 65.8036 84.7316C65.6173 84.6267 65.329 84.5248 64.9389 84.4258C64.5837 84.3327 64.2925 84.2395 64.0654 84.1463C63.8441 84.0473 63.652 83.9047 63.4889 83.7183C63.3317 83.5262 63.2531 83.2758 63.2531 82.9672C63.2531 82.7226 63.3259 82.4984 63.4714 82.2946C63.617 82.0908 63.8237 81.9306 64.0916 81.8142C64.3595 81.6919 64.6652 81.6307 65.0087 81.6307C65.5387 81.6307 65.9667 81.7647 66.2927 82.0325C66.6188 82.3004 66.7935 82.6673 66.8168 83.1331H66.022C66.0045 82.8827 65.9026 82.6818 65.7163 82.5304C65.5357 82.379 65.2912 82.3033 64.9825 82.3033C64.6972 82.3033 64.4701 82.3645 64.3012 82.4867C64.1324 82.609 64.0479 82.7692 64.0479 82.9672C64.0479 83.1244 64.0974 83.2554 64.1964 83.3602C64.3012 83.4592 64.4293 83.5407 64.5807 83.6048C64.738 83.663 64.9534 83.73 65.2271 83.8057C65.5707 83.8989 65.8502 83.992 66.0656 84.0852C66.2811 84.1725 66.4645 84.3065 66.6159 84.487C66.7732 84.6675 66.8547 84.9033 66.8605 85.1945C66.8605 85.4565 66.7877 85.6924 66.6421 85.902C66.4966 86.1116 66.2898 86.2776 66.022 86.3999C65.7599 86.5164 65.4571 86.5746 65.1136 86.5746ZM71.834 80.0323V86.496H71.0391V80.0323H71.834ZM73.2557 84.0852C73.2557 83.5961 73.3547 83.1681 73.5526 82.8012C73.7506 82.4285 74.0214 82.1403 74.365 81.9365C74.7144 81.7327 75.1016 81.6307 75.5267 81.6307C75.9459 81.6307 76.3099 81.721 76.6185 81.9015C76.9271 82.082 77.1572 82.3091 77.3086 82.5828V81.7094H78.1122V86.496H77.3086V85.605C77.1513 85.8845 76.9155 86.1175 76.601 86.3038C76.2924 86.4843 75.9314 86.5746 75.5179 86.5746C75.0929 86.5746 74.7085 86.4698 74.365 86.2601C74.0214 86.0505 73.7506 85.7564 73.5526 85.3779C73.3547 84.9994 73.2557 84.5685 73.2557 84.0852ZM77.3086 84.0939C77.3086 83.7329 77.2358 83.4184 77.0902 83.1506C76.9446 82.8827 76.7466 82.6789 76.4962 82.5392C76.2517 82.3936 75.9809 82.3208 75.6839 82.3208C75.3869 82.3208 75.1162 82.3907 74.8716 82.5304C74.627 82.6702 74.4319 82.874 74.2864 83.1418C74.1408 83.4097 74.068 83.7242 74.068 84.0852C74.068 84.4521 74.1408 84.7723 74.2864 85.046C74.4319 85.3139 74.627 85.5206 74.8716 85.6662C75.1162 85.8059 75.3869 85.8758 75.6839 85.8758C75.9809 85.8758 76.2517 85.8059 76.4962 85.6662C76.7466 85.5206 76.9446 85.3139 77.0902 85.046C77.2358 84.7723 77.3086 84.455 77.3086 84.0939ZM81.5139 86.5746C81.147 86.5746 80.818 86.5134 80.5268 86.3912C80.2357 86.263 80.0057 86.0884 79.8368 85.8671C79.6679 85.64 79.5748 85.3808 79.5573 85.0897H80.3784C80.4016 85.3284 80.5123 85.5235 80.7103 85.6749C80.9141 85.8263 81.179 85.902 81.5051 85.902C81.8079 85.902 82.0467 85.835 82.2214 85.7011C82.3961 85.5672 82.4834 85.3983 82.4834 85.1945C82.4834 84.9849 82.3902 84.8306 82.2039 84.7316C82.0176 84.6267 81.7293 84.5248 81.3392 84.4258C80.984 84.3327 80.6928 84.2395 80.4657 84.1463C80.2444 84.0473 80.0523 83.9047 79.8892 83.7183C79.732 83.5262 79.6534 83.2758 79.6534 82.9672C79.6534 82.7226 79.7262 82.4984 79.8717 82.2946C80.0173 82.0908 80.224 81.9306 80.4919 81.8142C80.7598 81.6919 81.0655 81.6307 81.409 81.6307C81.9389 81.6307 82.3669 81.7647 82.693 82.0325C83.0191 82.3004 83.1938 82.6673 83.2171 83.1331H82.4223C82.4048 82.8827 82.3029 82.6818 82.1166 82.5304C81.936 82.379 81.6915 82.3033 81.3828 82.3033C81.0975 82.3033 80.8704 82.3645 80.7015 82.4867C80.5327 82.609 80.4482 82.7692 80.4482 82.9672C80.4482 83.1244 80.4977 83.2554 80.5967 83.3602C80.7015 83.4592 80.8296 83.5407 80.981 83.6048C81.1383 83.663 81.3537 83.73 81.6274 83.8057C81.971 83.8989 82.2505 83.992 82.4659 84.0852C82.6814 84.1725 82.8648 84.3065 83.0162 84.487C83.1735 84.6675 83.255 84.9033 83.2608 85.1945C83.2608 85.4565 83.188 85.6924 83.0424 85.902C82.8969 86.1116 82.6901 86.2776 82.4223 86.3999C82.1602 86.5164 81.8574 86.5746 81.5139 86.5746ZM85.7164 82.3645V85.1858C85.7164 85.4187 85.7659 85.5847 85.8649 85.6836C85.9638 85.7768 86.1356 85.8234 86.3802 85.8234H86.9654V86.496H86.2492C85.8066 86.496 85.4747 86.3941 85.2534 86.1903C85.0321 85.9864 84.9215 85.6516 84.9215 85.1858V82.3645H84.3013V81.7094H84.9215V80.504H85.7164V81.7094H86.9654V82.3645H85.7164ZM97.3614 81.7094L95.8678 86.496H95.0467L93.8937 82.6964L92.7407 86.496H91.9197L90.4173 81.7094H91.2296L92.3302 85.7273L93.5181 81.7094H94.3305L95.4922 85.7361L96.5753 81.7094H97.3614ZM102.882 83.9192C102.882 84.0706 102.873 84.2308 102.855 84.3996H99.0295C99.0587 84.8713 99.2188 85.2411 99.5099 85.509C99.8069 85.771 100.165 85.902 100.584 85.902C100.928 85.902 101.213 85.8234 101.44 85.6662C101.673 85.5031 101.836 85.2877 101.929 85.0198H102.785C102.657 85.4798 102.401 85.8554 102.017 86.1466C101.632 86.4319 101.155 86.5746 100.584 86.5746C100.13 86.5746 99.7225 86.4727 99.3615 86.2689C99.0062 86.0651 98.7267 85.7768 98.5229 85.4041C98.3191 85.0256 98.2172 84.5889 98.2172 84.0939C98.2172 83.599 98.3162 83.1651 98.5142 82.7925C98.7122 82.4198 98.9888 82.1344 99.344 81.9365C99.705 81.7327 100.118 81.6307 100.584 81.6307C101.039 81.6307 101.44 81.7297 101.79 81.9277C102.139 82.1257 102.407 82.3994 102.593 82.7488C102.785 83.0924 102.882 83.4825 102.882 83.9192ZM102.06 83.7533C102.06 83.4505 101.994 83.1913 101.86 82.9759C101.726 82.7546 101.542 82.5887 101.309 82.478C101.082 82.3615 100.829 82.3033 100.549 82.3033C100.148 82.3033 99.804 82.4314 99.5187 82.6876C99.2392 82.9439 99.079 83.2991 99.0383 83.7533H102.06ZM108.662 83.9192C108.662 84.0706 108.653 84.2308 108.636 84.3996H104.81C104.839 84.8713 104.999 85.2411 105.29 85.509C105.587 85.771 105.946 85.902 106.365 85.902C106.708 85.902 106.994 85.8234 107.221 85.6662C107.454 85.5031 107.617 85.2877 107.71 85.0198H108.566C108.438 85.4798 108.182 85.8554 107.797 86.1466C107.413 86.4319 106.935 86.5746 106.365 86.5746C105.911 86.5746 105.503 86.4727 105.142 86.2689C104.787 86.0651 104.507 85.7768 104.303 85.4041C104.1 85.0256 103.998 84.5889 103.998 84.0939C103.998 83.599 104.097 83.1651 104.295 82.7925C104.493 82.4198 104.769 82.1344 105.124 81.9365C105.486 81.7327 105.899 81.6307 106.365 81.6307C106.819 81.6307 107.221 81.7297 107.57 81.9277C107.92 82.1257 108.187 82.3994 108.374 82.7488C108.566 83.0924 108.662 83.4825 108.662 83.9192ZM107.841 83.7533C107.841 83.4505 107.774 83.1913 107.64 82.9759C107.506 82.7546 107.323 82.5887 107.09 82.478C106.863 82.3615 106.609 82.3033 106.33 82.3033C105.928 82.3033 105.584 82.4314 105.299 82.6876C105.02 82.9439 104.86 83.2991 104.819 83.7533H107.841ZM112.748 86.496L110.87 84.3822V86.496H110.075V80.0323H110.87V83.8319L112.713 81.7094H113.822L111.569 84.0939L113.831 86.496H112.748Z" fill="#737B8B"/>
<path d="M26.5529 79.4979V86.0752" stroke="#F2383A" stroke-width="1.09184" stroke-linecap="round" stroke-linejoin="round"/>
<path d="M29.1792 84.1854L26.5897 86.775L24.0002 84.1854" stroke="#F2383A" stroke-width="1.09184" stroke-linecap="round" stroke-linejoin="round"/>
<path opacity="0.5" d="M26.8199 116.768C26.3846 116.768 25.9935 116.692 25.6465 116.54C25.3058 116.383 25.0377 116.168 24.8422 115.897C24.6466 115.619 24.5457 115.301 24.5394 114.941H25.4572C25.4888 115.25 25.6149 115.512 25.8357 115.727C26.0628 115.935 26.3909 116.039 26.8199 116.039C27.2299 116.039 27.5516 115.938 27.785 115.736C28.0248 115.528 28.1446 115.263 28.1446 114.941C28.1446 114.689 28.0752 114.484 27.9364 114.326C27.7977 114.169 27.6242 114.049 27.416 113.967C27.2078 113.885 26.9271 113.796 26.5738 113.702C26.1385 113.588 25.7884 113.475 25.5235 113.361C25.2648 113.247 25.0409 113.071 24.8516 112.831C24.6687 112.585 24.5772 112.257 24.5772 111.847C24.5772 111.487 24.6687 111.169 24.8516 110.891C25.0346 110.614 25.2901 110.399 25.6181 110.248C25.9524 110.096 26.3341 110.021 26.7631 110.021C27.3813 110.021 27.886 110.175 28.2771 110.484C28.6745 110.794 28.8985 111.204 28.9489 111.715H28.0027C27.9711 111.462 27.8387 111.241 27.6052 111.052C27.3718 110.857 27.0627 110.759 26.6779 110.759C26.3183 110.759 26.025 110.853 25.7979 111.043C25.5708 111.226 25.4572 111.484 25.4572 111.819C25.4572 112.058 25.5235 112.254 25.656 112.405C25.7947 112.557 25.9619 112.673 26.1575 112.755C26.3593 112.831 26.6401 112.919 26.9996 113.02C27.4349 113.14 27.785 113.26 28.05 113.38C28.3149 113.494 28.542 113.673 28.7313 113.919C28.9205 114.159 29.0152 114.487 29.0152 114.903C29.0152 115.225 28.93 115.528 28.7597 115.812C28.5894 116.096 28.337 116.326 28.0027 116.503C27.6683 116.679 27.2741 116.768 26.8199 116.768ZM30.3246 114.09C30.3246 113.56 30.4318 113.096 30.6463 112.699C30.8608 112.295 31.1541 111.983 31.5263 111.762C31.9048 111.541 32.3243 111.431 32.7848 111.431C33.239 111.431 33.6333 111.528 33.9677 111.724C34.302 111.92 34.5512 112.166 34.7152 112.462V111.516H35.5858V116.701H34.7152V115.736C34.5449 116.039 34.2894 116.291 33.9487 116.493C33.6144 116.689 33.2233 116.786 32.7754 116.786C32.3149 116.786 31.8985 116.673 31.5263 116.446C31.1541 116.219 30.8608 115.9 30.6463 115.49C30.4318 115.08 30.3246 114.613 30.3246 114.09ZM34.7152 114.099C34.7152 113.708 34.6363 113.367 34.4786 113.077C34.3209 112.787 34.1064 112.566 33.8352 112.415C33.5702 112.257 33.2769 112.178 32.9552 112.178C32.6334 112.178 32.3401 112.254 32.0751 112.405C31.8102 112.557 31.5989 112.778 31.4411 113.068C31.2834 113.358 31.2046 113.699 31.2046 114.09C31.2046 114.487 31.2834 114.834 31.4411 115.131C31.5989 115.421 31.8102 115.645 32.0751 115.802C32.3401 115.954 32.6334 116.029 32.9552 116.029C33.2769 116.029 33.5702 115.954 33.8352 115.802C34.1064 115.645 34.3209 115.421 34.4786 115.131C34.6363 114.834 34.7152 114.49 34.7152 114.099ZM38.266 109.699V116.701H37.4049V109.699H38.266ZM44.8288 113.91C44.8288 114.074 44.8193 114.247 44.8004 114.43H40.6558C40.6873 114.941 40.8608 115.342 41.1762 115.632C41.498 115.916 41.8859 116.058 42.3401 116.058C42.7123 116.058 43.0214 115.973 43.2675 115.802C43.5198 115.626 43.6964 115.392 43.7974 115.102H44.7247C44.5859 115.601 44.3084 116.007 43.892 116.323C43.4756 116.632 42.9584 116.786 42.3401 116.786C41.8481 116.786 41.4065 116.676 41.0154 116.455C40.6306 116.235 40.3278 115.922 40.107 115.519C39.8862 115.108 39.7758 114.635 39.7758 114.099C39.7758 113.563 39.883 113.093 40.0975 112.689C40.312 112.285 40.6116 111.976 40.9964 111.762C41.3876 111.541 41.8355 111.431 42.3401 111.431C42.8322 111.431 43.2675 111.538 43.646 111.752C44.0245 111.967 44.3147 112.263 44.5165 112.642C44.7247 113.014 44.8288 113.437 44.8288 113.91ZM43.9393 113.73C43.9393 113.402 43.8668 113.121 43.7217 112.888C43.5766 112.648 43.3779 112.468 43.1255 112.349C42.8795 112.222 42.6051 112.159 42.3023 112.159C41.867 112.159 41.4948 112.298 41.1857 112.576C40.8829 112.853 40.7094 113.238 40.6653 113.73H43.9393ZM48.1651 116.786C47.7677 116.786 47.4112 116.72 47.0958 116.588C46.7804 116.449 46.5312 116.26 46.3483 116.02C46.1653 115.774 46.0644 115.493 46.0455 115.178H46.935C46.9602 115.436 47.0801 115.648 47.2945 115.812C47.5153 115.976 47.8024 116.058 48.1556 116.058C48.4837 116.058 48.7423 115.985 48.9316 115.84C49.1208 115.695 49.2154 115.512 49.2154 115.291C49.2154 115.064 49.1145 114.897 48.9126 114.79C48.7108 114.676 48.3985 114.566 47.9758 114.459C47.591 114.358 47.2756 114.257 47.0296 114.156C46.7899 114.049 46.5817 113.894 46.4051 113.692C46.2347 113.484 46.1496 113.213 46.1496 112.878C46.1496 112.613 46.2284 112.371 46.3861 112.15C46.5438 111.929 46.7678 111.756 47.058 111.629C47.3482 111.497 47.6794 111.431 48.0516 111.431C48.6256 111.431 49.0893 111.576 49.4426 111.866C49.7958 112.156 49.9851 112.554 50.0103 113.058H49.1492C49.1303 112.787 49.0199 112.569 48.818 112.405C48.6225 112.241 48.3575 112.159 48.0232 112.159C47.7141 112.159 47.468 112.226 47.2851 112.358C47.1021 112.49 47.0107 112.664 47.0107 112.878C47.0107 113.049 47.0643 113.191 47.1715 113.304C47.2851 113.411 47.4239 113.5 47.5879 113.569C47.7582 113.632 47.9916 113.705 48.2881 113.787C48.6603 113.888 48.9631 113.989 49.1965 114.09C49.4299 114.184 49.6286 114.329 49.7927 114.525C49.963 114.72 50.0513 114.976 50.0576 115.291C50.0576 115.575 49.9788 115.831 49.8211 116.058C49.6633 116.285 49.4394 116.465 49.1492 116.597C48.8653 116.723 48.5373 116.786 48.1651 116.786ZM56.634 112.226H55.5458V116.701H54.6847V112.226H54.0128V111.516H54.6847V111.147C54.6847 110.566 54.8329 110.144 55.1294 109.879C55.4322 109.608 55.9148 109.472 56.5772 109.472V110.191C56.1987 110.191 55.9306 110.267 55.7729 110.418C55.6215 110.563 55.5458 110.806 55.5458 111.147V111.516H56.634V112.226ZM58.863 112.358C59.0144 112.062 59.2289 111.831 59.5065 111.667C59.7903 111.503 60.1342 111.421 60.5379 111.421V112.311H60.3108C59.3456 112.311 58.863 112.834 58.863 113.881V116.701H58.0019V111.516H58.863V112.358ZM64.1574 116.786C63.6717 116.786 63.2301 116.676 62.8326 116.455C62.4415 116.235 62.1324 115.922 61.9053 115.519C61.6845 115.108 61.5741 114.635 61.5741 114.099C61.5741 113.569 61.6877 113.102 61.9148 112.699C62.1482 112.289 62.4636 111.976 62.861 111.762C63.2585 111.541 63.7032 111.431 64.1953 111.431C64.6873 111.431 65.1321 111.541 65.5295 111.762C65.9269 111.976 66.2392 112.285 66.4663 112.689C66.6997 113.093 66.8164 113.563 66.8164 114.099C66.8164 114.635 66.6965 115.108 66.4568 115.519C66.2234 115.922 65.9048 116.235 65.5011 116.455C65.0974 116.676 64.6495 116.786 64.1574 116.786ZM64.1574 116.029C64.4665 116.029 64.7567 115.957 65.028 115.812C65.2992 115.667 65.5169 115.449 65.6809 115.159C65.8512 114.869 65.9364 114.515 65.9364 114.099C65.9364 113.683 65.8544 113.329 65.6903 113.039C65.5263 112.749 65.3118 112.535 65.0469 112.396C64.7819 112.251 64.4949 112.178 64.1858 112.178C63.8704 112.178 63.5802 112.251 63.3152 112.396C63.0566 112.535 62.8484 112.749 62.6907 113.039C62.533 113.329 62.4541 113.683 62.4541 114.099C62.4541 114.522 62.5298 114.878 62.6812 115.168C62.839 115.459 63.0471 115.676 63.3058 115.821C63.5644 115.96 63.8483 116.029 64.1574 116.029ZM74.5484 111.421C74.9521 111.421 75.3117 111.506 75.6271 111.677C75.9425 111.841 76.1917 112.09 76.3747 112.424C76.5576 112.759 76.6491 113.165 76.6491 113.645V116.701H75.7974V113.768C75.7974 113.251 75.6681 112.856 75.4095 112.585C75.1571 112.308 74.8133 112.169 74.378 112.169C73.9301 112.169 73.5737 112.314 73.3088 112.604C73.0438 112.888 72.9113 113.301 72.9113 113.844V116.701H72.0597V113.768C72.0597 113.251 71.9304 112.856 71.6717 112.585C71.4194 112.308 71.0756 112.169 70.6403 112.169C70.1924 112.169 69.836 112.314 69.5711 112.604C69.3061 112.888 69.1736 113.301 69.1736 113.844V116.701H68.3125V111.516H69.1736V112.263C69.3439 111.992 69.5711 111.784 69.8549 111.639C70.1451 111.494 70.4637 111.421 70.8106 111.421C71.2459 111.421 71.6307 111.519 71.9651 111.715C72.2994 111.91 72.5486 112.197 72.7126 112.576C72.8577 112.21 73.0974 111.926 73.4318 111.724C73.7661 111.522 74.1383 111.421 74.5484 111.421ZM80.9432 110.645V109.86H82.7221V116.701H81.8516V110.645H80.9432ZM88.3029 112.869V113.598H84.5273V112.869H88.3029ZM93.9544 111.487C93.8156 110.787 93.3835 110.437 92.658 110.437C92.0966 110.437 91.677 110.655 91.3995 111.09C91.1219 111.519 90.9863 112.229 90.9926 113.219C91.1377 112.891 91.3774 112.636 91.7117 112.453C92.0524 112.263 92.4309 112.169 92.8473 112.169C93.497 112.169 94.0143 112.371 94.3991 112.774C94.7902 113.178 94.9858 113.736 94.9858 114.449C94.9858 114.878 94.9006 115.263 94.7303 115.604C94.5663 115.944 94.314 116.216 93.9733 116.417C93.639 116.619 93.2321 116.72 92.7526 116.72C92.1029 116.72 91.595 116.575 91.2292 116.285C90.8633 115.995 90.6078 115.594 90.4627 115.083C90.3176 114.572 90.245 113.941 90.245 113.191C90.245 110.876 91.0525 109.718 92.6675 109.718C93.2857 109.718 93.7714 109.885 94.1247 110.219C94.478 110.554 94.6862 110.976 94.7492 111.487H93.9544ZM92.6675 112.897C92.3962 112.897 92.1407 112.954 91.901 113.068C91.6613 113.175 91.4657 113.342 91.3143 113.569C91.1692 113.79 91.0967 114.061 91.0967 114.383C91.0967 114.862 91.2355 115.254 91.513 115.556C91.7906 115.853 92.188 116.001 92.7053 116.001C93.1469 116.001 93.497 115.865 93.7557 115.594C94.0206 115.317 94.1531 114.944 94.1531 114.478C94.1531 113.986 94.0269 113.601 93.7746 113.323C93.5223 113.039 93.1532 112.897 92.6675 112.897ZM101.593 110.106C102.313 110.106 102.934 110.242 103.458 110.513C103.987 110.778 104.391 111.159 104.669 111.658C104.953 112.156 105.095 112.743 105.095 113.418C105.095 114.093 104.953 114.679 104.669 115.178C104.391 115.67 103.987 116.048 103.458 116.313C102.934 116.572 102.313 116.701 101.593 116.701H99.5401V110.106H101.593ZM101.593 115.992C102.445 115.992 103.095 115.768 103.543 115.32C103.991 114.866 104.215 114.232 104.215 113.418C104.215 112.598 103.987 111.957 103.533 111.497C103.085 111.036 102.439 110.806 101.593 110.806H100.401V115.992H101.593ZM111.326 113.91C111.326 114.074 111.316 114.247 111.297 114.43H107.153C107.184 114.941 107.358 115.342 107.673 115.632C107.995 115.916 108.383 116.058 108.837 116.058C109.209 116.058 109.518 115.973 109.764 115.802C110.017 115.626 110.193 115.392 110.294 115.102H111.222C111.083 115.601 110.805 116.007 110.389 116.323C109.972 116.632 109.455 116.786 108.837 116.786C108.345 116.786 107.903 116.676 107.512 116.455C107.127 116.235 106.825 115.922 106.604 115.519C106.383 115.108 106.273 114.635 106.273 114.099C106.273 113.563 106.38 113.093 106.594 112.689C106.809 112.285 107.108 111.976 107.493 111.762C107.884 111.541 108.332 111.431 108.837 111.431C109.329 111.431 109.764 111.538 110.143 111.752C110.521 111.967 110.812 112.263 111.013 112.642C111.222 113.014 111.326 113.437 111.326 113.91ZM110.436 113.73C110.436 113.402 110.364 113.121 110.219 112.888C110.073 112.648 109.875 112.468 109.622 112.349C109.376 112.222 109.102 112.159 108.799 112.159C108.364 112.159 107.992 112.298 107.683 112.576C107.38 112.853 107.206 113.238 107.162 113.73H110.436ZM112.504 114.099C112.504 113.563 112.612 113.096 112.826 112.699C113.041 112.295 113.337 111.983 113.716 111.762C114.1 111.541 114.539 111.431 115.031 111.431C115.668 111.431 116.192 111.585 116.602 111.894C117.018 112.203 117.293 112.632 117.425 113.181H116.498C116.409 112.866 116.236 112.617 115.977 112.434C115.725 112.251 115.409 112.159 115.031 112.159C114.539 112.159 114.141 112.33 113.839 112.67C113.536 113.005 113.384 113.481 113.384 114.099C113.384 114.724 113.536 115.206 113.839 115.547C114.141 115.888 114.539 116.058 115.031 116.058C115.409 116.058 115.725 115.97 115.977 115.793C116.23 115.616 116.403 115.364 116.498 115.036H117.425C117.286 115.566 117.009 115.992 116.592 116.313C116.176 116.629 115.656 116.786 115.031 116.786C114.539 116.786 114.1 116.676 113.716 116.455C113.337 116.235 113.041 115.922 112.826 115.519C112.612 115.115 112.504 114.642 112.504 114.099ZM119.827 115.509L118.768 118.054H118.19L118.881 115.509H119.827ZM123.818 116.011C124.62 115.367 125.247 114.84 125.701 114.43C126.156 114.014 126.537 113.582 126.846 113.134C127.162 112.68 127.32 112.235 127.32 111.8C127.32 111.39 127.219 111.068 127.017 110.835C126.821 110.595 126.503 110.475 126.061 110.475C125.632 110.475 125.298 110.611 125.058 110.882C124.825 111.147 124.698 111.503 124.68 111.951H123.847C123.872 111.245 124.087 110.699 124.49 110.314C124.894 109.929 125.414 109.737 126.052 109.737C126.701 109.737 127.215 109.917 127.594 110.276C127.979 110.636 128.171 111.131 128.171 111.762C128.171 112.285 128.013 112.796 127.698 113.295C127.389 113.787 127.036 114.222 126.638 114.601C126.241 114.973 125.733 115.408 125.115 115.906H128.37V116.626H123.818V116.011ZM129.729 113.21C129.729 112.125 129.906 111.279 130.259 110.674C130.612 110.062 131.231 109.756 132.114 109.756C132.991 109.756 133.606 110.062 133.959 110.674C134.312 111.279 134.489 112.125 134.489 113.21C134.489 114.314 134.312 115.172 133.959 115.783C133.606 116.395 132.991 116.701 132.114 116.701C131.231 116.701 130.612 116.395 130.259 115.783C129.906 115.172 129.729 114.314 129.729 113.21ZM133.637 113.21C133.637 112.661 133.599 112.197 133.524 111.819C133.454 111.434 133.306 111.125 133.079 110.891C132.858 110.658 132.537 110.541 132.114 110.541C131.685 110.541 131.357 110.658 131.13 110.891C130.909 111.125 130.761 111.434 130.685 111.819C130.616 112.197 130.581 112.661 130.581 113.21C130.581 113.777 130.616 114.254 130.685 114.638C130.761 115.023 130.909 115.332 131.13 115.566C131.357 115.799 131.685 115.916 132.114 115.916C132.537 115.916 132.858 115.799 133.079 115.566C133.306 115.332 133.454 115.023 133.524 114.638C133.599 114.254 133.637 113.777 133.637 113.21ZM135.931 116.011C136.732 115.367 137.36 114.84 137.814 114.43C138.268 114.014 138.65 113.582 138.959 113.134C139.274 112.68 139.432 112.235 139.432 111.8C139.432 111.39 139.331 111.068 139.129 110.835C138.934 110.595 138.615 110.475 138.174 110.475C137.745 110.475 137.41 110.611 137.171 110.882C136.937 111.147 136.811 111.503 136.792 111.951H135.959C135.985 111.245 136.199 110.699 136.603 110.314C137.007 109.929 137.527 109.737 138.164 109.737C138.814 109.737 139.328 109.917 139.707 110.276C140.091 110.636 140.284 111.131 140.284 111.762C140.284 112.285 140.126 112.796 139.811 113.295C139.502 113.787 139.148 114.222 138.751 114.601C138.353 114.973 137.846 115.408 137.227 115.906H140.482V116.626H135.931V116.011ZM141.842 113.21C141.842 112.125 142.018 111.279 142.372 110.674C142.725 110.062 143.343 109.756 144.226 109.756C145.103 109.756 145.718 110.062 146.072 110.674C146.425 111.279 146.602 112.125 146.602 113.21C146.602 114.314 146.425 115.172 146.072 115.783C145.718 116.395 145.103 116.701 144.226 116.701C143.343 116.701 142.725 116.395 142.372 115.783C142.018 115.172 141.842 114.314 141.842 113.21ZM145.75 113.21C145.75 112.661 145.712 112.197 145.636 111.819C145.567 111.434 145.419 111.125 145.192 110.891C144.971 110.658 144.649 110.541 144.226 110.541C143.797 110.541 143.469 110.658 143.242 110.891C143.022 111.125 142.873 111.434 142.798 111.819C142.728 112.197 142.693 112.661 142.693 113.21C142.693 113.777 142.728 114.254 142.798 114.638C142.873 115.023 143.022 115.332 143.242 115.566C143.469 115.799 143.797 115.916 144.226 115.916C144.649 115.916 144.971 115.799 145.192 115.566C145.419 115.332 145.567 115.023 145.636 114.638C145.712 114.254 145.75 113.777 145.75 113.21Z" fill="black"/>
<circle cx="27.2755" cy="260.375" r="3.27551" fill="#285B52"/>
<path opacity="0.7" d="M37.8413 261.998H39.9726V262.645H37.0465V256.557H37.8413V261.998ZM40.8837 260.234C40.8837 259.745 40.9827 259.317 41.1807 258.95C41.3787 258.577 41.6494 258.289 41.993 258.085C42.3424 257.881 42.7296 257.779 43.1547 257.779C43.574 257.779 43.9379 257.87 44.2465 258.05C44.5552 258.231 44.7852 258.458 44.9366 258.731V257.858H45.7402V262.645H44.9366V261.754C44.7794 262.033 44.5435 262.266 44.2291 262.452C43.9204 262.633 43.5594 262.723 43.146 262.723C42.7209 262.723 42.3366 262.618 41.993 262.409C41.6494 262.199 41.3787 261.905 41.1807 261.527C40.9827 261.148 40.8837 260.717 40.8837 260.234ZM44.9366 260.243C44.9366 259.882 44.8638 259.567 44.7182 259.299C44.5726 259.031 44.3747 258.828 44.1243 258.688C43.8797 258.542 43.6089 258.469 43.3119 258.469C43.015 258.469 42.7442 258.539 42.4996 258.679C42.255 258.819 42.06 259.023 41.9144 259.29C41.7688 259.558 41.696 259.873 41.696 260.234C41.696 260.601 41.7688 260.921 41.9144 261.195C42.06 261.462 42.255 261.669 42.4996 261.815C42.7442 261.955 43.015 262.024 43.3119 262.024C43.6089 262.024 43.8797 261.955 44.1243 261.815C44.3747 261.669 44.5726 261.462 44.7182 261.195C44.8638 260.921 44.9366 260.604 44.9366 260.243ZM49.1419 262.723C48.775 262.723 48.446 262.662 48.1549 262.54C47.8637 262.412 47.6337 262.237 47.4648 262.016C47.296 261.789 47.2028 261.529 47.1853 261.238H48.0064C48.0297 261.477 48.1403 261.672 48.3383 261.824C48.5421 261.975 48.8071 262.051 49.1332 262.051C49.436 262.051 49.6747 261.984 49.8494 261.85C50.0241 261.716 50.1114 261.547 50.1114 261.343C50.1114 261.133 50.0183 260.979 49.8319 260.88C49.6456 260.775 49.3573 260.673 48.9672 260.574C48.612 260.481 48.3208 260.388 48.0937 260.295C47.8724 260.196 47.6803 260.053 47.5172 259.867C47.36 259.675 47.2814 259.424 47.2814 259.116C47.2814 258.871 47.3542 258.647 47.4998 258.443C47.6453 258.239 47.8521 258.079 48.1199 257.963C48.3878 257.841 48.6935 257.779 49.0371 257.779C49.567 257.779 49.995 257.913 50.3211 258.181C50.6472 258.449 50.8219 258.816 50.8452 259.282H50.0503C50.0328 259.031 49.9309 258.83 49.7446 258.679C49.5641 258.528 49.3195 258.452 49.0109 258.452C48.7255 258.452 48.4984 258.513 48.3296 258.635C48.1607 258.758 48.0763 258.918 48.0763 259.116C48.0763 259.273 48.1258 259.404 48.2247 259.509C48.3296 259.608 48.4577 259.689 48.6091 259.753C48.7663 259.812 48.9818 259.879 49.2554 259.954C49.599 260.047 49.8785 260.141 50.094 260.234C50.3094 260.321 50.4929 260.455 50.6443 260.636C50.8015 260.816 50.883 261.052 50.8888 261.343C50.8888 261.605 50.816 261.841 50.6705 262.051C50.5249 262.26 50.3182 262.426 50.0503 262.549C49.7883 262.665 49.4855 262.723 49.1419 262.723ZM53.3444 258.513V261.334C53.3444 261.567 53.3939 261.733 53.4929 261.832C53.5919 261.925 53.7637 261.972 54.0082 261.972H54.5935V262.645H53.8772C53.4346 262.645 53.1027 262.543 52.8815 262.339C52.6602 262.135 52.5495 261.8 52.5495 261.334V258.513H51.9294V257.858H52.5495V256.653H53.3444V257.858H54.5935V258.513H53.3444ZM62.0022 257.832C61.874 257.185 61.4752 256.862 60.8055 256.862C60.2872 256.862 59.9 257.063 59.6438 257.465C59.3876 257.861 59.2624 258.516 59.2682 259.43C59.4021 259.127 59.6234 258.892 59.932 258.723C60.2465 258.548 60.5959 258.461 60.9802 258.461C61.58 258.461 62.0575 258.647 62.4127 259.02C62.7737 259.392 62.9542 259.908 62.9542 260.566C62.9542 260.962 62.8756 261.317 62.7184 261.631C62.567 261.946 62.3341 262.196 62.0196 262.383C61.711 262.569 61.3354 262.662 60.8928 262.662C60.2931 262.662 59.8243 262.528 59.4866 262.26C59.1488 261.992 58.913 261.623 58.7791 261.151C58.6451 260.679 58.5782 260.097 58.5782 259.404C58.5782 257.267 59.3235 256.198 60.8142 256.198C61.3849 256.198 61.8333 256.353 62.1594 256.661C62.4855 256.97 62.6776 257.36 62.7359 257.832H62.0022ZM60.8142 259.133C60.5638 259.133 60.328 259.186 60.1067 259.29C59.8854 259.389 59.7049 259.544 59.5652 259.753C59.4312 259.957 59.3643 260.208 59.3643 260.505C59.3643 260.947 59.4924 261.308 59.7486 261.588C60.0048 261.861 60.3717 261.998 60.8492 261.998C61.2568 261.998 61.58 261.873 61.8187 261.623C62.0633 261.366 62.1856 261.023 62.1856 260.592C62.1856 260.138 62.0691 259.783 61.8362 259.526C61.6033 259.264 61.2626 259.133 60.8142 259.133ZM66.9172 260.234C66.9172 259.745 67.0162 259.317 67.2142 258.95C67.4121 258.577 67.6829 258.289 68.0265 258.085C68.3759 257.881 68.766 257.779 69.1969 257.779C69.5696 257.779 69.9161 257.867 70.2364 258.041C70.5566 258.21 70.8012 258.434 70.9701 258.714V256.181H71.7737V262.645H70.9701V261.745C70.8128 262.03 70.5799 262.266 70.2713 262.452C69.9627 262.633 69.6016 262.723 69.1882 262.723C68.7631 262.723 68.3759 262.618 68.0265 262.409C67.6829 262.199 67.4121 261.905 67.2142 261.527C67.0162 261.148 66.9172 260.717 66.9172 260.234ZM70.9701 260.243C70.9701 259.882 70.8973 259.567 70.7517 259.299C70.6061 259.031 70.4081 258.828 70.1577 258.688C69.9132 258.542 69.6424 258.469 69.3454 258.469C69.0484 258.469 68.7777 258.539 68.5331 258.679C68.2885 258.819 68.0934 259.023 67.9479 259.29C67.8023 259.558 67.7295 259.873 67.7295 260.234C67.7295 260.601 67.8023 260.921 67.9479 261.195C68.0934 261.462 68.2885 261.669 68.5331 261.815C68.7777 261.955 69.0484 262.024 69.3454 262.024C69.6424 262.024 69.9132 261.955 70.1577 261.815C70.4081 261.669 70.6061 261.462 70.7517 261.195C70.8973 260.921 70.9701 260.604 70.9701 260.243ZM73.1839 260.234C73.1839 259.745 73.2829 259.317 73.4808 258.95C73.6788 258.577 73.9496 258.289 74.2932 258.085C74.6426 257.881 75.0298 257.779 75.4549 257.779C75.8741 257.779 76.2381 257.87 76.5467 258.05C76.8553 258.231 77.0854 258.458 77.2368 258.731V257.858H78.0404V262.645H77.2368V261.754C77.0795 262.033 76.8437 262.266 76.5292 262.452C76.2206 262.633 75.8596 262.723 75.4461 262.723C75.0211 262.723 74.6367 262.618 74.2932 262.409C73.9496 262.199 73.6788 261.905 73.4808 261.527C73.2829 261.148 73.1839 260.717 73.1839 260.234ZM77.2368 260.243C77.2368 259.882 77.164 259.567 77.0184 259.299C76.8728 259.031 76.6748 258.828 76.4244 258.688C76.1799 258.542 75.9091 258.469 75.6121 258.469C75.3151 258.469 75.0444 258.539 74.7998 258.679C74.5552 258.819 74.3601 259.023 74.2146 259.29C74.069 259.558 73.9962 259.873 73.9962 260.234C73.9962 260.601 74.069 260.921 74.2146 261.195C74.3601 261.462 74.5552 261.669 74.7998 261.815C75.0444 261.955 75.3151 262.024 75.6121 262.024C75.9091 262.024 76.1799 261.955 76.4244 261.815C76.6748 261.669 76.8728 261.462 77.0184 261.195C77.164 260.921 77.2368 260.604 77.2368 260.243ZM83.8703 257.858L80.9879 264.898H80.1668L81.1101 262.592L79.1798 257.858H80.062L81.5643 261.736L83.0492 257.858H83.8703ZM86.7278 262.723C86.3609 262.723 86.0319 262.662 85.7408 262.54C85.4496 262.412 85.2196 262.237 85.0507 262.016C84.8819 261.789 84.7887 261.529 84.7712 261.238H85.5923C85.6156 261.477 85.7262 261.672 85.9242 261.824C86.128 261.975 86.393 262.051 86.7191 262.051C87.0219 262.051 87.2606 261.984 87.4353 261.85C87.61 261.716 87.6974 261.547 87.6974 261.343C87.6974 261.133 87.6042 260.979 87.4178 260.88C87.2315 260.775 86.9433 260.673 86.5531 260.574C86.1979 260.481 85.9067 260.388 85.6796 260.295C85.4584 260.196 85.2662 260.053 85.1031 259.867C84.9459 259.675 84.8673 259.424 84.8673 259.116C84.8673 258.871 84.9401 258.647 85.0857 258.443C85.2313 258.239 85.438 258.079 85.7058 257.963C85.9737 257.841 86.2794 257.779 86.623 257.779C87.1529 257.779 87.5809 257.913 87.907 258.181C88.2331 258.449 88.4078 258.816 88.4311 259.282H87.6362C87.6187 259.031 87.5168 258.83 87.3305 258.679C87.15 258.528 86.9054 258.452 86.5968 258.452C86.3114 258.452 86.0843 258.513 85.9155 258.635C85.7466 258.758 85.6622 258.918 85.6622 259.116C85.6622 259.273 85.7117 259.404 85.8107 259.509C85.9155 259.608 86.0436 259.689 86.195 259.753C86.3522 259.812 86.5677 259.879 86.8414 259.954C87.1849 260.047 87.4644 260.141 87.6799 260.234C87.8953 260.321 88.0788 260.455 88.2302 260.636C88.3874 260.816 88.4689 261.052 88.4747 261.343C88.4747 261.605 88.402 261.841 88.2564 262.051C88.1108 262.26 87.9041 262.426 87.6362 262.549C87.3742 262.665 87.0714 262.723 86.7278 262.723Z" fill="#121212"/>
<circle cx="110.256" cy="260.375" r="3.27551" fill="#D8D9DB"/>
<path opacity="0.7" d="M120.822 261.998H122.953V262.645H120.027V256.557H120.822V261.998ZM123.864 260.234C123.864 259.745 123.963 259.317 124.161 258.95C124.359 258.577 124.63 258.289 124.973 258.085C125.323 257.881 125.71 257.779 126.135 257.779C126.554 257.779 126.918 257.87 127.227 258.05C127.535 258.231 127.766 258.458 127.917 258.731V257.858H128.72V262.645H127.917V261.754C127.76 262.033 127.524 262.266 127.209 262.452C126.901 262.633 126.54 262.723 126.126 262.723C125.701 262.723 125.317 262.618 124.973 262.409C124.63 262.199 124.359 261.905 124.161 261.527C123.963 261.148 123.864 260.717 123.864 260.234ZM127.917 260.243C127.917 259.882 127.844 259.567 127.699 259.299C127.553 259.031 127.355 258.828 127.105 258.688C126.86 258.542 126.589 258.469 126.292 258.469C125.995 258.469 125.724 258.539 125.48 258.679C125.235 258.819 125.04 259.023 124.895 259.29C124.749 259.558 124.676 259.873 124.676 260.234C124.676 260.601 124.749 260.921 124.895 261.195C125.04 261.462 125.235 261.669 125.48 261.815C125.724 261.955 125.995 262.024 126.292 262.024C126.589 262.024 126.86 261.955 127.105 261.815C127.355 261.669 127.553 261.462 127.699 261.195C127.844 260.921 127.917 260.604 127.917 260.243ZM132.122 262.723C131.755 262.723 131.426 262.662 131.135 262.54C130.844 262.412 130.614 262.237 130.445 262.016C130.276 261.789 130.183 261.529 130.166 261.238H130.987C131.01 261.477 131.121 261.672 131.319 261.824C131.522 261.975 131.787 262.051 132.113 262.051C132.416 262.051 132.655 261.984 132.83 261.85C133.004 261.716 133.092 261.547 133.092 261.343C133.092 261.133 132.999 260.979 132.812 260.88C132.626 260.775 132.338 260.673 131.948 260.574C131.592 260.481 131.301 260.388 131.074 260.295C130.853 260.196 130.661 260.053 130.498 259.867C130.34 259.675 130.262 259.424 130.262 259.116C130.262 258.871 130.335 258.647 130.48 258.443C130.626 258.239 130.832 258.079 131.1 257.963C131.368 257.841 131.674 257.779 132.017 257.779C132.547 257.779 132.975 257.913 133.301 258.181C133.627 258.449 133.802 258.816 133.825 259.282H133.031C133.013 259.031 132.911 258.83 132.725 258.679C132.544 258.528 132.3 258.452 131.991 258.452C131.706 258.452 131.479 258.513 131.31 258.635C131.141 258.758 131.057 258.918 131.057 259.116C131.057 259.273 131.106 259.404 131.205 259.509C131.31 259.608 131.438 259.689 131.589 259.753C131.747 259.812 131.962 259.879 132.236 259.954C132.579 260.047 132.859 260.141 133.074 260.234C133.29 260.321 133.473 260.455 133.625 260.636C133.782 260.816 133.863 261.052 133.869 261.343C133.869 261.605 133.796 261.841 133.651 262.051C133.505 262.26 133.298 262.426 133.031 262.549C132.769 262.665 132.466 262.723 132.122 262.723ZM136.325 258.513V261.334C136.325 261.567 136.374 261.733 136.473 261.832C136.572 261.925 136.744 261.972 136.989 261.972H137.574V262.645H136.858C136.415 262.645 136.083 262.543 135.862 262.339C135.64 262.135 135.53 261.8 135.53 261.334V258.513H134.91V257.858H135.53V256.653H136.325V257.858H137.574V258.513H136.325ZM149.245 256.557L147.481 262.645H146.59L145.175 257.744L143.707 262.645L142.825 262.653L141.122 256.557H141.969L143.297 261.719L144.764 256.557H145.655L147.053 261.701L148.389 256.557H149.245ZM154.846 260.068C154.846 260.219 154.837 260.379 154.82 260.548H150.994C151.023 261.02 151.183 261.39 151.475 261.658C151.772 261.92 152.13 262.051 152.549 262.051C152.892 262.051 153.178 261.972 153.405 261.815C153.638 261.652 153.801 261.436 153.894 261.168H154.75C154.622 261.628 154.366 262.004 153.981 262.295C153.597 262.581 153.12 262.723 152.549 262.723C152.095 262.723 151.687 262.621 151.326 262.417C150.971 262.214 150.691 261.925 150.488 261.553C150.284 261.174 150.182 260.738 150.182 260.243C150.182 259.748 150.281 259.314 150.479 258.941C150.677 258.568 150.953 258.283 151.309 258.085C151.67 257.881 152.083 257.779 152.549 257.779C153.003 257.779 153.405 257.878 153.754 258.076C154.104 258.274 154.372 258.548 154.558 258.897C154.75 259.241 154.846 259.631 154.846 260.068ZM154.025 259.902C154.025 259.599 153.958 259.34 153.824 259.125C153.69 258.903 153.507 258.737 153.274 258.627C153.047 258.51 152.793 258.452 152.514 258.452C152.112 258.452 151.769 258.58 151.483 258.836C151.204 259.092 151.044 259.448 151.003 259.902H154.025ZM160.627 260.068C160.627 260.219 160.618 260.379 160.6 260.548H156.775C156.804 261.02 156.964 261.39 157.255 261.658C157.552 261.92 157.91 262.051 158.329 262.051C158.673 262.051 158.958 261.972 159.185 261.815C159.418 261.652 159.581 261.436 159.675 261.168H160.531C160.402 261.628 160.146 262.004 159.762 262.295C159.378 262.581 158.9 262.723 158.329 262.723C157.875 262.723 157.468 262.621 157.107 262.417C156.751 262.214 156.472 261.925 156.268 261.553C156.064 261.174 155.962 260.738 155.962 260.243C155.962 259.748 156.061 259.314 156.259 258.941C156.457 258.568 156.734 258.283 157.089 258.085C157.45 257.881 157.864 257.779 158.329 257.779C158.784 257.779 159.185 257.878 159.535 258.076C159.884 258.274 160.152 258.548 160.338 258.897C160.531 259.241 160.627 259.631 160.627 260.068ZM159.806 259.902C159.806 259.599 159.739 259.34 159.605 259.125C159.471 258.903 159.287 258.737 159.054 258.627C158.827 258.51 158.574 258.452 158.294 258.452C157.893 258.452 157.549 258.58 157.264 258.836C156.984 259.092 156.824 259.448 156.783 259.902H159.806ZM164.713 262.645L162.835 260.531V262.645H162.04V256.181H162.835V259.981L164.678 257.858H165.787L163.533 260.243L165.796 262.645H164.713Z" fill="#121212"/>
<path d="M38.4541 173.974L80.7755 148.609L117.898 195.906L157.932 150.745L197.966 169.638L238 159.416" stroke="#E6E8EC" stroke-width="2.18367" stroke-linecap="round" stroke-linejoin="round"/>
<path d="M38.4555 194.353L80.7769 204.655L117.899 165.333L157.933 171.124L197.967 197.296L238.001 136.121" stroke="#285B52" stroke-width="2.18367" stroke-linecap="round" stroke-linejoin="round"/>
</g>
<defs>
<filter id="filter0_d_0_38" x="0" y="0" width="312" height="299" filterUnits="userSpaceOnUse" color-interpolation-filters="sRGB">
<feFlood flood-opacity="0" result="BackgroundImageFix"/>
<feColorMatrix in="SourceAlpha" type="matrix" values="0 0 0 0 0 0 0 0 0 0 0 0 0 0 0 0 0 0 127 0" result="hardAlpha"/>
<feOffset dy="2"/>
<feGaussianBlur stdDeviation="4"/>
<feComposite in2="hardAlpha" operator="out"/>
<feColorMatrix type="matrix" values="0 0 0 0 0 0 0 0 0 0 0 0 0 0 0 0 0 0 0.15 0"/>
<feBlend mode="normal" in2="BackgroundImageFix" result="effect1_dropShadow_0_38"/>
<feBlend mode="normal" in="SourceGraphic" in2="effect1_dropShadow_0_38" result="shape"/>
</filter>
<filter id="filter1_d_0_38" x="207.43" y="30" width="80.7959" height="25.4762" filterUnits="userSpaceOnUse" color-interpolation-filters="sRGB">
<feFlood flood-opacity="0" result="BackgroundImageFix"/>
<feColorMatrix in="SourceAlpha" type="matrix" values="0 0 0 0 0 0 0 0 0 0 0 0 0 0 0 0 0 0 127 0" result="hardAlpha"/>
<feOffset dy="1.45578"/>
<feGaussianBlur stdDeviation="0.363946"/>
<feColorMatrix type="matrix" values="0 0 0 0 0.25098 0 0 0 0 0.282353 0 0 0 0 0.321569 0 0 0 0.05 0"/>
<feBlend mode="normal" in2="BackgroundImageFix" result="effect1_dropShadow_0_38"/>
<feBlend mode="normal" in="SourceGraphic" in2="effect1_dropShadow_0_38" result="shape"/>
</filter>
</defs>
</svg>
