<svg width="503" height="503" viewBox="0 0 503 503" fill="none" xmlns="http://www.w3.org/2000/svg">
<g clip-path="url(#clip0_0_338)">
<path d="M461.309 438.621H502.976V438.307H461.309V438.621Z" fill="#ECECEC"/>
<path d="M342.739 442.033H353.676V441.718H342.739V442.033Z" fill="#ECECEC"/>
<path d="M435.906 426.939H460.049V426.624H435.906V426.939Z" fill="#ECECEC"/>
<path d="M2.99297 429.054H57.331V428.739H2.99297V429.054Z" fill="#ECECEC"/>
<path d="M68.5317 429.054H76.4986V428.739H68.5317V429.054Z" fill="#ECECEC"/>
<path d="M102.39 434.364H220.235V434.049H102.39V434.364Z" fill="#ECECEC"/>
<mask id="mask0_0_338" style="mask-type:luminance" maskUnits="userSpaceOnUse" x="-63" y="-64" width="629" height="630">
<path d="M-63 -63.002H566V565.998H-63V-63.002Z" fill="white"/>
</mask>
<g mask="url(#mask0_0_338)">
<path d="M-6.00935 6.4455C-9.79593 6.4455 -12.8755 9.52509 -12.8755 13.3117V354.772C-12.8755 358.558 -9.79593 361.638 -6.00935 361.638H236.909C240.693 361.638 243.774 358.558 243.774 354.772V13.3117C243.774 9.52509 240.693 6.4455 236.909 6.4455H-6.00935ZM236.909 361.953H-6.00935C-9.96827 361.953 -13.19 358.732 -13.19 354.772V13.3117C-13.19 9.35275 -9.96827 6.13101 -6.00935 6.13101H236.909C240.867 6.13101 244.089 9.35275 244.089 13.3117V354.772C244.089 358.732 240.867 361.953 236.909 361.953Z" fill="#ECECEC"/>
<path d="M266.09 6.4455C262.304 6.4455 259.225 9.52509 259.225 13.3117V354.772C259.225 358.558 262.304 361.638 266.09 361.638H509.007C512.793 361.638 515.874 358.558 515.874 354.772V13.3117C515.874 9.52509 512.793 6.4455 509.007 6.4455H266.09ZM509.007 361.953H266.09C262.132 361.953 258.91 358.732 258.91 354.772V13.3117C258.91 9.35275 262.132 6.13101 266.09 6.13101H509.007C512.967 6.13101 516.189 9.35275 516.189 13.3117V354.772C516.189 358.732 512.967 361.953 509.007 361.953Z" fill="#ECECEC"/>
<path d="M566 418.373H-63.0001V418.058H566V418.373Z" fill="#ECECEC"/>
<path d="M308.973 410.701H411.475V315.189H308.973V410.701Z" fill="#E7E7E7"/>
<path d="M395.174 418.273H408.255V413.701H395.174V418.273Z" fill="#E1E1E1"/>
<path d="M100.831 409.773H308.972V315.188H100.831V409.773Z" fill="#E7E7E7"/>
<path d="M66.0722 418.273H98.0242V308.154H66.0722V418.273Z" fill="#E7E7E7"/>
<path d="M208.595 405.355H298.827V322.717H208.595V405.355Z" fill="#F5F5F5"/>
<path d="M311.481 405.355H401.714V322.717H311.481V405.355Z" fill="#F5F5F5"/>
<path d="M104.723 405.355H194.955V322.717H104.723V405.355Z" fill="#F5F5F5"/>
<path d="M104.844 318.463H201.617V358.021H104.844V318.463ZM104.844 363.912H201.617V405.356H104.844V363.912ZM208.594 318.463H305.367V405.357H208.594V318.463ZM312.342 363.912H408.223V405.356H312.342V363.912ZM408.223 358.021H312.342V318.463H408.223V358.021ZM97.8671 308.154V418.273H104.844V415.665H305.367H312.342H408.223V418.273H415.2V308.154H411.712H408.223H312.342H308.854H305.598H305.367H104.844H101.356H97.8671Z" fill="#F0F0F0"/>
<path d="M349.047 333.639H364.143C365.764 333.639 367.078 332.324 367.078 330.703C367.078 329.083 365.764 327.768 364.143 327.768H349.047C347.425 327.768 346.112 329.083 346.112 330.703C346.112 332.324 347.425 333.639 349.047 333.639Z" fill="#E7E7E7"/>
<path d="M221.571 370.026V354.93C221.571 353.309 220.258 351.994 218.636 351.994C217.015 351.994 215.7 353.309 215.7 354.93V370.026C215.7 371.647 217.015 372.961 218.636 372.961C220.258 372.961 221.571 371.647 221.571 370.026Z" fill="#E7E7E7"/>
<path d="M349.047 375.991H364.143C365.764 375.991 367.078 374.676 367.078 373.056C367.078 371.435 365.764 370.121 364.143 370.121H349.047C347.425 370.121 346.112 371.435 346.112 373.056C346.112 374.676 347.425 375.991 349.047 375.991Z" fill="#E7E7E7"/>
<path d="M142.293 333.639H157.389C159.011 333.639 160.324 332.324 160.324 330.703C160.324 329.083 159.011 327.768 157.389 327.768H142.293C140.671 327.768 139.358 329.083 139.358 330.703C139.358 332.324 140.671 333.639 142.293 333.639Z" fill="#E7E7E7"/>
<path d="M142.293 375.991H157.389C159.011 375.991 160.324 374.676 160.324 373.056C160.324 371.435 159.011 370.121 157.389 370.121H142.293C140.671 370.121 139.358 371.435 139.358 373.056C139.358 374.676 140.671 375.991 142.293 375.991Z" fill="#E7E7E7"/>
<path d="M26.2358 416.097H56.0781V137.153H26.2358V416.097Z" fill="#E1E1E1"/>
<path d="M2.99294 418.544H26.2345V134.706H2.99294V418.544Z" fill="#E7E7E7"/>
<path d="M54.9618 418.544H78.2034V134.706H54.9618V418.544Z" fill="#E7E7E7"/>
<path d="M29.0246 362.755H76.5757V413.65H29.0246V362.755ZM29.0246 195.389H76.5757V246.285H29.0246V195.389ZM76.5757 357.862H29.0246V306.967H76.5757V357.862ZM29.0246 251.177H76.5757V302.072H29.0246V251.177ZM76.5757 190.495H29.0246V139.6H76.5757V190.495ZM23.4479 418.544H82.1524V134.706H23.4479V418.544Z" fill="#F5F5F5"/>
<path d="M52.4719 190.961H45.5416V151.47H52.4719V190.961Z" fill="#ECECEC"/>
<path d="M45.5397 190.961H40.1781V151.47H45.5397V190.961Z" fill="#E7E7E7"/>
<path d="M63.1963 190.961H52.4731V152.406H63.1963V190.961Z" fill="#E1E1E1"/>
<path d="M68.5567 190.961H63.1951V152.406H68.5567V190.961Z" fill="#ECECEC"/>
<path d="M36.6053 190.961H29.4561V152.406H36.6053V190.961Z" fill="#ECECEC"/>
<path d="M40.1801 190.961H36.6062V152.406H40.1801V190.961Z" fill="#FAFAFA"/>
<path d="M45.5416 246.264H52.4707V206.772H45.5416V246.264Z" fill="#E7E7E7"/>
<path d="M52.4731 246.264H57.8347V206.772H52.4731V246.264Z" fill="#ECECEC"/>
<path d="M34.8183 246.264H45.5415V207.708H34.8183V246.264Z" fill="#ECECEC"/>
<path d="M29.4561 246.264H34.8177V207.708H29.4561V246.264Z" fill="#E1E1E1"/>
<path d="M61.4073 246.264H68.5565V207.708H61.4073V246.264Z" fill="#ECECEC"/>
<path d="M57.8316 246.264H61.4069V207.708H57.8316V246.264Z" fill="#F0F0F0"/>
<path d="M45.5416 302.541H52.4707V263.048H45.5416V302.541Z" fill="#E7E7E7"/>
<path d="M52.4731 302.541H57.8347V263.048H52.4731V302.541Z" fill="#ECECEC"/>
<path d="M34.8183 302.541H45.5415V263.986H34.8183V302.541Z" fill="#ECECEC"/>
<path d="M29.4561 302.541H34.8177V263.986H29.4561V302.541Z" fill="#E1E1E1"/>
<path d="M61.4073 302.541H68.5565V263.986H61.4073V302.541Z" fill="#ECECEC"/>
<path d="M57.8316 302.541H61.4069V263.986H57.8316V302.541Z" fill="#F0F0F0"/>
<path d="M52.4719 319.328H45.5416V358.821H52.4719V319.328Z" fill="#ECECEC"/>
<path d="M45.5397 319.328H40.1781V358.821H45.5397V319.328Z" fill="#E7E7E7"/>
<path d="M63.1963 319.325H52.4731V357.88H63.1963V319.325Z" fill="#E1E1E1"/>
<path d="M68.5567 319.325H63.1951V357.88H68.5567V319.325Z" fill="#ECECEC"/>
<path d="M36.6053 319.325H29.4561V357.88H36.6053V319.325Z" fill="#ECECEC"/>
<path d="M40.1801 319.325H36.6062V357.88H40.1801V319.325Z" fill="#FAFAFA"/>
<path d="M45.5416 375.605H52.4707V415.098H45.5416V375.605Z" fill="#E7E7E7"/>
<path d="M52.4731 375.605H57.8347V415.098H52.4731V375.605Z" fill="#ECECEC"/>
<path d="M34.8183 375.605H45.5415V414.16H34.8183V375.605Z" fill="#ECECEC"/>
<path d="M29.4561 375.605H34.8177V414.16H29.4561V375.605Z" fill="#E1E1E1"/>
<path d="M61.4073 375.605H68.5565V414.16H61.4073V375.605Z" fill="#FAFAFA"/>
<path d="M57.8316 375.605H61.4069V414.16H57.8316V375.605Z" fill="#F0F0F0"/>
<path d="M451.373 359.561C451.251 359.697 451.924 360.635 449.188 360.224C442.448 359.211 430.711 356.481 427.442 349.546C422.777 339.643 437.244 343.258 436.744 338.197C436.246 333.137 419.784 334.017 418.035 326.592C416.285 319.169 427.454 322.704 427.602 319.086C427.749 315.468 414.885 317.713 412.331 309.704C409.778 301.694 419.501 307.589 418.382 304.259C417.265 300.93 406.382 285.866 412.304 284.116C418.226 282.367 428.202 297.827 432.053 300.017C435.902 302.207 439.322 289.59 443.911 294.917C448.5 300.245 441.223 318.883 447.075 322.5C451.434 325.193 450.203 317.773 455.956 319.159C463.771 321.04 461.142 348.634 451.373 359.561Z" fill="#ECECEC"/>
<path d="M430.565 319.129C433.217 319.352 435.174 319.891 436.389 320.325C434.014 316.847 432.306 315.063 432.245 315.001C432.052 314.804 432.054 314.488 432.251 314.293C432.447 314.101 432.763 314.104 432.956 314.298C433.004 314.347 436.944 318.406 441.258 326.344C443.378 313.571 438.028 302.406 437.972 302.292C437.881 302.107 437.958 301.882 438.144 301.791C438.329 301.699 438.554 301.776 438.645 301.962C438.704 302.082 444.414 313.998 441.825 327.4C442.515 328.715 443.209 330.12 443.896 331.631C445.877 335.992 447.95 341.585 449.591 348.325C450.728 346.269 453.336 340.764 453.569 333.08C453.575 332.873 453.748 332.712 453.955 332.717C454.165 332.732 454.323 332.896 454.317 333.103C454.048 341.996 450.64 348.077 449.85 349.374C452.019 358.724 453.319 370.233 452.385 383.789C452.366 384.066 452.128 384.273 451.853 384.254C451.831 384.253 451.811 384.251 451.791 384.247C451.547 384.199 451.371 383.976 451.388 383.722C452.626 365.771 449.941 351.341 446.226 340.417C445.283 339.326 442.497 336.527 438.256 335.87C438.064 335.824 437.912 335.645 437.944 335.441C437.977 335.238 438.168 335.097 438.372 335.129C441.726 335.66 444.183 337.399 445.641 338.741C442.899 331.152 439.71 325.381 437.125 321.43C436.292 321.054 434.017 320.169 430.502 319.877C430.299 319.85 430.143 319.679 430.161 319.471C430.177 319.265 430.358 319.113 430.565 319.129Z" fill="#F5F5F5"/>
<path d="M460.006 363.383C465.608 363.488 475.175 358.287 478.93 353.227C482.742 348.092 472.021 351.277 473.122 347.245C474.223 343.213 487.442 346.192 489.881 340.417C492.32 334.64 482.784 335.968 483.162 333.016C483.541 330.065 493.421 330.663 496.593 324.524C499.764 318.385 491.074 321.825 492.437 319.28C493.801 316.736 504.694 306.026 500.136 303.794C495.577 301.561 485.366 312.716 481.944 313.961C478.523 315.205 477.723 307.501 473.272 311.186C468.82 314.871 472.152 330.977 466.911 333.103C463.008 334.685 464.668 327.311 460.175 329.173C452.307 332.431 457.732 363.339 460.006 363.383Z" fill="#E1E1E1"/>
<mask id="mask1_0_338" style="mask-type:luminance" maskUnits="userSpaceOnUse" x="456" y="303" width="46" height="61">
<path d="M456.06 303.495H501.245V363.381H456.06V303.495Z" fill="white"/>
</mask>
<g mask="url(#mask1_0_338)">
<g opacity="0.300003">
<path d="M460.007 363.379C465.609 363.485 475.176 358.283 478.931 353.223C482.743 348.088 472.022 351.273 473.123 347.241C474.224 343.21 487.443 346.188 489.882 340.413C492.321 334.636 482.784 335.965 483.163 333.012C483.542 330.061 493.422 330.66 496.593 324.521C499.765 318.382 491.074 321.821 492.438 319.276C493.802 316.732 504.695 306.022 500.137 303.79C495.578 301.557 485.367 312.712 481.945 313.957C478.523 315.201 477.723 307.497 473.272 311.182C468.82 314.867 472.153 330.973 466.912 333.099C463.008 334.682 464.669 327.307 460.175 329.169C452.308 332.427 457.732 363.335 460.007 363.379Z" fill="#ECECEC"/>
</g>
</g>
<path d="M461.859 356.663C461.779 356.631 461.704 356.582 461.662 356.498C461.53 356.25 458.46 350.31 459.148 341.484C459.165 341.277 459.339 341.125 459.552 341.138C459.758 341.155 459.912 341.334 459.895 341.54C459.314 348.994 461.54 354.45 462.164 355.812C464.671 349.005 467.676 342.951 470.693 337.768C469.702 325.74 475.866 315.892 475.929 315.793C476.039 315.618 476.271 315.566 476.446 315.678C476.619 315.789 476.672 316.019 476.56 316.195C476.501 316.289 470.84 325.344 471.368 336.609C478.548 324.584 485.555 317.597 485.695 317.46C485.892 317.269 486.208 317.27 486.402 317.469C486.594 317.664 486.591 317.981 486.394 318.173C486.277 318.289 481.294 323.267 475.462 331.997C478.88 330.727 482.587 330.065 486.052 330.132C486.259 330.135 486.423 330.306 486.419 330.514C486.415 330.718 486.248 330.881 486.045 330.881H486.038C482.328 330.815 478.335 331.59 474.742 333.08C472.736 336.155 470.654 339.668 468.647 343.562C470.572 342.26 474.312 340.457 479.096 341.722C479.296 341.774 479.416 341.979 479.364 342.179C479.31 342.379 479.105 342.501 478.905 342.445C472.838 340.846 468.561 344.472 467.861 345.116C462.367 356.176 457.631 370.16 457.003 386.183C456.993 386.452 456.772 386.664 456.505 386.664H456.485C456.21 386.652 455.994 386.42 456.006 386.145C456.43 375.301 458.727 365.39 461.859 356.663Z" fill="#F5F5F5"/>
<path d="M444.256 418.1C438.91 408.046 435.398 393.52 435.398 387.152C435.398 381.771 437.921 376.94 441.925 373.56H469.305C473.31 376.94 475.834 381.771 475.834 387.152C475.834 393.52 472.321 408.046 466.975 418.1H444.256Z" fill="#F0F0F0"/>
<path d="M386.423 230.187C382.309 230.187 378.976 226.854 378.976 222.74C378.976 218.626 382.309 215.293 386.423 215.293C390.537 215.293 393.87 218.626 393.87 222.74C393.87 226.854 390.537 230.187 386.423 230.187ZM397.38 222.74C397.38 222.413 397.368 222.086 397.342 221.771L399.242 220.715C399.091 219.809 398.852 218.928 398.537 218.084L396.361 218.123C396.084 217.531 395.77 216.966 395.392 216.437L396.512 214.588C395.933 213.871 395.292 213.23 394.575 212.651L392.725 213.771C392.197 213.392 391.631 213.077 391.04 212.802L391.078 210.626C390.235 210.311 389.354 210.072 388.448 209.921L387.392 211.819C387.077 211.794 386.75 211.783 386.423 211.783C386.096 211.783 385.769 211.794 385.454 211.819L384.398 209.921C383.492 210.072 382.611 210.311 381.768 210.626L381.806 212.802C381.215 213.077 380.649 213.392 380.12 213.771L378.258 212.651C377.554 213.23 376.912 213.871 376.334 214.588L377.453 216.437C377.076 216.966 376.749 217.531 376.485 218.123L374.308 218.084C373.994 218.928 373.742 219.809 373.604 220.715L375.503 221.771C375.478 222.086 375.453 222.413 375.453 222.74C375.453 223.067 375.478 223.394 375.503 223.709L373.604 224.764C373.742 225.671 373.994 226.552 374.308 227.395L376.485 227.357C376.749 227.948 377.076 228.514 377.453 229.043L376.334 230.903C376.912 231.609 377.554 232.251 378.258 232.829L380.12 231.71C380.649 232.087 381.215 232.414 381.806 232.677L381.768 234.855C382.611 235.169 383.492 235.419 384.398 235.559L385.454 233.66C385.769 233.683 386.096 233.71 386.423 233.71C386.75 233.71 387.077 233.683 387.392 233.66L388.448 235.559C389.354 235.419 390.235 235.169 391.078 234.855L391.04 232.677C391.631 232.414 392.197 232.087 392.725 231.71L394.575 232.829C395.292 232.251 395.933 231.609 396.512 230.903L395.392 229.043C395.77 228.514 396.084 227.948 396.361 227.357L398.537 227.395C398.852 226.552 399.091 225.671 399.242 224.764L397.342 223.709C397.368 223.394 397.38 223.067 397.38 222.74Z" fill="#F0F0F0"/>
<path d="M366.711 256.085C363.151 256.085 360.258 253.191 360.258 249.618C360.258 246.047 363.151 243.152 366.711 243.152C370.284 243.152 373.177 246.047 373.177 249.618C373.177 253.191 370.284 256.085 366.711 256.085ZM383.115 249.618C383.115 249.128 383.09 248.65 383.053 248.172L385.883 246.587C385.669 245.228 385.317 243.907 384.826 242.649L381.593 242.712C381.178 241.831 380.687 240.989 380.134 240.196L381.807 237.416C380.952 236.359 379.983 235.39 378.914 234.535L376.134 236.196C375.354 235.642 374.511 235.164 373.63 234.749L373.68 231.503C372.422 231.025 371.114 230.66 369.743 230.446L368.17 233.29C367.692 233.239 367.202 233.214 366.711 233.214C366.233 233.214 365.742 233.239 365.264 233.29L363.692 230.446C362.321 230.66 361.012 231.025 359.754 231.503L359.805 234.749C358.924 235.164 358.081 235.642 357.301 236.196L354.509 234.535C353.452 235.39 352.483 236.359 351.628 237.416L353.301 240.196C352.747 240.989 352.257 241.831 351.842 242.712L348.596 242.649C348.118 243.907 347.753 245.228 347.539 246.587L350.382 248.172C350.345 248.65 350.319 249.128 350.319 249.618C350.319 250.109 350.345 250.587 350.382 251.065L347.539 252.651C347.753 254.01 348.118 255.33 348.596 256.588L351.842 256.526C352.257 257.418 352.747 258.248 353.301 259.042L351.628 261.821C352.483 262.878 353.452 263.846 354.509 264.703L357.301 263.041C358.081 263.595 358.924 264.085 359.805 264.488L359.754 267.734C361.012 268.213 362.321 268.576 363.692 268.792L365.264 265.947C365.742 265.998 366.233 266.023 366.711 266.023C367.202 266.023 367.692 265.998 368.17 265.947L369.743 268.792C371.114 268.576 372.422 268.213 373.68 267.734L373.63 264.488C374.511 264.085 375.354 263.595 376.134 263.041L378.914 264.703C379.983 263.846 380.952 262.878 381.807 261.821L380.134 259.042C380.687 258.248 381.178 257.418 381.593 256.526L384.826 256.588C385.317 255.33 385.669 254.01 385.883 252.651L383.053 251.065C383.09 250.587 383.115 250.109 383.115 249.618Z" fill="#F0F0F0"/>
<path d="M121.008 227.388C121.008 227.388 112.992 218.669 112.992 214.242C112.992 209.814 116.58 206.225 121.008 206.225C125.436 206.225 129.024 209.814 129.024 214.242C129.024 218.669 121.008 227.388 121.008 227.388ZM128.415 199.759H113.601C108.275 199.759 103.959 204.075 103.959 209.4V224.213C103.959 229.538 108.275 233.856 113.601 233.856H128.415C133.74 233.856 138.056 229.538 138.056 224.213V209.4C138.056 204.075 133.74 199.759 128.415 199.759Z" fill="#F0F0F0"/>
<path d="M121.009 210.587C118.988 210.587 117.35 212.225 117.35 214.245C117.35 216.266 118.988 217.903 121.009 217.903C123.029 217.903 124.667 216.266 124.667 214.245C124.667 212.225 123.029 210.587 121.009 210.587Z" fill="#F0F0F0"/>
<path d="M429.724 100.622C429.313 101.134 428.831 101.596 428.299 101.987C428.259 102.007 428.229 102.058 428.239 102.108C428.249 102.69 428.219 103.271 428.138 103.854C428.007 105.059 427.686 106.243 427.174 107.357C426.652 108.502 425.95 109.565 425.077 110.479C423.612 112.015 421.713 113.079 419.665 113.5C418.933 113.661 418.2 113.752 417.458 113.772C415.199 113.831 413.002 113.24 411.124 112.065L411.023 112.005C412.348 112.166 413.704 111.984 414.968 111.462C415.651 111.202 416.294 110.841 416.876 110.398C415.159 110.339 413.694 109.255 413.162 107.658C413.714 107.769 414.296 107.749 414.859 107.608H414.908C413.824 107.378 412.891 106.725 412.319 105.791C411.927 105.17 411.716 104.446 411.716 103.693C412.248 103.985 412.831 104.146 413.443 104.176C412.629 103.604 412.047 102.759 411.817 101.776C411.575 100.822 411.706 99.7994 412.208 98.9163C414.216 101.356 417.177 102.85 420.409 103.041C420.419 102.89 420.359 102.749 420.338 102.61C420.198 101.725 420.399 100.803 420.881 100.02C421.473 99.0761 422.457 98.4232 423.54 98.2735C424.826 98.0621 426.11 98.4735 426.983 99.3767C427.033 99.4371 427.124 99.4572 427.205 99.4371C427.997 99.2673 428.771 98.9754 429.483 98.5641H429.543C429.263 99.3969 428.71 100.12 427.968 100.622C428.72 100.532 429.463 100.332 430.166 100.02C430.015 100.221 429.875 100.421 429.724 100.622ZM427.626 89.1794H411.978C407.069 89.1794 403.074 93.1635 403.074 98.0822V113.722C403.074 118.64 407.069 122.625 411.978 122.625H427.626C432.545 122.625 436.53 118.64 436.53 113.722V98.0822C436.53 93.1635 432.545 89.1794 427.626 89.1794Z" fill="#F0F0F0"/>
<path d="M99.773 114.754H83.0303C77.7693 114.754 73.5034 110.488 73.5034 105.227V88.4845C73.5034 83.2235 77.7693 78.9589 83.0303 78.9589H99.773C105.034 78.9589 109.299 83.2235 109.299 88.4845V105.227C109.299 110.488 105.034 114.754 99.773 114.754Z" fill="#F0F0F0"/>
<path d="M95.4131 91.1582V96.1978C95.4131 98.2848 93.7211 99.9768 91.6328 99.9768H86.8222L81.3247 105.474V99.9768C79.2377 99.9768 77.5457 98.2848 77.5457 96.1978V91.1582C77.5457 89.0699 79.2377 87.3779 81.3247 87.3779H91.6328C93.7211 87.3779 95.4131 89.0699 95.4131 91.1582Z" fill="white"/>
<path d="M105.258 98.7603V102.637C105.258 104.241 103.955 105.543 102.349 105.543V109.772L98.1214 105.543H94.4203C92.8151 105.543 91.5143 104.241 91.5143 102.637V98.7603C91.5143 97.1551 92.8151 95.8518 94.4203 95.8518H102.349C103.955 95.8518 105.258 97.1551 105.258 98.7603Z" fill="white"/>
<path d="M91.4121 91.4777H82.0815C81.8438 91.4777 81.6501 91.284 81.6501 91.045C81.6501 90.806 81.8438 90.6135 82.0815 90.6135H91.4121C91.6512 90.6135 91.8449 90.806 91.8449 91.045C91.8449 91.284 91.6512 91.4777 91.4121 91.4777Z" fill="#ECECEC"/>
<path d="M91.4141 93.6514H82.0835C81.8457 93.6514 81.652 93.4576 81.652 93.2186C81.652 92.9796 81.8457 92.7871 82.0835 92.7871H91.4141C91.6531 92.7871 91.8468 92.9796 91.8468 93.2186C91.8468 93.4576 91.6531 93.6514 91.4141 93.6514Z" fill="#ECECEC"/>
<path d="M88.8166 95.8278H82.0812C81.8422 95.8278 81.6485 95.634 81.6485 95.395C81.6485 95.156 81.8422 94.9623 82.0812 94.9623H88.8166C89.0556 94.9623 89.2493 95.156 89.2493 95.395C89.2493 95.634 89.0556 95.8278 88.8166 95.8278Z" fill="#ECECEC"/>
</g>
<mask id="mask2_0_338" style="mask-type:luminance" maskUnits="userSpaceOnUse" x="-63" y="-64" width="629" height="630">
<path d="M-63 -63.002H566V565.998H-63V-63.002Z" fill="white"/>
</mask>
<g mask="url(#mask2_0_338)">
<path d="M105.76 399.329C72.1253 382.814 -10.3567 308.106 30.2641 231.934C72.5971 152.552 139.627 162.528 216.08 203.298C287.476 241.372 311.267 153.264 407.84 204.764C489.607 248.367 479.964 423.198 320.953 399.361C221.956 384.522 206.091 448.591 105.76 399.329Z" fill="#4AB58E"/>
<mask id="mask3_0_338" style="mask-type:luminance" maskUnits="userSpaceOnUse" x="19" y="172" width="440" height="247">
<path d="M19.2644 172.279H458.379V418.278H19.2644V172.279Z" fill="white"/>
</mask>
<g mask="url(#mask3_0_338)">
<g opacity="0.899994">
<path d="M105.762 399.323C72.1266 382.808 -10.3555 308.101 30.2654 231.929C72.5983 152.546 139.628 162.522 216.081 203.293C287.477 241.366 311.269 153.258 407.842 204.758C489.608 248.362 479.965 423.193 320.954 399.356C221.957 384.517 206.092 448.585 105.762 399.323Z" fill="white"/>
</g>
</g>
</g>
<mask id="mask4_0_338" style="mask-type:luminance" maskUnits="userSpaceOnUse" x="-63" y="-64" width="629" height="630">
<path d="M-63 -63.002H566V565.998H-63V-63.002Z" fill="white"/>
</mask>
<g mask="url(#mask4_0_338)">
<path d="M495.414 455.793C495.414 463.66 386.211 470.037 251.502 470.037C116.792 470.037 7.5892 463.66 7.5892 455.793C7.5892 447.926 116.792 441.548 251.502 441.548C386.211 441.548 495.414 447.926 495.414 455.793Z" fill="#F5F5F5"/>
</g>
<mask id="mask5_0_338" style="mask-type:luminance" maskUnits="userSpaceOnUse" x="-63" y="-64" width="629" height="630">
<path d="M-63 -63.002H566V565.998H-63V-63.002Z" fill="white"/>
</mask>
<g mask="url(#mask5_0_338)">
<path d="M180.146 207.997L172.041 205.649C171.257 205.378 170.443 205.203 169.617 205.128L164.186 204.899L159.743 203.046C158.685 202.389 157.303 203.071 157.183 204.311L156.89 207.312C156.83 207.915 157.102 208.504 157.599 208.853L164.147 213.434L173.289 211.896L181.497 215.864L182.461 208.743L180.146 207.997Z" fill="#CE5B51"/>
<path d="M322.854 210.217L331.053 208.218C331.848 207.981 332.669 207.842 333.497 207.801L338.933 207.805L343.452 206.146C344.537 205.534 345.888 206.275 345.955 207.52L346.12 210.53C346.152 211.135 345.856 211.712 345.344 212.038L338.606 216.334L329.538 214.406L321.166 218.018L320.511 210.862L322.854 210.217Z" fill="#CE5B51"/>
<path d="M231.167 438.237L229.236 456.04L219.516 455.01L220.5 435.595L231.167 438.237Z" fill="#CE5B51"/>
<path d="M213.503 453.15C213.352 453.136 213.201 453.144 213.053 453.175C212.855 453.193 212.678 453.3 212.569 453.466C212.376 453.744 212.426 453.889 212.485 453.972C212.894 454.647 215.377 454.85 217.227 454.76C216.098 453.994 214.834 453.447 213.503 453.15ZM214.924 455.183C213.7 455.092 212.452 454.773 212.086 454.217C211.899 453.892 211.937 453.487 212.18 453.203C212.364 452.944 212.642 452.768 212.956 452.711C214.634 452.384 217.922 454.603 218.067 454.701C218.149 454.757 218.186 454.857 218.161 454.953C218.135 455.047 218.056 455.116 217.959 455.13C216.951 455.236 215.936 455.255 214.924 455.183Z" fill="#4AB58E"/>
<path d="M215.813 450.958L215.681 450.937C215.258 450.941 215.218 451.108 215.197 451.166C215.086 451.829 216.512 453.617 217.679 454.431C217.646 453.305 217.269 452.216 216.598 451.312C216.388 451.103 216.109 450.979 215.813 450.958ZM217.923 455.127C217.889 455.134 217.855 455.129 217.826 455.112C216.687 454.501 214.481 452.189 214.774 451.096C214.818 450.83 215.043 450.521 215.691 450.506C216.163 450.49 216.622 450.67 216.959 451C218.137 452.126 218.199 454.802 218.203 454.926C218.203 455.012 218.157 455.088 218.084 455.129C218.031 455.149 217.974 455.149 217.923 455.127Z" fill="#4AB58E"/>
<path d="M219.067 453.831L229.817 454.638C230.222 454.667 230.552 454.974 230.611 455.377L231.898 464.268C232.017 465.056 231.476 465.792 230.689 465.912C230.588 465.926 230.485 465.931 230.383 465.925C226.512 465.568 223.083 465.096 218.257 464.741C212.565 464.315 213.957 465.105 207.257 464.698C203.22 464.448 202.825 459.809 204.553 459.712C212.454 459.313 213.443 457.011 216.673 454.436C217.369 453.948 218.222 453.732 219.067 453.831Z" fill="#1A2E35"/>
<mask id="mask6_0_338" style="mask-type:luminance" maskUnits="userSpaceOnUse" x="219" y="446" width="12" height="6">
<path d="M219.725 446.087H230.178V451.08H219.725V446.087Z" fill="white"/>
</mask>
<g mask="url(#mask6_0_338)">
<g opacity="0.199997">
<path d="M219.952 446.36L227.208 446.087L230.177 447.326L229.77 451.08L219.725 450.489L219.952 446.36Z" fill="black"/>
</g>
</g>
<path d="M255.82 258.912L237.177 370.484L232.651 448.722L218.051 448.471C218.051 448.471 213.171 409.983 215.692 364.107C217.969 322.681 227.609 274.239 228.672 260.419L234.081 250.886L244.819 252.228L255.82 258.912Z" fill="#4AB58E"/>
<path d="M283.972 458.09L292.274 457.139C292.274 457.139 292.03 453.723 291.62 448.201C291.53 446.97 291.433 445.631 291.327 444.215L281.789 445.905L281.659 445.923C281.703 446.133 281.737 446.348 281.774 446.548C281.988 447.668 282.19 448.709 282.37 449.697C283.346 454.876 283.972 458.09 283.972 458.09Z" fill="#CE5B51"/>
<path d="M294.538 453.75C296.392 453.674 298.852 453.251 299.2 452.542C299.253 452.453 299.29 452.304 299.071 452.045C298.948 451.889 298.762 451.796 298.563 451.796C298.413 451.78 298.26 451.785 298.112 451.811C296.809 452.226 295.596 452.884 294.538 453.75ZM293.839 454.184C293.742 454.179 293.656 454.117 293.622 454.025C293.589 453.932 293.618 453.828 293.693 453.766C293.829 453.655 296.915 451.147 298.62 451.325C298.936 451.354 299.229 451.505 299.437 451.747C299.704 452.009 299.778 452.411 299.621 452.75C299.304 453.338 298.086 453.767 296.872 453.969C295.87 454.128 294.855 454.2 293.839 454.184Z" fill="#4AB58E"/>
<path d="M295.613 449.828C295.32 449.872 295.052 450.022 294.862 450.25C294.272 451.212 293.992 452.332 294.06 453.457C295.152 452.542 296.416 450.632 296.247 449.979C296.22 449.924 296.166 449.76 295.744 449.794L295.613 449.827V449.828ZM293.717 454.192C293.639 454.157 293.587 454.084 293.579 453.998C293.572 453.875 293.398 451.198 294.474 449.97C294.78 449.61 295.222 449.39 295.695 449.364C296.343 449.322 296.596 449.61 296.662 449.872C297.052 450.936 295.055 453.44 293.973 454.152C293.945 454.171 293.911 454.18 293.878 454.174C293.828 454.201 293.772 454.206 293.717 454.192Z" fill="#4AB58E"/>
<path d="M291.994 453.191L283.513 454.508C283.111 454.575 282.81 454.911 282.786 455.316L282.291 464.306C282.241 465.103 282.847 465.79 283.644 465.839C283.746 465.847 283.849 465.842 283.949 465.825C287.781 465.125 288.985 464.794 293.771 464.01C299.415 463.08 298.094 463.992 304.747 462.991C308.753 462.385 308.736 457.719 307.003 457.774C299.082 458.078 292.83 453.018 291.994 453.191Z" fill="#1A2E35"/>
<mask id="mask7_0_338" style="mask-type:luminance" maskUnits="userSpaceOnUse" x="281" y="444" width="11" height="6">
<path d="M281.772 444.211H291.619V449.694H281.772V444.211Z" fill="white"/>
</mask>
<g mask="url(#mask7_0_338)">
<g opacity="0.199997">
<path d="M282.368 449.695L291.619 448.199C291.527 446.967 291.432 445.629 291.326 444.212L281.786 445.903L281.773 446.546C281.985 447.666 282.188 448.707 282.368 449.695Z" fill="black"/>
</g>
</g>
<mask id="mask8_0_338" style="mask-type:luminance" maskUnits="userSpaceOnUse" x="245" y="267" width="7" height="48">
<path d="M245.825 267.804H251.362V314.641H245.825V267.804Z" fill="white"/>
</mask>
<g mask="url(#mask8_0_338)">
<g opacity="0.199997">
<path d="M251.363 284.821L246.381 314.641C244.884 293.29 246.885 267.806 246.885 267.806L251.363 284.821Z" fill="black"/>
</g>
</g>
<path d="M271.833 256.123C271.833 256.123 283.683 342.229 288.097 364.381C292.016 384.05 292.733 446.284 292.733 446.284L279.737 447.737C279.737 447.737 272.32 413.492 269.865 389.413C269.007 381.011 269.251 373.966 268.48 369.636C267.463 363.927 234.325 271.711 240.495 257.157L271.833 256.123Z" fill="#4AB58E"/>
<path d="M228.147 244.581C228.514 240.719 228.767 236.945 228.465 233.357C225.483 197.755 224.42 195.604 224.728 189.341C224.782 188.218 225.515 187.238 226.578 186.876C251.21 178.494 270.367 182.471 275.926 185.606C283.336 189.78 280.377 194.243 280.291 195.522C279.579 206.069 273.77 225.633 273.634 242.755C273.614 245.266 273.889 251.315 274.053 254.655C274.118 256.012 273.189 257.208 271.858 257.485C266.329 258.634 242.107 258.938 237.554 258.791C233.223 258.651 230.366 258.386 228.538 258.138C226.948 257.923 225.891 256.391 226.234 254.825C226.91 251.72 227.934 246.806 228.147 244.581Z" fill="#1A2E35"/>
<path d="M257.783 165.186C256.843 170.7 257.229 178.792 261.164 182.368C261.164 182.368 261.093 187.983 245.685 194.426C239.879 186.522 244.008 182.79 244.008 182.79C250.128 181.175 248.639 178.669 247.471 174.418L257.783 165.186Z" fill="#CE5B51"/>
<mask id="mask9_0_338" style="mask-type:luminance" maskUnits="userSpaceOnUse" x="247" y="168" width="8" height="10">
<path d="M247.54 168.911H254.569V177.439H247.54V168.911Z" fill="white"/>
</mask>
<g mask="url(#mask9_0_338)">
<g opacity="0.199997">
<path d="M253.599 168.911L247.541 174.422C247.831 175.408 248.032 176.417 248.142 177.439C250.492 177.049 254.129 174.963 254.569 172.399C254.541 171.174 254.207 169.975 253.599 168.911Z" fill="black"/>
</g>
</g>
<path d="M264.736 155.573C262.49 164.648 261.726 168.526 256.228 172.375C247.954 178.178 237.302 173.421 236.792 163.869C236.346 155.261 240.111 141.822 249.763 139.881C256.649 138.423 263.415 142.822 264.873 149.708C265.284 151.647 265.236 153.656 264.736 155.573Z" fill="#CE5B51"/>
<path d="M249.009 154.397C248.865 155.141 248.357 155.677 247.875 155.593C247.392 155.51 247.099 154.817 247.231 154.073C247.361 153.329 247.884 152.794 248.365 152.877C248.848 152.96 249.1 153.681 249.009 154.397Z" fill="#1A2E35"/>
<path d="M240.633 152.942C240.488 153.701 239.98 154.222 239.497 154.139C239.015 154.056 238.722 153.363 238.854 152.618C238.985 151.873 239.506 151.338 239.989 151.435C240.472 151.533 240.764 152.198 240.633 152.942Z" fill="#1A2E35"/>
<path d="M243.587 155.58C242.603 157.162 241.408 158.602 240.035 159.859C240.711 160.547 241.651 160.907 242.613 160.849L243.587 155.58Z" fill="#BB221F"/>
<path d="M246.139 164.514C245.766 164.505 245.392 164.465 245.025 164.392C244.905 164.376 244.821 164.264 244.839 164.144C244.839 164.142 244.839 164.139 244.839 164.137C244.87 164.016 244.988 163.942 245.109 163.964C246.986 164.348 248.932 163.818 250.356 162.536C250.44 162.447 250.581 162.443 250.672 162.529C250.76 162.613 250.764 162.755 250.679 162.845C249.454 163.991 247.816 164.593 246.139 164.514Z" fill="#1A2E35"/>
<path d="M252.974 153.262C252.781 153.294 252.591 153.193 252.507 153.017C251.703 151.788 250.422 150.951 248.976 150.707C248.729 150.668 248.561 150.439 248.597 150.193C248.634 149.954 248.858 149.789 249.097 149.825C249.103 149.827 249.108 149.828 249.114 149.828C250.855 150.108 252.39 151.135 253.315 152.638C253.419 152.857 253.325 153.119 253.106 153.223C253.067 153.248 253.02 153.262 252.974 153.262Z" fill="#1A2E35"/>
<path d="M239.162 150.046C239.002 150.078 238.837 150.027 238.725 149.909C238.56 149.726 238.573 149.444 238.752 149.276C239.788 148.25 241.268 147.809 242.697 148.098C242.927 148.147 243.073 148.373 243.024 148.603C243.021 148.614 243.017 148.625 243.015 148.637C242.956 148.872 242.718 149.015 242.483 148.956C242.48 148.956 242.478 148.955 242.475 148.955C241.354 148.769 240.211 149.129 239.398 149.924C239.334 149.988 239.251 150.031 239.162 150.046Z" fill="#1A2E35"/>
<path d="M262.846 181.815L261.23 181.548L252.205 186.46L249.41 186.564L244.047 182.015L242.26 182.442C240.585 187.602 240.262 193.107 241.323 198.428L244.358 213.651L247.525 230.31L247.591 230.307L248.262 228.775L250.782 223.036L254.228 216.488L260.518 200.488L262.303 193.894C263.37 189.957 263.555 185.832 262.846 181.815Z" fill="#1A2E35"/>
<mask id="mask10_0_338" style="mask-type:luminance" maskUnits="userSpaceOnUse" x="241" y="182" width="23" height="7">
<path d="M241.876 182.265H263.027V188.872H241.876V182.265Z" fill="white"/>
</mask>
<g mask="url(#mask10_0_338)">
<g opacity="0.199997">
<path d="M253.096 186.581C243.427 186.67 242.35 183.106 242.35 183.106L242.36 182.265C242.36 182.265 239.451 187.756 247.841 188.723C256.229 189.691 261.829 185.723 263.021 183.331C263.022 183.329 263.022 183.326 263.024 183.323C262.073 184.592 259.572 186.521 253.096 186.581Z" fill="black"/>
</g>
</g>
<path d="M264.379 143.104C263.942 141.678 263.459 140.18 262.352 139.181C261.246 138.182 259.303 137.947 258.352 139.097C256.916 137.24 254.079 136.211 251.738 136.399C249.398 136.587 247.193 138.019 246.069 140.081C244.942 142.149 241.415 142.887 239.07 143.128C240.608 144.667 244.41 145.671 246.299 144.592C245.835 145.325 243.712 145.713 242.848 145.8C244.293 146.547 245.79 147.312 247.414 147.425C249.037 147.538 250.835 146.827 251.492 145.339C250.746 146.491 250.964 148.106 251.9 149.109C252.837 150.115 254.475 150.375 255.678 149.712C254.865 149.426 254.437 148.723 254.456 147.861C254.474 147 255.092 146.183 255.914 145.932C255.981 146.985 256.675 148.265 257.511 148.909C258.346 149.553 259.074 149.811 259.586 150.732C260.1 151.656 259.492 153.881 257.838 153.724C258.588 154.519 261.598 154.232 261.96 153.202C261.392 155.895 259.788 158.021 257.405 159.402C258.081 159.382 258.501 159.615 259.157 159.782C259.813 159.95 260.446 160.329 260.761 160.928C261.2 161.761 260.94 162.776 260.648 163.671C259.888 166.007 258.979 168.294 257.927 170.513C261.014 169.583 263.482 167.584 264.714 164.605C267.62 163.678 269.622 160.636 269.359 157.597C270.715 156.274 272.028 154.448 272.214 152.563C272.4 150.677 271.204 148.563 269.327 148.312C269.973 146.732 269.679 145.144 268.65 143.783C267.62 142.422 265.753 142.09 264.379 143.104Z" fill="#1A2E35"/>
<path d="M264.357 162.123C263.532 163.565 262.172 164.623 260.573 165.067C258.437 165.625 257.395 163.708 258.013 161.698C258.583 159.894 260.373 157.427 262.504 157.718C264.045 157.979 265.084 159.44 264.823 160.982C264.753 161.391 264.594 161.782 264.357 162.123Z" fill="#CE5B51"/>
<path d="M249.404 158.297C247.4 157.956 246.013 156.242 246.313 154.477C246.559 153.039 247.75 152.61 250.299 153.045C252.847 153.478 253.83 154.277 253.584 155.715C253.284 157.48 251.409 158.638 249.404 158.297ZM239.195 156.559C237.191 156.218 235.804 154.503 236.105 152.738C236.35 151.3 237.541 150.873 240.09 151.307C242.639 151.741 243.621 152.538 243.376 153.976C243.076 155.741 241.201 156.9 239.195 156.559ZM260.278 155.649L254.091 154.596C253.569 153.012 251.343 152.63 250.397 152.469C249.413 152.302 247.045 151.904 246.093 153.423L243.933 153.055C243.537 151.307 241.172 150.898 240.188 150.73C239.036 150.534 235.976 150.013 235.528 152.64C235.174 154.723 236.775 156.74 239.097 157.135C241.42 157.53 243.598 156.157 243.953 154.074C243.978 153.928 243.987 153.79 243.992 153.658L245.839 153.972C245.799 154.099 245.762 154.233 245.737 154.379C245.382 156.462 246.984 158.477 249.306 158.874C251.628 159.269 253.806 157.896 254.161 155.813C254.198 155.595 254.203 155.396 254.195 155.206L260.18 156.225C260.997 156.364 261.744 156.785 262.285 157.412L262.728 157.032C262.099 156.302 261.228 155.81 260.278 155.649Z" fill="#1A2E35"/>
<path d="M178.59 206.781C193.765 210.737 206.969 208.677 206.969 208.677C215.54 193.969 226.592 186.659 226.592 186.659L230.125 199.862C230.125 199.862 219.639 216.54 211.141 220.375C204.407 223.413 184.225 217.991 176.126 215.607C176.338 211.199 177.911 207.979 178.59 206.781Z" fill="#1A2E35"/>
<path d="M325.003 208.276C309.746 211.902 296.589 209.554 296.589 209.554C288.339 194.666 277.45 187.116 277.45 187.116L273.63 200.24C273.63 200.24 283.752 217.142 292.164 221.159C298.83 224.342 319.125 219.361 327.275 217.154C327.158 212.742 325.657 209.487 325.003 208.276Z" fill="#1A2E35"/>
<path d="M242.391 179.538L242.352 183.107C242.352 183.107 243.11 186.982 252.779 186.893C262.448 186.802 263.592 182.23 263.592 182.23L263.62 179.635C263.641 177.767 261.955 176.354 260.12 176.702C257.338 177.227 252.739 177.561 245.704 176.636C243.958 176.407 242.411 177.777 242.391 179.538Z" fill="#1A2E35"/>
</g>
<mask id="mask11_0_338" style="mask-type:luminance" maskUnits="userSpaceOnUse" x="-63" y="-64" width="629" height="630">
<path d="M-63 -63.002H566V565.998H-63V-63.002Z" fill="white"/>
</mask>
<g mask="url(#mask11_0_338)">
<path d="M308.616 157.893V144.395C308.616 138.631 303.943 133.957 298.179 133.957H273.338C267.574 133.957 262.902 129.285 262.902 123.52V113.095" stroke="black" stroke-width="1.258" stroke-miterlimit="10"/>
<path d="M318.117 158.153H301.821C298.517 158.153 295.839 160.832 295.839 164.135V180.43C295.839 183.735 298.517 186.413 301.821 186.413H318.117C321.42 186.413 324.099 183.735 324.099 180.43V164.135C324.099 160.832 321.42 158.153 318.117 158.153Z" fill="#4AB58E"/>
<mask id="mask12_0_338" style="mask-type:luminance" maskUnits="userSpaceOnUse" x="295" y="158" width="30" height="29">
<path d="M295.837 158.152H324.095V186.412H295.837V158.152Z" fill="white"/>
</mask>
<g mask="url(#mask12_0_338)">
<g opacity="0.399994">
<path d="M318.113 158.152H301.817C298.513 158.152 295.835 160.831 295.835 164.134V180.429C295.835 183.734 298.513 186.412 301.817 186.412H318.113C321.416 186.412 324.095 183.734 324.095 180.429V164.134C324.095 160.831 321.416 158.152 318.113 158.152Z" fill="white"/>
</g>
</g>
<path d="M318.376 177.556H314.473C315.145 176.031 315.58 174.368 315.72 172.798H319.972C319.849 174.494 319.3 176.129 318.376 177.556ZM311.219 182.097C312.265 181.199 313.19 180.031 313.932 178.665H317.543C315.914 180.56 313.674 181.771 311.219 182.097ZM310.428 181.312V178.665H312.655C312.021 179.709 311.263 180.61 310.428 181.312ZM310.428 172.798H314.605C314.453 174.383 313.981 176.052 313.255 177.556H310.428V172.798ZM310.428 166.925H313.562C314.208 168.468 314.589 170.132 314.646 171.688H310.428V166.925ZM310.428 162.487C311.441 163.339 312.333 164.474 313.04 165.816H310.428V162.487ZM317.838 165.816H314.281C313.583 164.354 312.687 163.087 311.655 162.092C314.101 162.527 316.291 163.843 317.838 165.816ZM319.992 171.688H315.766L315.758 171.423H315.745C315.666 169.967 315.319 168.397 314.754 166.925H318.598C319.451 168.371 319.93 170.008 319.992 171.688ZM309.317 165.816H306.703C307.41 164.474 308.301 163.338 309.317 162.486V165.816ZM309.317 171.688H305.096C305.149 170.153 305.531 168.478 306.182 166.925H309.317V171.688ZM309.317 177.556H306.49C305.764 176.052 305.291 174.382 305.139 172.798H309.317V177.556ZM309.317 181.309C308.481 180.609 307.724 179.709 307.09 178.665H309.317V181.309ZM302.201 178.665H305.813C306.555 180.031 307.48 181.199 308.528 182.097C306.071 181.772 303.831 180.56 302.201 178.665ZM301.369 177.556C300.444 176.129 299.896 174.494 299.772 172.798H304.026C304.164 174.369 304.6 176.031 305.271 177.556H301.369ZM301.146 166.925H304.99C304.426 168.397 304.078 169.966 303.999 171.42L303.975 171.688H299.752C299.814 170.008 300.292 168.371 301.146 166.925ZM308.085 162.093C307.054 163.089 306.16 164.355 305.462 165.816H301.906C303.453 163.845 305.642 162.527 308.085 162.093ZM309.871 160.823C303.676 160.823 298.635 165.865 298.635 172.061C298.635 178.257 303.676 183.298 309.871 183.298C316.068 183.298 321.11 178.257 321.11 172.061C321.11 165.865 316.068 160.823 309.871 160.823Z" fill="white"/>
</g>
<mask id="mask13_0_338" style="mask-type:luminance" maskUnits="userSpaceOnUse" x="-63" y="-64" width="629" height="630">
<path d="M-63 -63.002H566V565.998H-63V-63.002Z" fill="white"/>
</mask>
<g mask="url(#mask13_0_338)">
<path d="M289.661 113.085H348.94C354.706 113.085 359.378 117.757 359.378 123.522V137.021" stroke="black" stroke-width="1.258" stroke-miterlimit="10"/>
<path d="M364.069 127.231H347.774C344.469 127.231 341.792 129.909 341.792 133.213V149.507C341.792 152.812 344.469 155.49 347.774 155.49H364.069C367.372 155.49 370.051 152.812 370.051 149.507V133.213C370.051 129.909 367.372 127.231 364.069 127.231Z" fill="#4AB58E"/>
<mask id="mask14_0_338" style="mask-type:luminance" maskUnits="userSpaceOnUse" x="341" y="127" width="30" height="29">
<path d="M341.786 127.233H370.046V155.493H341.786V127.233Z" fill="white"/>
</mask>
<g mask="url(#mask14_0_338)">
<g opacity="0.399994">
<path d="M364.064 127.232H347.769C344.464 127.232 341.787 129.911 341.787 133.214V149.509C341.787 152.814 344.464 155.492 347.769 155.492H364.064C367.368 155.492 370.046 152.814 370.046 149.509V133.214C370.046 129.911 367.368 127.232 364.064 127.232Z" fill="white"/>
</g>
</g>
<mask id="mask15_0_338" style="mask-type:luminance" maskUnits="userSpaceOnUse" x="346" y="131" width="19" height="19">
<path d="M346.069 131.561H364.15V149.643H346.069V131.561Z" fill="white"/>
</mask>
<g mask="url(#mask15_0_338)">
<g opacity="0.899994">
<path d="M356.343 141.836C354.465 143.714 351.409 143.714 349.531 141.836C347.653 139.957 347.653 136.902 349.531 135.022C351.409 133.145 354.465 133.145 356.343 135.023C358.221 136.902 358.221 139.957 356.343 141.836ZM357.796 133.57C355.117 130.891 350.758 130.891 348.078 133.57C345.399 136.25 345.399 140.609 348.079 143.289C350.456 145.665 354.152 145.928 356.826 144.087C356.878 144.394 357.017 144.689 357.254 144.925L361.521 149.191C362.122 149.794 363.099 149.794 363.7 149.191C364.301 148.59 364.301 147.615 363.7 147.013L359.433 142.746C359.196 142.51 358.902 142.369 358.596 142.319C360.435 139.644 360.173 135.947 357.796 133.57Z" fill="white"/>
</g>
</g>
</g>
<path d="M288.251 91.661H364.131" stroke="black" stroke-width="1.258" stroke-miterlimit="10"/>
<mask id="mask16_0_338" style="mask-type:luminance" maskUnits="userSpaceOnUse" x="-63" y="-64" width="629" height="630">
<path d="M-63 -63.002H566V565.998H-63V-63.002Z" fill="white"/>
</mask>
<g mask="url(#mask16_0_338)">
<path d="M376.133 69.446H359.838C356.533 69.446 353.856 72.1243 353.856 75.4278V91.7226C353.856 95.0261 356.533 97.7057 359.838 97.7057H376.133C379.437 97.7057 382.115 95.0261 382.115 91.7226V75.4278C382.115 72.1243 379.437 69.446 376.133 69.446Z" fill="#4AB58E"/>
<mask id="mask17_0_338" style="mask-type:luminance" maskUnits="userSpaceOnUse" x="353" y="69" width="30" height="29">
<path d="M353.853 69.4504H382.112V97.7089H353.853V69.4504Z" fill="white"/>
</mask>
<g mask="url(#mask17_0_338)">
<g opacity="0.399994">
<path d="M376.131 69.4488H359.836C356.532 69.4488 353.855 72.1271 353.855 75.4306V91.7255C353.855 95.029 356.532 97.7086 359.836 97.7086H376.131C379.435 97.7086 382.113 95.029 382.113 91.7255V75.4306C382.113 72.1271 379.435 69.4488 376.131 69.4488Z" fill="white"/>
</g>
</g>
<mask id="mask18_0_338" style="mask-type:luminance" maskUnits="userSpaceOnUse" x="359" y="89" width="14" height="5">
<path d="M359.767 89.5403H372.32V93.7923H359.767V89.5403Z" fill="white"/>
</mask>
<g mask="url(#mask18_0_338)">
<g opacity="0.5">
<path d="M364.019 91.6666C364.019 92.8403 363.068 93.7926 361.893 93.7926C360.719 93.7926 359.767 92.8403 359.767 91.6666C359.767 90.4916 360.719 89.5406 361.893 89.5406C363.068 89.5406 364.019 90.4916 364.019 91.6666Z" fill="white"/>
<path d="M372.322 91.6666C372.322 92.8403 371.369 93.7926 370.196 93.7926C369.021 93.7926 368.069 92.8403 368.069 91.6666C368.069 90.4916 369.021 89.5406 370.196 89.5406C371.369 89.5406 372.322 90.4916 372.322 91.6666Z" fill="white"/>
</g>
</g>
<path d="M371.912 87.8864H359.563L356.965 79.2879H374.509L371.912 87.8864Z" stroke="white" stroke-width="1.1322" stroke-miterlimit="10" stroke-linecap="round" stroke-linejoin="round"/>
<path d="M374.51 79.2877L375.504 75.8244C375.701 75.1351 376.332 74.6608 377.049 74.6608H379.005" stroke="white" stroke-width="1.1322" stroke-miterlimit="10" stroke-linecap="round" stroke-linejoin="round"/>
</g>
<mask id="mask19_0_338" style="mask-type:luminance" maskUnits="userSpaceOnUse" x="-63" y="-64" width="629" height="630">
<path d="M-63 -63.002H566V565.998H-63V-63.002Z" fill="white"/>
</mask>
<g mask="url(#mask19_0_338)">
<path d="M285.938 73.5977H310.674C316.438 73.5977 321.11 68.9255 321.11 63.1601V49.6618" stroke="black" stroke-width="1.258" stroke-miterlimit="10"/>
<path d="M329.767 56.4993H312.457C309.4 56.4993 306.922 54.0211 306.922 50.9654V33.6553C306.922 30.5984 309.4 28.1201 312.457 28.1201H329.767C332.824 28.1201 335.301 30.5984 335.301 33.6553V50.9654C335.301 54.0211 332.824 56.4993 329.767 56.4993Z" fill="#4AB58E"/>
<mask id="mask20_0_338" style="mask-type:luminance" maskUnits="userSpaceOnUse" x="306" y="28" width="30" height="29">
<path d="M306.922 28.1185H335.302V56.4977H306.922V28.1185Z" fill="white"/>
</mask>
<g mask="url(#mask20_0_338)">
<g opacity="0.399994">
<path d="M329.766 56.4968H312.456C309.399 56.4968 306.921 54.0186 306.921 50.9629V33.6528C306.921 30.5959 309.399 28.1176 312.456 28.1176H329.766C332.823 28.1176 335.3 30.5959 335.3 33.6528V50.9629C335.3 54.0186 332.823 56.4968 329.766 56.4968Z" fill="white"/>
</g>
</g>
<path d="M331.86 45.2756C331.86 45.5775 331.835 46.6468 331.797 46.9487H322.098V42.3256H323.419L320.676 39.5831L317.934 42.3256H319.255V46.9487H310.147C310.122 46.7978 310.122 45.8669 310.122 45.7033C310.122 43.1747 312.059 41.0864 314.525 40.86V40.6713C314.525 37.5263 317.079 34.96 320.236 34.96C322.79 34.96 324.941 36.6331 325.671 38.9478C326.023 38.9604 326.363 38.9856 326.69 39.0485C329.633 39.5894 331.86 42.1683 331.86 45.2756Z" fill="white"/>
</g>
<path d="M252.95 67.8364V41.9857" stroke="black" stroke-width="1.258" stroke-miterlimit="10"/>
<mask id="mask21_0_338" style="mask-type:luminance" maskUnits="userSpaceOnUse" x="-63" y="-64" width="629" height="630">
<path d="M-63 -63.002H566V565.998H-63V-63.002Z" fill="white"/>
</mask>
<g mask="url(#mask21_0_338)">
<path d="M261.099 17.3385H244.804C241.499 17.3385 238.822 20.0168 238.822 23.3203V39.6152C238.822 42.9199 241.499 45.5982 244.804 45.5982H261.099C264.402 45.5982 267.081 42.9199 267.081 39.6152V23.3203C267.081 20.0168 264.402 17.3385 261.099 17.3385Z" fill="#4AB58E"/>
<mask id="mask22_0_338" style="mask-type:luminance" maskUnits="userSpaceOnUse" x="238" y="17" width="30" height="29">
<path d="M238.823 17.337H267.083V45.5967H238.823V17.337Z" fill="white"/>
</mask>
<g mask="url(#mask22_0_338)">
<g opacity="0.399994">
<path d="M261.1 17.3362H244.805C241.501 17.3362 238.824 20.0145 238.824 23.318V39.6128C238.824 42.9176 241.501 45.5959 244.805 45.5959H261.1C264.404 45.5959 267.082 42.9176 267.082 39.6128V23.318C267.082 20.0145 264.404 17.3362 261.1 17.3362Z" fill="white"/>
</g>
</g>
<path d="M249.039 34.9412C247.691 34.7625 246.741 33.5234 246.919 32.1748C247.099 30.825 248.337 29.8765 249.687 30.0551C251.037 30.2337 251.985 31.4729 251.807 32.8214C251.628 34.1713 250.389 35.1211 249.039 34.9412ZM255.562 33.3196C255.586 33.1347 255.601 32.951 255.61 32.7686L256.762 32.3145C256.748 31.7886 256.679 31.2716 256.559 30.7734L255.33 30.6313C255.22 30.2765 255.078 29.9356 254.908 29.6098L255.678 28.6411C255.407 28.1983 255.09 27.7844 254.732 27.407L253.597 27.8976C253.326 27.6485 253.033 27.4221 252.72 27.2233L252.904 26.0006C252.453 25.754 251.974 25.5527 251.468 25.403L250.729 26.3981C250.551 26.3578 250.37 26.3239 250.185 26.3C250 26.2748 249.817 26.261 249.634 26.2522L249.18 25.0998C248.653 25.1124 248.137 25.1829 247.639 25.3024L247.496 26.5302C247.142 26.6421 246.801 26.7843 246.474 26.9541L245.507 26.1842C245.063 26.4547 244.649 26.7717 244.271 27.1302L244.763 28.265C244.514 28.5354 244.288 28.8285 244.088 29.1405L242.865 28.9581C242.62 29.4085 242.417 29.8878 242.269 30.3935L243.262 31.1319C243.223 31.3106 243.189 31.4917 243.166 31.6767C243.14 31.8616 243.125 32.0452 243.118 32.2277L241.965 32.6818C241.978 33.2089 242.047 33.7247 242.167 34.2228L243.396 34.365C243.508 34.7198 243.649 35.0607 243.82 35.3865L243.049 36.3552C243.32 36.798 243.637 37.2119 243.995 37.5893L245.131 37.0986C245.4 37.3477 245.693 37.5742 246.006 37.7729L245.822 38.997C246.274 39.2423 246.753 39.4435 247.259 39.5932L247.998 38.5982C248.176 38.6384 248.357 38.6724 248.541 38.6963C248.726 38.7215 248.91 38.7353 249.092 38.7441L249.546 39.8964C250.073 39.8838 250.589 39.8147 251.088 39.6939L251.231 38.4661C251.584 38.3541 251.926 38.2132 252.252 38.0421L253.219 38.812C253.664 38.5416 254.077 38.2245 254.455 37.8673L253.964 36.7313C254.212 36.4608 254.438 36.169 254.638 35.8557L255.861 36.0381C256.107 35.5878 256.309 35.1085 256.458 34.6028L255.464 33.8643C255.504 33.6857 255.538 33.5045 255.562 33.3196Z" fill="#4AB58E"/>
<path d="M249.039 34.9412C247.691 34.7625 246.741 33.5234 246.919 32.1748C247.099 30.825 248.337 29.8765 249.687 30.0551C251.037 30.2337 251.985 31.4729 251.807 32.8214C251.628 34.1713 250.389 35.1211 249.039 34.9412ZM255.562 33.3196C255.586 33.1347 255.601 32.951 255.61 32.7686L256.762 32.3145C256.748 31.7886 256.679 31.2716 256.559 30.7734L255.33 30.6313C255.22 30.2765 255.078 29.9356 254.908 29.6098L255.678 28.6411C255.407 28.1983 255.09 27.7844 254.732 27.407L253.597 27.8976C253.326 27.6485 253.033 27.4221 252.72 27.2233L252.904 26.0006C252.453 25.754 251.974 25.5527 251.468 25.403L250.729 26.3981C250.551 26.3578 250.37 26.3239 250.185 26.3C250 26.2748 249.817 26.261 249.634 26.2522L249.18 25.0998C248.653 25.1124 248.137 25.1829 247.639 25.3024L247.496 26.5302C247.142 26.6421 246.801 26.7843 246.474 26.9541L245.507 26.1842C245.063 26.4547 244.649 26.7717 244.271 27.1302L244.763 28.265C244.514 28.5354 244.288 28.8285 244.088 29.1405L242.865 28.9581C242.62 29.4085 242.417 29.8878 242.269 30.3935L243.262 31.1319C243.223 31.3106 243.189 31.4917 243.166 31.6767C243.14 31.8616 243.125 32.0452 243.118 32.2277L241.965 32.6818C241.978 33.2089 242.047 33.7247 242.167 34.2228L243.396 34.365C243.508 34.7198 243.649 35.0607 243.82 35.3865L243.049 36.3552C243.32 36.798 243.637 37.2119 243.995 37.5893L245.131 37.0986C245.4 37.3477 245.693 37.5742 246.006 37.7729L245.822 38.997C246.274 39.2423 246.753 39.4435 247.259 39.5932L247.998 38.5982C248.176 38.6384 248.357 38.6724 248.541 38.6963C248.726 38.7215 248.91 38.7353 249.092 38.7441L249.546 39.8964C250.073 39.8838 250.589 39.8147 251.088 39.6939L251.231 38.4661C251.584 38.3541 251.926 38.2132 252.252 38.0421L253.219 38.812C253.664 38.5416 254.077 38.2245 254.455 37.8673L253.964 36.7313C254.212 36.4608 254.438 36.169 254.638 35.8557L255.861 36.0381C256.107 35.5878 256.309 35.1085 256.458 34.6028L255.464 33.8643C255.504 33.6857 255.538 33.5045 255.562 33.3196Z" fill="white"/>
<mask id="mask23_0_338" style="mask-type:luminance" maskUnits="userSpaceOnUse" x="257" y="23" width="7" height="16">
<path d="M257.504 23.4283H263.936V38.9683H257.504V23.4283Z" fill="white"/>
</mask>
<g mask="url(#mask23_0_338)">
<g opacity="0.5">
<path d="M260.72 29.4926C260.192 29.4926 259.692 29.3668 259.253 29.134C258.214 28.6057 257.503 27.5263 257.503 26.2758C257.503 25.0317 258.214 23.9523 259.253 23.424V25.4519C259.253 25.8557 259.419 26.2255 259.686 26.4922C259.953 26.7539 260.316 26.9187 260.72 26.9187C261.528 26.9187 262.187 26.2645 262.187 25.4519V23.424C263.226 23.9523 263.937 25.0317 263.937 26.2758C263.937 27.5263 263.226 28.6057 262.187 29.134C261.748 29.3668 261.248 29.4926 260.72 29.4926Z" fill="white"/>
<path d="M259.256 37.5032V28.5979C259.256 27.789 259.912 27.1335 260.722 27.1335C261.531 27.1335 262.186 27.789 262.186 28.5979V37.5032C262.186 38.3121 261.531 38.9688 260.722 38.9688C259.912 38.9688 259.256 38.3121 259.256 37.5032Z" fill="white"/>
</g>
</g>
</g>
<mask id="mask24_0_338" style="mask-type:luminance" maskUnits="userSpaceOnUse" x="-63" y="-64" width="629" height="630">
<path d="M-63 -63.002H566V565.998H-63V-63.002Z" fill="white"/>
</mask>
<g mask="url(#mask24_0_338)">
<path d="M197.773 157.889V144.39C197.773 138.626 202.446 133.953 208.21 133.953H233.051C238.815 133.953 243.487 129.28 243.487 123.515V113.09" stroke="black" stroke-width="1.258" stroke-miterlimit="10"/>
<path d="M205.294 156.307H188.999C185.694 156.307 183.017 158.986 183.017 162.289V178.584C183.017 181.889 185.694 184.567 188.999 184.567H205.294C208.597 184.567 211.276 181.889 211.276 178.584V162.289C211.276 158.986 208.597 156.307 205.294 156.307Z" fill="#4AB58E"/>
<mask id="mask25_0_338" style="mask-type:luminance" maskUnits="userSpaceOnUse" x="183" y="156" width="29" height="29">
<path d="M183.014 156.308H211.274V184.566H183.014V156.308Z" fill="white"/>
</mask>
<g mask="url(#mask25_0_338)">
<g opacity="0.399994">
<path d="M205.292 156.306H188.997C185.693 156.306 183.016 158.984 183.016 162.287V178.582C183.016 181.887 185.693 184.565 188.997 184.565H205.292C208.596 184.565 211.274 181.887 211.274 178.582V162.287C211.274 158.984 208.596 156.306 205.292 156.306Z" fill="white"/>
</g>
</g>
<path d="M207.285 177.204C207.285 178.213 206.467 179.031 205.457 179.031C204.448 179.031 203.63 178.213 203.63 177.204C203.63 176.195 204.448 175.376 205.457 175.376C206.467 175.376 207.285 176.195 207.285 177.204Z" fill="white"/>
<path d="M199.211 177.204C199.211 178.213 198.394 179.031 197.384 179.031C196.375 179.031 195.557 178.213 195.557 177.204C195.557 176.195 196.375 175.376 197.384 175.376C198.394 175.376 199.211 176.195 199.211 177.204Z" fill="white"/>
<path d="M191.136 177.204C191.136 178.213 190.318 179.031 189.308 179.031C188.299 179.031 187.482 178.213 187.482 177.204C187.482 176.195 188.299 175.376 189.308 175.376C190.318 175.376 191.136 176.195 191.136 177.204Z" fill="white"/>
<path d="M205.874 180.285H188.797C187.151 180.285 185.817 178.952 185.817 177.306V177.1C185.817 175.455 187.151 174.121 188.797 174.121H205.874C207.52 174.121 208.853 175.455 208.853 177.1V177.306C208.853 178.952 207.52 180.285 205.874 180.285Z" stroke="white" stroke-width="1.1322" stroke-miterlimit="10" stroke-linecap="round" stroke-linejoin="round"/>
<path d="M205.709 174.645C205.083 174.645 204.576 174.138 204.576 173.513V169.928L197.351 162.439L193.247 163.79C192.654 163.985 192.012 163.663 191.818 163.068C191.622 162.474 191.945 161.834 192.539 161.639L197.318 160.066C197.73 159.93 198.185 160.042 198.487 160.356L206.523 168.685C206.728 168.896 206.841 169.178 206.841 169.471V173.513C206.841 174.138 206.334 174.645 205.709 174.645Z" fill="white"/>
<path d="M192.578 162.717V165.536" stroke="white" stroke-width="1.1322" stroke-miterlimit="10" stroke-linecap="round" stroke-linejoin="round"/>
<path d="M191.693 167.671C191.467 167.444 191.327 167.132 191.327 166.787C191.327 166.097 191.887 165.537 192.577 165.537C193.267 165.537 193.828 166.097 193.828 166.787C193.828 167.114 193.702 167.41 193.498 167.633" stroke="white" stroke-width="1.1322" stroke-miterlimit="10" stroke-linecap="round" stroke-linejoin="round"/>
<path d="M198.094 161.205C198.094 161.455 197.891 161.656 197.642 161.656C197.392 161.656 197.189 161.455 197.189 161.205C197.189 160.956 197.392 160.753 197.642 160.753C197.891 160.753 198.094 160.956 198.094 161.205Z" fill="#4AB58E"/>
<path d="M206.076 169.524C206.076 169.773 205.874 169.976 205.624 169.976C205.374 169.976 205.172 169.773 205.172 169.524C205.172 169.274 205.374 169.072 205.624 169.072C205.874 169.072 206.076 169.274 206.076 169.524Z" fill="#4AB58E"/>
<mask id="mask26_0_338" style="mask-type:luminance" maskUnits="userSpaceOnUse" x="190" y="169" width="5" height="4">
<path d="M190.857 169.493H194.292V172.926H190.857V169.493Z" fill="white"/>
</mask>
<g mask="url(#mask26_0_338)">
<g opacity="0.399994">
<path d="M194.292 172.926H190.857V169.493H194.292V172.926Z" fill="white"/>
</g>
</g>
</g>
<mask id="mask27_0_338" style="mask-type:luminance" maskUnits="userSpaceOnUse" x="-63" y="-64" width="629" height="630">
<path d="M-63 -63.002H566V565.998H-63V-63.002Z" fill="white"/>
</mask>
<g mask="url(#mask27_0_338)">
<path d="M220.674 113.088H161.395C155.63 113.088 150.957 117.76 150.957 123.526V137.024" stroke="black" stroke-width="1.258" stroke-miterlimit="10"/>
<path d="M159.603 127.044H143.308C140.003 127.044 137.326 129.722 137.326 133.026V149.321C137.326 152.624 140.003 155.302 143.308 155.302H159.603C162.906 155.302 165.584 152.624 165.584 149.321V133.026C165.584 129.722 162.906 127.044 159.603 127.044Z" fill="#4AB58E"/>
<mask id="mask28_0_338" style="mask-type:luminance" maskUnits="userSpaceOnUse" x="137" y="127" width="29" height="29">
<path d="M137.324 127.042H165.584V155.301H137.324V127.042Z" fill="white"/>
</mask>
<g mask="url(#mask28_0_338)">
<g opacity="0.399994">
<path d="M159.602 127.043H143.307C140.002 127.043 137.325 129.721 137.325 133.025V149.32C137.325 152.623 140.002 155.302 143.307 155.302H159.602C162.905 155.302 165.584 152.623 165.584 149.32V133.025C165.584 129.721 162.905 127.043 159.602 127.043Z" fill="white"/>
</g>
</g>
<mask id="mask29_0_338" style="mask-type:luminance" maskUnits="userSpaceOnUse" x="142" y="143" width="4" height="8">
<path d="M142.127 143.74H145.639V150.494H142.127V143.74Z" fill="white"/>
</mask>
<g mask="url(#mask29_0_338)">
<g opacity="0.600006">
<path d="M145.638 150.494H142.127V143.74H145.638V150.494Z" fill="white"/>
</g>
</g>
<mask id="mask30_0_338" style="mask-type:luminance" maskUnits="userSpaceOnUse" x="152" y="141" width="4" height="10">
<path d="M152.078 141.464H155.59V150.494H152.078V141.464Z" fill="white"/>
</mask>
<g mask="url(#mask30_0_338)">
<g opacity="0.600006">
<path d="M155.59 150.494H152.078V141.464H155.59V150.494Z" fill="white"/>
</g>
</g>
<path d="M150.437 150.498H146.924V139.193H150.437V150.498Z" fill="white"/>
<path d="M160.586 150.498H157.074V136.917H160.586V150.498Z" fill="white"/>
</g>
<mask id="mask31_0_338" style="mask-type:luminance" maskUnits="userSpaceOnUse" x="-63" y="-64" width="629" height="630">
<path d="M-63 -63.002H566V565.998H-63V-63.002Z" fill="white"/>
</mask>
<g mask="url(#mask31_0_338)">
<path d="M208.739 73.5978H184.004C178.239 73.5978 173.567 68.9256 173.567 63.1602V49.6618" stroke="black" stroke-width="1.258" stroke-miterlimit="10"/>
<path d="M184.084 26.8195H167.789C164.484 26.8195 161.807 29.4978 161.807 32.8013V49.0962C161.807 52.4009 164.484 55.0792 167.789 55.0792H184.084C187.387 55.0792 190.066 52.4009 190.066 49.0962V32.8013C190.066 29.4978 187.387 26.8195 184.084 26.8195Z" fill="#4AB58E"/>
<mask id="mask32_0_338" style="mask-type:luminance" maskUnits="userSpaceOnUse" x="161" y="26" width="30" height="30">
<path d="M161.809 26.8181H190.068V55.0778H161.809V26.8181Z" fill="white"/>
</mask>
<g mask="url(#mask32_0_338)">
<g opacity="0.399994">
<path d="M184.087 26.8177H167.792C164.487 26.8177 161.81 29.496 161.81 32.7995V49.0943C161.81 52.3991 164.487 55.0774 167.792 55.0774H184.087C187.391 55.0774 190.069 52.3991 190.069 49.0943V32.7995C190.069 29.496 187.391 26.8177 184.087 26.8177Z" fill="white"/>
</g>
</g>
<path d="M175.933 32.6032C178.393 32.6032 179.715 34.5971 179.715 37.0565C179.715 39.5159 178.393 41.5098 175.933 41.5098C173.474 41.5098 172.152 39.5159 172.152 37.0565C172.152 34.5971 173.474 32.6032 175.933 32.6032Z" fill="white"/>
<path d="M185.769 49.2983H166.098C165.934 49.2983 165.786 49.2316 165.677 49.1234L166.938 45.6803C167.749 43.4637 169.859 41.9893 172.219 41.9893H179.647C182.009 41.9893 184.118 43.4637 184.93 45.6803L186.189 49.1234C186.082 49.2316 185.932 49.2983 185.769 49.2983Z" fill="white"/>
</g>
<path d="M149.544 91.661H225.424" stroke="black" stroke-width="1.258" stroke-miterlimit="10"/>
<mask id="mask33_0_338" style="mask-type:luminance" maskUnits="userSpaceOnUse" x="-63" y="-64" width="629" height="630">
<path d="M-63 -63.002H566V565.998H-63V-63.002Z" fill="white"/>
</mask>
<g mask="url(#mask33_0_338)">
<path d="M151.966 69.1297H135.671C132.367 69.1297 129.69 71.808 129.69 75.1115V91.4064C129.69 94.7111 132.367 97.3894 135.671 97.3894H151.966C155.27 97.3894 157.948 94.7111 157.948 91.4064V75.1115C157.948 71.808 155.27 69.1297 151.966 69.1297Z" fill="#4AB58E"/>
<mask id="mask34_0_338" style="mask-type:luminance" maskUnits="userSpaceOnUse" x="129" y="69" width="29" height="29">
<path d="M129.691 69.1216H157.949V97.3813H129.691V69.1216Z" fill="white"/>
</mask>
<g mask="url(#mask34_0_338)">
<g opacity="0.399994">
<path d="M151.968 69.1209H135.673C132.368 69.1209 129.691 71.7992 129.691 75.1027V91.3976C129.691 94.7023 132.368 97.3806 135.673 97.3806H151.968C155.271 97.3806 157.95 94.7023 157.95 91.3976V75.1027C157.95 71.7992 155.271 69.1209 151.968 69.1209Z" fill="white"/>
</g>
</g>
<path d="M144.442 72.8362V75.4554C146.13 75.5887 147.666 76.258 148.884 77.2933L150.734 75.4428C149.038 73.9395 146.851 72.9809 144.442 72.8362Z" fill="#4AB58E"/>
<mask id="mask35_0_338" style="mask-type:luminance" maskUnits="userSpaceOnUse" x="144" y="72" width="7" height="6">
<path d="M144.444 72.8264H150.736V77.2835H144.444V72.8264Z" fill="white"/>
</mask>
<g mask="url(#mask35_0_338)">
<g opacity="0.600006">
<path d="M144.444 72.8265V75.4456C146.132 75.579 147.668 76.2482 148.886 77.2836L150.736 75.4331C149.04 73.9297 146.853 72.9711 144.444 72.8265Z" fill="white"/>
</g>
</g>
<path d="M143.178 91.0652C139.356 90.7595 136.309 87.7126 136.003 83.8908H133.385C133.7 89.1555 137.913 93.3698 143.178 93.6843V91.0652Z" fill="#4AB58E"/>
<mask id="mask36_0_338" style="mask-type:luminance" maskUnits="userSpaceOnUse" x="133" y="83" width="11" height="11">
<path d="M133.387 83.8938H143.179V93.686H133.387V83.8938Z" fill="white"/>
</mask>
<g mask="url(#mask36_0_338)">
<g opacity="0.800003">
<path d="M143.179 91.0661C139.357 90.7605 136.31 87.7136 136.005 83.8918H133.387C133.701 89.1565 137.914 93.3708 143.179 93.6853V91.0661Z" fill="white"/>
</g>
</g>
<path d="M136.003 82.6277C136.309 78.8059 139.356 75.759 143.178 75.4533V72.8354C137.913 73.1499 133.7 77.363 133.385 82.6277H136.003Z" fill="#4AB58E"/>
<mask id="mask37_0_338" style="mask-type:luminance" maskUnits="userSpaceOnUse" x="133" y="72" width="11" height="11">
<path d="M133.387 72.8371H143.179V82.6294H133.387V72.8371Z" fill="white"/>
</mask>
<g mask="url(#mask37_0_338)">
<g opacity="0.699997">
<path d="M136.005 82.6287C136.31 78.8069 139.357 75.76 143.179 75.4543V72.8364C137.914 73.1509 133.701 77.3639 133.387 82.6287H136.005Z" fill="white"/>
</g>
</g>
<path d="M151.627 76.3352L149.777 78.1858C150.94 79.5532 151.644 81.3232 151.644 83.2593C151.644 87.3729 148.472 90.7431 144.442 91.0652V93.6843C149.916 93.356 154.255 88.8159 154.255 83.2593C154.255 80.6024 153.261 78.1782 151.627 76.3352Z" fill="white"/>
</g>
<mask id="mask38_0_338" style="mask-type:luminance" maskUnits="userSpaceOnUse" x="-63" y="-64" width="629" height="630">
<path d="M-63 -63.002H566V565.998H-63V-63.002Z" fill="white"/>
</mask>
<g mask="url(#mask38_0_338)">
<path d="M210.572 68.0015L214.111 67.8392L219.079 122.703H215.322C213.445 122.524 213.006 120.422 212.487 116.451L209.011 78.1485C208.198 69.0658 209.749 68.0015 210.572 68.0015Z" fill="#4AB58E"/>
<mask id="mask39_0_338" style="mask-type:luminance" maskUnits="userSpaceOnUse" x="208" y="67" width="12" height="56">
<path d="M208.781 67.8399H219.078V122.704H208.781V67.8399Z" fill="white"/>
</mask>
<g mask="url(#mask39_0_338)">
<g opacity="0.300003">
<path d="M210.57 68.0027L214.109 67.8404L219.077 122.704H215.321C213.444 122.526 213.005 120.424 212.485 116.452L209.009 78.1498C208.197 69.067 209.748 68.0027 210.57 68.0027Z" fill="black"/>
</g>
</g>
<path d="M216.219 122.703H290.566C291.389 122.703 291.984 121.933 291.897 120.985L287.245 69.5577C287.158 68.6091 286.421 67.8392 285.599 67.8392H211.251C210.428 67.8392 209.833 68.6091 209.921 69.5577L214.571 120.985C214.659 121.933 215.396 122.703 216.219 122.703Z" fill="#4AB58E"/>
<path d="M219.067 116.202H286.594L282.849 73.3959H215.322L219.067 116.202Z" fill="#4AB58E"/>
<path d="M219.998 119.555H286.54C288.427 119.555 289.825 118.025 289.659 116.137L285.937 73.5979C285.773 71.7096 284.108 70.1786 282.22 70.1786H215.678C213.79 70.1786 212.395 71.7096 212.558 73.5979L216.281 116.137C216.446 118.025 218.11 119.555 219.998 119.555Z" fill="#1A2E35"/>
<path d="M219.067 116.202H286.594L282.849 73.3959H215.322L219.067 116.202Z" fill="#4AB58E"/>
<mask id="mask40_0_338" style="mask-type:luminance" maskUnits="userSpaceOnUse" x="215" y="73" width="72" height="44">
<path d="M215.32 73.3963H286.591V116.204H215.32V73.3963Z" fill="white"/>
</mask>
<g mask="url(#mask40_0_338)">
<g opacity="0.399994">
<path d="M219.065 116.204H286.592L282.847 73.3985H215.32L219.065 116.204Z" fill="white"/>
</g>
</g>
<path d="M224.578 93.0933L225.053 92.0416C225.561 92.4114 226.319 92.6706 227.043 92.6706C227.87 92.6706 228.206 92.3951 228.206 92.024C228.206 90.8955 224.699 91.6717 224.699 89.43C224.699 88.4047 225.526 87.5518 227.241 87.5518C228 87.5518 228.775 87.7317 229.336 88.0864L228.905 89.1456C228.345 88.8261 227.767 88.6714 227.233 88.6714C226.406 88.6714 226.087 88.9821 226.087 89.3608C226.087 90.4728 229.594 89.7067 229.594 91.9208C229.594 92.9297 228.759 93.7914 227.035 93.7914C226.078 93.7914 225.113 93.5071 224.578 93.0933Z" fill="white"/>
<path d="M235.363 90.6716C235.363 89.5256 234.553 88.7406 233.476 88.7406C232.398 88.7406 231.588 89.5256 231.588 90.6716C231.588 91.8176 232.398 92.6026 233.476 92.6026C234.553 92.6026 235.363 91.8176 235.363 90.6716ZM230.174 90.6716C230.174 88.879 231.57 87.5518 233.476 87.5518C235.372 87.5518 236.777 88.8701 236.777 90.6716C236.777 92.4731 235.372 93.7914 233.476 93.7914C231.57 93.7914 230.174 92.4643 230.174 90.6716Z" fill="white"/>
<path d="M239.232 88.7754V90.3705H242.025V91.4901H239.232V93.6879H237.836V87.6545H242.395V88.7754H239.232Z" fill="white"/>
<path d="M244.639 88.7917H242.708V87.6545H247.966V88.7917H246.035V93.6879H244.639V88.7917Z" fill="white"/>
<path d="M257.726 87.6545L255.753 93.6879H254.253L252.926 89.6019L251.555 93.6879H250.064L248.081 87.6545H249.529L250.892 91.8952L252.313 87.6545H253.606L254.985 91.9292L256.39 87.6545H257.726Z" fill="white"/>
<path d="M261.845 91.3341L260.889 89.0245L259.931 91.3341H261.845ZM262.285 92.3946H259.484L258.949 93.6879H257.519L260.207 87.6545H261.586L264.284 93.6879H262.819L262.285 92.3946Z" fill="white"/>
<path d="M267.454 88.7917H266.317V90.8951H267.454C268.307 90.8951 268.738 90.4976 268.738 89.8434C268.738 89.1805 268.307 88.7917 267.454 88.7917ZM268.765 93.6879L267.6 92.0072H267.532H266.317V93.6879H264.92V87.6545H267.532C269.144 87.6545 270.152 88.4898 270.152 89.8434C270.152 90.7479 269.695 91.4121 268.911 91.748L270.263 93.6879H268.765Z" fill="white"/>
<path d="M275.929 92.567V93.6879H271.258V87.6545H275.817V88.7741H272.646V90.085H275.446V91.1706H272.646V92.567H275.929Z" fill="white"/>
<path d="M220.969 98.0036H222.365V104.037H220.969V98.0036Z" fill="white"/>
<path d="M229.329 98.0064V104.04H228.183L225.175 100.376V104.04H223.796V98.0064H224.951L227.95 101.67V98.0064H229.329Z" fill="white"/>
<path d="M232.017 99.1437H230.086V98.0064H235.344V99.1437H233.413V104.04H232.017V99.1437Z" fill="white"/>
<path d="M240.77 102.919V104.04H236.099V98.0064H240.658V99.126H237.487V100.437H240.287V101.523H237.487V102.919H240.77Z" fill="white"/>
<path d="M245.945 100.923H247.22V103.371C246.557 103.871 245.643 104.138 244.781 104.138C242.885 104.138 241.489 102.837 241.489 101.018C241.489 99.1987 242.885 97.8979 244.807 97.8979C245.867 97.8979 246.746 98.2602 247.332 98.9408L246.436 99.7685C245.997 99.3031 245.488 99.088 244.877 99.088C243.704 99.088 242.903 99.8717 242.903 101.018C242.903 102.147 243.704 102.949 244.859 102.949C245.238 102.949 245.591 102.88 245.945 102.69V100.923Z" fill="white"/>
<path d="M251.051 99.1437H249.914V101.247H251.051C251.904 101.247 252.336 100.85 252.336 100.195C252.336 99.5324 251.904 99.1437 251.051 99.1437ZM252.362 104.04L251.197 102.359H251.129H249.914V104.04H248.518V98.0064H251.129C252.741 98.0064 253.75 98.8417 253.75 100.195C253.75 101.1 253.292 101.764 252.508 102.1L253.86 104.04H252.362Z" fill="white"/>
<path d="M258.392 101.686L257.436 99.3764L256.478 101.686H258.392ZM258.832 102.747H256.031L255.496 104.04H254.066L256.754 98.0064H258.133L260.831 104.04H259.366L258.832 102.747Z" fill="white"/>
<path d="M262.413 99.1437H260.482V98.0064H265.74V99.1437H263.809V104.04H262.413V99.1437Z" fill="white"/>
<path d="M266.492 98.0036H267.888V104.037H266.492V98.0036Z" fill="white"/>
<path d="M274.131 101.022C274.131 99.8756 273.321 99.0906 272.244 99.0906C271.166 99.0906 270.356 99.8756 270.356 101.022C270.356 102.168 271.166 102.953 272.244 102.953C273.321 102.953 274.131 102.168 274.131 101.022ZM268.942 101.022C268.942 99.229 270.338 97.9018 272.244 97.9018C274.14 97.9018 275.545 99.2202 275.545 101.022C275.545 102.823 274.14 104.141 272.244 104.141C270.338 104.141 268.942 102.814 268.942 101.022Z" fill="white"/>
<path d="M282.135 98.0064V104.04H280.989L277.981 100.376V104.04H276.603V98.0064H277.757L280.756 101.67V98.0064H282.135Z" fill="white"/>
<mask id="mask41_0_338" style="mask-type:luminance" maskUnits="userSpaceOnUse" x="225" y="70" width="18" height="50">
<path d="M225.312 70.2022H242.793V119.533H225.312V70.2022Z" fill="white"/>
</mask>
<g mask="url(#mask41_0_338)">
<g opacity="0.100006">
<path d="M238.502 70.2014L225.312 119.533H229.749L242.793 70.2014H238.502Z" fill="white"/>
</g>
</g>
<mask id="mask42_0_338" style="mask-type:luminance" maskUnits="userSpaceOnUse" x="232" y="70" width="22" height="50">
<path d="M232.152 70.2022H253.996V119.533H232.152V70.2022Z" fill="white"/>
</mask>
<g mask="url(#mask42_0_338)">
<g opacity="0.100006">
<path d="M245.341 70.2014L232.152 119.533H240.951L253.996 70.2014H245.341Z" fill="white"/>
</g>
</g>
<path d="M215.322 73.3978L215.657 77.2285H283.182L282.848 73.3978H215.322Z" fill="#4AB58E"/>
<path d="M218.423 75.0995C218.461 75.5259 218.145 75.8719 217.717 75.8719C217.292 75.8719 216.914 75.5259 216.878 75.0995C216.84 74.673 217.156 74.3271 217.582 74.3271C218.009 74.3271 218.385 74.673 218.423 75.0995Z" fill="white"/>
<path d="M220.457 75.0995C220.495 75.5259 220.179 75.8719 219.751 75.8719C219.326 75.8719 218.949 75.5259 218.911 75.0995C218.875 74.673 219.19 74.3271 219.617 74.3271C220.043 74.3271 220.419 74.673 220.457 75.0995Z" fill="white"/>
<path d="M222.497 75.0995C222.535 75.5259 222.219 75.8719 221.791 75.8719C221.366 75.8719 220.989 75.5259 220.951 75.0995C220.914 74.673 221.23 74.3271 221.657 74.3271C222.083 74.3271 222.459 74.673 222.497 75.0995Z" fill="white"/>
<path d="M292.909 127.037H217.118C216.226 127.037 215.504 126.313 215.504 125.421V124.467C215.504 123.575 216.226 122.851 217.118 122.851H292.909C293.8 122.851 294.523 123.575 294.523 124.467V125.421C294.523 126.313 293.8 127.037 292.909 127.037Z" fill="#4AB58E"/>
<path d="M320.711 127.037H248.802C247.019 127.037 245.574 125.591 245.574 123.807V122.851H323.939V123.807C323.939 125.591 322.494 127.037 320.711 127.037Z" fill="#4AB58E"/>
<mask id="mask43_0_338" style="mask-type:luminance" maskUnits="userSpaceOnUse" x="245" y="122" width="79" height="6">
<path d="M245.573 122.846H323.94V127.032H245.573V122.846Z" fill="white"/>
</mask>
<g mask="url(#mask43_0_338)">
<g opacity="0.300003">
<path d="M320.71 127.031H248.8C247.018 127.031 245.572 125.586 245.572 123.802V122.846H323.938V123.802C323.938 125.586 322.493 127.031 320.71 127.031Z" fill="white"/>
</g>
</g>
<mask id="mask44_0_338" style="mask-type:luminance" maskUnits="userSpaceOnUse" x="278" y="122" width="15" height="4">
<path d="M278.378 122.951H292.148V125.044H278.378V122.951Z" fill="white"/>
</mask>
<g mask="url(#mask44_0_338)">
<g opacity="0.300003">
<path d="M278.378 122.951C278.378 124.107 279.315 125.044 280.471 125.044H290.056C291.212 125.044 292.148 124.107 292.148 122.951H278.378Z" fill="black"/>
</g>
</g>
</g>
</g>
<defs>
<clipPath id="clip0_0_338">
<rect width="503" height="503" fill="white"/>
</clipPath>
</defs>
</svg>
