<svg width="307" height="32" viewBox="0 0 307 32" fill="none" xmlns="http://www.w3.org/2000/svg">
<g clip-path="url(#clip0_0_115)">
<rect width="24" height="24" transform="translate(0 2)" fill="black"/>
</g>
<path d="M37.008 25V2.6H46.8C49.232 2.6 51.3653 3.06933 53.2 4.008C55.0347 4.94667 56.464 6.248 57.488 7.912C58.512 9.576 59.024 11.5387 59.024 13.8C59.024 16.04 58.512 18.0027 57.488 19.688C56.464 21.352 55.0347 22.6533 53.2 23.592C51.3653 24.5307 49.232 25 46.8 25H37.008ZM41.168 21.48H46.608C48.2933 21.48 49.744 21.16 50.96 20.52C52.1973 19.88 53.1467 18.984 53.808 17.832C54.4907 16.68 54.832 15.336 54.832 13.8C54.832 12.2427 54.4907 10.8987 53.808 9.768C53.1467 8.616 52.1973 7.72 50.96 7.08C49.744 6.44 48.2933 6.12 46.608 6.12H41.168V21.48ZM63.0615 25V7.912H67.0615V25H63.0615ZM65.0775 5.096C64.3308 5.096 63.7122 4.86133 63.2215 4.392C62.7522 3.92267 62.5175 3.35733 62.5175 2.696C62.5175 2.01333 62.7522 1.448 63.2215 0.999998C63.7122 0.530666 64.3308 0.296 65.0775 0.296C65.8242 0.296 66.4322 0.519999 66.9015 0.967999C67.3922 1.39467 67.6375 1.93867 67.6375 2.6C67.6375 3.304 67.4028 3.90133 66.9335 4.392C66.4642 4.86133 65.8455 5.096 65.0775 5.096ZM72.3115 25V1.256H76.3115V25H72.3115ZM81.5615 25V7.912H85.5615V25H81.5615ZM83.5775 5.096C82.8308 5.096 82.2122 4.86133 81.7215 4.392C81.2522 3.92267 81.0175 3.35733 81.0175 2.696C81.0175 2.01333 81.2522 1.448 81.7215 0.999998C82.2122 0.530666 82.8308 0.296 83.5775 0.296C84.3242 0.296 84.9322 0.519999 85.4015 0.967999C85.8922 1.39467 86.1375 1.93867 86.1375 2.6C86.1375 3.304 85.9028 3.90133 85.4335 4.392C84.9642 4.86133 84.3455 5.096 83.5775 5.096ZM98.5555 31.432C96.9768 31.432 95.4302 31.2187 93.9155 30.792C92.4222 30.3867 91.1955 29.7893 90.2355 29L92.0275 25.992C92.7742 26.6107 93.7128 27.1013 94.8435 27.464C95.9955 27.848 97.1582 28.04 98.3315 28.04C100.209 28.04 101.585 27.6027 102.46 26.728C103.334 25.8747 103.772 24.584 103.772 22.856V19.816L104.092 15.944L103.964 12.072V7.912H107.772V22.408C107.772 25.5013 106.982 27.7733 105.404 29.224C103.825 30.696 101.542 31.432 98.5555 31.432ZM98.0435 24.232C96.4222 24.232 94.9502 23.8907 93.6275 23.208C92.3262 22.504 91.2915 21.5333 90.5235 20.296C89.7768 19.0587 89.4035 17.608 89.4035 15.944C89.4035 14.3013 89.7768 12.8613 90.5235 11.624C91.2915 10.3867 92.3262 9.42667 93.6275 8.744C94.9502 8.06133 96.4222 7.72 98.0435 7.72C99.4942 7.72 100.796 8.008 101.948 8.584C103.1 9.16 104.017 10.056 104.7 11.272C105.404 12.488 105.756 14.0453 105.756 15.944C105.756 17.8427 105.404 19.4107 104.7 20.648C104.017 21.864 103.1 22.7707 101.948 23.368C100.796 23.944 99.4942 24.232 98.0435 24.232ZM98.6515 20.84C99.6542 20.84 100.55 20.6373 101.34 20.232C102.129 19.8053 102.737 19.2293 103.164 18.504C103.612 17.7573 103.836 16.904 103.836 15.944C103.836 14.984 103.612 14.1413 103.164 13.416C102.737 12.6693 102.129 12.104 101.34 11.72C100.55 11.3147 99.6542 11.112 98.6515 11.112C97.6488 11.112 96.7422 11.3147 95.9315 11.72C95.1422 12.104 94.5235 12.6693 94.0755 13.416C93.6488 14.1413 93.4355 14.984 93.4355 15.944C93.4355 16.904 93.6488 17.7573 94.0755 18.504C94.5235 19.2293 95.1422 19.8053 95.9315 20.232C96.7422 20.6373 97.6488 20.84 98.6515 20.84ZM121.062 25.224C119.164 25.224 117.5 24.8507 116.07 24.104C114.662 23.336 113.564 22.2907 112.774 20.968C112.006 19.6453 111.622 18.1413 111.622 16.456C111.622 14.7493 111.996 13.2453 112.742 11.944C113.51 10.6213 114.556 9.58667 115.878 8.84C117.222 8.09333 118.748 7.72 120.454 7.72C122.118 7.72 123.601 8.08267 124.902 8.808C126.204 9.53333 127.228 10.5573 127.974 11.88C128.721 13.2027 129.094 14.76 129.094 16.552C129.094 16.7227 129.084 16.9147 129.062 17.128C129.062 17.3413 129.052 17.544 129.03 17.736H114.79V15.08H126.918L125.35 15.912C125.372 14.9307 125.169 14.0667 124.742 13.32C124.316 12.5733 123.729 11.9867 122.982 11.56C122.257 11.1333 121.414 10.92 120.454 10.92C119.473 10.92 118.609 11.1333 117.862 11.56C117.137 11.9867 116.561 12.584 116.134 13.352C115.729 14.0987 115.526 14.984 115.526 16.008V16.648C115.526 17.672 115.761 18.5787 116.23 19.368C116.7 20.1573 117.361 20.7653 118.214 21.192C119.068 21.6187 120.049 21.832 121.158 21.832C122.118 21.832 122.982 21.6827 123.75 21.384C124.518 21.0853 125.201 20.616 125.798 19.976L127.942 22.44C127.174 23.336 126.204 24.0293 125.03 24.52C123.878 24.9893 122.556 25.224 121.062 25.224ZM142.633 7.72C143.998 7.72 145.214 7.98667 146.281 8.52C147.369 9.05333 148.222 9.87467 148.841 10.984C149.459 12.072 149.769 13.48 149.769 15.208V25H145.769V15.72C145.769 14.2053 145.406 13.0747 144.681 12.328C143.977 11.5813 142.985 11.208 141.705 11.208C140.766 11.208 139.934 11.4 139.209 11.784C138.483 12.168 137.918 12.744 137.513 13.512C137.129 14.2587 136.937 15.208 136.937 16.36V25H132.937V7.912H136.745V12.52L136.073 11.112C136.67 10.024 137.534 9.192 138.665 8.616C139.817 8.01867 141.139 7.72 142.633 7.72ZM161.275 25.224C159.397 25.224 157.947 24.744 156.923 23.784C155.899 22.8027 155.387 21.3627 155.387 19.464V4.136H159.387V19.368C159.387 20.1787 159.589 20.808 159.995 21.256C160.421 21.704 161.008 21.928 161.755 21.928C162.651 21.928 163.397 21.6933 163.995 21.224L165.115 24.072C164.645 24.456 164.069 24.744 163.387 24.936C162.704 25.128 162 25.224 161.275 25.224ZM152.571 11.24V8.04H163.963V11.24H152.571ZM177.633 25V2.6H181.793V25H177.633ZM197.164 7.72C198.529 7.72 199.745 7.98667 200.812 8.52C201.9 9.05333 202.753 9.87467 203.372 10.984C203.99 12.072 204.3 13.48 204.3 15.208V25H200.3V15.72C200.3 14.2053 199.937 13.0747 199.212 12.328C198.508 11.5813 197.516 11.208 196.236 11.208C195.297 11.208 194.465 11.4 193.74 11.784C193.014 12.168 192.449 12.744 192.044 13.512C191.66 14.2587 191.468 15.208 191.468 16.36V25H187.468V7.912H191.276V12.52L190.604 11.112C191.201 10.024 192.065 9.192 193.196 8.616C194.348 8.01867 195.67 7.72 197.164 7.72ZM214.654 25.224C213.225 25.224 211.849 25.0427 210.526 24.68C209.225 24.296 208.19 23.8373 207.422 23.304L208.958 20.264C209.726 20.7547 210.643 21.16 211.71 21.48C212.777 21.8 213.843 21.96 214.91 21.96C216.169 21.96 217.075 21.7893 217.63 21.448C218.206 21.1067 218.494 20.648 218.494 20.072C218.494 19.6027 218.302 19.2507 217.918 19.016C217.534 18.76 217.033 18.568 216.414 18.44C215.795 18.312 215.102 18.1947 214.334 18.088C213.587 17.9813 212.83 17.8427 212.062 17.672C211.315 17.48 210.633 17.2133 210.014 16.872C209.395 16.5093 208.894 16.0293 208.51 15.432C208.126 14.8347 207.934 14.0453 207.934 13.064C207.934 11.976 208.243 11.0373 208.862 10.248C209.481 9.43733 210.345 8.81867 211.454 8.392C212.585 7.944 213.918 7.72 215.454 7.72C216.606 7.72 217.769 7.848 218.942 8.104C220.115 8.36 221.086 8.72267 221.854 9.192L220.318 12.232C219.507 11.7413 218.686 11.4107 217.854 11.24C217.043 11.048 216.233 10.952 215.422 10.952C214.206 10.952 213.299 11.1333 212.702 11.496C212.126 11.8587 211.838 12.3173 211.838 12.872C211.838 13.384 212.03 13.768 212.414 14.024C212.798 14.28 213.299 14.4827 213.918 14.632C214.537 14.7813 215.219 14.9093 215.966 15.016C216.734 15.1013 217.491 15.24 218.238 15.432C218.985 15.624 219.667 15.8907 220.286 16.232C220.926 16.552 221.438 17.0107 221.822 17.608C222.206 18.2053 222.398 18.984 222.398 19.944C222.398 21.0107 222.078 21.9387 221.438 22.728C220.819 23.5173 219.934 24.136 218.782 24.584C217.63 25.0107 216.254 25.224 214.654 25.224ZM225.843 25V7.912H229.843V25H225.843ZM227.859 5.096C227.112 5.096 226.493 4.86133 226.003 4.392C225.533 3.92267 225.299 3.35733 225.299 2.696C225.299 2.01333 225.533 1.448 226.003 0.999998C226.493 0.530666 227.112 0.296 227.859 0.296C228.605 0.296 229.213 0.519999 229.683 0.967999C230.173 1.39467 230.419 1.93867 230.419 2.6C230.419 3.304 230.184 3.90133 229.715 4.392C229.245 4.86133 228.627 5.096 227.859 5.096ZM242.837 31.432C241.258 31.432 239.711 31.2187 238.197 30.792C236.703 30.3867 235.477 29.7893 234.517 29L236.309 25.992C237.055 26.6107 237.994 27.1013 239.125 27.464C240.277 27.848 241.439 28.04 242.613 28.04C244.49 28.04 245.866 27.6027 246.741 26.728C247.615 25.8747 248.053 24.584 248.053 22.856V19.816L248.373 15.944L248.245 12.072V7.912H252.053V22.408C252.053 25.5013 251.263 27.7733 249.685 29.224C248.106 30.696 245.823 31.432 242.837 31.432ZM242.325 24.232C240.703 24.232 239.231 23.8907 237.909 23.208C236.607 22.504 235.573 21.5333 234.805 20.296C234.058 19.0587 233.685 17.608 233.685 15.944C233.685 14.3013 234.058 12.8613 234.805 11.624C235.573 10.3867 236.607 9.42667 237.909 8.744C239.231 8.06133 240.703 7.72 242.325 7.72C243.775 7.72 245.077 8.008 246.229 8.584C247.381 9.16 248.298 10.056 248.981 11.272C249.685 12.488 250.037 14.0453 250.037 15.944C250.037 17.8427 249.685 19.4107 248.981 20.648C248.298 21.864 247.381 22.7707 246.229 23.368C245.077 23.944 243.775 24.232 242.325 24.232ZM242.933 20.84C243.935 20.84 244.831 20.6373 245.621 20.232C246.41 19.8053 247.018 19.2293 247.445 18.504C247.893 17.7573 248.117 16.904 248.117 15.944C248.117 14.984 247.893 14.1413 247.445 13.416C247.018 12.6693 246.41 12.104 245.621 11.72C244.831 11.3147 243.935 11.112 242.933 11.112C241.93 11.112 241.023 11.3147 240.213 11.72C239.423 12.104 238.805 12.6693 238.357 13.416C237.93 14.1413 237.717 14.984 237.717 15.944C237.717 16.904 237.93 17.7573 238.357 18.504C238.805 19.2293 239.423 19.8053 240.213 20.232C241.023 20.6373 241.93 20.84 242.933 20.84ZM267.008 7.72C268.373 7.72 269.589 7.98667 270.656 8.52C271.744 9.05333 272.597 9.87467 273.216 10.984C273.834 12.072 274.144 13.48 274.144 15.208V25H270.144V15.72C270.144 14.2053 269.781 13.0747 269.056 12.328C268.352 11.5813 267.36 11.208 266.08 11.208C265.141 11.208 264.309 11.4 263.584 11.784C262.858 12.168 262.293 12.744 261.888 13.512C261.504 14.2587 261.312 15.208 261.312 16.36V25H257.312V1.256H261.312V12.52L260.448 11.112C261.045 10.024 261.909 9.192 263.04 8.616C264.192 8.01867 265.514 7.72 267.008 7.72ZM285.65 25.224C283.772 25.224 282.322 24.744 281.298 23.784C280.274 22.8027 279.762 21.3627 279.762 19.464V4.136H283.762V19.368C283.762 20.1787 283.964 20.808 284.37 21.256C284.796 21.704 285.383 21.928 286.13 21.928C287.026 21.928 287.772 21.6933 288.37 21.224L289.49 24.072C289.02 24.456 288.444 24.744 287.762 24.936C287.079 25.128 286.375 25.224 285.65 25.224ZM276.946 11.24V8.04H288.338V11.24H276.946ZM298.06 25.224C296.631 25.224 295.255 25.0427 293.932 24.68C292.631 24.296 291.596 23.8373 290.828 23.304L292.364 20.264C293.132 20.7547 294.05 21.16 295.116 21.48C296.183 21.8 297.25 21.96 298.316 21.96C299.575 21.96 300.482 21.7893 301.036 21.448C301.612 21.1067 301.9 20.648 301.9 20.072C301.9 19.6027 301.708 19.2507 301.324 19.016C300.94 18.76 300.439 18.568 299.82 18.44C299.202 18.312 298.508 18.1947 297.74 18.088C296.994 17.9813 296.236 17.8427 295.468 17.672C294.722 17.48 294.039 17.2133 293.42 16.872C292.802 16.5093 292.3 16.0293 291.916 15.432C291.532 14.8347 291.34 14.0453 291.34 13.064C291.34 11.976 291.65 11.0373 292.268 10.248C292.887 9.43733 293.751 8.81867 294.86 8.392C295.991 7.944 297.324 7.72 298.86 7.72C300.012 7.72 301.175 7.848 302.348 8.104C303.522 8.36 304.492 8.72267 305.26 9.192L303.724 12.232C302.914 11.7413 302.092 11.4107 301.26 11.24C300.45 11.048 299.639 10.952 298.828 10.952C297.612 10.952 296.706 11.1333 296.108 11.496C295.532 11.8587 295.244 12.3173 295.244 12.872C295.244 13.384 295.436 13.768 295.82 14.024C296.204 14.28 296.706 14.4827 297.324 14.632C297.943 14.7813 298.626 14.9093 299.372 15.016C300.14 15.1013 300.898 15.24 301.644 15.432C302.391 15.624 303.074 15.8907 303.692 16.232C304.332 16.552 304.844 17.0107 305.228 17.608C305.612 18.2053 305.804 18.984 305.804 19.944C305.804 21.0107 305.484 21.9387 304.844 22.728C304.226 23.5173 303.34 24.136 302.188 24.584C301.036 25.0107 299.66 25.224 298.06 25.224Z" fill="black"/>
<defs>
<clipPath id="clip0_0_115">
<rect width="24" height="24" fill="white" transform="translate(0 2)"/>
</clipPath>
</defs>
</svg>
