<svg width="255" height="243" viewBox="0 0 255 243" fill="none" xmlns="http://www.w3.org/2000/svg">
<g filter="url(#filter0_d_0_161)">
<rect x="12.9066" y="10" width="229.584" height="217.208" rx="12.3765" fill="white"/>
<rect x="13.216" y="10.3094" width="228.965" height="216.589" rx="12.0671" stroke="#F8F9FA" stroke-width="0.618825"/>
</g>
<mask id="mask0_0_161" style="mask-type:luminance" maskUnits="userSpaceOnUse" x="12" y="10" width="231" height="218">
<rect x="13.216" y="10.3094" width="228.965" height="216.589" rx="12.0671" fill="white" stroke="white" stroke-width="0.618825"/>
</mask>
<g mask="url(#mask0_0_161)">
</g>
<path d="M31.3969 30.8318V32.2303H29.0949V39.4706H27.3622V32.2303H25.0601V30.8318H31.3969ZM32.2156 36.0175C32.2156 35.3245 32.3517 34.7098 32.624 34.1734C32.9046 33.6371 33.28 33.2246 33.7503 32.9358C34.2288 32.647 34.761 32.5026 35.3469 32.5026C35.8584 32.5026 36.304 32.6057 36.6835 32.812C37.0713 33.0183 37.3807 33.2782 37.6118 33.5917V32.614H39.3568V39.4706H37.6118V38.4681C37.389 38.7899 37.0796 39.058 36.6835 39.2726C36.2957 39.4788 35.846 39.582 35.3345 39.582C34.7569 39.582 34.2288 39.4335 33.7503 39.1364C33.28 38.8394 32.9046 38.4227 32.624 37.8864C32.3517 37.3418 32.2156 36.7189 32.2156 36.0175ZM37.6118 36.0423C37.6118 35.6215 37.5292 35.2626 37.3642 34.9655C37.1992 34.6602 36.9764 34.4292 36.6959 34.2725C36.4154 34.1074 36.1142 34.0249 35.7924 34.0249C35.4706 34.0249 35.1736 34.1033 34.9013 34.2601C34.629 34.4168 34.4062 34.6479 34.233 34.9532C34.0679 35.2502 33.9854 35.605 33.9854 36.0175C33.9854 36.4301 34.0679 36.7931 34.233 37.1067C34.4062 37.412 34.629 37.6471 34.9013 37.8121C35.1818 37.9771 35.4789 38.0597 35.7924 38.0597C36.1142 38.0597 36.4154 37.9813 36.6959 37.8245C36.9764 37.6595 37.1992 37.4285 37.3642 37.1314C37.5292 36.8261 37.6118 36.4631 37.6118 36.0423ZM42.7818 33.6784C43.0046 33.3153 43.2934 33.0307 43.6482 32.8244C44.0112 32.6181 44.4238 32.515 44.8858 32.515V34.3343H44.4279C43.8833 34.3343 43.4708 34.4622 43.1903 34.718C42.918 34.9738 42.7818 35.4193 42.7818 36.0547V39.4706H41.0491V32.614H42.7818V33.6784ZM48.7386 32.5026C49.2502 32.5026 49.6999 32.6057 50.0877 32.812C50.4754 33.01 50.7807 33.27 51.0035 33.5917V32.614H52.7486V39.5201C52.7486 40.1554 52.6207 40.7206 52.3649 41.2157C52.1091 41.719 51.7255 42.115 51.2139 42.4038C50.7024 42.7008 50.0835 42.8494 49.3574 42.8494C48.3838 42.8494 47.5835 42.6225 46.9564 42.1687C46.3376 41.7149 45.9869 41.096 45.9044 40.3122H47.6247C47.7155 40.6257 47.9094 40.8733 48.2064 41.0548C48.5117 41.2445 48.8789 41.3394 49.3079 41.3394C49.8112 41.3394 50.2197 41.1868 50.5332 40.8815C50.8467 40.5845 51.0035 40.1307 51.0035 39.5201V38.4557C50.7807 38.7775 50.4713 39.0457 50.0753 39.2602C49.6875 39.4747 49.2419 39.582 48.7386 39.582C48.161 39.582 47.633 39.4335 47.1544 39.1364C46.6759 38.8394 46.2963 38.4227 46.0158 37.8864C45.7435 37.3418 45.6074 36.7189 45.6074 36.0175C45.6074 35.3245 45.7435 34.7098 46.0158 34.1734C46.2963 33.6371 46.6717 33.2246 47.142 32.9358C47.6206 32.647 48.1528 32.5026 48.7386 32.5026ZM51.0035 36.0423C51.0035 35.6215 50.921 35.2626 50.756 34.9655C50.591 34.6602 50.3682 34.4292 50.0877 34.2725C49.8071 34.1074 49.506 34.0249 49.1842 34.0249C48.8624 34.0249 48.5653 34.1033 48.2931 34.2601C48.0208 34.4168 47.798 34.6479 47.6247 34.9532C47.4597 35.2502 47.3772 35.605 47.3772 36.0175C47.3772 36.4301 47.4597 36.7931 47.6247 37.1067C47.798 37.412 48.0208 37.6471 48.2931 37.8121C48.5736 37.9771 48.8706 38.0597 49.1842 38.0597C49.506 38.0597 49.8071 37.9813 50.0877 37.8245C50.3682 37.6595 50.591 37.4285 50.756 37.1314C50.921 36.8261 51.0035 36.4631 51.0035 36.0423ZM60.8148 35.8938C60.8148 36.1413 60.7983 36.3641 60.7653 36.5621H55.7528C55.7941 37.0572 55.9673 37.445 56.2726 37.7255C56.5779 38.006 56.9533 38.1463 57.3989 38.1463C58.0425 38.1463 58.5004 37.8699 58.7727 37.3171H60.6415C60.4435 37.9771 60.0639 38.5217 59.5029 38.9508C58.9418 39.3716 58.2529 39.582 57.436 39.582C56.7759 39.582 56.1819 39.4376 55.6538 39.1488C55.134 38.8518 54.7256 38.4351 54.4285 37.8988C54.1397 37.3625 53.9953 36.7436 53.9953 36.0423C53.9953 35.3327 54.1397 34.7098 54.4285 34.1734C54.7173 33.6371 55.1216 33.2246 55.6414 32.9358C56.1612 32.647 56.7594 32.5026 57.436 32.5026C58.0878 32.5026 58.6695 32.6429 59.1811 32.9234C59.7009 33.2039 60.1011 33.6041 60.3816 34.1239C60.6704 34.6355 60.8148 35.2254 60.8148 35.8938ZM59.0202 35.3987C59.0119 34.9532 58.8511 34.5984 58.5375 34.3343C58.224 34.062 57.8403 33.9259 57.3865 33.9259C56.9574 33.9259 56.5944 34.0579 56.2974 34.322C56.0086 34.5777 55.8312 34.9367 55.7652 35.3987H59.0202ZM64.0969 34.0373V37.3542C64.0969 37.5852 64.1505 37.7544 64.2578 37.8616C64.3733 37.9606 64.5631 38.0102 64.8271 38.0102H65.6316V39.4706H64.5424C63.082 39.4706 62.3518 38.761 62.3518 37.3418V34.0373H61.5349V32.614H62.3518V30.9184H64.0969V32.614H65.6316V34.0373H64.0969ZM72.6859 37.874L74.4186 32.614H76.2627L73.7255 39.4706H71.6215L69.0967 32.614H70.9532L72.6859 37.874ZM79.8597 39.582C79.2986 39.582 78.7953 39.483 78.3498 39.2849C77.9042 39.0787 77.5494 38.8022 77.2854 38.4557C77.0296 38.1092 76.8893 37.7255 76.8646 37.3047H78.6097C78.6427 37.5687 78.7706 37.7874 78.9934 37.9606C79.2244 38.1339 79.509 38.2206 79.8473 38.2206C80.1774 38.2206 80.4332 38.1545 80.6147 38.0225C80.8044 37.8905 80.8993 37.7214 80.8993 37.5151C80.8993 37.2923 80.7838 37.1273 80.5528 37.02C80.33 36.9045 79.9711 36.7808 79.476 36.6487C78.9645 36.525 78.5437 36.3971 78.2136 36.2651C77.8918 36.1331 77.6113 35.9309 77.372 35.6586C77.141 35.3863 77.0255 35.0192 77.0255 34.5571C77.0255 34.1776 77.1328 33.831 77.3473 33.5175C77.5701 33.2039 77.8836 32.9564 78.2879 32.7749C78.7004 32.5934 79.1831 32.5026 79.7359 32.5026C80.5528 32.5026 81.2046 32.7089 81.6914 33.1214C82.1782 33.5257 82.4464 34.0744 82.4959 34.7675H80.8375C80.8127 34.4952 80.6972 34.2807 80.4909 34.1239C80.2929 33.9589 80.0247 33.8764 79.6864 33.8764C79.3729 33.8764 79.1295 33.9342 78.9562 34.0497C78.7912 34.1652 78.7087 34.3261 78.7087 34.5324C78.7087 34.7634 78.8242 34.9408 79.0552 35.0645C79.2863 35.1801 79.6452 35.2997 80.132 35.4235C80.6271 35.5472 81.0355 35.6751 81.3573 35.8071C81.6791 35.9392 81.9555 36.1454 82.1865 36.426C82.4258 36.6982 82.5495 37.0613 82.5578 37.5151C82.5578 37.9111 82.4464 38.2659 82.2236 38.5795C82.0091 38.893 81.6956 39.1405 81.283 39.3221C80.8787 39.4953 80.4043 39.582 79.8597 39.582ZM91.3847 39.4706L89.4788 36.1042H88.6619V39.4706H86.9292V30.8318H90.1718C90.8402 30.8318 91.4095 30.9514 91.8798 31.1907C92.3501 31.4217 92.7008 31.7394 92.9318 32.1437C93.1711 32.5397 93.2907 32.9853 93.2907 33.4804C93.2907 34.0497 93.1257 34.5654 92.7957 35.0274C92.4656 35.4812 91.9747 35.7948 91.3229 35.968L93.3897 39.4706H91.3847ZM88.6619 34.8046H90.11C90.5803 34.8046 90.9309 34.6933 91.162 34.4705C91.393 34.2394 91.5085 33.9218 91.5085 33.5175C91.5085 33.1214 91.393 32.8161 91.162 32.6016C90.9309 32.3788 90.5803 32.2675 90.11 32.2675H88.6619V34.8046ZM101.232 35.8938C101.232 36.1413 101.215 36.3641 101.182 36.5621H96.1698C96.2111 37.0572 96.3843 37.445 96.6896 37.7255C96.9949 38.006 97.3703 38.1463 97.8159 38.1463C98.4595 38.1463 98.9174 37.8699 99.1897 37.3171H101.059C100.861 37.9771 100.481 38.5217 99.9199 38.9508C99.3588 39.3716 98.6699 39.582 97.853 39.582C97.1929 39.582 96.5989 39.4376 96.0708 39.1488C95.551 38.8518 95.1426 38.4351 94.8455 37.8988C94.5567 37.3625 94.4123 36.7436 94.4123 36.0423C94.4123 35.3327 94.5567 34.7098 94.8455 34.1734C95.1343 33.6371 95.5386 33.2246 96.0584 32.9358C96.5782 32.647 97.1764 32.5026 97.853 32.5026C98.5048 32.5026 99.0865 32.6429 99.5981 32.9234C100.118 33.2039 100.518 33.6041 100.799 34.1239C101.087 34.6355 101.232 35.2254 101.232 35.8938ZM99.4372 35.3987C99.429 34.9532 99.2681 34.5984 98.9545 34.3343C98.641 34.062 98.2573 33.9259 97.8035 33.9259C97.3745 33.9259 97.0114 34.0579 96.7144 34.322C96.4256 34.5777 96.2482 34.9367 96.1822 35.3987H99.4372ZM102.051 36.0175C102.051 35.3245 102.187 34.7098 102.459 34.1734C102.74 33.6371 103.115 33.2246 103.586 32.9358C104.064 32.647 104.596 32.5026 105.182 32.5026C105.694 32.5026 106.139 32.6057 106.519 32.812C106.907 33.0183 107.216 33.2782 107.447 33.5917V32.614H109.192V39.4706H107.447V38.4681C107.224 38.7899 106.915 39.058 106.519 39.2726C106.131 39.4788 105.681 39.582 105.17 39.582C104.592 39.582 104.064 39.4335 103.586 39.1364C103.115 38.8394 102.74 38.4227 102.459 37.8864C102.187 37.3418 102.051 36.7189 102.051 36.0175ZM107.447 36.0423C107.447 35.6215 107.365 35.2626 107.2 34.9655C107.035 34.6602 106.812 34.4292 106.531 34.2725C106.251 34.1074 105.95 34.0249 105.628 34.0249C105.306 34.0249 105.009 34.1033 104.737 34.2601C104.464 34.4168 104.242 34.6479 104.068 34.9532C103.903 35.2502 103.821 35.605 103.821 36.0175C103.821 36.4301 103.903 36.7931 104.068 37.1067C104.242 37.412 104.464 37.6471 104.737 37.8121C105.017 37.9771 105.314 38.0597 105.628 38.0597C105.95 38.0597 106.251 37.9813 106.531 37.8245C106.812 37.6595 107.035 37.4285 107.2 37.1314C107.365 36.8261 107.447 36.4631 107.447 36.0423ZM112.617 30.312V39.4706H110.885V30.312H112.617ZM115.208 31.7972C114.903 31.7972 114.647 31.7023 114.441 31.5125C114.243 31.3145 114.143 31.0711 114.143 30.7823C114.143 30.4935 114.243 30.2542 114.441 30.0644C114.647 29.8664 114.903 29.7674 115.208 29.7674C115.513 29.7674 115.765 29.8664 115.963 30.0644C116.169 30.2542 116.272 30.4935 116.272 30.7823C116.272 31.0711 116.169 31.3145 115.963 31.5125C115.765 31.7023 115.513 31.7972 115.208 31.7972ZM116.062 32.614V39.4706H114.329V32.614H116.062ZM119.791 34.0373V37.3542C119.791 37.5852 119.845 37.7544 119.952 37.8616C120.068 37.9606 120.257 38.0102 120.521 38.0102H121.326V39.4706H120.237C118.776 39.4706 118.046 38.761 118.046 37.3418V34.0373H117.229V32.614H118.046V30.9184H119.791V32.614H121.326V34.0373H119.791ZM129.132 32.614L124.886 42.7132H123.042L124.528 39.2973L121.78 32.614H123.723L125.493 37.4037L127.288 32.614H129.132Z" fill="#05004E"/>
<path d="M32.8813 142.021V145.208C32.8813 145.563 32.772 145.848 32.5534 146.062C32.3347 146.272 32.0459 146.378 31.687 146.378C31.324 146.378 31.0331 146.27 30.8145 146.056C30.5958 145.837 30.4865 145.54 30.4865 145.165H31.0496C31.0537 145.375 31.1074 145.546 31.2105 145.678C31.3178 145.81 31.4766 145.876 31.687 145.876C31.8974 145.876 32.0542 145.815 32.1573 145.691C32.2604 145.563 32.312 145.402 32.312 145.208V142.021H32.8813ZM33.7803 144.626C33.7803 144.28 33.8505 143.977 33.9907 143.717C34.131 143.453 34.3228 143.248 34.5662 143.104C34.8138 142.96 35.0881 142.887 35.3893 142.887C35.6863 142.887 35.9441 142.951 36.1628 143.079C36.3814 143.207 36.5444 143.368 36.6517 143.562V142.943H37.221V146.334H36.6517V145.703C36.5403 145.901 36.3732 146.066 36.1504 146.198C35.9318 146.326 35.676 146.39 35.3831 146.39C35.0819 146.39 34.8096 146.316 34.5662 146.167C34.3228 146.019 34.131 145.81 33.9907 145.542C33.8505 145.274 33.7803 144.969 33.7803 144.626ZM36.6517 144.633C36.6517 144.377 36.6001 144.154 36.497 143.964C36.3938 143.774 36.2536 143.63 36.0762 143.531C35.9029 143.428 35.7111 143.376 35.5007 143.376C35.2903 143.376 35.0984 143.426 34.9251 143.525C34.7519 143.624 34.6137 143.768 34.5105 143.958C34.4074 144.148 34.3558 144.371 34.3558 144.626C34.3558 144.886 34.4074 145.113 34.5105 145.307C34.6137 145.497 34.7519 145.643 34.9251 145.746C35.0984 145.845 35.2903 145.895 35.5007 145.895C35.7111 145.895 35.9029 145.845 36.0762 145.746C36.2536 145.643 36.3938 145.497 36.497 145.307C36.6001 145.113 36.6517 144.888 36.6517 144.633ZM39.8249 142.881C40.2374 142.881 40.5716 143.007 40.8274 143.259C41.0832 143.506 41.2111 143.865 41.2111 144.336V146.334H40.6541V144.416C40.6541 144.078 40.5695 143.82 40.4004 143.642C40.2312 143.461 40.0002 143.37 39.7073 143.37C39.4103 143.37 39.1731 143.463 38.9957 143.649C38.8224 143.834 38.7358 144.105 38.7358 144.459V146.334H38.1726V142.943H38.7358V143.426C38.8471 143.253 38.9977 143.119 39.1875 143.024C39.3814 142.929 39.5939 142.881 39.8249 142.881Z" fill="#7B91B0"/>
<rect x="37.0396" y="71.2067" width="9.9012" height="63.1768" rx="2.4753" fill="#FFCF00"/>
<rect x="24.6631" y="85.6971" width="9.9012" height="48.6867" rx="2.4753" fill="#4AB58E"/>
<path d="M64.0885 142.021V142.479H62.2135V143.933H63.7358V144.391H62.2135V146.334H61.6504V142.021H64.0885ZM67.8628 144.509C67.8628 144.616 67.8566 144.729 67.8442 144.849H65.1338C65.1544 145.183 65.2678 145.445 65.4741 145.635C65.6845 145.821 65.9382 145.913 66.2353 145.913C66.4787 145.913 66.6808 145.858 66.8417 145.746C67.0067 145.631 67.1223 145.478 67.1883 145.288H67.7947C67.7039 145.614 67.5224 145.88 67.2501 146.087C66.9779 146.289 66.6396 146.39 66.2353 146.39C65.9135 146.39 65.6247 146.318 65.3689 146.173C65.1173 146.029 64.9192 145.825 64.7748 145.561C64.6304 145.293 64.5583 144.983 64.5583 144.632C64.5583 144.282 64.6284 143.974 64.7687 143.71C64.9089 143.446 65.1049 143.244 65.3565 143.104C65.6123 142.96 65.9052 142.887 66.2353 142.887C66.5571 142.887 66.8417 142.958 67.0892 143.098C67.3368 143.238 67.5265 143.432 67.6586 143.679C67.7947 143.923 67.8628 144.199 67.8628 144.509ZM67.2811 144.391C67.2811 144.177 67.2336 143.993 67.1388 143.84C67.0439 143.684 66.9139 143.566 66.7489 143.488C66.588 143.405 66.4085 143.364 66.2105 143.364C65.9259 143.364 65.6825 143.455 65.4803 143.636C65.2823 143.818 65.1688 144.069 65.1399 144.391H67.2811ZM69.1692 143.574C69.2847 143.372 69.4539 143.207 69.6767 143.079C69.8994 142.951 70.1532 142.887 70.4378 142.887C70.7431 142.887 71.0174 142.96 71.2609 143.104C71.5043 143.248 71.6961 143.453 71.8364 143.717C71.9766 143.977 72.0468 144.28 72.0468 144.626C72.0468 144.969 71.9766 145.274 71.8364 145.542C71.6961 145.81 71.5022 146.019 71.2547 146.167C71.0113 146.316 70.739 146.39 70.4378 146.39C70.1449 146.39 69.8871 146.326 69.6643 146.198C69.4456 146.07 69.2806 145.907 69.1692 145.709V146.334H68.6061V141.755H69.1692V143.574ZM71.4713 144.626C71.4713 144.37 71.4197 144.148 71.3165 143.958C71.2134 143.768 71.0731 143.624 70.8957 143.525C70.7225 143.426 70.5306 143.376 70.3202 143.376C70.114 143.376 69.9221 143.428 69.7447 143.531C69.5715 143.63 69.4312 143.776 69.3239 143.97C69.2208 144.16 69.1692 144.381 69.1692 144.632C69.1692 144.888 69.2208 145.113 69.3239 145.307C69.4312 145.497 69.5715 145.643 69.7447 145.746C69.9221 145.845 70.114 145.895 70.3202 145.895C70.5306 145.895 70.7225 145.845 70.8957 145.746C71.0731 145.643 71.2134 145.497 71.3165 145.307C71.4197 145.113 71.4713 144.886 71.4713 144.626Z" fill="#7B91B0"/>
<rect x="67.9805" y="77.0029" width="9.9012" height="57.3808" rx="2.4753" fill="#FFCF00"/>
<rect x="55.604" y="92.0723" width="9.9012" height="42.3111" rx="2.4753" fill="#4AB58E"/>
<path d="M96.9675 142.052V146.334H96.4044V143.141L94.9811 146.334H94.585L93.1555 143.135V146.334H92.5924V142.052H93.1988L94.783 145.591L96.3672 142.052H96.9675ZM97.7121 144.626C97.7121 144.279 97.7822 143.976 97.9225 143.716C98.0628 143.452 98.2546 143.248 98.498 143.104C98.7456 142.959 99.0199 142.887 99.3211 142.887C99.6181 142.887 99.8759 142.951 100.095 143.079C100.313 143.207 100.476 143.368 100.583 143.562V142.943H101.153V146.334H100.583V145.703C100.472 145.901 100.305 146.066 100.082 146.198C99.8636 146.326 99.6078 146.39 99.3149 146.39C99.0137 146.39 98.7414 146.315 98.498 146.167C98.2546 146.018 98.0628 145.81 97.9225 145.542C97.7822 145.274 97.7121 144.968 97.7121 144.626ZM100.583 144.632C100.583 144.376 100.532 144.154 100.429 143.964C100.326 143.774 100.185 143.63 100.008 143.531C99.8347 143.428 99.6428 143.376 99.4324 143.376C99.222 143.376 99.0302 143.426 98.8569 143.525C98.6837 143.624 98.5455 143.768 98.4423 143.958C98.3392 144.147 98.2876 144.37 98.2876 144.626C98.2876 144.886 98.3392 145.113 98.4423 145.307C98.5455 145.497 98.6837 145.643 98.8569 145.746C99.0302 145.845 99.222 145.895 99.4324 145.895C99.6428 145.895 99.8347 145.845 100.008 145.746C100.185 145.643 100.326 145.497 100.429 145.307C100.532 145.113 100.583 144.888 100.583 144.632ZM102.668 143.494C102.767 143.3 102.907 143.149 103.088 143.042C103.274 142.935 103.499 142.881 103.763 142.881V143.463H103.614C102.983 143.463 102.668 143.805 102.668 144.49V146.334H102.104V142.943H102.668V143.494Z" fill="#7B91B0"/>
<rect x="98.9234" y="62.5121" width="9.9012" height="71.8709" rx="2.4753" fill="#FFCF00"/>
<rect x="86.5469" y="98.4475" width="9.9012" height="35.9354" rx="2.4753" fill="#4AB58E"/>
<path d="M126.083 145.375H124.202L123.855 146.334H123.261L124.821 142.046H125.47L127.024 146.334H126.43L126.083 145.375ZM125.922 144.917L125.142 142.739L124.363 144.917H125.922ZM128.266 143.568C128.378 143.374 128.543 143.213 128.762 143.085C128.984 142.953 129.242 142.887 129.535 142.887C129.836 142.887 130.108 142.96 130.352 143.104C130.599 143.248 130.793 143.453 130.934 143.717C131.074 143.977 131.144 144.28 131.144 144.626C131.144 144.969 131.074 145.274 130.934 145.542C130.793 145.81 130.599 146.019 130.352 146.167C130.108 146.316 129.836 146.39 129.535 146.39C129.246 146.39 128.99 146.326 128.768 146.198C128.549 146.066 128.382 145.903 128.266 145.709V147.943H127.703V142.943H128.266V143.568ZM130.568 144.626C130.568 144.37 130.517 144.148 130.414 143.958C130.311 143.768 130.17 143.624 129.993 143.525C129.82 143.426 129.628 143.376 129.417 143.376C129.211 143.376 129.019 143.428 128.842 143.531C128.669 143.63 128.528 143.776 128.421 143.97C128.318 144.16 128.266 144.381 128.266 144.632C128.266 144.888 128.318 145.113 128.421 145.307C128.528 145.497 128.669 145.643 128.842 145.746C129.019 145.845 129.211 145.895 129.417 145.895C129.628 145.895 129.82 145.845 129.993 145.746C130.17 145.643 130.311 145.497 130.414 145.307C130.517 145.113 130.568 144.886 130.568 144.626ZM132.448 143.494C132.547 143.3 132.688 143.149 132.869 143.042C133.055 142.935 133.28 142.881 133.544 142.881V143.463H133.395C132.764 143.463 132.448 143.805 132.448 144.49V146.334H131.885V142.943H132.448V143.494Z" fill="#7B91B0"/>
<rect x="128.627" y="77.0029" width="9.9012" height="57.3808" rx="2.4753" fill="#FFCF00"/>
<rect x="117.488" y="85.6967" width="9.9012" height="48.6867" rx="2.4753" fill="#4AB58E"/>
<path d="M156.993 142.052V146.335H156.43V143.141L155.007 146.335H154.61L153.181 143.135V146.335H152.618V142.052H153.224L154.808 145.592L156.393 142.052H156.993ZM157.738 144.627C157.738 144.28 157.808 143.977 157.948 143.717C158.088 143.453 158.28 143.249 158.523 143.104C158.771 142.96 159.045 142.888 159.347 142.888C159.644 142.888 159.901 142.952 160.12 143.08C160.339 143.207 160.502 143.368 160.609 143.562V142.943H161.178V146.335H160.609V145.703C160.498 145.901 160.33 146.066 160.108 146.198C159.889 146.326 159.633 146.39 159.34 146.39C159.039 146.39 158.767 146.316 158.523 146.168C158.28 146.019 158.088 145.811 157.948 145.542C157.808 145.274 157.738 144.969 157.738 144.627ZM160.609 144.633C160.609 144.377 160.557 144.154 160.454 143.964C160.351 143.775 160.211 143.63 160.033 143.531C159.86 143.428 159.668 143.377 159.458 143.377C159.247 143.377 159.056 143.426 158.882 143.525C158.709 143.624 158.571 143.769 158.468 143.958C158.365 144.148 158.313 144.371 158.313 144.627C158.313 144.887 158.365 145.113 158.468 145.307C158.571 145.497 158.709 145.644 158.882 145.747C159.056 145.846 159.247 145.895 159.458 145.895C159.668 145.895 159.86 145.846 160.033 145.747C160.211 145.644 160.351 145.497 160.454 145.307C160.557 145.113 160.609 144.889 160.609 144.633ZM165.051 142.943L163.009 147.931H162.427L163.095 146.297L161.728 142.943H162.353L163.417 145.691L164.469 142.943H165.051Z" fill="#7B91B0"/>
<rect x="159.567" y="52.0802" width="9.9012" height="82.3037" rx="2.4753" fill="#FFCF00"/>
<rect x="147.191" y="75.2644" width="9.9012" height="59.1196" rx="2.4753" fill="#4AB58E"/>
<path d="M184.493 142.021V145.208C184.493 145.563 184.384 145.848 184.165 146.062C183.947 146.273 183.658 146.378 183.299 146.378C182.936 146.378 182.645 146.271 182.426 146.056C182.208 145.837 182.099 145.54 182.099 145.165H182.662C182.666 145.375 182.719 145.547 182.823 145.679C182.93 145.811 183.089 145.877 183.299 145.877C183.509 145.877 183.666 145.815 183.769 145.691C183.872 145.563 183.924 145.402 183.924 145.208V142.021H184.493ZM188.61 142.943V146.335H188.047V145.833C187.94 146.007 187.789 146.143 187.595 146.242C187.406 146.337 187.195 146.384 186.964 146.384C186.7 146.384 186.463 146.33 186.253 146.223C186.042 146.112 185.875 145.947 185.751 145.728C185.632 145.509 185.572 145.243 185.572 144.93V142.943H186.129V144.856C186.129 145.19 186.213 145.448 186.382 145.629C186.552 145.807 186.783 145.895 187.076 145.895C187.377 145.895 187.614 145.802 187.787 145.617C187.96 145.431 188.047 145.161 188.047 144.806V142.943H188.61ZM191.213 142.882C191.626 142.882 191.96 143.007 192.216 143.259C192.472 143.507 192.599 143.865 192.599 144.336V146.335H192.043V144.416C192.043 144.078 191.958 143.82 191.789 143.643C191.62 143.461 191.389 143.37 191.096 143.37C190.799 143.37 190.561 143.463 190.384 143.649C190.211 143.835 190.124 144.105 190.124 144.46V146.335H189.561V142.943H190.124V143.426C190.236 143.253 190.386 143.119 190.576 143.024C190.77 142.929 190.982 142.882 191.213 142.882ZM196.613 144.509C196.613 144.616 196.607 144.73 196.595 144.849H193.884C193.905 145.184 194.019 145.446 194.225 145.635C194.435 145.821 194.689 145.914 194.986 145.914C195.229 145.914 195.432 145.858 195.592 145.747C195.757 145.631 195.873 145.479 195.939 145.289H196.545C196.455 145.615 196.273 145.881 196.001 146.087C195.729 146.289 195.39 146.39 194.986 146.39C194.664 146.39 194.375 146.318 194.12 146.174C193.868 146.029 193.67 145.825 193.526 145.561C193.381 145.293 193.309 144.983 193.309 144.633C193.309 144.282 193.379 143.975 193.519 143.711C193.66 143.447 193.856 143.245 194.107 143.104C194.363 142.96 194.656 142.888 194.986 142.888C195.308 142.888 195.592 142.958 195.84 143.098C196.087 143.238 196.277 143.432 196.409 143.68C196.545 143.923 196.613 144.2 196.613 144.509ZM196.032 144.391C196.032 144.177 195.984 143.993 195.889 143.841C195.795 143.684 195.665 143.566 195.5 143.488C195.339 143.405 195.159 143.364 194.961 143.364C194.677 143.364 194.433 143.455 194.231 143.637C194.033 143.818 193.92 144.07 193.891 144.391H196.032Z" fill="#7B91B0"/>
<rect x="190.508" y="52.0803" width="9.9012" height="82.3037" rx="2.4753" fill="#FFCF00"/>
<rect x="178.131" y="75.2645" width="9.9012" height="59.1196" rx="2.4753" fill="#4AB58E"/>
<path d="M216.673 142.021V145.208C216.673 145.563 216.564 145.848 216.345 146.062C216.126 146.273 215.838 146.378 215.479 146.378C215.116 146.378 214.825 146.271 214.606 146.056C214.388 145.837 214.278 145.54 214.278 145.165H214.841C214.845 145.375 214.899 145.547 215.002 145.679C215.109 145.811 215.268 145.877 215.479 145.877C215.689 145.877 215.846 145.815 215.949 145.691C216.052 145.563 216.104 145.402 216.104 145.208V142.021H216.673ZM220.79 142.943V146.334H220.227V145.833C220.12 146.006 219.969 146.143 219.775 146.242C219.585 146.337 219.375 146.384 219.144 146.384C218.88 146.384 218.643 146.33 218.432 146.223C218.222 146.112 218.055 145.947 217.931 145.728C217.811 145.509 217.751 145.243 217.751 144.93V142.943H218.308V144.855C218.308 145.19 218.393 145.447 218.562 145.629C218.731 145.806 218.962 145.895 219.255 145.895C219.556 145.895 219.794 145.802 219.967 145.617C220.14 145.431 220.227 145.161 220.227 144.806V142.943H220.79ZM222.304 141.755V146.334H221.741V141.755H222.304ZM226.184 142.943L224.142 147.931H223.561L224.229 146.297L222.861 142.943H223.486L224.551 145.691L225.603 142.943H226.184Z" fill="#7B91B0"/>
<rect x="221.451" y="52.0802" width="9.9012" height="82.3037" rx="2.4753" fill="#FFCF00"/>
<rect x="209.074" y="75.2644" width="9.9012" height="59.1196" rx="2.4753" fill="#4AB58E"/>
<path d="M148.875 171.024C148.274 170.723 147.974 170.25 147.974 169.603C147.974 169.291 148.051 169.005 148.207 168.745C148.363 168.485 148.597 168.28 148.909 168.13C149.221 167.974 149.602 167.896 150.053 167.896C150.497 167.896 150.876 167.974 151.188 168.13C151.505 168.28 151.742 168.485 151.898 168.745C152.054 169.005 152.132 169.291 152.132 169.603C152.132 169.926 152.048 170.212 151.881 170.461C151.719 170.703 151.502 170.891 151.231 171.024C151.56 171.145 151.82 171.344 152.011 171.622C152.201 171.893 152.297 172.214 152.297 172.583C152.297 172.959 152.201 173.291 152.011 173.58C151.82 173.868 151.554 174.091 151.214 174.247C150.873 174.403 150.486 174.481 150.053 174.481C149.62 174.481 149.233 174.403 148.892 174.247C148.557 174.091 148.294 173.868 148.103 173.58C147.913 173.291 147.818 172.959 147.818 172.583C147.818 172.208 147.913 171.884 148.103 171.613C148.294 171.341 148.551 171.145 148.875 171.024ZM151.188 169.724C151.188 169.401 151.087 169.152 150.884 168.979C150.682 168.806 150.405 168.719 150.053 168.719C149.706 168.719 149.432 168.806 149.23 168.979C149.028 169.152 148.927 169.404 148.927 169.733C148.927 170.022 149.03 170.258 149.238 170.443C149.452 170.622 149.724 170.712 150.053 170.712C150.382 170.712 150.653 170.619 150.867 170.435C151.081 170.25 151.188 170.013 151.188 169.724ZM150.053 171.457C149.672 171.457 149.36 171.552 149.117 171.743C148.88 171.928 148.762 172.196 148.762 172.549C148.762 172.878 148.877 173.146 149.108 173.354C149.339 173.556 149.654 173.657 150.053 173.657C150.446 173.657 150.755 173.554 150.98 173.346C151.211 173.138 151.326 172.872 151.326 172.549C151.326 172.202 151.208 171.933 150.971 171.743C150.74 171.552 150.434 171.457 150.053 171.457ZM153.862 174.385C153.683 174.385 153.533 174.325 153.412 174.203C153.29 174.082 153.23 173.932 153.23 173.753C153.23 173.574 153.29 173.424 153.412 173.302C153.533 173.181 153.683 173.12 153.862 173.12C154.035 173.12 154.183 173.181 154.304 173.302C154.425 173.424 154.486 173.574 154.486 173.753C154.486 173.932 154.425 174.082 154.304 174.203C154.183 174.325 154.035 174.385 153.862 174.385ZM156.489 171.024C155.888 170.723 155.588 170.25 155.588 169.603C155.588 169.291 155.666 169.005 155.822 168.745C155.978 168.485 156.212 168.28 156.524 168.13C156.836 167.974 157.217 167.896 157.667 167.896C158.112 167.896 158.49 167.974 158.802 168.13C159.12 168.28 159.357 168.485 159.513 168.745C159.668 169.005 159.746 169.291 159.746 169.603C159.746 169.926 159.663 170.212 159.495 170.461C159.334 170.703 159.117 170.891 158.845 171.024C159.175 171.145 159.435 171.344 159.625 171.622C159.816 171.893 159.911 172.214 159.911 172.583C159.911 172.959 159.816 173.291 159.625 173.58C159.435 173.868 159.169 174.091 158.828 174.247C158.487 174.403 158.1 174.481 157.667 174.481C157.234 174.481 156.847 174.403 156.506 174.247C156.171 174.091 155.909 173.868 155.718 173.58C155.527 173.291 155.432 172.959 155.432 172.583C155.432 172.208 155.527 171.884 155.718 171.613C155.909 171.341 156.166 171.145 156.489 171.024ZM158.802 169.724C158.802 169.401 158.701 169.152 158.499 168.979C158.297 168.806 158.02 168.719 157.667 168.719C157.321 168.719 157.046 168.806 156.844 168.979C156.642 169.152 156.541 169.404 156.541 169.733C156.541 170.022 156.645 170.258 156.853 170.443C157.067 170.622 157.338 170.712 157.667 170.712C157.996 170.712 158.268 170.619 158.482 170.435C158.695 170.25 158.802 170.013 158.802 169.724ZM157.667 171.457C157.286 171.457 156.974 171.552 156.732 171.743C156.495 171.928 156.376 172.196 156.376 172.549C156.376 172.878 156.492 173.146 156.723 173.354C156.954 173.556 157.269 173.657 157.667 173.657C158.06 173.657 158.369 173.554 158.594 173.346C158.825 173.138 158.941 172.872 158.941 172.549C158.941 172.202 158.822 171.933 158.586 171.743C158.355 171.552 158.048 171.457 157.667 171.457ZM161.494 172.982C162.048 172.502 162.484 172.11 162.802 171.803C163.126 171.492 163.394 171.168 163.608 170.833C163.821 170.498 163.928 170.163 163.928 169.828C163.928 169.482 163.845 169.21 163.677 169.014C163.515 168.817 163.258 168.719 162.906 168.719C162.565 168.719 162.3 168.829 162.109 169.048C161.924 169.262 161.826 169.551 161.814 169.915H160.861C160.879 169.256 161.075 168.754 161.451 168.407C161.832 168.055 162.314 167.879 162.897 167.879C163.527 167.879 164.018 168.052 164.37 168.399C164.728 168.745 164.907 169.207 164.907 169.785C164.907 170.201 164.8 170.602 164.587 170.989C164.379 171.37 164.128 171.714 163.833 172.02C163.544 172.32 163.175 172.67 162.724 173.068L162.334 173.415H165.081V174.238H160.87V173.519L161.494 172.982ZM165.931 169.568C165.966 169.031 166.171 168.612 166.546 168.312C166.927 168.012 167.412 167.862 168.001 167.862C168.406 167.862 168.755 167.934 169.05 168.078C169.344 168.223 169.567 168.419 169.717 168.667C169.867 168.916 169.942 169.196 169.942 169.508C169.942 169.866 169.847 170.172 169.656 170.426C169.466 170.68 169.237 170.851 168.972 170.937V170.972C169.313 171.076 169.578 171.266 169.769 171.544C169.959 171.815 170.055 172.164 170.055 172.592C170.055 172.933 169.977 173.236 169.821 173.502C169.665 173.767 169.434 173.978 169.128 174.134C168.822 174.284 168.455 174.359 168.027 174.359C167.404 174.359 166.89 174.2 166.485 173.883C166.087 173.559 165.873 173.097 165.844 172.497H166.797C166.82 172.803 166.939 173.054 167.152 173.25C167.366 173.441 167.655 173.536 168.019 173.536C168.371 173.536 168.643 173.441 168.833 173.25C169.024 173.054 169.119 172.803 169.119 172.497C169.119 172.092 168.989 171.806 168.729 171.639C168.475 171.466 168.082 171.379 167.551 171.379H167.326V170.565H167.56C168.027 170.559 168.383 170.481 168.625 170.331C168.874 170.181 168.998 169.944 168.998 169.62C168.998 169.343 168.908 169.124 168.729 168.962C168.55 168.794 168.296 168.711 167.967 168.711C167.643 168.711 167.392 168.794 167.213 168.962C167.034 169.124 166.927 169.326 166.893 169.568H165.931Z" fill="#27AE60"/>
<path d="M56.3154 168.992L55.1718 166.972H54.6817V168.992H53.6421V163.809H55.5876C55.9886 163.809 56.3302 163.881 56.6124 164.024C56.8946 164.163 57.105 164.353 57.2436 164.596C57.3872 164.834 57.459 165.101 57.459 165.398C57.459 165.74 57.36 166.049 57.1619 166.326C56.9639 166.598 56.6693 166.787 56.2783 166.891L57.5184 168.992H56.3154ZM54.6817 166.193H55.5505C55.8327 166.193 56.0431 166.126 56.1817 165.992C56.3203 165.853 56.3896 165.663 56.3896 165.42C56.3896 165.183 56.3203 164.999 56.1817 164.871C56.0431 164.737 55.8327 164.67 55.5505 164.67H54.6817V166.193ZM62.2236 166.846C62.2236 166.994 62.2137 167.128 62.1939 167.247H59.1864C59.2112 167.544 59.3151 167.777 59.4983 167.945C59.6815 168.113 59.9067 168.197 60.1741 168.197C60.5602 168.197 60.835 168.032 60.9983 167.7H62.1197C62.0008 168.096 61.7731 168.423 61.4365 168.68C61.0998 168.933 60.6865 169.059 60.1963 169.059C59.8003 169.059 59.4439 168.972 59.127 168.799C58.8151 168.621 58.5701 168.371 58.3918 168.049C58.2186 167.727 58.1319 167.356 58.1319 166.935C58.1319 166.509 58.2186 166.136 58.3918 165.814C58.5651 165.492 58.8077 165.244 59.1196 165.071C59.4315 164.898 59.7904 164.811 60.1963 164.811C60.5874 164.811 60.9365 164.895 61.2434 165.064C61.5553 165.232 61.7954 165.472 61.9637 165.784C62.137 166.091 62.2236 166.445 62.2236 166.846ZM61.1469 166.549C61.1419 166.282 61.0454 166.069 60.8572 165.91C60.6691 165.747 60.4389 165.665 60.1666 165.665C59.9092 165.665 59.6914 165.744 59.5132 165.903C59.3399 166.056 59.2335 166.272 59.1938 166.549H61.1469ZM62.7151 166.92C62.7151 166.504 62.7968 166.136 62.9602 165.814C63.1285 165.492 63.3537 165.244 63.6359 165.071C63.9231 164.898 64.2424 164.811 64.5939 164.811C64.9008 164.811 65.1681 164.873 65.3959 164.997C65.6285 165.121 65.8142 165.277 65.9528 165.465V164.878H66.9999V168.992H65.9528V168.391C65.8191 168.584 65.6335 168.745 65.3959 168.873C65.1632 168.997 64.8934 169.059 64.5864 169.059C64.2399 169.059 63.9231 168.97 63.6359 168.792C63.3537 168.613 63.1285 168.363 62.9602 168.042C62.7968 167.715 62.7151 167.341 62.7151 166.92ZM65.9528 166.935C65.9528 166.683 65.9033 166.467 65.8043 166.289C65.7053 166.106 65.5716 165.967 65.4033 165.873C65.235 165.774 65.0543 165.725 64.8612 165.725C64.6681 165.725 64.4899 165.772 64.3265 165.866C64.1632 165.96 64.0295 166.098 63.9255 166.282C63.8265 166.46 63.777 166.673 63.777 166.92C63.777 167.168 63.8265 167.386 63.9255 167.574C64.0295 167.757 64.1632 167.898 64.3265 167.997C64.4949 168.096 64.6731 168.146 64.8612 168.146C65.0543 168.146 65.235 168.098 65.4033 168.004C65.5716 167.905 65.7053 167.767 65.8043 167.589C65.9033 167.405 65.9528 167.188 65.9528 166.935ZM69.0549 163.497V168.992H68.0152V163.497H69.0549ZM70.6093 164.388C70.4261 164.388 70.2726 164.331 70.1488 164.217C70.03 164.098 69.9706 163.952 69.9706 163.779C69.9706 163.606 70.03 163.462 70.1488 163.348C70.2726 163.23 70.4261 163.17 70.6093 163.17C70.7924 163.17 70.9434 163.23 71.0622 163.348C71.186 163.462 71.2479 163.606 71.2479 163.779C71.2479 163.952 71.186 164.098 71.0622 164.217C70.9434 164.331 70.7924 164.388 70.6093 164.388ZM71.1216 164.878V168.992H70.082V164.878H71.1216ZM73.3592 165.732V167.722C73.3592 167.861 73.3914 167.962 73.4558 168.027C73.5251 168.086 73.6389 168.116 73.7973 168.116H74.28V168.992H73.6265C72.7503 168.992 72.3122 168.566 72.3122 167.715V165.732H71.8221V164.878H72.3122V163.861H73.3592V164.878H74.28V165.732H73.3592ZM78.9635 164.878L76.4164 170.938H75.31L76.2011 168.888L74.5525 164.878H75.7184L76.7803 167.752L77.857 164.878H78.9635ZM83.083 169.044C82.7216 169.044 82.3949 168.982 82.1028 168.858C81.8157 168.735 81.5879 168.556 81.4196 168.324C81.2513 168.091 81.1647 167.816 81.1597 167.499H82.2736C82.2885 167.712 82.3627 167.881 82.4964 168.004C82.635 168.128 82.8231 168.19 83.0607 168.19C83.3033 168.19 83.4939 168.133 83.6325 168.019C83.7712 167.9 83.8405 167.747 83.8405 167.559C83.8405 167.405 83.7934 167.279 83.6994 167.18C83.6053 167.081 83.4865 167.004 83.3429 166.95C83.2043 166.891 83.0112 166.826 82.7637 166.757C82.4271 166.658 82.1523 166.561 81.9394 166.467C81.7315 166.368 81.5508 166.222 81.3973 166.029C81.2488 165.831 81.1746 165.569 81.1746 165.242C81.1746 164.935 81.2513 164.668 81.4048 164.44C81.5582 164.212 81.7736 164.039 82.0508 163.92C82.3281 163.796 82.6449 163.735 83.0013 163.735C83.536 163.735 83.9692 163.866 84.3009 164.128C84.6375 164.386 84.8232 164.747 84.8578 165.212H83.7142C83.7043 165.034 83.6276 164.888 83.484 164.774C83.3454 164.655 83.1598 164.596 82.9271 164.596C82.7241 164.596 82.5607 164.648 82.437 164.752C82.3182 164.856 82.2588 165.007 82.2588 165.205C82.2588 165.343 82.3033 165.46 82.3924 165.554C82.4865 165.643 82.6003 165.717 82.734 165.777C82.8726 165.831 83.0657 165.895 83.3132 165.97C83.6499 166.069 83.9246 166.168 84.1375 166.267C84.3504 166.366 84.5336 166.514 84.687 166.712C84.8405 166.91 84.9172 167.17 84.9172 167.492C84.9172 167.769 84.8454 168.027 84.7019 168.264C84.5583 168.502 84.3479 168.693 84.0707 168.836C83.7934 168.975 83.4642 169.044 83.083 169.044ZM85.5512 166.92C85.5512 166.504 85.6329 166.136 85.7963 165.814C85.9646 165.492 86.1898 165.244 86.472 165.071C86.7592 164.898 87.0785 164.811 87.43 164.811C87.7369 164.811 88.0042 164.873 88.232 164.997C88.4646 165.121 88.6503 165.277 88.7889 165.465V164.878H89.836V168.992H88.7889V168.391C88.6552 168.584 88.4696 168.745 88.232 168.873C87.9993 168.997 87.7295 169.059 87.4225 169.059C87.076 169.059 86.7592 168.97 86.472 168.792C86.1898 168.613 85.9646 168.363 85.7963 168.042C85.6329 167.715 85.5512 167.341 85.5512 166.92ZM88.7889 166.935C88.7889 166.683 88.7394 166.467 88.6404 166.289C88.5414 166.106 88.4077 165.967 88.2394 165.873C88.0711 165.774 87.8904 165.725 87.6973 165.725C87.5042 165.725 87.326 165.772 87.1626 165.866C86.9993 165.96 86.8656 166.098 86.7616 166.282C86.6626 166.46 86.6131 166.673 86.6131 166.92C86.6131 167.168 86.6626 167.386 86.7616 167.574C86.8656 167.757 86.9993 167.898 87.1626 167.997C87.331 168.096 87.5092 168.146 87.6973 168.146C87.8904 168.146 88.0711 168.098 88.2394 168.004C88.4077 167.905 88.5414 167.767 88.6404 167.589C88.7394 167.405 88.7889 167.188 88.7889 166.935ZM91.891 163.497V168.992H90.8513V163.497H91.891ZM96.7425 166.846C96.7425 166.994 96.7325 167.128 96.7127 167.247H93.7053C93.73 167.544 93.834 167.777 94.0171 167.945C94.2003 168.113 94.4256 168.197 94.6929 168.197C95.079 168.197 95.3538 168.032 95.5172 167.7H96.6385C96.5197 168.096 96.2919 168.423 95.9553 168.68C95.6187 168.933 95.2053 169.059 94.7152 169.059C94.3191 169.059 93.9627 168.972 93.6458 168.799C93.334 168.621 93.0889 168.371 92.9107 168.049C92.7374 167.727 92.6508 167.356 92.6508 166.935C92.6508 166.509 92.7374 166.136 92.9107 165.814C93.084 165.492 93.3265 165.244 93.6384 165.071C93.9503 164.898 94.3092 164.811 94.7152 164.811C95.1063 164.811 95.4553 164.895 95.7622 165.064C96.0741 165.232 96.3142 165.472 96.4825 165.784C96.6558 166.091 96.7425 166.445 96.7425 166.846ZM95.6657 166.549C95.6607 166.282 95.5642 166.069 95.3761 165.91C95.188 165.747 94.9578 165.665 94.6855 165.665C94.428 165.665 94.2102 165.744 94.032 165.903C93.8587 166.056 93.7523 166.272 93.7127 166.549H95.6657ZM99.0756 169.059C98.7389 169.059 98.4369 168.999 98.1696 168.881C97.9023 168.757 97.6894 168.591 97.531 168.383C97.3775 168.175 97.2934 167.945 97.2785 167.693H98.3256C98.3454 167.851 98.4221 167.982 98.5558 168.086C98.6944 168.19 98.8652 168.242 99.0681 168.242C99.2662 168.242 99.4196 168.202 99.5286 168.123C99.6424 168.044 99.6993 167.943 99.6993 167.819C99.6993 167.685 99.63 167.586 99.4914 167.522C99.3578 167.452 99.1424 167.378 98.8454 167.299C98.5384 167.225 98.286 167.148 98.0879 167.069C97.8949 166.99 97.7265 166.868 97.583 166.705C97.4444 166.542 97.375 166.321 97.375 166.044C97.375 165.816 97.4394 165.608 97.5681 165.42C97.7018 165.232 97.8899 165.084 98.1325 164.975C98.38 164.866 98.6696 164.811 99.0013 164.811C99.4914 164.811 99.8825 164.935 100.175 165.183C100.467 165.425 100.628 165.754 100.657 166.17H99.6622C99.6474 166.007 99.5781 165.878 99.4543 165.784C99.3355 165.685 99.1746 165.636 98.9716 165.636C98.7835 165.636 98.6374 165.67 98.5335 165.74C98.4345 165.809 98.385 165.905 98.385 166.029C98.385 166.168 98.4543 166.274 98.5929 166.348C98.7315 166.418 98.9469 166.49 99.2389 166.564C99.536 166.638 99.781 166.715 99.9741 166.794C100.167 166.873 100.333 166.997 100.472 167.165C100.615 167.329 100.689 167.546 100.694 167.819C100.694 168.056 100.628 168.269 100.494 168.457C100.365 168.646 100.177 168.794 99.9296 168.903C99.687 169.007 99.4023 169.059 99.0756 169.059Z" fill="#151D48"/>
<path d="M56.8736 176.068C56.7539 175.816 56.5807 175.622 56.3537 175.486C56.1268 175.346 55.8628 175.276 55.5617 175.276C55.2605 175.276 54.9882 175.346 54.7448 175.486C54.5055 175.622 54.3158 175.82 54.1755 176.08C54.0393 176.336 53.9713 176.633 53.9713 176.971C53.9713 177.309 54.0393 177.606 54.1755 177.862C54.3158 178.118 54.5055 178.316 54.7448 178.456C54.9882 178.592 55.2605 178.661 55.5617 178.661C55.9825 178.661 56.329 178.535 56.6013 178.283C56.8736 178.031 57.0324 177.691 57.0778 177.262H55.3574V176.804H57.678V177.237C57.645 177.592 57.5336 177.918 57.3439 178.215C57.1541 178.508 56.9045 178.741 56.5951 178.914C56.2857 179.083 55.9412 179.168 55.5617 179.168C55.1615 179.168 54.7964 179.075 54.4663 178.89C54.1363 178.7 53.8743 178.438 53.6804 178.104C53.4907 177.769 53.3958 177.392 53.3958 176.971C53.3958 176.55 53.4907 176.173 53.6804 175.839C53.8743 175.5 54.1363 175.238 54.4663 175.053C54.7964 174.863 55.1615 174.768 55.5617 174.768C56.0196 174.768 56.4239 174.882 56.7745 175.108C57.1293 175.335 57.3872 175.655 57.5481 176.068H56.8736ZM58.9857 174.552V179.131H58.4226V174.552H58.9857ZM61.4245 179.187C61.1068 179.187 60.818 179.114 60.5581 178.97C60.3024 178.826 60.1002 178.621 59.9517 178.357C59.8073 178.089 59.7351 177.78 59.7351 177.429C59.7351 177.083 59.8094 176.777 59.9579 176.513C60.1105 176.245 60.3168 176.041 60.5767 175.901C60.8366 175.756 61.1275 175.684 61.4492 175.684C61.771 175.684 62.0619 175.756 62.3218 175.901C62.5817 176.041 62.7859 176.243 62.9344 176.507C63.0871 176.771 63.1634 177.078 63.1634 177.429C63.1634 177.78 63.085 178.089 62.9282 178.357C62.7756 178.621 62.5673 178.826 62.3032 178.97C62.0392 179.114 61.7463 179.187 61.4245 179.187ZM61.4245 178.691C61.6266 178.691 61.8164 178.644 61.9938 178.549C62.1712 178.454 62.3135 178.312 62.4208 178.122C62.5322 177.932 62.5879 177.701 62.5879 177.429C62.5879 177.157 62.5342 176.926 62.427 176.736C62.3197 176.546 62.1795 176.406 62.0062 176.315C61.8329 176.22 61.6452 176.173 61.4431 176.173C61.2368 176.173 61.047 176.22 60.8737 176.315C60.7046 176.406 60.5684 176.546 60.4653 176.736C60.3622 176.926 60.3106 177.157 60.3106 177.429C60.3106 177.705 60.3601 177.939 60.4591 178.128C60.5623 178.318 60.6984 178.46 60.8675 178.555C61.0367 178.646 61.2223 178.691 61.4245 178.691ZM64.4669 176.371C64.5824 176.169 64.7516 176.004 64.9744 175.876C65.1971 175.748 65.4509 175.684 65.7355 175.684C66.0408 175.684 66.3152 175.756 66.5586 175.901C66.802 176.045 66.9938 176.249 67.1341 176.513C67.2743 176.773 67.3445 177.076 67.3445 177.423C67.3445 177.765 67.2743 178.071 67.1341 178.339C66.9938 178.607 66.7999 178.815 66.5524 178.964C66.309 179.112 66.0367 179.187 65.7355 179.187C65.4426 179.187 65.1848 179.123 64.962 178.995C64.7433 178.867 64.5783 178.704 64.4669 178.506V179.131H63.9038V174.552H64.4669V176.371ZM66.769 177.423C66.769 177.167 66.7174 176.944 66.6143 176.755C66.5111 176.565 66.3708 176.42 66.1935 176.321C66.0202 176.222 65.8283 176.173 65.6179 176.173C65.4117 176.173 65.2198 176.224 65.0424 176.328C64.8692 176.427 64.7289 176.573 64.6216 176.767C64.5185 176.957 64.4669 177.177 64.4669 177.429C64.4669 177.685 64.5185 177.91 64.6216 178.104C64.7289 178.293 64.8692 178.44 65.0424 178.543C65.2198 178.642 65.4117 178.691 65.6179 178.691C65.8283 178.691 66.0202 178.642 66.1935 178.543C66.3708 178.44 66.5111 178.293 66.6143 178.104C66.7174 177.91 66.769 177.683 66.769 177.423ZM67.8753 177.423C67.8753 177.076 67.9454 176.773 68.0857 176.513C68.226 176.249 68.4178 176.045 68.6612 175.901C68.9087 175.756 69.1831 175.684 69.4842 175.684C69.7813 175.684 70.0391 175.748 70.2578 175.876C70.4764 176.004 70.6394 176.165 70.7467 176.359V175.74H71.316V179.131H70.7467V178.5C70.6353 178.698 70.4682 178.863 70.2454 178.995C70.0268 179.123 69.771 179.187 69.4781 179.187C69.1769 179.187 68.9046 179.112 68.6612 178.964C68.4178 178.815 68.226 178.607 68.0857 178.339C67.9454 178.071 67.8753 177.765 67.8753 177.423ZM70.7467 177.429C70.7467 177.173 70.6951 176.951 70.5919 176.761C70.4888 176.571 70.3485 176.427 70.1711 176.328C69.9979 176.224 69.806 176.173 69.5956 176.173C69.3852 176.173 69.1934 176.222 69.0201 176.321C68.8469 176.42 68.7087 176.565 68.6055 176.755C68.5024 176.944 68.4508 177.167 68.4508 177.423C68.4508 177.683 68.5024 177.91 68.6055 178.104C68.7087 178.293 68.8469 178.44 69.0201 178.543C69.1934 178.642 69.3852 178.691 69.5956 178.691C69.806 178.691 69.9979 178.642 70.1711 178.543C70.3485 178.44 70.4888 178.293 70.5919 178.104C70.6951 177.91 70.7467 177.685 70.7467 177.429ZM72.8307 174.552V179.131H72.2676V174.552H72.8307Z" fill="#737791"/>
<g clip-path="url(#clip0_0_161)">
<rect x="24.6638" y="160.374" width="22.2777" height="22.2777" rx="3.71295" fill="#E2FFF3"/>
<mask id="mask1_0_161" style="mask-type:luminance" maskUnits="userSpaceOnUse" x="26" y="162" width="19" height="19">
<rect x="26.8904" y="162.601" width="17.8222" height="17.8222" fill="white"/>
</mask>
<g mask="url(#mask1_0_161)">
<mask id="mask2_0_161" style="mask-type:luminance" maskUnits="userSpaceOnUse" x="30" y="166" width="12" height="11">
<rect x="30.4551" y="166.165" width="10.6933" height="10.6933" fill="white"/>
</mask>
<g mask="url(#mask2_0_161)">
<path fill-rule="evenodd" clip-rule="evenodd" d="M37.51 175.744C38.8762 175.744 39.9243 175.25 39.6266 173.264L39.28 170.573C39.0964 169.582 38.4643 169.202 37.9097 169.202H33.3746C32.8118 169.202 32.2164 169.61 32.0043 170.573L31.6576 173.264C31.4048 175.026 32.4244 175.744 33.7906 175.744H37.51Z" stroke="#4AB58E" stroke-width="0.928238" stroke-linecap="round" stroke-linejoin="round"/>
<path d="M33.7295 169.106C33.7295 168.043 34.5913 167.181 35.6544 167.181C36.1664 167.179 36.6581 167.38 37.0209 167.742C37.3836 168.103 37.5876 168.594 37.5876 169.106" stroke="#4AB58E" stroke-width="0.928238" stroke-linecap="round" stroke-linejoin="round"/>
<path d="M34.333 171.112H34.3534" stroke="#4AB58E" stroke-width="0.928238" stroke-linecap="round" stroke-linejoin="round"/>
<path d="M36.9307 171.112H36.9511" stroke="#4AB58E" stroke-width="0.928238" stroke-linecap="round" stroke-linejoin="round"/>
</g>
</g>
</g>
<path d="M147.814 201.707V200.806H149.616V207.122H148.62V201.707H147.814ZM151.519 205.779C152.073 205.3 152.509 204.907 152.827 204.601C153.151 204.289 153.419 203.965 153.633 203.63C153.847 203.295 153.953 202.96 153.953 202.625C153.953 202.279 153.87 202.007 153.702 201.811C153.54 201.615 153.283 201.517 152.931 201.517C152.59 201.517 152.325 201.626 152.134 201.846C151.949 202.059 151.851 202.348 151.839 202.712H150.886C150.904 202.054 151.1 201.551 151.476 201.205C151.857 200.852 152.339 200.676 152.922 200.676C153.552 200.676 154.043 200.849 154.395 201.196C154.753 201.542 154.932 202.005 154.932 202.582C154.932 202.998 154.826 203.399 154.612 203.786C154.404 204.168 154.153 204.511 153.858 204.817C153.569 205.118 153.2 205.467 152.749 205.866L152.359 206.212H155.106V207.035H150.895V206.316L151.519 205.779ZM156.502 207.182C156.323 207.182 156.173 207.122 156.051 207.001C155.93 206.879 155.869 206.729 155.869 206.55C155.869 206.371 155.93 206.221 156.051 206.1C156.173 205.978 156.323 205.918 156.502 205.918C156.675 205.918 156.822 205.978 156.944 206.1C157.065 206.221 157.126 206.371 157.126 206.55C157.126 206.729 157.065 206.879 156.944 207.001C156.822 207.122 156.675 207.182 156.502 207.182ZM157.933 201.707V200.806H159.735V207.122H158.739V201.707H157.933ZM161.638 205.779C162.192 205.3 162.628 204.907 162.946 204.601C163.269 204.289 163.538 203.965 163.752 203.63C163.965 203.295 164.072 202.96 164.072 202.625C164.072 202.279 163.988 202.007 163.821 201.811C163.659 201.615 163.402 201.517 163.05 201.517C162.709 201.517 162.443 201.626 162.253 201.846C162.068 202.059 161.97 202.348 161.958 202.712H161.005C161.023 202.054 161.219 201.551 161.594 201.205C161.976 200.852 162.458 200.676 163.041 200.676C163.671 200.676 164.162 200.849 164.514 201.196C164.872 201.542 165.051 202.005 165.051 202.582C165.051 202.998 164.944 203.399 164.731 203.786C164.523 204.168 164.271 204.511 163.977 204.817C163.688 205.118 163.318 205.467 162.868 205.866L162.478 206.212H165.224V207.035H161.014V206.316L161.638 205.779ZM166.638 205.779C167.192 205.3 167.628 204.907 167.946 204.601C168.269 204.289 168.538 203.965 168.752 203.63C168.965 203.295 169.072 202.96 169.072 202.625C169.072 202.279 168.989 202.007 168.821 201.811C168.659 201.615 168.402 201.517 168.05 201.517C167.709 201.517 167.444 201.626 167.253 201.846C167.068 202.059 166.97 202.348 166.958 202.712H166.005C166.023 202.054 166.219 201.551 166.595 201.205C166.976 200.852 167.458 200.676 168.041 200.676C168.671 200.676 169.162 200.849 169.514 201.196C169.872 201.542 170.051 202.005 170.051 202.582C170.051 202.998 169.944 203.399 169.731 203.786C169.523 204.168 169.272 204.511 168.977 204.817C168.688 205.118 168.319 205.467 167.868 205.866L167.478 206.212H170.225V207.035H166.014V206.316L166.638 205.779Z" fill="#FFA412"/>
<path d="M57.1694 195.37V196.209H55.7881V200.553H54.7485V196.209H53.3673V195.37H57.1694ZM57.6606 198.481C57.6606 198.065 57.7423 197.697 57.9056 197.375C58.0739 197.053 58.2992 196.805 58.5814 196.632C58.8685 196.459 59.1878 196.372 59.5393 196.372C59.8463 196.372 60.1136 196.434 60.3413 196.558C60.574 196.682 60.7596 196.838 60.8983 197.026V196.439H61.9453V200.553H60.8983V199.952C60.7646 200.145 60.579 200.306 60.3413 200.434C60.1086 200.558 59.8388 200.62 59.5319 200.62C59.1854 200.62 58.8685 200.531 58.5814 200.353C58.2992 200.174 58.0739 199.924 57.9056 199.603C57.7423 199.276 57.6606 198.902 57.6606 198.481ZM60.8983 198.496C60.8983 198.244 60.8488 198.028 60.7497 197.85C60.6507 197.667 60.5171 197.528 60.3487 197.434C60.1804 197.335 59.9997 197.286 59.8067 197.286C59.6136 197.286 59.4354 197.333 59.272 197.427C59.1086 197.521 58.975 197.659 58.871 197.843C58.772 198.021 58.7225 198.234 58.7225 198.481C58.7225 198.729 58.772 198.947 58.871 199.135C58.975 199.318 59.1086 199.459 59.272 199.558C59.4403 199.657 59.6185 199.707 59.8067 199.707C59.9997 199.707 60.1804 199.66 60.3487 199.565C60.5171 199.466 60.6507 199.328 60.7497 199.15C60.8488 198.966 60.8983 198.749 60.8983 198.496ZM64.0003 197.078C64.134 196.86 64.3073 196.689 64.5201 196.565C64.738 196.442 64.9855 196.38 65.2627 196.38V197.471H64.988C64.6612 197.471 64.4137 197.548 64.2454 197.702C64.082 197.855 64.0003 198.122 64.0003 198.504V200.553H62.9607V196.439H64.0003V197.078ZM67.5744 196.372C67.8813 196.372 68.1511 196.434 68.3838 196.558C68.6165 196.677 68.7997 196.833 68.9333 197.026V196.439H69.9804V200.583C69.9804 200.964 69.9036 201.303 69.7502 201.6C69.5967 201.902 69.3665 202.14 69.0596 202.313C68.7526 202.491 68.3813 202.58 67.9457 202.58C67.3615 202.58 66.8813 202.444 66.5051 202.172C66.1338 201.9 65.9234 201.528 65.8738 201.058H66.906C66.9605 201.246 67.0768 201.395 67.2551 201.504C67.4382 201.617 67.6585 201.674 67.916 201.674C68.218 201.674 68.463 201.583 68.6511 201.4C68.8393 201.221 68.9333 200.949 68.9333 200.583V199.944C68.7997 200.137 68.614 200.298 68.3764 200.427C68.1437 200.556 67.8764 200.62 67.5744 200.62C67.2278 200.62 66.911 200.531 66.6239 200.353C66.3367 200.174 66.109 199.924 65.9407 199.603C65.7773 199.276 65.6956 198.902 65.6956 198.481C65.6956 198.065 65.7773 197.697 65.9407 197.375C66.109 197.053 66.3343 196.805 66.6164 196.632C66.9036 196.459 67.2229 196.372 67.5744 196.372ZM68.9333 198.496C68.9333 198.244 68.8838 198.028 68.7848 197.85C68.6858 197.667 68.5521 197.528 68.3838 197.434C68.2155 197.335 68.0348 197.286 67.8417 197.286C67.6486 197.286 67.4704 197.333 67.307 197.427C67.1437 197.521 67.01 197.659 66.906 197.843C66.807 198.021 66.7575 198.234 66.7575 198.481C66.7575 198.729 66.807 198.947 66.906 199.135C67.01 199.318 67.1437 199.459 67.307 199.558C67.4754 199.657 67.6536 199.707 67.8417 199.707C68.0348 199.707 68.2155 199.66 68.3838 199.565C68.5521 199.466 68.6858 199.328 68.7848 199.15C68.8838 198.966 68.9333 198.749 68.9333 198.496ZM74.8201 198.407C74.8201 198.556 74.8102 198.689 74.7904 198.808H71.7829C71.8076 199.105 71.9116 199.338 72.0948 199.506C72.278 199.674 72.5032 199.759 72.7705 199.759C73.1567 199.759 73.4314 199.593 73.5948 199.261H74.7161C74.5973 199.657 74.3696 199.984 74.0329 200.241C73.6963 200.494 73.2829 200.62 72.7928 200.62C72.3968 200.62 72.0403 200.533 71.7235 200.36C71.4116 200.182 71.1665 199.932 70.9883 199.61C70.8151 199.288 70.7284 198.917 70.7284 198.496C70.7284 198.07 70.8151 197.697 70.9883 197.375C71.1616 197.053 71.4042 196.805 71.7161 196.632C72.0279 196.459 72.3869 196.372 72.7928 196.372C73.1839 196.372 73.5329 196.456 73.8399 196.625C74.1518 196.793 74.3919 197.033 74.5602 197.345C74.7335 197.652 74.8201 198.006 74.8201 198.407ZM73.7433 198.11C73.7384 197.843 73.6418 197.63 73.4537 197.471C73.2656 197.308 73.0354 197.226 72.7631 197.226C72.5057 197.226 72.2879 197.306 72.1096 197.464C71.9364 197.617 71.8299 197.833 71.7903 198.11H73.7433ZM76.7893 197.293V199.283C76.7893 199.422 76.8215 199.523 76.8859 199.588C76.9552 199.647 77.0691 199.677 77.2275 199.677H77.7102V200.553H77.0567C76.1804 200.553 75.7423 200.127 75.7423 199.276V197.293H75.2522V196.439H75.7423V195.422H76.7893V196.439H77.7102V197.293H76.7893ZM82.017 200.605C81.6556 200.605 81.3289 200.543 81.0368 200.419C80.7497 200.296 80.5219 200.117 80.3536 199.885C80.1853 199.652 80.0986 199.377 80.0937 199.06H81.2076C81.2224 199.273 81.2967 199.442 81.4304 199.565C81.569 199.689 81.7571 199.751 81.9947 199.751C82.2373 199.751 82.4279 199.694 82.5665 199.58C82.7051 199.461 82.7744 199.308 82.7744 199.12C82.7744 198.966 82.7274 198.84 82.6334 198.741C82.5393 198.642 82.4205 198.565 82.2769 198.511C82.1383 198.452 81.9452 198.387 81.6977 198.318C81.3611 198.219 81.0863 198.122 80.8734 198.028C80.6655 197.929 80.4848 197.783 80.3313 197.59C80.1828 197.392 80.1085 197.13 80.1085 196.803C80.1085 196.496 80.1853 196.229 80.3388 196.001C80.4922 195.773 80.7076 195.6 80.9848 195.481C81.262 195.357 81.5789 195.296 81.9353 195.296C82.47 195.296 82.9032 195.427 83.2349 195.689C83.5715 195.947 83.7571 196.308 83.7918 196.773H82.6482C82.6383 196.595 82.5616 196.449 82.418 196.335C82.2794 196.216 82.0937 196.157 81.8611 196.157C81.6581 196.157 81.4947 196.209 81.371 196.313C81.2521 196.417 81.1927 196.568 81.1927 196.766C81.1927 196.905 81.2373 197.021 81.3264 197.115C81.4205 197.204 81.5343 197.278 81.668 197.338C81.8066 197.392 81.9997 197.456 82.2472 197.531C82.5838 197.63 82.8586 197.729 83.0715 197.828C83.2844 197.927 83.4675 198.075 83.621 198.273C83.7745 198.471 83.8512 198.731 83.8512 199.053C83.8512 199.33 83.7794 199.588 83.6359 199.825C83.4923 200.063 83.2819 200.254 83.0046 200.397C82.7274 200.536 82.3982 200.605 82.017 200.605ZM84.4852 198.481C84.4852 198.065 84.5669 197.697 84.7302 197.375C84.8986 197.053 85.1238 196.805 85.406 196.632C85.6931 196.459 86.0124 196.372 86.3639 196.372C86.6709 196.372 86.9382 196.434 87.1659 196.558C87.3986 196.682 87.5843 196.838 87.7229 197.026V196.439H88.7699V200.553H87.7229V199.952C87.5892 200.145 87.4036 200.306 87.1659 200.434C86.9333 200.558 86.6635 200.62 86.3565 200.62C86.01 200.62 85.6931 200.531 85.406 200.353C85.1238 200.174 84.8986 199.924 84.7302 199.603C84.5669 199.276 84.4852 198.902 84.4852 198.481ZM87.7229 198.496C87.7229 198.244 87.6734 198.028 87.5744 197.85C87.4754 197.667 87.3417 197.528 87.1734 197.434C87.005 197.335 86.8243 197.286 86.6313 197.286C86.4382 197.286 86.26 197.333 86.0966 197.427C85.9332 197.521 85.7996 197.659 85.6956 197.843C85.5966 198.021 85.5471 198.234 85.5471 198.481C85.5471 198.729 85.5966 198.947 85.6956 199.135C85.7996 199.318 85.9332 199.459 86.0966 199.558C86.2649 199.657 86.4432 199.707 86.6313 199.707C86.8243 199.707 87.005 199.66 87.1734 199.565C87.3417 199.466 87.4754 199.328 87.5744 199.15C87.6734 198.966 87.7229 198.749 87.7229 198.496ZM90.8249 195.058V200.553H89.7853V195.058H90.8249ZM95.6764 198.407C95.6764 198.556 95.6665 198.689 95.6467 198.808H92.6392C92.664 199.105 92.7679 199.338 92.9511 199.506C93.1343 199.674 93.3595 199.759 93.6269 199.759C94.013 199.759 94.2878 199.593 94.4512 199.261H95.5725C95.4536 199.657 95.2259 199.984 94.8893 200.241C94.5526 200.494 94.1393 200.62 93.6492 200.62C93.2531 200.62 92.8967 200.533 92.5798 200.36C92.2679 200.182 92.0229 199.932 91.8447 199.61C91.6714 199.288 91.5848 198.917 91.5848 198.496C91.5848 198.07 91.6714 197.697 91.8447 197.375C92.0179 197.053 92.2605 196.805 92.5724 196.632C92.8843 196.459 93.2432 196.372 93.6492 196.372C94.0403 196.372 94.3893 196.456 94.6962 196.625C95.0081 196.793 95.2482 197.033 95.4165 197.345C95.5898 197.652 95.6764 198.006 95.6764 198.407ZM94.5997 198.11C94.5947 197.843 94.4982 197.63 94.3101 197.471C94.1219 197.308 93.8917 197.226 93.6195 197.226C93.362 197.226 93.1442 197.306 92.966 197.464C92.7927 197.617 92.6863 197.833 92.6467 198.11H94.5997ZM98.0096 200.62C97.6729 200.62 97.3709 200.561 97.1036 200.442C96.8363 200.318 96.6234 200.152 96.465 199.944C96.3115 199.736 96.2273 199.506 96.2125 199.254H97.2595C97.2793 199.412 97.3561 199.543 97.4897 199.647C97.6284 199.751 97.7992 199.803 98.0021 199.803C98.2002 199.803 98.3536 199.763 98.4625 199.684C98.5764 199.605 98.6333 199.504 98.6333 199.38C98.6333 199.246 98.564 199.147 98.4254 199.083C98.2917 199.013 98.0764 198.939 97.7793 198.86C97.4724 198.786 97.2199 198.709 97.0219 198.63C96.8288 198.551 96.6605 198.429 96.5169 198.266C96.3783 198.103 96.309 197.882 96.309 197.605C96.309 197.377 96.3734 197.169 96.5021 196.981C96.6358 196.793 96.8239 196.645 97.0665 196.536C97.314 196.427 97.6036 196.372 97.9353 196.372C98.4254 196.372 98.8165 196.496 99.1086 196.744C99.4007 196.986 99.5616 197.315 99.5913 197.731H98.5962C98.5813 197.568 98.512 197.439 98.3883 197.345C98.2695 197.246 98.1086 197.197 97.9056 197.197C97.7175 197.197 97.5714 197.231 97.4675 197.301C97.3684 197.37 97.3189 197.466 97.3189 197.59C97.3189 197.729 97.3883 197.835 97.5269 197.909C97.6655 197.979 97.8808 198.051 98.1729 198.125C98.47 198.199 98.715 198.276 98.9081 198.355C99.1012 198.434 99.267 198.558 99.4056 198.726C99.5492 198.89 99.6234 199.108 99.6284 199.38C99.6284 199.617 99.5616 199.83 99.4279 200.018C99.2992 200.207 99.1111 200.355 98.8635 200.464C98.621 200.568 98.3363 200.62 98.0096 200.62Z" fill="#151D48"/>
<path d="M53.3958 208.532C53.3958 208.111 53.4907 207.734 53.6804 207.4C53.8702 207.061 54.128 206.797 54.454 206.608C54.784 206.418 55.1491 206.323 55.5493 206.323C56.0196 206.323 56.4301 206.436 56.7807 206.663C57.1314 206.89 57.3872 207.212 57.5481 207.629H56.8736C56.7539 207.369 56.5807 207.169 56.3537 207.028C56.131 206.888 55.8628 206.818 55.5493 206.818C55.2481 206.818 54.9779 206.888 54.7386 207.028C54.4993 207.169 54.3116 207.369 54.1755 207.629C54.0393 207.884 53.9713 208.186 53.9713 208.532C53.9713 208.875 54.0393 209.176 54.1755 209.436C54.3116 209.691 54.4993 209.889 54.7386 210.03C54.9779 210.17 55.2481 210.24 55.5493 210.24C55.8628 210.24 56.131 210.172 56.3537 210.036C56.5807 209.896 56.7539 209.696 56.8736 209.436H57.5481C57.3872 209.848 57.1314 210.168 56.7807 210.395C56.4301 210.618 56.0196 210.729 55.5493 210.729C55.1491 210.729 54.784 210.636 54.454 210.451C54.128 210.261 53.8702 209.999 53.6804 209.665C53.4907 209.33 53.3958 208.953 53.3958 208.532ZM59.8653 210.748C59.5477 210.748 59.2589 210.675 58.999 210.531C58.7432 210.387 58.5411 210.182 58.3925 209.918C58.2481 209.65 58.1759 209.341 58.1759 208.99C58.1759 208.644 58.2502 208.338 58.3987 208.074C58.5514 207.806 58.7576 207.602 59.0175 207.462C59.2775 207.317 59.5683 207.245 59.8901 207.245C60.2119 207.245 60.5027 207.317 60.7626 207.462C61.0225 207.602 61.2268 207.804 61.3753 208.068C61.5279 208.332 61.6042 208.639 61.6042 208.99C61.6042 209.341 61.5259 209.65 61.3691 209.918C61.2164 210.182 61.0081 210.387 60.7441 210.531C60.48 210.675 60.1871 210.748 59.8653 210.748ZM59.8653 210.253C60.0675 210.253 60.2573 210.205 60.4347 210.11C60.6121 210.015 60.7544 209.873 60.8616 209.683C60.973 209.493 61.0287 209.262 61.0287 208.99C61.0287 208.718 60.9751 208.487 60.8678 208.297C60.7606 208.107 60.6203 207.967 60.447 207.876C60.2738 207.781 60.0861 207.734 59.8839 207.734C59.6776 207.734 59.4879 207.781 59.3146 207.876C59.1454 207.967 59.0093 208.107 58.9062 208.297C58.803 208.487 58.7515 208.718 58.7515 208.99C58.7515 209.267 58.801 209.5 58.9 209.689C59.0031 209.879 59.1393 210.022 59.3084 210.116C59.4775 210.207 59.6632 210.253 59.8653 210.253ZM66.4227 207.239C66.6867 207.239 66.9219 207.295 67.1282 207.406C67.3344 207.513 67.4974 207.676 67.617 207.895C67.7367 208.113 67.7965 208.38 67.7965 208.693V210.692H67.2396V208.774C67.2396 208.435 67.155 208.177 66.9858 208C66.8208 207.818 66.596 207.728 66.3113 207.728C66.0184 207.728 65.7853 207.823 65.612 208.012C65.4388 208.198 65.3521 208.468 65.3521 208.823V210.692H64.7952V208.774C64.7952 208.435 64.7106 208.177 64.5415 208C64.3765 207.818 64.1516 207.728 63.867 207.728C63.5741 207.728 63.341 207.823 63.1677 208.012C62.9944 208.198 62.9078 208.468 62.9078 208.823V210.692H62.3447V207.301H62.9078V207.79C63.0192 207.612 63.1677 207.476 63.3533 207.381C63.5431 207.286 63.7514 207.239 63.9783 207.239C64.263 207.239 64.5147 207.303 64.7333 207.431C64.952 207.559 65.1149 207.746 65.2222 207.994C65.3171 207.755 65.4738 207.569 65.6925 207.437C65.9111 207.305 66.1546 207.239 66.4227 207.239ZM72.7983 207.239C73.0623 207.239 73.2975 207.295 73.5038 207.406C73.71 207.513 73.873 207.676 73.9926 207.895C74.1123 208.113 74.1721 208.38 74.1721 208.693V210.692H73.6151V208.774C73.6151 208.435 73.5306 208.177 73.3614 208C73.1964 207.818 72.9716 207.728 72.6869 207.728C72.394 207.728 72.1609 207.823 71.9876 208.012C71.8144 208.198 71.7277 208.468 71.7277 208.823V210.692H71.1708V208.774C71.1708 208.435 71.0862 208.177 70.9171 208C70.7521 207.818 70.5272 207.728 70.2426 207.728C69.9496 207.728 69.7165 207.823 69.5433 208.012C69.37 208.198 69.2834 208.468 69.2834 208.823V210.692H68.7202V207.301H69.2834V207.79C69.3948 207.612 69.5433 207.476 69.7289 207.381C69.9187 207.286 70.127 207.239 70.3539 207.239C70.6386 207.239 70.8903 207.303 71.1089 207.431C71.3276 207.559 71.4905 207.746 71.5978 207.994C71.6927 207.755 71.8494 207.569 72.0681 207.437C72.2867 207.305 72.5301 207.239 72.7983 207.239ZM78.19 208.866C78.19 208.974 78.1838 209.087 78.1714 209.207H75.4609C75.4816 209.541 75.595 209.803 75.8013 209.993C76.0117 210.178 76.2654 210.271 76.5624 210.271C76.8059 210.271 77.008 210.215 77.1689 210.104C77.3339 209.988 77.4494 209.836 77.5154 209.646H78.1219C78.0311 209.972 77.8496 210.238 77.5773 210.444C77.305 210.647 76.9667 210.748 76.5624 210.748C76.2407 210.748 75.9519 210.675 75.6961 210.531C75.4444 210.387 75.2464 210.182 75.102 209.918C74.9576 209.65 74.8854 209.341 74.8854 208.99C74.8854 208.639 74.9556 208.332 75.0958 208.068C75.2361 207.804 75.4321 207.602 75.6837 207.462C75.9395 207.317 76.2324 207.245 76.5624 207.245C76.8842 207.245 77.1689 207.315 77.4164 207.455C77.664 207.596 77.8537 207.79 77.9857 208.037C78.1219 208.281 78.19 208.557 78.19 208.866ZM77.6083 208.749C77.6083 208.534 77.5608 208.351 77.4659 208.198C77.371 208.041 77.2411 207.924 77.0761 207.845C76.9152 207.763 76.7357 207.722 76.5377 207.722C76.253 207.722 76.0096 207.812 75.8075 207.994C75.6095 208.175 75.496 208.427 75.4671 208.749H77.6083ZM79.4964 207.851C79.5954 207.658 79.7357 207.507 79.9172 207.4C80.1029 207.292 80.3277 207.239 80.5917 207.239V207.821H80.4432C79.812 207.821 79.4964 208.163 79.4964 208.848V210.692H78.9333V207.301H79.4964V207.851ZM81.0314 208.99C81.0314 208.639 81.1015 208.334 81.2418 208.074C81.382 207.81 81.5759 207.606 81.8235 207.462C82.0751 207.317 82.3619 207.245 82.6836 207.245C83.1003 207.245 83.4427 207.346 83.7109 207.548C83.9832 207.75 84.1626 208.031 84.2493 208.39H83.6428C83.5851 208.184 83.4716 208.021 83.3025 207.901C83.1374 207.781 82.9312 207.722 82.6836 207.722C82.3619 207.722 82.1019 207.833 81.9039 208.056C81.7059 208.274 81.6069 208.586 81.6069 208.99C81.6069 209.399 81.7059 209.714 81.9039 209.937C82.1019 210.16 82.3619 210.271 82.6836 210.271C82.9312 210.271 83.1374 210.213 83.3025 210.098C83.4675 209.982 83.5809 209.817 83.6428 209.603H84.2493C84.1585 209.949 83.977 210.228 83.7047 210.438C83.4324 210.644 83.0921 210.748 82.6836 210.748C82.3619 210.748 82.0751 210.675 81.8235 210.531C81.5759 210.387 81.382 210.182 81.2418 209.918C81.1015 209.654 81.0314 209.345 81.0314 208.99ZM85.2915 206.75C85.1842 206.75 85.0935 206.713 85.0192 206.639C84.945 206.564 84.9078 206.474 84.9078 206.366C84.9078 206.259 84.945 206.168 85.0192 206.094C85.0935 206.02 85.1842 205.983 85.2915 205.983C85.3946 205.983 85.4813 206.02 85.5514 206.094C85.6257 206.168 85.6628 206.259 85.6628 206.366C85.6628 206.474 85.6257 206.564 85.5514 206.639C85.4813 206.713 85.3946 206.75 85.2915 206.75ZM85.5638 207.301V210.692H85.0007V207.301H85.5638ZM86.3131 208.984C86.3131 208.637 86.3833 208.334 86.5235 208.074C86.6638 207.81 86.8557 207.606 87.0991 207.462C87.3466 207.317 87.6209 207.245 87.9221 207.245C88.2191 207.245 88.477 207.309 88.6956 207.437C88.9143 207.565 89.0772 207.726 89.1845 207.92V207.301H89.7538V210.692H89.1845V210.061C89.0731 210.259 88.906 210.424 88.6832 210.556C88.4646 210.684 88.2088 210.748 87.9159 210.748C87.6147 210.748 87.3425 210.673 87.0991 210.525C86.8557 210.376 86.6638 210.168 86.5235 209.9C86.3833 209.632 86.3131 209.326 86.3131 208.984ZM89.1845 208.99C89.1845 208.734 89.1329 208.512 89.0298 208.322C88.9267 208.132 88.7864 207.988 88.609 207.889C88.4357 207.785 88.2439 207.734 88.0335 207.734C87.8231 207.734 87.6312 207.783 87.458 207.882C87.2847 207.981 87.1465 208.126 87.0434 208.316C86.9402 208.505 86.8887 208.728 86.8887 208.984C86.8887 209.244 86.9402 209.471 87.0434 209.665C87.1465 209.854 87.2847 210.001 87.458 210.104C87.6312 210.203 87.8231 210.253 88.0335 210.253C88.2439 210.253 88.4357 210.203 88.609 210.104C88.7864 210.001 88.9267 209.854 89.0298 209.665C89.1329 209.471 89.1845 209.246 89.1845 208.99ZM91.2686 206.113V210.692H90.7055V206.113H91.2686Z" fill="#737791"/>
<g clip-path="url(#clip1_0_161)">
<rect x="24.6638" y="191.934" width="22.2777" height="22.2777" rx="3.71295" fill="#FFF4DE"/>
<mask id="mask3_0_161" style="mask-type:luminance" maskUnits="userSpaceOnUse" x="30" y="197" width="12" height="12">
<rect x="30.456" y="197.724" width="10.6933" height="10.6933" fill="white"/>
</mask>
<g mask="url(#mask3_0_161)">
<path fill-rule="evenodd" clip-rule="evenodd" d="M31.348 200.908C31.3481 199.889 32.1745 199.062 33.194 199.062H38.4123C39.4319 199.062 40.2576 199.889 40.2578 200.908M40.2578 200.908L40.2587 202.112C40.2587 202.201 40.2236 202.286 40.1609 202.349C40.0982 202.412 40.0132 202.447 39.9245 202.447C39.5564 202.447 39.2606 202.743 39.2606 203.11C39.2606 203.478 39.5565 203.774 39.9245 203.774C40.1091 203.774 40.2587 203.923 40.2587 204.108V205.311C40.2587 206.33 39.4328 207.157 38.4127 207.157H33.1931C32.1734 207.157 31.3476 206.33 31.3476 205.311V204.108C31.3476 203.923 31.4972 203.774 31.6818 203.774C32.0492 203.774 32.3452 203.478 32.3452 203.11C32.3452 202.76 32.067 202.486 31.6818 202.486C31.5931 202.486 31.5081 202.45 31.4454 202.388C31.3828 202.325 31.3476 202.24 31.3476 202.151L31.348 200.908C31.348 200.908 31.348 200.908 31.348 200.908M32.0164 200.908L32.016 201.857C32.5808 201.995 33.0135 202.476 33.0135 203.11C33.0135 203.731 32.5903 204.252 32.0159 204.4V205.311C32.0159 205.961 32.5428 206.488 33.1931 206.488H38.4127C39.0635 206.488 39.5903 205.961 39.5903 205.311V204.4C39.0157 204.252 38.5923 203.732 38.5923 203.11C38.5923 202.489 39.0156 201.968 39.5901 201.821L39.5895 200.909C39.5895 200.258 39.0626 199.731 38.4123 199.731H33.194C32.5436 199.731 32.0164 200.258 32.0164 200.908ZM31.348 200.908L40.2578 200.908L31.348 200.908Z" fill="#FFA800"/>
<path fill-rule="evenodd" clip-rule="evenodd" d="M36.1912 201.498L36.5012 202.126L37.1954 202.227C37.5484 202.279 37.6922 202.714 37.4348 202.965L37.4342 202.966L36.9325 203.454L37.0511 204.144C37.1122 204.501 36.7381 204.766 36.4234 204.602L36.4223 204.601L35.8026 204.275L35.1819 204.602C34.8671 204.766 34.493 204.501 34.5541 204.145L34.6727 203.454L34.1713 202.966L34.1709 202.965C33.9134 202.714 34.0572 202.279 34.4102 202.227L34.4111 202.227L35.104 202.126L35.4143 201.497L35.4147 201.497C35.5733 201.177 36.0316 201.174 36.191 201.498C36.1911 201.498 36.1912 201.498 36.1912 201.498ZM35.6255 202.579C35.5768 202.678 35.4828 202.746 35.374 202.762L34.9791 202.819L35.2649 203.098C35.3438 203.174 35.3798 203.285 35.3611 203.394L35.2935 203.788L35.6471 203.602C35.7444 203.551 35.8608 203.551 35.9581 203.602L36.3118 203.788L36.2441 203.394C36.2254 203.285 36.2615 203.174 36.3404 203.098L36.6263 202.819L36.2313 202.762C36.1225 202.746 36.0284 202.678 35.9797 202.579L35.8026 202.22L35.6255 202.579Z" fill="#FFA800"/>
</g>
</g>
<defs>
<filter id="filter0_d_0_161" x="0.530054" y="0.0987992" width="254.337" height="241.961" filterUnits="userSpaceOnUse" color-interpolation-filters="sRGB">
<feFlood flood-opacity="0" result="BackgroundImageFix"/>
<feColorMatrix in="SourceAlpha" type="matrix" values="0 0 0 0 0 0 0 0 0 0 0 0 0 0 0 0 0 0 127 0" result="hardAlpha"/>
<feOffset dy="2.4753"/>
<feGaussianBlur stdDeviation="6.18825"/>
<feColorMatrix type="matrix" values="0 0 0 0 0.93198 0 0 0 0 0.93198 0 0 0 0 0.93198 0 0 0 0.501967 0"/>
<feBlend mode="normal" in2="BackgroundImageFix" result="effect1_dropShadow_0_161"/>
<feBlend mode="normal" in="SourceGraphic" in2="effect1_dropShadow_0_161" result="shape"/>
</filter>
<clipPath id="clip0_0_161">
<rect width="22.2777" height="22.2777" fill="white" transform="translate(24.6638 160.374)"/>
</clipPath>
<clipPath id="clip1_0_161">
<rect width="22.2777" height="22.2777" fill="white" transform="translate(24.6638 191.934)"/>
</clipPath>
</defs>
</svg>
