<svg width="425" height="243" viewBox="0 0 425 243" fill="none" xmlns="http://www.w3.org/2000/svg">
<g filter="url(#filter0_d_0_239)">
<rect x="13.1742" y="10.2076" width="399.142" height="217.208" rx="12.3765" fill="white"/>
<rect x="13.4837" y="10.5171" width="398.523" height="216.589" rx="12.0671" stroke="#F8F9FA" stroke-width="0.618825"/>
</g>
<path d="M34.3751 31.658C35.2828 31.658 36.079 31.8354 36.7638 32.1901C37.4569 32.5449 37.9891 33.0524 38.3604 33.7125C38.7399 34.3643 38.9297 35.1234 38.9297 35.9897C38.9297 36.8561 38.7399 37.6152 38.3604 38.267C37.9891 38.9106 37.4569 39.4098 36.7638 39.7646C36.079 40.1194 35.2828 40.2968 34.3751 40.2968H31.3553V31.658H34.3751ZM34.3133 38.8239C35.2209 38.8239 35.9222 38.5764 36.4173 38.0814C36.9123 37.5863 37.1599 36.8891 37.1599 35.9897C37.1599 35.0904 36.9123 34.389 36.4173 33.8857C35.9222 33.3742 35.2209 33.1184 34.3133 33.1184H33.088V38.8239H34.3133ZM46.6996 33.4402V40.2968H44.9545V39.4304C44.7318 39.7274 44.4388 39.9626 44.0758 40.1359C43.721 40.3009 43.3332 40.3834 42.9124 40.3834C42.3761 40.3834 41.9017 40.272 41.4891 40.0492C41.0766 39.8182 40.7507 39.484 40.5114 39.0467C40.2803 38.6012 40.1648 38.0731 40.1648 37.4625V33.4402H41.8975V37.215C41.8975 37.7596 42.0337 38.1804 42.306 38.4774C42.5782 38.7662 42.9495 38.9106 43.4199 38.9106C43.8984 38.9106 44.2738 38.7662 44.5461 38.4774C44.8184 38.1804 44.9545 37.7596 44.9545 37.215V33.4402H46.6996ZM54.7831 36.7199C54.7831 36.9675 54.7666 37.1903 54.7336 37.3883H49.7211C49.7624 37.8833 49.9357 38.2711 50.2409 38.5517C50.5462 38.8322 50.9217 38.9725 51.3672 38.9725C52.0108 38.9725 52.4687 38.6961 52.741 38.1432H54.6099C54.4118 38.8033 54.0323 39.3479 53.4712 39.7769C52.9101 40.1977 52.2212 40.4081 51.4043 40.4081C50.7443 40.4081 50.1502 40.2637 49.6221 39.975C49.1023 39.6779 48.6939 39.2613 48.3968 38.7249C48.1081 38.1886 47.9637 37.5698 47.9637 36.8685C47.9637 36.1589 48.1081 35.5359 48.3968 34.9996C48.6856 34.4633 49.0899 34.0507 49.6097 33.762C50.1296 33.4732 50.7278 33.3288 51.4043 33.3288C52.0562 33.3288 52.6379 33.469 53.1494 33.7496C53.6692 34.0301 54.0694 34.4303 54.3499 34.9501C54.6387 35.4617 54.7831 36.0516 54.7831 36.7199ZM52.9885 36.2249C52.9803 35.7793 52.8194 35.4245 52.5058 35.1605C52.1923 34.8882 51.8086 34.7521 51.3548 34.7521C50.9258 34.7521 50.5627 34.8841 50.2657 35.1481C49.9769 35.4039 49.7995 35.7628 49.7335 36.2249H52.9885ZM62.0168 31.658C62.9244 31.658 63.7206 31.8354 64.4055 32.1901C65.0985 32.5449 65.6307 33.0524 66.002 33.7125C66.3816 34.3643 66.5714 35.1234 66.5714 35.9897C66.5714 36.8561 66.3816 37.6152 66.002 38.267C65.6307 38.9106 65.0985 39.4098 64.4055 39.7646C63.7206 40.1194 62.9244 40.2968 62.0168 40.2968H58.9969V31.658H62.0168ZM61.9549 38.8239C62.8625 38.8239 63.5639 38.5764 64.0589 38.0814C64.554 37.5863 64.8015 36.8891 64.8015 35.9897C64.8015 35.0904 64.554 34.389 64.0589 33.8857C63.5639 33.3742 62.8625 33.1184 61.9549 33.1184H60.7296V38.8239H61.9549ZM68.7471 32.6233C68.4418 32.6233 68.186 32.5284 67.9798 32.3387C67.7817 32.1406 67.6827 31.8972 67.6827 31.6084C67.6827 31.3197 67.7817 31.0804 67.9798 30.8906C68.186 30.6926 68.4418 30.5936 68.7471 30.5936C69.0524 30.5936 69.304 30.6926 69.5021 30.8906C69.7083 31.0804 69.8115 31.3197 69.8115 31.6084C69.8115 31.8972 69.7083 32.1406 69.5021 32.3387C69.304 32.5284 69.0524 32.6233 68.7471 32.6233ZM69.6011 33.4402V40.2968H67.8684V33.4402H69.6011ZM73.0457 31.1381V40.2968H71.313V31.1381H73.0457ZM76.4903 31.1381V40.2968H74.7576V31.1381H76.4903ZM79.081 32.6233C78.7757 32.6233 78.5199 32.5284 78.3137 32.3387C78.1156 32.1406 78.0166 31.8972 78.0166 31.6084C78.0166 31.3197 78.1156 31.0804 78.3137 30.8906C78.5199 30.6926 78.7757 30.5936 79.081 30.5936C79.3863 30.5936 79.6379 30.6926 79.836 30.8906C80.0422 31.0804 80.1454 31.3197 80.1454 31.6084C80.1454 31.8972 80.0422 32.1406 79.836 32.3387C79.6379 32.5284 79.3863 32.6233 79.081 32.6233ZM79.935 33.4402V40.2968H78.2023V33.4402H79.935ZM84.3326 33.3288C84.8442 33.3288 85.2938 33.4319 85.6816 33.6382C86.0694 33.8362 86.3747 34.0961 86.5975 34.4179V33.4402H88.3426V40.3463C88.3426 40.9816 88.2147 41.5468 87.9589 42.0418C87.7031 42.5452 87.3195 42.9412 86.8079 43.23C86.2963 43.527 85.6775 43.6755 84.9514 43.6755C83.9778 43.6755 83.1775 43.4486 82.5504 42.9948C81.9316 42.541 81.5809 41.9222 81.4984 41.1384H83.2187C83.3095 41.4519 83.5034 41.6994 83.8004 41.8809C84.1057 42.0707 84.4729 42.1656 84.9019 42.1656C85.4052 42.1656 85.8137 42.013 86.1272 41.7077C86.4407 41.4106 86.5975 40.9568 86.5975 40.3463V39.2819C86.3747 39.6037 86.0653 39.8718 85.6693 40.0864C85.2815 40.3009 84.8359 40.4081 84.3326 40.4081C83.755 40.4081 83.227 40.2596 82.7484 39.9626C82.2698 39.6656 81.8903 39.2489 81.6098 38.7126C81.3375 38.168 81.2013 37.545 81.2013 36.8437C81.2013 36.1506 81.3375 35.5359 81.6098 34.9996C81.8903 34.4633 82.2657 34.0507 82.736 33.762C83.2146 33.4732 83.7468 33.3288 84.3326 33.3288ZM86.5975 36.8685C86.5975 36.4477 86.515 36.0887 86.35 35.7917C86.1849 35.4864 85.9622 35.2554 85.6816 35.0986C85.4011 34.9336 85.0999 34.8511 84.7782 34.8511C84.4564 34.8511 84.1593 34.9295 83.887 35.0862C83.6148 35.243 83.392 35.474 83.2187 35.7793C83.0537 36.0764 82.9712 36.4312 82.9712 36.8437C82.9712 37.2563 83.0537 37.6193 83.2187 37.9328C83.392 38.2381 83.6148 38.4733 83.887 38.6383C84.1676 38.8033 84.4646 38.8858 84.7782 38.8858C85.0999 38.8858 85.4011 38.8074 85.6816 38.6507C85.9622 38.4857 86.1849 38.2546 86.35 37.9576C86.515 37.6523 86.5975 37.2893 86.5975 36.8685ZM96.4088 36.7199C96.4088 36.9675 96.3923 37.1903 96.3593 37.3883H91.3468C91.388 37.8833 91.5613 38.2711 91.8666 38.5517C92.1719 38.8322 92.5473 38.9725 92.9929 38.9725C93.6364 38.9725 94.0944 38.6961 94.3667 38.1432H96.2355C96.0375 38.8033 95.6579 39.3479 95.0969 39.7769C94.5358 40.1977 93.8468 40.4081 93.03 40.4081C92.3699 40.4081 91.7758 40.2637 91.2478 39.975C90.728 39.6779 90.3195 39.2613 90.0225 38.7249C89.7337 38.1886 89.5893 37.5698 89.5893 36.8685C89.5893 36.1589 89.7337 35.5359 90.0225 34.9996C90.3113 34.4633 90.7156 34.0507 91.2354 33.762C91.7552 33.4732 92.3534 33.3288 93.03 33.3288C93.6818 33.3288 94.2635 33.469 94.7751 33.7496C95.2949 34.0301 95.6951 34.4303 95.9756 34.9501C96.2644 35.4617 96.4088 36.0516 96.4088 36.7199ZM94.6142 36.2249C94.6059 35.7793 94.445 35.4245 94.1315 35.1605C93.818 34.8882 93.4343 34.7521 92.9805 34.7521C92.5514 34.7521 92.1884 34.8841 91.8914 35.1481C91.6026 35.4039 91.4252 35.7628 91.3592 36.2249H94.6142ZM101.473 33.3412C102.29 33.3412 102.95 33.6011 103.453 34.1209C103.957 34.6324 104.208 35.3503 104.208 36.2744V40.2968H102.476V36.5095C102.476 35.965 102.339 35.5483 102.067 35.2595C101.795 34.9625 101.424 34.814 100.953 34.814C100.475 34.814 100.095 34.9625 99.8146 35.2595C99.5423 35.5483 99.4062 35.965 99.4062 36.5095V40.2968H97.6735V33.4402H99.4062V34.2941C99.6372 33.9971 99.9301 33.7661 100.285 33.6011C100.648 33.4278 101.044 33.3412 101.473 33.3412ZM105.41 36.8685C105.41 36.1589 105.555 35.5401 105.844 35.012C106.132 34.4757 106.533 34.0631 107.044 33.7743C107.556 33.4773 108.142 33.3288 108.802 33.3288C109.651 33.3288 110.353 33.5433 110.906 33.9724C111.467 34.3932 111.842 34.9872 112.032 35.7546H110.163C110.064 35.4575 109.895 35.2265 109.656 35.0615C109.425 34.8882 109.136 34.8016 108.789 34.8016C108.294 34.8016 107.902 34.9831 107.613 35.3462C107.325 35.7009 107.18 36.2084 107.18 36.8685C107.18 37.5203 107.325 38.0277 107.613 38.3908C107.902 38.7456 108.294 38.923 108.789 38.923C109.491 38.923 109.949 38.6094 110.163 37.9823H112.032C111.842 38.7249 111.467 39.3149 110.906 39.7522C110.345 40.1895 109.643 40.4081 108.802 40.4081C108.142 40.4081 107.556 40.2637 107.044 39.975C106.533 39.6779 106.132 39.2654 105.844 38.7373C105.555 38.201 105.41 37.578 105.41 36.8685ZM119.675 36.7199C119.675 36.9675 119.659 37.1903 119.626 37.3883H114.613C114.654 37.8833 114.828 38.2711 115.133 38.5517C115.438 38.8322 115.814 38.9725 116.259 38.9725C116.903 38.9725 117.361 38.6961 117.633 38.1432H119.502C119.304 38.8033 118.924 39.3479 118.363 39.7769C117.802 40.1977 117.113 40.4081 116.296 40.4081C115.636 40.4081 115.042 40.2637 114.514 39.975C113.994 39.6779 113.586 39.2613 113.289 38.7249C113 38.1886 112.856 37.5698 112.856 36.8685C112.856 36.1589 113 35.5359 113.289 34.9996C113.578 34.4633 113.982 34.0507 114.502 33.762C115.022 33.4732 115.62 33.3288 116.296 33.3288C116.948 33.3288 117.53 33.469 118.041 33.7496C118.561 34.0301 118.961 34.4303 119.242 34.9501C119.531 35.4617 119.675 36.0516 119.675 36.7199ZM117.881 36.2249C117.872 35.7793 117.711 35.4245 117.398 35.1605C117.084 34.8882 116.701 34.7521 116.247 34.7521C115.818 34.7521 115.455 34.8841 115.158 35.1481C114.869 35.4039 114.692 35.7628 114.626 36.2249H117.881Z" fill="#05004E"/>
<g clip-path="url(#clip0_0_239)">
<path d="M175.066 204.912C175.066 205.76 174.851 206.427 174.421 206.913C173.993 207.399 173.397 207.642 172.633 207.642C171.852 207.642 171.249 207.404 170.824 206.928C170.401 206.449 170.189 205.775 170.189 204.904C170.189 204.041 170.402 203.373 170.828 202.899C171.253 202.423 171.857 202.185 172.641 202.185C173.402 202.185 173.997 202.427 174.424 202.91C174.852 203.394 175.066 204.061 175.066 204.912ZM170.842 204.912C170.842 205.63 170.994 206.175 171.299 206.547C171.606 206.917 172.051 207.102 172.633 207.102C173.221 207.102 173.664 206.917 173.964 206.547C174.264 206.177 174.414 205.632 174.414 204.912C174.414 204.199 174.264 203.658 173.964 203.291C173.667 202.921 173.225 202.736 172.641 202.736C172.053 202.736 171.606 202.922 171.299 203.294C170.994 203.664 170.842 204.203 170.842 204.912ZM178.881 207.569V204.999C178.881 204.675 178.807 204.433 178.66 204.273C178.512 204.114 178.281 204.034 177.967 204.034C177.551 204.034 177.247 204.147 177.053 204.371C176.86 204.596 176.763 204.967 176.763 205.485V207.569H176.161V203.595H176.651L176.749 204.139H176.778C176.901 203.944 177.074 203.792 177.296 203.686C177.519 203.577 177.766 203.523 178.04 203.523C178.518 203.523 178.878 203.639 179.12 203.871C179.362 204.101 179.483 204.469 179.483 204.977V207.569H178.881ZM181.325 207.569H180.723V201.928H181.325V207.569ZM183.203 207.569H182.601V203.595H183.203V207.569ZM182.55 202.519C182.55 202.381 182.584 202.28 182.652 202.218C182.719 202.152 182.804 202.12 182.906 202.12C183.002 202.12 183.086 202.152 183.156 202.218C183.226 202.283 183.261 202.383 183.261 202.519C183.261 202.654 183.226 202.755 183.156 202.823C183.086 202.888 183.002 202.921 182.906 202.921C182.804 202.921 182.719 202.888 182.652 202.823C182.584 202.755 182.55 202.654 182.55 202.519ZM187.199 207.569V204.999C187.199 204.675 187.125 204.433 186.977 204.273C186.83 204.114 186.599 204.034 186.285 204.034C185.869 204.034 185.565 204.147 185.371 204.371C185.178 204.596 185.081 204.967 185.081 205.485V207.569H184.479V203.595H184.969L185.067 204.139H185.096C185.219 203.944 185.392 203.792 185.614 203.686C185.836 203.577 186.084 203.523 186.357 203.523C186.836 203.523 187.196 203.639 187.438 203.871C187.68 204.101 187.801 204.469 187.801 204.977V207.569H187.199ZM190.719 207.642C190.132 207.642 189.668 207.463 189.327 207.105C188.989 206.748 188.819 206.251 188.819 205.615C188.819 204.975 188.977 204.466 189.291 204.089C189.607 203.711 190.032 203.523 190.563 203.523C191.061 203.523 191.455 203.687 191.746 204.016C192.036 204.342 192.181 204.774 192.181 205.311V205.691H189.443C189.455 206.158 189.572 206.512 189.795 206.754C190.02 206.995 190.335 207.116 190.741 207.116C191.169 207.116 191.592 207.027 192.01 206.848V207.385C191.798 207.476 191.596 207.542 191.405 207.58C191.216 207.621 190.988 207.642 190.719 207.642ZM190.556 204.027C190.237 204.027 189.982 204.131 189.791 204.339C189.603 204.547 189.491 204.834 189.458 205.202H191.535C191.535 204.822 191.451 204.532 191.281 204.332C191.112 204.128 190.87 204.027 190.556 204.027ZM198.221 206.159C198.221 206.626 198.052 206.989 197.714 207.25C197.375 207.511 196.916 207.642 196.336 207.642C195.707 207.642 195.224 207.561 194.886 207.399V206.804C195.103 206.896 195.34 206.969 195.596 207.022C195.852 207.075 196.106 207.102 196.358 207.102C196.769 207.102 197.078 207.024 197.286 206.87C197.494 206.713 197.598 206.495 197.598 206.217C197.598 206.033 197.56 205.883 197.485 205.767C197.413 205.649 197.29 205.54 197.116 205.441C196.944 205.342 196.682 205.23 196.329 205.104C195.836 204.927 195.483 204.718 195.27 204.477C195.06 204.235 194.954 203.919 194.954 203.53C194.954 203.122 195.108 202.797 195.415 202.555C195.722 202.313 196.128 202.192 196.633 202.192C197.16 202.192 197.645 202.289 198.087 202.482L197.895 203.019C197.458 202.835 197.032 202.743 196.619 202.743C196.292 202.743 196.037 202.813 195.854 202.954C195.67 203.094 195.578 203.288 195.578 203.537C195.578 203.721 195.612 203.872 195.68 203.991C195.747 204.107 195.861 204.214 196.02 204.313C196.182 204.41 196.429 204.518 196.76 204.636C197.316 204.834 197.698 205.047 197.906 205.274C198.116 205.501 198.221 205.796 198.221 206.159ZM201.659 207.569L201.539 207.004H201.51C201.312 207.253 201.114 207.422 200.916 207.511C200.72 207.598 200.474 207.642 200.179 207.642C199.785 207.642 199.476 207.54 199.251 207.337C199.029 207.134 198.918 206.845 198.918 206.471C198.918 205.668 199.559 205.248 200.843 205.209L201.517 205.187V204.941C201.517 204.629 201.45 204.399 201.314 204.252C201.181 204.102 200.967 204.027 200.673 204.027C200.341 204.027 199.967 204.128 199.549 204.332L199.364 203.871C199.559 203.765 199.773 203.681 200.005 203.621C200.24 203.56 200.474 203.53 200.709 203.53C201.183 203.53 201.533 203.635 201.76 203.846C201.99 204.056 202.105 204.393 202.105 204.857V207.569H201.659ZM200.299 207.145C200.674 207.145 200.967 207.042 201.18 206.837C201.395 206.632 201.503 206.344 201.503 205.974V205.615L200.901 205.64C200.422 205.657 200.077 205.732 199.864 205.865C199.654 205.996 199.549 206.2 199.549 206.478C199.549 206.696 199.614 206.861 199.744 206.975C199.877 207.088 200.062 207.145 200.299 207.145ZM203.95 207.569H203.348V201.928H203.95V207.569ZM206.906 207.642C206.318 207.642 205.854 207.463 205.513 207.105C205.175 206.748 205.006 206.251 205.006 205.615C205.006 204.975 205.163 204.466 205.477 204.089C205.794 203.711 206.218 203.523 206.75 203.523C207.248 203.523 207.642 203.687 207.932 204.016C208.222 204.342 208.367 204.774 208.367 205.311V205.691H205.629C205.641 206.158 205.759 206.512 205.981 206.754C206.206 206.995 206.521 207.116 206.927 207.116C207.355 207.116 207.778 207.027 208.196 206.848V207.385C207.984 207.476 207.782 207.542 207.591 207.58C207.402 207.621 207.174 207.642 206.906 207.642ZM206.742 204.027C206.423 204.027 206.168 204.131 205.977 204.339C205.789 204.547 205.678 204.834 205.644 205.202H207.721C207.721 204.822 207.637 204.532 207.468 204.332C207.298 204.128 207.057 204.027 206.742 204.027ZM211.96 206.485C211.96 206.855 211.822 207.14 211.547 207.341C211.271 207.542 210.884 207.642 210.386 207.642C209.859 207.642 209.449 207.559 209.154 207.392V206.833C209.345 206.93 209.549 207.006 209.766 207.062C209.986 207.117 210.198 207.145 210.401 207.145C210.715 207.145 210.957 207.096 211.126 206.997C211.295 206.895 211.38 206.742 211.38 206.536C211.38 206.381 211.312 206.25 211.177 206.141C211.044 206.03 210.783 205.899 210.394 205.749C210.024 205.611 209.76 205.492 209.603 205.39C209.449 205.286 209.332 205.169 209.255 205.039C209.18 204.908 209.143 204.752 209.143 204.571C209.143 204.247 209.274 203.992 209.538 203.806C209.801 203.617 210.163 203.523 210.622 203.523C211.05 203.523 211.468 203.61 211.877 203.784L211.663 204.273C211.264 204.109 210.903 204.027 210.579 204.027C210.293 204.027 210.078 204.072 209.933 204.161C209.788 204.251 209.716 204.374 209.716 204.531C209.716 204.637 209.742 204.728 209.795 204.803C209.851 204.878 209.939 204.949 210.06 205.017C210.181 205.084 210.413 205.182 210.756 205.311C211.228 205.482 211.546 205.655 211.71 205.829C211.877 206.003 211.96 206.222 211.96 206.485Z" fill="#222B45"/>
<rect x="159.217" y="201.425" width="6.80708" height="6.80708" rx="3.40354" fill="#0095FF"/>
</g>
<g clip-path="url(#clip1_0_239)">
<path d="M253.039 204.912C253.039 205.76 252.824 206.427 252.394 206.913C251.966 207.399 251.37 207.642 250.606 207.642C249.825 207.642 249.222 207.404 248.797 206.928C248.374 206.449 248.162 205.775 248.162 204.904C248.162 204.041 248.375 203.373 248.8 202.899C249.226 202.423 249.83 202.185 250.613 202.185C251.375 202.185 251.97 202.427 252.397 202.91C252.825 203.394 253.039 204.061 253.039 204.912ZM248.815 204.912C248.815 205.63 248.967 206.175 249.272 206.547C249.579 206.917 250.024 207.102 250.606 207.102C251.194 207.102 251.637 206.917 251.937 206.547C252.237 206.177 252.387 205.632 252.387 204.912C252.387 204.199 252.237 203.658 251.937 203.291C251.64 202.921 251.198 202.736 250.613 202.736C250.026 202.736 249.579 202.922 249.272 203.294C248.967 203.664 248.815 204.203 248.815 204.912ZM258.42 204.063H257.408V207.569H256.807V204.063H256.096V203.791L256.807 203.574V203.353C256.807 202.376 257.233 201.888 258.086 201.888C258.297 201.888 258.543 201.93 258.826 202.015L258.67 202.497C258.438 202.422 258.24 202.384 258.076 202.384C257.848 202.384 257.68 202.461 257.572 202.613C257.463 202.763 257.408 203.004 257.408 203.338V203.595H258.42V204.063ZM255.925 204.063H254.914V207.569H254.312V204.063H253.601V203.791L254.312 203.574V203.353C254.312 202.376 254.739 201.888 255.592 201.888C255.802 201.888 256.049 201.93 256.332 202.015L256.176 202.497C255.944 202.422 255.745 202.384 255.581 202.384C255.354 202.384 255.186 202.461 255.077 202.613C254.968 202.763 254.914 203.004 254.914 203.338V203.595H255.925V204.063ZM259.773 207.569H259.171V201.928H259.773V207.569ZM261.662 207.569H261.06V203.595H261.662V207.569ZM261.009 202.519C261.009 202.381 261.043 202.28 261.111 202.218C261.178 202.152 261.263 202.12 261.364 202.12C261.461 202.12 261.544 202.152 261.615 202.218C261.685 202.283 261.72 202.383 261.72 202.519C261.72 202.654 261.685 202.755 261.615 202.823C261.544 202.888 261.461 202.921 261.364 202.921C261.263 202.921 261.178 202.888 261.111 202.823C261.043 202.755 261.009 202.654 261.009 202.519ZM265.657 207.569V204.999C265.657 204.675 265.584 204.433 265.436 204.273C265.289 204.114 265.058 204.034 264.744 204.034C264.328 204.034 264.023 204.147 263.83 204.371C263.637 204.596 263.54 204.967 263.54 205.485V207.569H262.938V203.595H263.427L263.525 204.139H263.554C263.678 203.944 263.85 203.792 264.073 203.686C264.295 203.577 264.543 203.523 264.816 203.523C265.295 203.523 265.655 203.639 265.897 203.871C266.138 204.101 266.259 204.469 266.259 204.977V207.569H265.657ZM269.178 207.642C268.591 207.642 268.127 207.463 267.786 207.105C267.447 206.748 267.278 206.251 267.278 205.615C267.278 204.975 267.435 204.466 267.75 204.089C268.066 203.711 268.49 203.523 269.022 203.523C269.52 203.523 269.914 203.687 270.204 204.016C270.494 204.342 270.639 204.774 270.639 205.311V205.691H267.902C267.914 206.158 268.031 206.512 268.254 206.754C268.478 206.995 268.794 207.116 269.2 207.116C269.628 207.116 270.051 207.027 270.469 206.848V207.385C270.256 207.476 270.054 207.542 269.863 207.58C269.675 207.621 269.447 207.642 269.178 207.642ZM269.015 204.027C268.696 204.027 268.441 204.131 268.25 204.339C268.061 204.547 267.95 204.834 267.916 205.202H269.994C269.994 204.822 269.909 204.532 269.74 204.332C269.571 204.128 269.329 204.027 269.015 204.027ZM276.68 206.159C276.68 206.626 276.511 206.989 276.173 207.25C275.834 207.511 275.375 207.642 274.795 207.642C274.166 207.642 273.683 207.561 273.344 207.399V206.804C273.562 206.896 273.799 206.969 274.055 207.022C274.311 207.075 274.565 207.102 274.817 207.102C275.227 207.102 275.537 207.024 275.745 206.87C275.953 206.713 276.057 206.495 276.057 206.217C276.057 206.033 276.019 205.883 275.944 205.767C275.872 205.649 275.748 205.54 275.574 205.441C275.403 205.342 275.14 205.23 274.788 205.104C274.294 204.927 273.941 204.718 273.729 204.477C273.518 204.235 273.413 203.919 273.413 203.53C273.413 203.122 273.567 202.797 273.874 202.555C274.181 202.313 274.587 202.192 275.092 202.192C275.619 202.192 276.104 202.289 276.546 202.482L276.354 203.019C275.916 202.835 275.491 202.743 275.078 202.743C274.751 202.743 274.496 202.813 274.313 202.954C274.129 203.094 274.037 203.288 274.037 203.537C274.037 203.721 274.071 203.872 274.138 203.991C274.206 204.107 274.32 204.214 274.479 204.313C274.641 204.41 274.888 204.518 275.219 204.636C275.775 204.834 276.157 205.047 276.365 205.274C276.575 205.501 276.68 205.796 276.68 206.159ZM280.118 207.569L279.998 207.004H279.969C279.771 207.253 279.573 207.422 279.374 207.511C279.179 207.598 278.933 207.642 278.638 207.642C278.244 207.642 277.935 207.54 277.71 207.337C277.488 207.134 277.376 206.845 277.376 206.471C277.376 205.668 278.018 205.248 279.302 205.209L279.976 205.187V204.941C279.976 204.629 279.909 204.399 279.773 204.252C279.64 204.102 279.426 204.027 279.131 204.027C278.8 204.027 278.426 204.128 278.007 204.332L277.822 203.871C278.018 203.765 278.232 203.681 278.464 203.621C278.699 203.56 278.933 203.53 279.168 203.53C279.641 203.53 279.992 203.635 280.219 203.846C280.449 204.056 280.564 204.393 280.564 204.857V207.569H280.118ZM278.758 207.145C279.133 207.145 279.426 207.042 279.639 206.837C279.854 206.632 279.962 206.344 279.962 205.974V205.615L279.36 205.64C278.881 205.657 278.536 205.732 278.323 205.865C278.112 205.996 278.007 206.2 278.007 206.478C278.007 206.696 278.073 206.861 278.203 206.975C278.336 207.088 278.521 207.145 278.758 207.145ZM282.409 207.569H281.807V201.928H282.409V207.569ZM285.364 207.642C284.777 207.642 284.313 207.463 283.972 207.105C283.634 206.748 283.464 206.251 283.464 205.615C283.464 204.975 283.621 204.466 283.936 204.089C284.252 203.711 284.677 203.523 285.208 203.523C285.706 203.523 286.1 203.687 286.39 204.016C286.681 204.342 286.826 204.774 286.826 205.311V205.691H284.088C284.1 206.158 284.217 206.512 284.44 206.754C284.665 206.995 284.98 207.116 285.386 207.116C285.814 207.116 286.237 207.027 286.655 206.848V207.385C286.442 207.476 286.241 207.542 286.05 207.58C285.861 207.621 285.633 207.642 285.364 207.642ZM285.201 204.027C284.882 204.027 284.627 204.131 284.436 204.339C284.248 204.547 284.136 204.834 284.103 205.202H286.18C286.18 204.822 286.096 204.532 285.926 204.332C285.757 204.128 285.515 204.027 285.201 204.027ZM290.419 206.485C290.419 206.855 290.281 207.14 290.006 207.341C289.73 207.542 289.343 207.642 288.845 207.642C288.318 207.642 287.907 207.559 287.612 207.392V206.833C287.803 206.93 288.008 207.006 288.225 207.062C288.445 207.117 288.657 207.145 288.86 207.145C289.174 207.145 289.416 207.096 289.585 206.997C289.754 206.895 289.839 206.742 289.839 206.536C289.839 206.381 289.771 206.25 289.636 206.141C289.503 206.03 289.242 205.899 288.852 205.749C288.483 205.611 288.219 205.492 288.062 205.39C287.907 205.286 287.791 205.169 287.714 205.039C287.639 204.908 287.602 204.752 287.602 204.571C287.602 204.247 287.733 203.992 287.997 203.806C288.26 203.617 288.622 203.523 289.081 203.523C289.509 203.523 289.927 203.61 290.335 203.784L290.122 204.273C289.723 204.109 289.361 204.027 289.037 204.027C288.752 204.027 288.537 204.072 288.392 204.161C288.247 204.251 288.174 204.374 288.174 204.531C288.174 204.637 288.201 204.728 288.254 204.803C288.31 204.878 288.398 204.949 288.519 205.017C288.64 205.084 288.872 205.182 289.215 205.311C289.686 205.482 290.004 205.655 290.169 205.829C290.335 206.003 290.419 206.222 290.419 206.485Z" fill="#222B45"/>
<rect x="237.189" y="201.425" width="6.80708" height="6.80708" rx="3.40354" fill="#00E096"/>
</g>
<path d="M54.6354 146.038H394.989" stroke="#EFF1F3" stroke-width="0.618825" stroke-linecap="round"/>
<path d="M54.6354 165.221H394.989" stroke="#EFF1F3" stroke-width="0.618825" stroke-linecap="round"/>
<path d="M54.6354 126.235H394.989" stroke="#EFF1F3" stroke-width="0.618825" stroke-linecap="round"/>
<path d="M54.6354 106.433H394.989" stroke="#EFF1F3" stroke-width="0.618825" stroke-linecap="round"/>
<path d="M54.6354 86.6307H394.989" stroke="#EFF1F3" stroke-width="0.618825" stroke-linecap="round"/>
<path d="M54.6354 66.8282H394.989" stroke="#EFF1F3" stroke-width="0.618825" stroke-linecap="round"/>
<path d="M30.8799 69.0261C31.5087 68.5212 32.0012 68.1078 32.3577 67.786C32.7141 67.4593 33.0136 67.1202 33.2562 66.7687C33.5037 66.4122 33.6275 66.0632 33.6275 65.7216C33.6275 65.3998 33.5483 65.1474 33.3899 64.9642C33.2364 64.7761 32.9864 64.682 32.6399 64.682C32.3032 64.682 32.0408 64.7884 31.8527 65.0013C31.6695 65.2092 31.5705 65.4889 31.5557 65.8404H30.9022C30.922 65.286 31.0903 64.8577 31.4072 64.5558C31.724 64.2538 32.1324 64.1028 32.6324 64.1028C33.1424 64.1028 33.5458 64.2439 33.8429 64.5261C34.1448 64.8082 34.2958 65.1969 34.2958 65.6919C34.2958 66.1028 34.1721 66.5038 33.9245 66.8949C33.682 67.2811 33.4047 67.6227 33.0928 67.9197C32.781 68.2118 32.3824 68.5534 31.8973 68.9445H34.4518V69.5088H30.8799V69.0261ZM38.6563 64.786H36.0498V66.4791C36.1637 66.3206 36.332 66.1919 36.5548 66.0929C36.7775 65.989 37.0176 65.937 37.2751 65.937C37.686 65.937 38.0201 66.0236 38.2776 66.1969C38.535 66.3652 38.7182 66.5855 38.8271 66.8578C38.941 67.1251 38.9979 67.4098 38.9979 67.7118C38.9979 68.0682 38.9311 68.3875 38.7974 68.6697C38.6637 68.9519 38.4583 69.1747 38.181 69.338C37.9088 69.5014 37.5696 69.5831 37.1637 69.5831C36.6439 69.5831 36.2231 69.4494 35.9013 69.1821C35.5795 68.9148 35.3839 68.5583 35.3146 68.1128H35.9755C36.0399 68.3949 36.176 68.6152 36.384 68.7737C36.5919 68.9321 36.8543 69.0113 37.1711 69.0113C37.5622 69.0113 37.8568 68.895 38.0548 68.6623C38.2528 68.4246 38.3518 68.1128 38.3518 67.7266C38.3518 67.3405 38.2528 67.0434 38.0548 66.8355C37.8568 66.6226 37.5647 66.5162 37.1785 66.5162C36.9162 66.5162 36.686 66.5805 36.4879 66.7093C36.2949 66.833 36.1538 67.0038 36.0647 67.2217H35.426V64.1919H38.6563V64.786ZM42.2796 69.5682L40.683 67.7712V69.5682H40.0073V64.0731H40.683V67.3033L42.2499 65.4988H43.193L41.2771 67.5261L43.2004 69.5682H42.2796Z" fill="#7B91B0"/>
<path d="M30.8799 88.8285C31.5087 88.3236 32.0012 87.9102 32.3577 87.5884C32.7141 87.2616 33.0136 86.9225 33.2562 86.571C33.5037 86.2146 33.6275 85.8656 33.6275 85.524C33.6275 85.2022 33.5483 84.9497 33.3899 84.7665C33.2364 84.5784 32.9864 84.4844 32.6399 84.4844C32.3032 84.4844 32.0408 84.5908 31.8527 84.8037C31.6695 85.0116 31.5705 85.2913 31.5557 85.6428H30.9022C30.922 85.0883 31.0903 84.6601 31.4072 84.3581C31.724 84.0561 32.1324 83.9051 32.6324 83.9051C33.1424 83.9051 33.5458 84.0462 33.8429 84.3284C34.1448 84.6106 34.2958 84.9992 34.2958 85.4943C34.2958 85.9052 34.1721 86.3062 33.9245 86.6973C33.682 87.0834 33.4047 87.425 33.0928 87.7221C32.781 88.0141 32.3824 88.3557 31.8973 88.7468H34.4518V89.3112H30.8799V88.8285ZM35.233 86.6304C35.233 85.7789 35.3716 85.1156 35.6488 84.6403C35.926 84.1601 36.4112 83.92 37.1043 83.92C37.7924 83.92 38.2751 84.1601 38.5523 84.6403C38.8296 85.1156 38.9682 85.7789 38.9682 86.6304C38.9682 87.4968 38.8296 88.1701 38.5523 88.6503C38.2751 89.1305 37.7924 89.3706 37.1043 89.3706C36.4112 89.3706 35.926 89.1305 35.6488 88.6503C35.3716 88.1701 35.233 87.4968 35.233 86.6304ZM38.2999 86.6304C38.2999 86.1997 38.2701 85.8359 38.2107 85.5388C38.1563 85.2369 38.0399 84.9943 37.8617 84.8111C37.6885 84.6279 37.436 84.5363 37.1043 84.5363C36.7676 84.5363 36.5102 84.6279 36.332 84.8111C36.1587 84.9943 36.0424 85.2369 35.983 85.5388C35.9285 85.8359 35.9013 86.1997 35.9013 86.6304C35.9013 87.076 35.9285 87.4498 35.983 87.7518C36.0424 88.0537 36.1587 88.2963 36.332 88.4795C36.5102 88.6627 36.7676 88.7543 37.1043 88.7543C37.436 88.7543 37.6885 88.6627 37.8617 88.4795C38.0399 88.2963 38.1563 88.0537 38.2107 87.7518C38.2701 87.4498 38.2999 87.076 38.2999 86.6304ZM42.2796 89.3706L40.683 87.5735V89.3706H40.0073V83.8754H40.683V87.1057L42.2499 85.3012H43.193L41.2771 87.3285L43.2004 89.3706H42.2796Z" fill="#7B91B0"/>
<path d="M30.7834 124.223V123.607H32.1795V128.975H31.4963V124.223H30.7834ZM33.3402 126.235C33.3402 125.384 33.4788 124.72 33.7561 124.245C34.0333 123.765 34.5185 123.525 35.2115 123.525C35.8997 123.525 36.3824 123.765 36.6596 124.245C36.9368 124.72 37.0754 125.384 37.0754 126.235C37.0754 127.102 36.9368 127.775 36.6596 128.255C36.3824 128.735 35.8997 128.975 35.2115 128.975C34.5185 128.975 34.0333 128.735 33.7561 128.255C33.4788 127.775 33.3402 127.102 33.3402 126.235ZM36.4071 126.235C36.4071 125.805 36.3774 125.441 36.318 125.144C36.2636 124.842 36.1472 124.599 35.969 124.416C35.7957 124.233 35.5432 124.141 35.2115 124.141C34.8749 124.141 34.6175 124.233 34.4393 124.416C34.266 124.599 34.1496 124.842 34.0902 125.144C34.0358 125.441 34.0086 125.805 34.0086 126.235C34.0086 126.681 34.0358 127.055 34.0902 127.357C34.1496 127.659 34.266 127.901 34.4393 128.084C34.6175 128.268 34.8749 128.359 35.2115 128.359C35.5432 128.359 35.7957 128.268 35.969 128.084C36.1472 127.901 36.2636 127.659 36.318 127.357C36.3774 127.055 36.4071 126.681 36.4071 126.235ZM40.3869 128.975L38.7903 127.178V128.975H38.1146V123.48H38.7903V126.711L40.3572 124.906H41.3003L39.3844 126.933L41.3077 128.975H40.3869Z" fill="#7B91B0"/>
<path d="M30.7834 104.421V103.804H32.1795V109.173H31.4963V104.421H30.7834ZM36.7636 104.391H34.1571V106.084C34.2709 105.926 34.4393 105.797 34.662 105.698C34.8848 105.594 35.1249 105.542 35.3823 105.542C35.7932 105.542 36.1274 105.628 36.3848 105.802C36.6423 105.97 36.8254 106.19 36.9344 106.463C37.0482 106.73 37.1052 107.015 37.1052 107.317C37.1052 107.673 37.0383 107.992 36.9047 108.275C36.771 108.557 36.5655 108.78 36.2883 108.943C36.016 109.106 35.6769 109.188 35.271 109.188C34.7511 109.188 34.3303 109.054 34.0086 108.787C33.6868 108.52 33.4912 108.163 33.4219 107.718H34.0828C34.1472 108 34.2833 108.22 34.4912 108.379C34.6992 108.537 34.9615 108.616 35.2784 108.616C35.6695 108.616 35.964 108.5 36.1621 108.267C36.3601 108.03 36.4591 107.718 36.4591 107.331C36.4591 106.945 36.3601 106.648 36.1621 106.44C35.964 106.227 35.672 106.121 35.2858 106.121C35.0234 106.121 34.7932 106.185 34.5952 106.314C34.4021 106.438 34.261 106.609 34.1719 106.827H33.5333V103.797H36.7636V104.391ZM40.3869 109.173L38.7903 107.376V109.173H38.1146V103.678H38.7903V106.908L40.3572 105.104H41.3003L39.3844 107.131L41.3077 109.173H40.3869Z" fill="#7B91B0"/>
<path d="M34.385 143.996H31.7785V145.689C31.8923 145.53 32.0606 145.402 32.2834 145.303C32.5062 145.199 32.7463 145.147 33.0037 145.147C33.4146 145.147 33.7488 145.233 34.0062 145.406C34.2637 145.575 34.4468 145.795 34.5557 146.067C34.6696 146.335 34.7265 146.619 34.7265 146.921C34.7265 147.278 34.6597 147.597 34.526 147.879C34.3924 148.161 34.1869 148.384 33.9097 148.548C33.6374 148.711 33.2983 148.793 32.8923 148.793C32.3725 148.793 31.9517 148.659 31.6299 148.392C31.3082 148.124 31.1126 147.768 31.0433 147.322H31.7042C31.7686 147.605 31.9047 147.825 32.1126 147.983C32.3206 148.142 32.5829 148.221 32.8998 148.221C33.2909 148.221 33.5854 148.105 33.7835 147.872C33.9815 147.634 34.0805 147.322 34.0805 146.936C34.0805 146.55 33.9815 146.253 33.7835 146.045C33.5854 145.832 33.2933 145.726 32.9072 145.726C32.6448 145.726 32.4146 145.79 32.2166 145.919C32.0235 146.043 31.8824 146.213 31.7933 146.431H31.1547V143.401H34.385V143.996ZM38.0083 148.778L36.4117 146.981V148.778H35.7359V143.283H36.4117V146.513L37.9786 144.708H38.9217L37.0058 146.736L38.9291 148.778H38.0083Z" fill="#7B91B0"/>
<path d="M30.9616 165.84C30.9616 164.989 31.1002 164.325 31.3775 163.85C31.6547 163.37 32.1399 163.13 32.8329 163.13C33.5211 163.13 34.0038 163.37 34.281 163.85C34.5582 164.325 34.6968 164.989 34.6968 165.84C34.6968 166.706 34.5582 167.38 34.281 167.86C34.0038 168.34 33.5211 168.58 32.8329 168.58C32.1399 168.58 31.6547 168.34 31.3775 167.86C31.1002 167.38 30.9616 166.706 30.9616 165.84ZM34.0285 165.84C34.0285 165.409 33.9988 165.046 33.9394 164.748C33.8849 164.447 33.7686 164.204 33.5904 164.021C33.4171 163.838 33.1646 163.746 32.8329 163.746C32.4963 163.746 32.2389 163.838 32.0606 164.021C31.8874 164.204 31.771 164.447 31.7116 164.748C31.6572 165.046 31.6299 165.409 31.6299 165.84C31.6299 166.286 31.6572 166.659 31.7116 166.961C31.771 167.263 31.8874 167.506 32.0606 167.689C32.2389 167.872 32.4963 167.964 32.8329 167.964C33.1646 167.964 33.4171 167.872 33.5904 167.689C33.7686 167.506 33.8849 167.263 33.9394 166.961C33.9988 166.659 34.0285 166.286 34.0285 165.84Z" fill="#7B91B0"/>
<path d="M69.533 178.294V183.433H68.8573V179.601L67.1493 183.433H66.6741L64.9587 179.594V183.433H64.2829V178.294H65.0107L66.9117 182.542L68.8127 178.294H69.533ZM72.4539 183.5C72.0727 183.5 71.7261 183.413 71.4142 183.24C71.1073 183.067 70.8647 182.821 70.6865 182.505C70.5132 182.183 70.4266 181.812 70.4266 181.391C70.4266 180.975 70.5157 180.609 70.6939 180.292C70.8771 179.97 71.1246 179.725 71.4365 179.557C71.7484 179.383 72.0974 179.297 72.4836 179.297C72.8697 179.297 73.2187 179.383 73.5306 179.557C73.8425 179.725 74.0876 179.967 74.2658 180.284C74.4489 180.601 74.5405 180.97 74.5405 181.391C74.5405 181.812 74.4465 182.183 74.2584 182.505C74.0752 182.821 73.8252 183.067 73.5083 183.24C73.1915 183.413 72.84 183.5 72.4539 183.5ZM72.4539 182.906C72.6964 182.906 72.9242 182.849 73.137 182.735C73.3499 182.621 73.5207 182.45 73.6494 182.222C73.7831 181.995 73.8499 181.717 73.8499 181.391C73.8499 181.064 73.7856 180.787 73.6569 180.559C73.5281 180.331 73.3598 180.163 73.1519 180.054C72.944 179.94 72.7187 179.883 72.4761 179.883C72.2286 179.883 72.0009 179.94 71.793 180.054C71.59 180.163 71.4266 180.331 71.3028 180.559C71.1791 180.787 71.1172 181.064 71.1172 181.391C71.1172 181.722 71.1766 182.002 71.2954 182.23C71.4192 182.458 71.5826 182.628 71.7855 182.742C71.9885 182.851 72.2113 182.906 72.4539 182.906ZM77.4117 179.289C77.9068 179.289 78.3078 179.44 78.6147 179.742C78.9217 180.039 79.0752 180.47 79.0752 181.034V183.433H78.4068V181.131C78.4068 180.725 78.3053 180.415 78.1024 180.203C77.8994 179.985 77.6221 179.876 77.2707 179.876C76.9142 179.876 76.6296 179.987 76.4167 180.21C76.2088 180.433 76.1048 180.757 76.1048 181.183V183.433H75.429V179.363H76.1048V179.943C76.2385 179.735 76.4192 179.574 76.6469 179.46C76.8796 179.346 77.1345 179.289 77.4117 179.289ZM79.9265 181.383C79.9265 180.967 80.0107 180.604 80.179 180.292C80.3473 179.975 80.5775 179.73 80.8696 179.557C81.1666 179.383 81.4983 179.297 81.8647 179.297C82.1815 179.297 82.4761 179.371 82.7484 179.519C83.0206 179.663 83.2286 179.854 83.3721 180.091V177.938H84.0553V183.433H83.3721V182.668C83.2385 182.911 83.0404 183.111 82.7781 183.269C82.5157 183.423 82.2087 183.5 81.8573 183.5C81.4959 183.5 81.1666 183.411 80.8696 183.232C80.5775 183.054 80.3473 182.804 80.179 182.482C80.0107 182.161 79.9265 181.794 79.9265 181.383ZM83.3721 181.391C83.3721 181.084 83.3103 180.816 83.1865 180.589C83.0627 180.361 82.8944 180.188 82.6815 180.069C82.4736 179.945 82.2434 179.883 81.9909 179.883C81.7384 179.883 81.5082 179.943 81.3003 180.062C81.0924 180.18 80.9265 180.354 80.8028 180.581C80.679 180.809 80.6171 181.076 80.6171 181.383C80.6171 181.695 80.679 181.967 80.8028 182.2C80.9265 182.428 81.0924 182.604 81.3003 182.727C81.5082 182.846 81.7384 182.906 81.9909 182.906C82.2434 182.906 82.4736 182.846 82.6815 182.727C82.8944 182.604 83.0627 182.428 83.1865 182.2C83.3103 181.967 83.3721 181.698 83.3721 181.391ZM84.9448 181.383C84.9448 180.967 85.029 180.604 85.1973 180.292C85.3656 179.975 85.5958 179.73 85.8879 179.557C86.1849 179.383 86.5141 179.297 86.8755 179.297C87.232 179.297 87.5414 179.373 87.8038 179.527C88.0662 179.68 88.2617 179.873 88.3904 180.106V179.363H89.0736V183.433H88.3904V182.675C88.2568 182.913 88.0563 183.111 87.7889 183.269C87.5265 183.423 87.2196 183.5 86.8681 183.5C86.5067 183.5 86.18 183.411 85.8879 183.232C85.5958 183.054 85.3656 182.804 85.1973 182.482C85.029 182.161 84.9448 181.794 84.9448 181.383ZM88.3904 181.391C88.3904 181.084 88.3285 180.816 88.2048 180.589C88.081 180.361 87.9127 180.188 87.6998 180.069C87.4919 179.945 87.2617 179.883 87.0092 179.883C86.7567 179.883 86.5265 179.943 86.3186 180.062C86.1107 180.18 85.9448 180.354 85.8211 180.581C85.6973 180.809 85.6354 181.076 85.6354 181.383C85.6354 181.695 85.6973 181.967 85.8211 182.2C85.9448 182.428 86.1107 182.604 86.3186 182.727C86.5265 182.846 86.7567 182.906 87.0092 182.906C87.2617 182.906 87.4919 182.846 87.6998 182.727C87.9127 182.604 88.081 182.428 88.2048 182.2C88.3285 181.967 88.3904 181.698 88.3904 181.391ZM93.7206 179.363L91.27 185.349H90.572L91.374 183.388L89.7329 179.363H90.4829L91.7602 182.661L93.0226 179.363H93.7206Z" fill="#7B91B0"/>
<path d="M115.678 178.257V178.807H114.267V183.433H113.591V178.807H112.173V178.257H115.678ZM120.119 179.363V183.433H119.443V182.831C119.314 183.039 119.133 183.203 118.901 183.321C118.673 183.435 118.421 183.492 118.143 183.492C117.826 183.492 117.542 183.428 117.289 183.299C117.037 183.166 116.836 182.968 116.688 182.705C116.544 182.443 116.472 182.123 116.472 181.747V179.363H117.141V181.658C117.141 182.059 117.242 182.368 117.445 182.586C117.648 182.799 117.925 182.906 118.277 182.906C118.638 182.906 118.923 182.794 119.131 182.571C119.339 182.349 119.443 182.024 119.443 181.599V179.363H120.119ZM124.973 181.242C124.973 181.371 124.965 181.507 124.95 181.651H121.698C121.722 182.052 121.859 182.366 122.106 182.594C122.359 182.817 122.663 182.928 123.019 182.928C123.312 182.928 123.554 182.861 123.747 182.727C123.945 182.589 124.084 182.406 124.163 182.178H124.891C124.782 182.569 124.564 182.888 124.237 183.136C123.911 183.378 123.505 183.5 123.019 183.5C122.633 183.5 122.287 183.413 121.98 183.24C121.678 183.067 121.44 182.821 121.267 182.505C121.094 182.183 121.007 181.812 121.007 181.391C121.007 180.97 121.091 180.601 121.26 180.284C121.428 179.967 121.663 179.725 121.965 179.557C122.272 179.383 122.623 179.297 123.019 179.297C123.406 179.297 123.747 179.381 124.044 179.549C124.341 179.717 124.569 179.95 124.727 180.247C124.891 180.539 124.973 180.871 124.973 181.242ZM124.274 181.101C124.274 180.844 124.218 180.623 124.104 180.44C123.99 180.252 123.834 180.111 123.636 180.017C123.443 179.918 123.227 179.868 122.99 179.868C122.648 179.868 122.356 179.977 122.114 180.195C121.876 180.413 121.74 180.715 121.705 181.101H124.274ZM127.305 183.5C126.993 183.5 126.714 183.448 126.466 183.344C126.218 183.235 126.023 183.086 125.879 182.898C125.736 182.705 125.657 182.485 125.642 182.237H126.34C126.36 182.44 126.454 182.606 126.622 182.735C126.795 182.864 127.02 182.928 127.298 182.928C127.555 182.928 127.758 182.871 127.907 182.757C128.055 182.643 128.129 182.5 128.129 182.326C128.129 182.148 128.05 182.017 127.892 181.933C127.733 181.844 127.488 181.757 127.157 181.673C126.855 181.594 126.607 181.515 126.414 181.435C126.226 181.351 126.063 181.23 125.924 181.071C125.79 180.908 125.723 180.695 125.723 180.433C125.723 180.225 125.785 180.034 125.909 179.861C126.033 179.688 126.209 179.552 126.436 179.453C126.664 179.349 126.924 179.297 127.216 179.297C127.666 179.297 128.03 179.41 128.308 179.638C128.585 179.866 128.733 180.178 128.753 180.574H128.077C128.063 180.361 127.976 180.19 127.817 180.062C127.664 179.933 127.456 179.868 127.194 179.868C126.951 179.868 126.758 179.92 126.614 180.024C126.471 180.128 126.399 180.264 126.399 180.433C126.399 180.566 126.441 180.678 126.525 180.767C126.614 180.851 126.723 180.92 126.852 180.975C126.986 181.024 127.169 181.081 127.402 181.146C127.694 181.225 127.931 181.304 128.115 181.383C128.298 181.458 128.454 181.571 128.582 181.725C128.716 181.878 128.785 182.079 128.79 182.326C128.79 182.549 128.728 182.75 128.605 182.928C128.481 183.106 128.305 183.247 128.077 183.351C127.855 183.45 127.597 183.5 127.305 183.5ZM129.492 181.383C129.492 180.967 129.576 180.604 129.744 180.292C129.913 179.975 130.143 179.73 130.435 179.557C130.732 179.383 131.064 179.297 131.43 179.297C131.747 179.297 132.041 179.371 132.314 179.519C132.586 179.663 132.794 179.854 132.937 180.091V177.938H133.621V183.433H132.937V182.668C132.804 182.911 132.606 183.111 132.343 183.269C132.081 183.423 131.774 183.5 131.422 183.5C131.061 183.5 130.732 183.411 130.435 183.232C130.143 183.054 129.913 182.804 129.744 182.482C129.576 182.161 129.492 181.794 129.492 181.383ZM132.937 181.391C132.937 181.084 132.875 180.816 132.752 180.589C132.628 180.361 132.46 180.188 132.247 180.069C132.039 179.945 131.809 179.883 131.556 179.883C131.304 179.883 131.073 179.943 130.866 180.062C130.658 180.18 130.492 180.354 130.368 180.581C130.244 180.809 130.182 181.076 130.182 181.383C130.182 181.695 130.244 181.967 130.368 182.2C130.492 182.428 130.658 182.604 130.866 182.727C131.073 182.846 131.304 182.906 131.556 182.906C131.809 182.906 132.039 182.846 132.247 182.727C132.46 182.604 132.628 182.428 132.752 182.2C132.875 181.967 132.937 181.698 132.937 181.391ZM134.51 181.383C134.51 180.967 134.594 180.604 134.763 180.292C134.931 179.975 135.161 179.73 135.453 179.557C135.75 179.383 136.079 179.297 136.441 179.297C136.797 179.297 137.107 179.373 137.369 179.527C137.631 179.68 137.827 179.873 137.956 180.106V179.363H138.639V183.433H137.956V182.675C137.822 182.913 137.621 183.111 137.354 183.269C137.092 183.423 136.785 183.5 136.433 183.5C136.072 183.5 135.745 183.411 135.453 183.232C135.161 183.054 134.931 182.804 134.763 182.482C134.594 182.161 134.51 181.794 134.51 181.383ZM137.956 181.391C137.956 181.084 137.894 180.816 137.77 180.589C137.646 180.361 137.478 180.188 137.265 180.069C137.057 179.945 136.827 179.883 136.574 179.883C136.322 179.883 136.092 179.943 135.884 180.062C135.676 180.18 135.51 180.354 135.386 180.581C135.263 180.809 135.201 181.076 135.201 181.383C135.201 181.695 135.263 181.967 135.386 182.2C135.51 182.428 135.676 182.604 135.884 182.727C136.092 182.846 136.322 182.906 136.574 182.906C136.827 182.906 137.057 182.846 137.265 182.727C137.478 182.604 137.646 182.428 137.77 182.2C137.894 181.967 137.956 181.698 137.956 181.391ZM143.286 179.363L140.835 185.349H140.137L140.939 183.388L139.298 179.363H140.048L141.325 182.661L142.588 179.363H143.286Z" fill="#7B91B0"/>
<path d="M160.84 178.257L159.34 183.433H158.583L157.38 179.267L156.132 183.433L155.382 183.44L153.934 178.257H154.655L155.783 182.646L157.031 178.257H157.788L158.976 182.631L160.113 178.257H160.84ZM165.293 181.242C165.293 181.371 165.285 181.507 165.271 181.651H162.018C162.043 182.052 162.179 182.366 162.426 182.594C162.679 182.817 162.983 182.928 163.34 182.928C163.632 182.928 163.874 182.861 164.068 182.727C164.266 182.589 164.404 182.406 164.483 182.178H165.211C165.102 182.569 164.884 182.888 164.558 183.136C164.231 183.378 163.825 183.5 163.34 183.5C162.954 183.5 162.607 183.413 162.3 183.24C161.998 183.067 161.761 182.821 161.587 182.505C161.414 182.183 161.327 181.812 161.327 181.391C161.327 180.97 161.412 180.601 161.58 180.284C161.748 179.967 161.983 179.725 162.285 179.557C162.592 179.383 162.944 179.297 163.34 179.297C163.726 179.297 164.068 179.381 164.365 179.549C164.662 179.717 164.889 179.95 165.048 180.247C165.211 180.539 165.293 180.871 165.293 181.242ZM164.595 181.101C164.595 180.844 164.538 180.623 164.424 180.44C164.31 180.252 164.154 180.111 163.956 180.017C163.763 179.918 163.548 179.868 163.31 179.868C162.969 179.868 162.676 179.977 162.434 180.195C162.196 180.413 162.06 180.715 162.025 181.101H164.595ZM165.932 181.383C165.932 180.967 166.016 180.604 166.185 180.292C166.353 179.975 166.583 179.73 166.875 179.557C167.172 179.383 167.504 179.297 167.87 179.297C168.187 179.297 168.482 179.371 168.754 179.519C169.026 179.663 169.234 179.854 169.378 180.091V177.938H170.061V183.433H169.378V182.668C169.244 182.911 169.046 183.111 168.784 183.269C168.521 183.423 168.215 183.5 167.863 183.5C167.502 183.5 167.172 183.411 166.875 183.232C166.583 183.054 166.353 182.804 166.185 182.482C166.016 182.161 165.932 181.794 165.932 181.383ZM169.378 181.391C169.378 181.084 169.316 180.816 169.192 180.589C169.069 180.361 168.9 180.188 168.687 180.069C168.479 179.945 168.249 179.883 167.997 179.883C167.744 179.883 167.514 179.943 167.306 180.062C167.098 180.18 166.932 180.354 166.809 180.581C166.685 180.809 166.623 181.076 166.623 181.383C166.623 181.695 166.685 181.967 166.809 182.2C166.932 182.428 167.098 182.604 167.306 182.727C167.514 182.846 167.744 182.906 167.997 182.906C168.249 182.906 168.479 182.846 168.687 182.727C168.9 182.604 169.069 182.428 169.192 182.2C169.316 181.967 169.378 181.698 169.378 181.391ZM173.186 179.289C173.681 179.289 174.082 179.44 174.389 179.742C174.696 180.039 174.849 180.47 174.849 181.034V183.433H174.181V181.131C174.181 180.725 174.079 180.415 173.876 180.203C173.673 179.985 173.396 179.876 173.045 179.876C172.688 179.876 172.404 179.987 172.191 180.21C171.983 180.433 171.879 180.757 171.879 181.183V183.433H171.203V179.363H171.879V179.943C172.012 179.735 172.193 179.574 172.421 179.46C172.654 179.346 172.909 179.289 173.186 179.289ZM179.666 181.242C179.666 181.371 179.659 181.507 179.644 181.651H176.391C176.416 182.052 176.552 182.366 176.8 182.594C177.052 182.817 177.357 182.928 177.713 182.928C178.005 182.928 178.248 182.861 178.441 182.727C178.639 182.589 178.777 182.406 178.857 182.178H179.584C179.475 182.569 179.258 182.888 178.931 183.136C178.604 183.378 178.198 183.5 177.713 183.5C177.327 183.5 176.98 183.413 176.673 183.24C176.371 183.067 176.134 182.821 175.96 182.505C175.787 182.183 175.701 181.812 175.701 181.391C175.701 180.97 175.785 180.601 175.953 180.284C176.121 179.967 176.357 179.725 176.658 179.557C176.965 179.383 177.317 179.297 177.713 179.297C178.099 179.297 178.441 179.381 178.738 179.549C179.035 179.717 179.263 179.95 179.421 180.247C179.584 180.539 179.666 180.871 179.666 181.242ZM178.968 181.101C178.968 180.844 178.911 180.623 178.797 180.44C178.683 180.252 178.527 180.111 178.329 180.017C178.136 179.918 177.921 179.868 177.683 179.868C177.342 179.868 177.05 179.977 176.807 180.195C176.569 180.413 176.433 180.715 176.399 181.101H178.968ZM181.999 183.5C181.687 183.5 181.407 183.448 181.159 183.344C180.912 183.235 180.716 183.086 180.573 182.898C180.429 182.705 180.35 182.485 180.335 182.237H181.033C181.053 182.44 181.147 182.606 181.315 182.735C181.489 182.864 181.714 182.928 181.991 182.928C182.249 182.928 182.452 182.871 182.6 182.757C182.749 182.643 182.823 182.5 182.823 182.326C182.823 182.148 182.744 182.017 182.585 181.933C182.427 181.844 182.182 181.757 181.85 181.673C181.548 181.594 181.301 181.515 181.107 181.435C180.919 181.351 180.756 181.23 180.617 181.071C180.484 180.908 180.417 180.695 180.417 180.433C180.417 180.225 180.479 180.034 180.603 179.861C180.726 179.688 180.902 179.552 181.13 179.453C181.357 179.349 181.617 179.297 181.909 179.297C182.36 179.297 182.724 179.41 183.001 179.638C183.278 179.866 183.427 180.178 183.447 180.574H182.771C182.756 180.361 182.669 180.19 182.511 180.062C182.358 179.933 182.15 179.868 181.887 179.868C181.645 179.868 181.452 179.92 181.308 180.024C181.164 180.128 181.093 180.264 181.093 180.433C181.093 180.566 181.135 180.678 181.219 180.767C181.308 180.851 181.417 180.92 181.546 180.975C181.679 181.024 181.862 181.081 182.095 181.146C182.387 181.225 182.625 181.304 182.808 181.383C182.991 181.458 183.147 181.571 183.276 181.725C183.41 181.878 183.479 182.079 183.484 182.326C183.484 182.549 183.422 182.75 183.298 182.928C183.174 183.106 182.999 183.247 182.771 183.351C182.548 183.45 182.291 183.5 181.999 183.5ZM184.185 181.383C184.185 180.967 184.269 180.604 184.438 180.292C184.606 179.975 184.836 179.73 185.128 179.557C185.425 179.383 185.757 179.297 186.123 179.297C186.44 179.297 186.735 179.371 187.007 179.519C187.279 179.663 187.487 179.854 187.631 180.091V177.938H188.314V183.433H187.631V182.668C187.497 182.911 187.299 183.111 187.037 183.269C186.774 183.423 186.467 183.5 186.116 183.5C185.755 183.5 185.425 183.411 185.128 183.232C184.836 183.054 184.606 182.804 184.438 182.482C184.269 182.161 184.185 181.794 184.185 181.383ZM187.631 181.391C187.631 181.084 187.569 180.816 187.445 180.589C187.321 180.361 187.153 180.188 186.94 180.069C186.732 179.945 186.502 179.883 186.25 179.883C185.997 179.883 185.767 179.943 185.559 180.062C185.351 180.18 185.185 180.354 185.061 180.581C184.938 180.809 184.876 181.076 184.876 181.383C184.876 181.695 184.938 181.967 185.061 182.2C185.185 182.428 185.351 182.604 185.559 182.727C185.767 182.846 185.997 182.906 186.25 182.906C186.502 182.906 186.732 182.846 186.94 182.727C187.153 182.604 187.321 182.428 187.445 182.2C187.569 181.967 187.631 181.698 187.631 181.391ZM189.204 181.383C189.204 180.967 189.288 180.604 189.456 180.292C189.624 179.975 189.855 179.73 190.147 179.557C190.444 179.383 190.773 179.297 191.134 179.297C191.491 179.297 191.8 179.373 192.062 179.527C192.325 179.68 192.52 179.873 192.649 180.106V179.363H193.332V183.433H192.649V182.675C192.515 182.913 192.315 183.111 192.048 183.269C191.785 183.423 191.478 183.5 191.127 183.5C190.765 183.5 190.439 183.411 190.147 183.232C189.855 183.054 189.624 182.804 189.456 182.482C189.288 182.161 189.204 181.794 189.204 181.383ZM192.649 181.391C192.649 181.084 192.587 180.816 192.463 180.589C192.34 180.361 192.171 180.188 191.959 180.069C191.751 179.945 191.52 179.883 191.268 179.883C191.015 179.883 190.785 179.943 190.577 180.062C190.369 180.18 190.204 180.354 190.08 180.581C189.956 180.809 189.894 181.076 189.894 181.383C189.894 181.695 189.956 181.967 190.08 182.2C190.204 182.428 190.369 182.604 190.577 182.727C190.785 182.846 191.015 182.906 191.268 182.906C191.52 182.906 191.751 182.846 191.959 182.727C192.171 182.604 192.34 182.428 192.463 182.2C192.587 181.967 192.649 181.698 192.649 181.391ZM197.979 179.363L195.529 185.349H194.831L195.633 183.388L193.992 179.363H194.742L196.019 182.661L197.281 179.363H197.979Z" fill="#7B91B0"/>
<path d="M211.376 178.257V178.807H209.965V183.433H209.289V178.807H207.871V178.257H211.376ZM214.227 179.289C214.534 179.289 214.812 179.356 215.059 179.49C215.307 179.618 215.5 179.814 215.638 180.076C215.782 180.339 215.854 180.658 215.854 181.034V183.433H215.185V181.131C215.185 180.725 215.084 180.415 214.881 180.203C214.678 179.985 214.401 179.876 214.049 179.876C213.693 179.876 213.408 179.987 213.195 180.21C212.987 180.433 212.883 180.757 212.883 181.183V183.433H212.208V177.938H212.883V179.943C213.017 179.735 213.2 179.574 213.433 179.46C213.67 179.346 213.935 179.289 214.227 179.289ZM220.566 179.363V183.433H219.891V182.831C219.762 183.039 219.581 183.203 219.349 183.321C219.121 183.435 218.868 183.492 218.591 183.492C218.274 183.492 217.99 183.428 217.737 183.299C217.485 183.166 217.284 182.968 217.136 182.705C216.992 182.443 216.92 182.123 216.92 181.747V179.363H217.589V181.658C217.589 182.059 217.69 182.368 217.893 182.586C218.096 182.799 218.373 182.906 218.725 182.906C219.086 182.906 219.371 182.794 219.579 182.571C219.787 182.349 219.891 182.024 219.891 181.599V179.363H220.566ZM222.383 180.024C222.502 179.792 222.67 179.611 222.888 179.482C223.111 179.354 223.381 179.289 223.698 179.289V179.987H223.519C222.762 179.987 222.383 180.398 222.383 181.22V183.433H221.707V179.363H222.383V180.024ZM225.918 183.5C225.606 183.5 225.327 183.448 225.079 183.344C224.832 183.235 224.636 183.086 224.493 182.898C224.349 182.705 224.27 182.485 224.255 182.237H224.953C224.973 182.44 225.067 182.606 225.235 182.735C225.408 182.864 225.634 182.928 225.911 182.928C226.168 182.928 226.371 182.871 226.52 182.757C226.668 182.643 226.743 182.5 226.743 182.326C226.743 182.148 226.663 182.017 226.505 181.933C226.347 181.844 226.101 181.757 225.77 181.673C225.468 181.594 225.22 181.515 225.027 181.435C224.839 181.351 224.676 181.23 224.537 181.071C224.403 180.908 224.337 180.695 224.337 180.433C224.337 180.225 224.398 180.034 224.522 179.861C224.646 179.688 224.822 179.552 225.049 179.453C225.277 179.349 225.537 179.297 225.829 179.297C226.28 179.297 226.644 179.41 226.921 179.638C227.198 179.866 227.347 180.178 227.366 180.574H226.691C226.676 180.361 226.589 180.19 226.431 180.062C226.277 179.933 226.069 179.868 225.807 179.868C225.564 179.868 225.371 179.92 225.228 180.024C225.084 180.128 225.012 180.264 225.012 180.433C225.012 180.566 225.054 180.678 225.139 180.767C225.228 180.851 225.337 180.92 225.465 180.975C225.599 181.024 225.782 181.081 226.015 181.146C226.307 181.225 226.545 181.304 226.728 181.383C226.911 181.458 227.067 181.571 227.196 181.725C227.329 181.878 227.399 182.079 227.403 182.326C227.403 182.549 227.342 182.75 227.218 182.928C227.094 183.106 226.918 183.247 226.691 183.351C226.468 183.45 226.21 183.5 225.918 183.5ZM228.105 181.383C228.105 180.967 228.189 180.604 228.357 180.292C228.526 179.975 228.756 179.73 229.048 179.557C229.345 179.383 229.677 179.297 230.043 179.297C230.36 179.297 230.654 179.371 230.927 179.519C231.199 179.663 231.407 179.854 231.551 180.091V177.938H232.234V183.433H231.551V182.668C231.417 182.911 231.219 183.111 230.956 183.269C230.694 183.423 230.387 183.5 230.036 183.5C229.674 183.5 229.345 183.411 229.048 183.232C228.756 183.054 228.526 182.804 228.357 182.482C228.189 182.161 228.105 181.794 228.105 181.383ZM231.551 181.391C231.551 181.084 231.489 180.816 231.365 180.589C231.241 180.361 231.073 180.188 230.86 180.069C230.652 179.945 230.422 179.883 230.169 179.883C229.917 179.883 229.687 179.943 229.479 180.062C229.271 180.18 229.105 180.354 228.981 180.581C228.857 180.809 228.796 181.076 228.796 181.383C228.796 181.695 228.857 181.967 228.981 182.2C229.105 182.428 229.271 182.604 229.479 182.727C229.687 182.846 229.917 182.906 230.169 182.906C230.422 182.906 230.652 182.846 230.86 182.727C231.073 182.604 231.241 182.428 231.365 182.2C231.489 181.967 231.551 181.698 231.551 181.391ZM233.123 181.383C233.123 180.967 233.207 180.604 233.376 180.292C233.544 179.975 233.774 179.73 234.066 179.557C234.363 179.383 234.693 179.297 235.054 179.297C235.41 179.297 235.72 179.373 235.982 179.527C236.245 179.68 236.44 179.873 236.569 180.106V179.363H237.252V183.433H236.569V182.675C236.435 182.913 236.235 183.111 235.967 183.269C235.705 183.423 235.398 183.5 235.047 183.5C234.685 183.5 234.358 183.411 234.066 183.232C233.774 183.054 233.544 182.804 233.376 182.482C233.207 182.161 233.123 181.794 233.123 181.383ZM236.569 181.391C236.569 181.084 236.507 180.816 236.383 180.589C236.259 180.361 236.091 180.188 235.878 180.069C235.67 179.945 235.44 179.883 235.188 179.883C234.935 179.883 234.705 179.943 234.497 180.062C234.289 180.18 234.123 180.354 233.999 180.581C233.876 180.809 233.814 181.076 233.814 181.383C233.814 181.695 233.876 181.967 233.999 182.2C234.123 182.428 234.289 182.604 234.497 182.727C234.705 182.846 234.935 182.906 235.188 182.906C235.44 182.906 235.67 182.846 235.878 182.727C236.091 182.604 236.259 182.428 236.383 182.2C236.507 181.967 236.569 181.698 236.569 181.391ZM241.899 179.363L239.448 185.349H238.75L239.552 183.388L237.911 179.363H238.661L239.939 182.661L241.201 179.363H241.899Z" fill="#7B91B0"/>
<path d="M265.917 178.257V178.807H263.667V180.552H265.494V181.101H263.667V183.433H262.991V178.257H265.917ZM267.409 180.024C267.528 179.792 267.696 179.611 267.914 179.482C268.137 179.354 268.406 179.289 268.723 179.289V179.987H268.545C267.787 179.987 267.409 180.398 267.409 181.22V183.433H266.733V179.363H267.409V180.024ZM269.852 178.703C269.724 178.703 269.615 178.658 269.525 178.569C269.436 178.48 269.392 178.371 269.392 178.242C269.392 178.113 269.436 178.005 269.525 177.915C269.615 177.826 269.724 177.782 269.852 177.782C269.976 177.782 270.08 177.826 270.164 177.915C270.253 178.005 270.298 178.113 270.298 178.242C270.298 178.371 270.253 178.48 270.164 178.569C270.08 178.658 269.976 178.703 269.852 178.703ZM270.179 179.363V183.433H269.503V179.363H270.179ZM271.078 181.383C271.078 180.967 271.162 180.604 271.331 180.292C271.499 179.975 271.729 179.73 272.021 179.557C272.318 179.383 272.65 179.297 273.016 179.297C273.333 179.297 273.628 179.371 273.9 179.519C274.172 179.663 274.38 179.854 274.524 180.091V177.938H275.207V183.433H274.524V182.668C274.39 182.911 274.192 183.111 273.93 183.269C273.667 183.423 273.36 183.5 273.009 183.5C272.648 183.5 272.318 183.411 272.021 183.232C271.729 183.054 271.499 182.804 271.331 182.482C271.162 182.161 271.078 181.794 271.078 181.383ZM274.524 181.391C274.524 181.084 274.462 180.816 274.338 180.589C274.214 180.361 274.046 180.188 273.833 180.069C273.625 179.945 273.395 179.883 273.143 179.883C272.89 179.883 272.66 179.943 272.452 180.062C272.244 180.18 272.078 180.354 271.954 180.581C271.831 180.809 271.769 181.076 271.769 181.383C271.769 181.695 271.831 181.967 271.954 182.2C272.078 182.428 272.244 182.604 272.452 182.727C272.66 182.846 272.89 182.906 273.143 182.906C273.395 182.906 273.625 182.846 273.833 182.727C274.046 182.604 274.214 182.428 274.338 182.2C274.462 181.967 274.524 181.698 274.524 181.391ZM276.096 181.383C276.096 180.967 276.181 180.604 276.349 180.292C276.517 179.975 276.747 179.73 277.04 179.557C277.337 179.383 277.666 179.297 278.027 179.297C278.384 179.297 278.693 179.373 278.955 179.527C279.218 179.68 279.413 179.873 279.542 180.106V179.363H280.225V183.433H279.542V182.675C279.408 182.913 279.208 183.111 278.941 183.269C278.678 183.423 278.371 183.5 278.02 183.5C277.658 183.5 277.332 183.411 277.04 183.232C276.747 183.054 276.517 182.804 276.349 182.482C276.181 182.161 276.096 181.794 276.096 181.383ZM279.542 181.391C279.542 181.084 279.48 180.816 279.356 180.589C279.233 180.361 279.064 180.188 278.851 180.069C278.644 179.945 278.413 179.883 278.161 179.883C277.908 179.883 277.678 179.943 277.47 180.062C277.262 180.18 277.097 180.354 276.973 180.581C276.849 180.809 276.787 181.076 276.787 181.383C276.787 181.695 276.849 181.967 276.973 182.2C277.097 182.428 277.262 182.604 277.47 182.727C277.678 182.846 277.908 182.906 278.161 182.906C278.413 182.906 278.644 182.846 278.851 182.727C279.064 182.604 279.233 182.428 279.356 182.2C279.48 181.967 279.542 181.698 279.542 181.391ZM284.872 179.363L282.422 185.349H281.724L282.526 183.388L280.885 179.363H281.635L282.912 182.661L284.174 179.363H284.872Z" fill="#7B91B0"/>
<path d="M307.269 183.485C306.928 183.485 306.621 183.425 306.349 183.307C306.081 183.183 305.871 183.015 305.717 182.802C305.564 182.584 305.485 182.334 305.48 182.052H306.2C306.225 182.294 306.324 182.5 306.497 182.668C306.675 182.831 306.933 182.913 307.269 182.913C307.591 182.913 307.844 182.834 308.027 182.675C308.215 182.512 308.309 182.304 308.309 182.052C308.309 181.854 308.255 181.693 308.146 181.569C308.037 181.445 307.901 181.351 307.737 181.287C307.574 181.222 307.354 181.153 307.076 181.079C306.735 180.99 306.46 180.901 306.252 180.812C306.049 180.722 305.873 180.584 305.725 180.396C305.581 180.203 305.51 179.945 305.51 179.623C305.51 179.341 305.581 179.091 305.725 178.873C305.868 178.656 306.069 178.487 306.326 178.368C306.589 178.25 306.888 178.19 307.225 178.19C307.71 178.19 308.106 178.311 308.413 178.554C308.725 178.797 308.901 179.118 308.94 179.519H308.198C308.173 179.321 308.069 179.148 307.886 179C307.703 178.846 307.46 178.769 307.158 178.769C306.876 178.769 306.646 178.844 306.467 178.992C306.289 179.136 306.2 179.339 306.2 179.601C306.2 179.789 306.252 179.943 306.356 180.062C306.465 180.18 306.596 180.272 306.75 180.336C306.908 180.396 307.128 180.465 307.411 180.544C307.752 180.638 308.027 180.732 308.235 180.826C308.443 180.915 308.621 181.057 308.769 181.25C308.918 181.438 308.992 181.695 308.992 182.022C308.992 182.274 308.925 182.512 308.792 182.735C308.658 182.958 308.46 183.138 308.198 183.277C307.935 183.416 307.626 183.485 307.269 183.485ZM309.734 181.383C309.734 180.967 309.818 180.604 309.987 180.292C310.155 179.975 310.385 179.73 310.677 179.557C310.974 179.383 311.304 179.297 311.665 179.297C312.021 179.297 312.331 179.373 312.593 179.527C312.856 179.68 313.051 179.873 313.18 180.106V179.363H313.863V183.433H313.18V182.675C313.046 182.913 312.846 183.111 312.578 183.269C312.316 183.423 312.009 183.5 311.658 183.5C311.296 183.5 310.969 183.411 310.677 183.232C310.385 183.054 310.155 182.804 309.987 182.482C309.818 182.161 309.734 181.794 309.734 181.383ZM313.18 181.391C313.18 181.084 313.118 180.816 312.994 180.589C312.87 180.361 312.702 180.188 312.489 180.069C312.281 179.945 312.051 179.883 311.799 179.883C311.546 179.883 311.316 179.943 311.108 180.062C310.9 180.18 310.734 180.354 310.61 180.581C310.487 180.809 310.425 181.076 310.425 181.383C310.425 181.695 310.487 181.967 310.61 182.2C310.734 182.428 310.9 182.604 311.108 182.727C311.316 182.846 311.546 182.906 311.799 182.906C312.051 182.906 312.281 182.846 312.489 182.727C312.702 182.604 312.87 182.428 312.994 182.2C313.118 181.967 313.18 181.698 313.18 181.391ZM315.829 179.92V182.319C315.829 182.517 315.871 182.658 315.955 182.742C316.04 182.821 316.186 182.861 316.394 182.861H316.891V183.433H316.282C315.906 183.433 315.624 183.346 315.436 183.173C315.248 183 315.153 182.715 315.153 182.319V179.92H314.626V179.363H315.153V178.339H315.829V179.363H316.891V179.92H315.829ZM321.319 179.363V183.433H320.643V182.831C320.514 183.039 320.334 183.203 320.101 183.321C319.873 183.435 319.621 183.492 319.344 183.492C319.027 183.492 318.742 183.428 318.49 183.299C318.237 183.166 318.037 182.968 317.888 182.705C317.745 182.443 317.673 182.123 317.673 181.747V179.363H318.341V181.658C318.341 182.059 318.443 182.368 318.646 182.586C318.849 182.799 319.126 182.906 319.477 182.906C319.839 182.906 320.123 182.794 320.331 182.571C320.539 182.349 320.643 182.024 320.643 181.599V179.363H321.319ZM323.136 180.024C323.254 179.792 323.423 179.611 323.641 179.482C323.863 179.354 324.133 179.289 324.45 179.289V179.987H324.272C323.514 179.987 323.136 180.398 323.136 181.22V183.433H322.46V179.363H323.136V180.024ZM324.978 181.383C324.978 180.967 325.062 180.604 325.23 180.292C325.398 179.975 325.629 179.73 325.921 179.557C326.218 179.383 326.549 179.297 326.916 179.297C327.233 179.297 327.527 179.371 327.799 179.519C328.072 179.663 328.28 179.854 328.423 180.091V177.938H329.106V183.433H328.423V182.668C328.29 182.911 328.092 183.111 327.829 183.269C327.567 183.423 327.26 183.5 326.908 183.5C326.547 183.5 326.218 183.411 325.921 183.232C325.629 183.054 325.398 182.804 325.23 182.482C325.062 182.161 324.978 181.794 324.978 181.383ZM328.423 181.391C328.423 181.084 328.361 180.816 328.238 180.589C328.114 180.361 327.945 180.188 327.733 180.069C327.525 179.945 327.294 179.883 327.042 179.883C326.79 179.883 326.559 179.943 326.351 180.062C326.143 180.18 325.978 180.354 325.854 180.581C325.73 180.809 325.668 181.076 325.668 181.383C325.668 181.695 325.73 181.967 325.854 182.2C325.978 182.428 326.143 182.604 326.351 182.727C326.559 182.846 326.79 182.906 327.042 182.906C327.294 182.906 327.525 182.846 327.733 182.727C327.945 182.604 328.114 182.428 328.238 182.2C328.361 181.967 328.423 181.698 328.423 181.391ZM329.996 181.383C329.996 180.967 330.08 180.604 330.248 180.292C330.417 179.975 330.647 179.73 330.939 179.557C331.236 179.383 331.565 179.297 331.927 179.297C332.283 179.297 332.592 179.373 332.855 179.527C333.117 179.68 333.313 179.873 333.442 180.106V179.363H334.125V183.433H333.442V182.675C333.308 182.913 333.107 183.111 332.84 183.269C332.578 183.423 332.271 183.5 331.919 183.5C331.558 183.5 331.231 183.411 330.939 183.232C330.647 183.054 330.417 182.804 330.248 182.482C330.08 182.161 329.996 181.794 329.996 181.383ZM333.442 181.391C333.442 181.084 333.38 180.816 333.256 180.589C333.132 180.361 332.964 180.188 332.751 180.069C332.543 179.945 332.313 179.883 332.06 179.883C331.808 179.883 331.578 179.943 331.37 180.062C331.162 180.18 330.996 180.354 330.872 180.581C330.748 180.809 330.687 181.076 330.687 181.383C330.687 181.695 330.748 181.967 330.872 182.2C330.996 182.428 331.162 182.604 331.37 182.727C331.578 182.846 331.808 182.906 332.06 182.906C332.313 182.906 332.543 182.846 332.751 182.727C332.964 182.604 333.132 182.428 333.256 182.2C333.38 181.967 333.442 181.698 333.442 181.391ZM338.772 179.363L336.321 185.349H335.623L336.425 183.388L334.784 179.363H335.534L336.811 182.661L338.074 179.363H338.772Z" fill="#7B91B0"/>
<path d="M359.028 183.485C358.687 183.485 358.38 183.425 358.108 183.307C357.84 183.183 357.63 183.015 357.476 182.802C357.323 182.584 357.244 182.334 357.239 182.052H357.959C357.984 182.294 358.083 182.5 358.256 182.668C358.434 182.831 358.692 182.913 359.028 182.913C359.35 182.913 359.603 182.834 359.786 182.675C359.974 182.512 360.068 182.304 360.068 182.052C360.068 181.854 360.014 181.693 359.905 181.569C359.796 181.445 359.66 181.351 359.496 181.287C359.333 181.222 359.113 181.153 358.835 181.079C358.494 180.99 358.219 180.901 358.011 180.812C357.808 180.722 357.632 180.584 357.484 180.396C357.34 180.203 357.268 179.945 357.268 179.623C357.268 179.341 357.34 179.091 357.484 178.873C357.627 178.656 357.828 178.487 358.085 178.368C358.348 178.25 358.647 178.19 358.984 178.19C359.469 178.19 359.865 178.311 360.172 178.554C360.484 178.797 360.66 179.118 360.699 179.519H359.957C359.932 179.321 359.828 179.148 359.645 179C359.462 178.846 359.219 178.769 358.917 178.769C358.635 178.769 358.405 178.844 358.226 178.992C358.048 179.136 357.959 179.339 357.959 179.601C357.959 179.789 358.011 179.943 358.115 180.062C358.224 180.18 358.355 180.272 358.509 180.336C358.667 180.396 358.887 180.465 359.169 180.544C359.511 180.638 359.786 180.732 359.994 180.826C360.202 180.915 360.38 181.057 360.528 181.25C360.677 181.438 360.751 181.695 360.751 182.022C360.751 182.274 360.684 182.512 360.551 182.735C360.417 182.958 360.219 183.138 359.957 183.277C359.694 183.416 359.385 183.485 359.028 183.485ZM365.355 179.363V183.433H364.679V182.831C364.55 183.039 364.369 183.203 364.137 183.321C363.909 183.435 363.657 183.492 363.379 183.492C363.062 183.492 362.778 183.428 362.525 183.299C362.273 183.166 362.072 182.968 361.924 182.705C361.78 182.443 361.709 182.123 361.709 181.747V179.363H362.377V181.658C362.377 182.059 362.478 182.368 362.681 182.586C362.884 182.799 363.162 182.906 363.513 182.906C363.874 182.906 364.159 182.794 364.367 182.571C364.575 182.349 364.679 182.024 364.679 181.599V179.363H365.355ZM368.478 179.289C368.973 179.289 369.374 179.44 369.681 179.742C369.988 180.039 370.142 180.47 370.142 181.034V183.433H369.473V181.131C369.473 180.725 369.372 180.415 369.169 180.203C368.966 179.985 368.689 179.876 368.337 179.876C367.981 179.876 367.696 179.987 367.483 180.21C367.275 180.433 367.171 180.757 367.171 181.183V183.433H366.496V179.363H367.171V179.943C367.305 179.735 367.486 179.574 367.713 179.46C367.946 179.346 368.201 179.289 368.478 179.289ZM370.993 181.383C370.993 180.967 371.077 180.604 371.246 180.292C371.414 179.975 371.644 179.73 371.936 179.557C372.233 179.383 372.565 179.297 372.931 179.297C373.248 179.297 373.543 179.371 373.815 179.519C374.087 179.663 374.295 179.854 374.439 180.091V177.938H375.122V183.433H374.439V182.668C374.305 182.911 374.107 183.111 373.845 183.269C373.582 183.423 373.275 183.5 372.924 183.5C372.562 183.5 372.233 183.411 371.936 183.232C371.644 183.054 371.414 182.804 371.246 182.482C371.077 182.161 370.993 181.794 370.993 181.383ZM374.439 181.391C374.439 181.084 374.377 180.816 374.253 180.589C374.129 180.361 373.961 180.188 373.748 180.069C373.54 179.945 373.31 179.883 373.057 179.883C372.805 179.883 372.575 179.943 372.367 180.062C372.159 180.18 371.993 180.354 371.869 180.581C371.746 180.809 371.684 181.076 371.684 181.383C371.684 181.695 371.746 181.967 371.869 182.2C371.993 182.428 372.159 182.604 372.367 182.727C372.575 182.846 372.805 182.906 373.057 182.906C373.31 182.906 373.54 182.846 373.748 182.727C373.961 182.604 374.129 182.428 374.253 182.2C374.377 181.967 374.439 181.698 374.439 181.391ZM376.011 181.383C376.011 180.967 376.096 180.604 376.264 180.292C376.432 179.975 376.662 179.73 376.954 179.557C377.251 179.383 377.581 179.297 377.942 179.297C378.299 179.297 378.608 179.373 378.87 179.527C379.133 179.68 379.328 179.873 379.457 180.106V179.363H380.14V183.433H379.457V182.675C379.323 182.913 379.123 183.111 378.855 183.269C378.593 183.423 378.286 183.5 377.935 183.5C377.573 183.5 377.247 183.411 376.954 183.232C376.662 183.054 376.432 182.804 376.264 182.482C376.096 182.161 376.011 181.794 376.011 181.383ZM379.457 181.391C379.457 181.084 379.395 180.816 379.271 180.589C379.148 180.361 378.979 180.188 378.766 180.069C378.558 179.945 378.328 179.883 378.076 179.883C377.823 179.883 377.593 179.943 377.385 180.062C377.177 180.18 377.011 180.354 376.888 180.581C376.764 180.809 376.702 181.076 376.702 181.383C376.702 181.695 376.764 181.967 376.888 182.2C377.011 182.428 377.177 182.604 377.385 182.727C377.593 182.846 377.823 182.906 378.076 182.906C378.328 182.906 378.558 182.846 378.766 182.727C378.979 182.604 379.148 182.428 379.271 182.2C379.395 181.967 379.457 181.698 379.457 181.391ZM384.787 179.363L382.337 185.349H381.639L382.441 183.388L380.799 179.363H381.549L382.827 182.661L384.089 179.363H384.787Z" fill="#7B91B0"/>
<rect x="69.4868" y="110.456" width="7.4259" height="54.4566" rx="1.23765" fill="#0095FF"/>
<rect x="79.388" y="115.406" width="7.4259" height="49.506" rx="1.23765" fill="#00E096"/>
<rect x="120.231" y="98.0797" width="7.4259" height="66.8331" rx="1.23765" fill="#0095FF"/>
<rect x="130.132" y="118.501" width="7.4259" height="46.4119" rx="1.23765" fill="#00E096"/>
<rect x="168.499" y="142.636" width="7.4259" height="22.2777" rx="1.23765" fill="#0095FF"/>
<rect x="178.4" y="75.8018" width="7.4259" height="89.1108" rx="1.23765" fill="#00E096"/>
<rect x="217.387" y="103.03" width="7.4259" height="61.8825" rx="1.23765" fill="#0095FF"/>
<rect x="227.288" y="140.159" width="7.4259" height="24.753" rx="1.23765" fill="#00E096"/>
<rect x="265.036" y="117.882" width="7.4259" height="47.0307" rx="1.23765" fill="#0095FF"/>
<rect x="274.938" y="120.976" width="7.4259" height="43.9366" rx="1.23765" fill="#00E096"/>
<rect x="312.685" y="99.3169" width="7.4259" height="65.5955" rx="1.23765" fill="#0095FF"/>
<rect x="322.586" y="112.312" width="7.4259" height="52.6001" rx="1.23765" fill="#00E096"/>
<rect x="363.429" y="81.9907" width="7.4259" height="82.9226" rx="1.23765" fill="#0095FF"/>
<rect x="373.33" y="121.596" width="7.4259" height="43.3178" rx="1.23765" fill="#00E096"/>
<defs>
<filter id="filter0_d_0_239" x="0.797739" y="0.306441" width="423.895" height="241.961" filterUnits="userSpaceOnUse" color-interpolation-filters="sRGB">
<feFlood flood-opacity="0" result="BackgroundImageFix"/>
<feColorMatrix in="SourceAlpha" type="matrix" values="0 0 0 0 0 0 0 0 0 0 0 0 0 0 0 0 0 0 127 0" result="hardAlpha"/>
<feOffset dy="2.4753"/>
<feGaussianBlur stdDeviation="6.18825"/>
<feColorMatrix type="matrix" values="0 0 0 0 0.93198 0 0 0 0 0.93198 0 0 0 0 0.93198 0 0 0 0.501967 0"/>
<feBlend mode="normal" in2="BackgroundImageFix" result="effect1_dropShadow_0_239"/>
<feBlend mode="normal" in="SourceGraphic" in2="effect1_dropShadow_0_239" result="shape"/>
</filter>
<clipPath id="clip0_0_239">
<rect width="53.219" height="9.9012" fill="white" transform="translate(159.217 200.187)"/>
</clipPath>
<clipPath id="clip1_0_239">
<rect width="53.8378" height="9.9012" fill="white" transform="translate(237.189 200.187)"/>
</clipPath>
</defs>
</svg>
